<svg width="172" height="160" viewBox="0 0 172 160" fill="none" xmlns="http://www.w3.org/2000/svg">
<path d="M156.956 78.478C156.956 93.9995 152.353 109.172 143.73 122.078C135.107 134.984 122.85 145.042 108.51 150.982C94.1702 156.922 78.3909 158.476 63.1677 155.448C47.9445 152.42 33.961 144.946 22.9857 133.97C12.0103 122.995 4.53602 109.012 1.50793 93.7883C-1.52016 78.5651 0.0339681 62.7857 5.97378 48.4458C11.9136 34.1058 21.9723 21.8492 34.878 13.2259C47.7836 4.60265 62.9565 -1.85092e-07 78.478 0V15.6949C66.0607 15.6949 53.9222 19.377 43.5975 26.2757C33.2729 33.1744 25.2258 42.9798 20.4739 54.4519C15.722 65.924 14.4787 78.5476 16.9012 90.7264C19.3237 102.905 25.3032 114.092 34.0836 122.872C42.864 131.653 54.0509 137.632 66.2296 140.055C78.4083 142.477 91.0319 141.234 102.504 136.482C113.976 131.73 123.782 123.683 130.68 113.358C137.579 103.034 141.261 90.8953 141.261 78.478H156.956Z" fill="white"/>
<rect width="47.0868" height="15.6956" transform="translate(124.775 78.4783)" fill="white"/>
<rect width="73.7693" height="15.6956" transform="translate(141.263 73.7704) rotate(-90)" fill="#AA81FB"/>
<rect width="73.7693" height="15.6956" transform="translate(83.1768 0.000366211)" fill="#AA81FB"/>
</svg>
