<svg width="234" height="80" viewBox="0 0 234 80" fill="none" xmlns="http://www.w3.org/2000/svg">
<path d="M78.7993 40.0002C78.7993 47.7433 76.5032 55.3125 72.2014 61.7506C67.8996 68.1888 61.7852 73.2067 54.6316 76.1698C47.4779 79.133 39.6062 79.9082 32.0119 78.3977C24.4176 76.8871 17.4418 73.1584 11.9667 67.6832C6.49149 62.2081 2.76285 55.2323 1.25225 47.638C-0.258349 40.0437 0.516945 32.172 3.48009 25.0183C6.44324 17.8647 11.4611 11.7503 17.8993 7.44849C24.3374 3.14667 31.9066 0.850586 39.6497 0.850586V8.68014C33.4551 8.68014 27.3997 10.517 22.2491 13.9585C17.0986 17.4 13.0842 22.2916 10.7137 28.0146C8.34311 33.7376 7.72287 40.035 8.93136 46.1105C10.1399 52.186 13.1228 57.7667 17.503 62.1469C21.8832 66.5271 27.4639 69.51 33.5394 70.7185C39.6149 71.927 45.9123 71.3068 51.6353 68.9362C57.3583 66.5657 62.2499 62.5513 65.6914 57.4008C69.1329 52.2502 70.9698 46.1948 70.9698 40.0002H78.7993Z" fill="white"/>
<rect width="23.4898" height="7.82993" transform="translate(62.7476 40)" fill="white"/>
<rect width="36.8007" height="7.82993" transform="translate(70.9697 37.6514) rotate(-90)" fill="#BB65EA"/>
<rect width="36.8007" height="7.82993" transform="translate(41.998 0.850586)" fill="#BB65EA"/>
<path d="M109.949 30.6462C108.604 30.6462 107.327 30.3733 106.118 29.8273C104.928 29.2814 103.876 28.5308 102.959 27.5754C102.062 26.6005 101.36 25.4697 100.853 24.1829C100.347 22.896 100.093 21.502 100.093 20.0007C100.093 18.5774 100.347 17.2418 100.853 15.994C101.36 14.7266 102.072 13.6153 102.988 12.6599C103.905 11.7045 104.977 10.9539 106.206 10.408C107.434 9.86204 108.769 9.58907 110.212 9.58907C112.162 9.58907 113.829 10.0083 115.213 10.8467C116.617 11.6655 117.67 12.7574 118.372 14.1222L115.36 16.3449C114.833 15.3116 114.092 14.5219 113.137 13.976C112.201 13.4301 111.177 13.1571 110.066 13.1571C109.189 13.1571 108.389 13.3423 107.668 13.7128C106.946 14.0832 106.323 14.5901 105.796 15.2336C105.27 15.877 104.86 16.6179 104.568 17.4563C104.295 18.2946 104.158 19.1818 104.158 20.1177C104.158 21.112 104.305 22.0284 104.597 22.8668C104.909 23.7052 105.338 24.4363 105.884 25.0602C106.449 25.6841 107.102 26.1813 107.843 26.5518C108.584 26.9027 109.403 27.0782 110.3 27.0782C111.353 27.0782 112.357 26.8052 113.312 26.2593C114.287 25.7134 115.194 24.914 116.032 23.8611V27.8386C114.297 29.7104 112.269 30.6462 109.949 30.6462ZM115.74 22.779H111.558V19.8252H119.074V30.5H115.74V22.779ZM122.758 30.5V9.7353H131.942C132.897 9.7353 133.774 9.93028 134.574 10.3202C135.393 10.7102 136.094 11.2366 136.679 11.8995C137.284 12.5624 137.742 13.3033 138.054 14.1222C138.385 14.9411 138.551 15.7795 138.551 16.6374C138.551 17.5148 138.395 18.3629 138.083 19.1818C137.791 19.9812 137.362 20.6831 136.796 21.2875C136.231 21.8919 135.568 22.3598 134.808 22.6913L139.545 30.5H135.1L130.83 23.5394H126.794V30.5H122.758ZM126.794 20.0007H131.854C132.361 20.0007 132.809 19.8544 133.199 19.562C133.589 19.25 133.901 18.8406 134.135 18.3336C134.369 17.8267 134.486 17.2613 134.486 16.6374C134.486 15.9745 134.349 15.3993 134.076 14.9119C133.804 14.4049 133.453 14.0052 133.024 13.7128C132.614 13.4203 132.166 13.2741 131.678 13.2741H126.794V20.0007ZM151.2 30.6462C149.679 30.6462 148.295 30.3538 147.047 29.7688C145.819 29.1839 144.756 28.3943 143.859 27.3999C142.982 26.3861 142.3 25.2552 141.812 24.0074C141.325 22.74 141.081 21.4435 141.081 20.1177C141.081 18.7333 141.335 17.4173 141.841 16.1694C142.368 14.9021 143.08 13.781 143.976 12.8061C144.893 11.8118 145.965 11.0319 147.193 10.4665C148.441 9.88153 149.806 9.58907 151.288 9.58907C152.789 9.58907 154.154 9.89128 155.382 10.4957C156.63 11.1001 157.693 11.9093 158.57 12.9231C159.448 13.937 160.13 15.0678 160.617 16.3157C161.105 17.5635 161.349 18.8503 161.349 20.1761C161.349 21.541 161.095 22.857 160.588 24.1244C160.081 25.3722 159.37 26.4933 158.453 27.4877C157.556 28.4625 156.484 29.2327 155.236 29.7981C154.008 30.3635 152.663 30.6462 151.2 30.6462ZM145.176 20.1177C145.176 21.0145 145.312 21.8822 145.585 22.7206C145.858 23.5589 146.248 24.3096 146.755 24.9725C147.281 25.6159 147.915 26.1326 148.656 26.5225C149.416 26.893 150.274 27.0782 151.229 27.0782C152.204 27.0782 153.072 26.8832 153.832 26.4933C154.593 26.0838 155.226 25.5477 155.733 24.8848C156.24 24.2023 156.62 23.4517 156.874 22.6328C157.147 21.7944 157.283 20.956 157.283 20.1177C157.283 19.2208 157.137 18.3629 156.845 17.544C156.572 16.7056 156.172 15.9647 155.646 15.3213C155.139 14.6584 154.505 14.1417 153.745 13.7713C153.004 13.3813 152.165 13.1863 151.229 13.1863C150.235 13.1863 149.358 13.3911 148.597 13.8005C147.856 14.1905 147.232 14.7169 146.726 15.3798C146.219 16.0427 145.829 16.7836 145.556 17.6025C145.302 18.4214 145.176 19.2598 145.176 20.1177ZM170.968 9.7938H174.711L177.08 16.6666L179.479 9.7938H183.193L179.625 19.2403L182.257 25.8499L188.135 9.7353H192.522L184.216 30.5H180.736L177.08 21.7847L173.454 30.5H169.974L161.697 9.7353H166.025L171.933 25.8499L174.507 19.2403L170.968 9.7938ZM210.424 13.2741H203.785V30.5H199.778V13.2741H193.14V9.7353H210.424V13.2741ZM230.707 9.7353V30.5H226.7V21.6384H217.283V30.5H213.247V9.7353H217.283V18.1289H226.7V9.7353H230.707Z" fill="white"/>
<path d="M115.74 65.9612V69.5H101.321V48.7353H115.477V52.2741H105.357V57.2751H114.102V60.5507H105.357V65.9612H115.74ZM119.131 69.5V48.7353H126.677C128.938 48.7353 130.829 49.2032 132.35 50.1391C133.871 51.0555 135.012 52.3033 135.772 53.8826C136.532 55.4424 136.913 57.1777 136.913 59.0884C136.913 61.1941 136.493 63.0269 135.655 64.5867C134.817 66.1465 133.627 67.3553 132.087 68.2132C130.566 69.0711 128.763 69.5 126.677 69.5H119.131ZM132.847 59.0884C132.847 57.7431 132.604 56.5635 132.116 55.5496C131.629 54.5163 130.927 53.7169 130.011 53.1515C129.094 52.5665 127.983 52.2741 126.677 52.2741H123.167V65.9612H126.677C128.002 65.9612 129.123 65.6688 130.04 65.0838C130.956 64.4794 131.648 63.6605 132.116 62.6272C132.604 61.5743 132.847 60.3947 132.847 59.0884ZM148.938 69.6462C147.593 69.6462 146.316 69.3733 145.107 68.8273C143.918 68.2814 142.865 67.5308 141.949 66.5754C141.052 65.6005 140.35 64.4697 139.843 63.1829C139.336 61.896 139.083 60.502 139.083 59.0007C139.083 57.5774 139.336 56.2418 139.843 54.994C140.35 53.7266 141.061 52.6153 141.978 51.6599C142.894 50.7045 143.967 49.9539 145.195 49.408C146.423 48.862 147.759 48.5891 149.202 48.5891C151.151 48.5891 152.818 49.0083 154.203 49.8467C155.607 50.6655 156.659 51.7574 157.361 53.1222L154.349 55.3449C153.823 54.3116 153.082 53.5219 152.126 52.976C151.19 52.4301 150.167 52.1571 149.055 52.1571C148.178 52.1571 147.379 52.3423 146.657 52.7128C145.936 53.0832 145.312 53.5901 144.785 54.2336C144.259 54.877 143.85 55.6179 143.557 56.4563C143.284 57.2946 143.148 58.1818 143.148 59.1177C143.148 60.112 143.294 61.0284 143.586 61.8668C143.898 62.7052 144.327 63.4363 144.873 64.0602C145.439 64.6841 146.092 65.1813 146.833 65.5518C147.574 65.9027 148.393 66.0782 149.289 66.0782C150.342 66.0782 151.346 65.8052 152.302 65.2593C153.277 64.7134 154.183 63.914 155.022 62.8611V66.8386C153.286 68.7104 151.259 69.6462 148.938 69.6462ZM154.729 61.779H150.547V58.8252H158.063V69.5H154.729V61.779ZM176.166 65.9612V69.5H161.748V48.7353H175.903V52.2741H165.784V57.2751H174.528V60.5507H165.784V65.9612H176.166Z" fill="#AA81FB"/>
</svg>
