<svg width="32" height="32" viewBox="0 0 32 32" fill="none" xmlns="http://www.w3.org/2000/svg">
<path d="M22 7C21.2044 7 20.4413 7.31607 19.8787 7.87868C19.3161 8.44129 19 9.20435 19 10V22C19 22.7956 19.3161 23.5587 19.8787 24.1213C20.4413 24.6839 21.2044 25 22 25C22.7956 25 23.5587 24.6839 24.1213 24.1213C24.6839 23.5587 25 22.7956 25 22C25 21.2044 24.6839 20.4413 24.1213 19.8787C23.5587 19.3161 22.7956 19 22 19H10C9.20435 19 8.44129 19.3161 7.87868 19.8787C7.31607 20.4413 7 21.2044 7 22C7 22.7956 7.31607 23.5587 7.87868 24.1213C8.44129 24.6839 9.20435 25 10 25C10.7956 25 11.5587 24.6839 12.1213 24.1213C12.6839 23.5587 13 22.7956 13 22V10C13 9.20435 12.6839 8.44129 12.1213 7.87868C11.5587 7.31607 10.7956 7 10 7C9.20435 7 8.44129 7.31607 7.87868 7.87868C7.31607 8.44129 7 9.20435 7 10C7 10.7956 7.31607 11.5587 7.87868 12.1213C8.44129 12.6839 9.20435 13 10 13H22C22.7956 13 23.5587 12.6839 24.1213 12.1213C24.6839 11.5587 25 10.7956 25 10C25 9.20435 24.6839 8.44129 24.1213 7.87868C23.5587 7.31607 22.7956 7 22 7Z" stroke="#BB65EA" stroke-width="3" stroke-linecap="round" stroke-linejoin="round"/>
</svg>
