<svg width="33" height="33" viewBox="0 0 33 33" fill="none" xmlns="http://www.w3.org/2000/svg">
<g clip-path="url(#clip0_921_4553)">
<path fill-rule="evenodd" clip-rule="evenodd" d="M16.4998 5.48291C17.6398 5.48291 18.8092 5.51224 19.9425 5.56024L21.2812 5.62424L22.5625 5.70024L23.7625 5.78158L24.8585 5.86691C26.0479 5.95795 27.1671 6.46551 28.0192 7.3003C28.8713 8.13509 29.4017 9.24363 29.5172 10.4309L29.5705 10.9976L29.6705 12.2109C29.7638 13.4682 29.8332 14.8389 29.8332 16.1496C29.8332 17.4602 29.7638 18.8309 29.6705 20.0882L29.5705 21.3016C29.5532 21.4962 29.5358 21.6842 29.5172 21.8682C29.4017 23.0557 28.8711 24.1644 28.0187 24.9993C27.1663 25.8341 26.0468 26.3415 24.8572 26.4322L23.7638 26.5162L22.5638 26.5989L21.2812 26.6749L19.9425 26.7389C18.7956 26.7887 17.6478 26.8145 16.4998 26.8162C15.3519 26.8145 14.2041 26.7887 13.0572 26.7389L11.7185 26.6749L10.4372 26.5989L9.23717 26.5162L8.14117 26.4322C6.95177 26.3412 5.83257 25.8336 4.98047 24.9989C4.12836 24.1641 3.59794 23.0555 3.4825 21.8682L3.42917 21.3016L3.32917 20.0882C3.22722 18.7778 3.17296 17.464 3.1665 16.1496C3.1665 14.8389 3.23584 13.4682 3.32917 12.2109L3.42917 10.9976C3.4465 10.8029 3.46384 10.6149 3.4825 10.4309C3.59789 9.24384 4.12813 8.13546 4.97996 7.3007C5.83179 6.46594 6.95068 5.95825 8.13984 5.86691L9.2345 5.78158L10.4345 5.70024L11.7172 5.62424L13.0558 5.56024C14.2032 5.51042 15.3514 5.48464 16.4998 5.48291ZM13.8332 12.9162V19.3829C13.8332 19.9989 14.4998 20.3829 15.0332 20.0762L20.6332 16.8429C20.755 16.7728 20.8562 16.6717 20.9266 16.55C20.997 16.4283 21.0341 16.2902 21.0341 16.1496C21.0341 16.009 20.997 15.8709 20.9266 15.7491C20.8562 15.6274 20.755 15.5264 20.6332 15.4562L15.0332 12.2242C14.9115 12.154 14.7735 12.117 14.633 12.1171C14.4926 12.1171 14.3546 12.1541 14.2329 12.2244C14.1113 12.2946 14.0103 12.3957 13.9402 12.5174C13.87 12.6391 13.8331 12.7771 13.8332 12.9176V12.9162Z" fill="white"/>
</g>
<defs>
<clipPath id="clip0_921_4553">
<rect width="32" height="32" fill="white" transform="translate(0.5 0.149414)"/>
</clipPath>
</defs>
</svg>
