<svg width="52" height="52" viewBox="0 0 52 52" fill="none" xmlns="http://www.w3.org/2000/svg">
<g clip-path="url(#clip0_436_1957)">
<path d="M25.8367 36.9571C31.6946 36.9571 36.4434 32.2083 36.4434 26.3504C36.4434 20.4925 31.6946 15.7437 25.8367 15.7437C19.9788 15.7437 15.23 20.4925 15.23 26.3504C15.23 32.2083 19.9788 36.9571 25.8367 36.9571Z" stroke="#462576" stroke-width="4.24268" stroke-linecap="round" stroke-linejoin="round"/>
<path d="M25.8364 3.01568V7.25835" stroke="#462576" stroke-width="4.24268" stroke-linecap="round" stroke-linejoin="round"/>
<path d="M25.8364 45.4425V49.6852" stroke="#462576" stroke-width="4.24268" stroke-linecap="round" stroke-linejoin="round"/>
<path d="M9.33154 9.84643L12.3438 12.8587" stroke="#462576" stroke-width="4.24268" stroke-linecap="round" stroke-linejoin="round"/>
<path d="M39.3291 39.8421L42.3414 42.8544" stroke="#462576" stroke-width="4.24268" stroke-linecap="round" stroke-linejoin="round"/>
<path d="M2.50146 26.3504H6.74414" stroke="#462576" stroke-width="4.24268" stroke-linecap="round" stroke-linejoin="round"/>
<path d="M44.9287 26.3504H49.1714" stroke="#462576" stroke-width="4.24268" stroke-linecap="round" stroke-linejoin="round"/>
<path d="M9.33154 42.8544L12.3438 39.8421" stroke="#462576" stroke-width="4.24268" stroke-linecap="round" stroke-linejoin="round"/>
<path d="M39.3291 12.8587L42.3414 9.84643" stroke="#462576" stroke-width="4.24268" stroke-linecap="round" stroke-linejoin="round"/>
</g>
<defs>
<clipPath id="clip0_436_1957">
<rect width="50.9121" height="50.9121" fill="white" transform="translate(0.380859 0.894384)"/>
</clipPath>
</defs>
</svg>
