<svg width="32" height="33" viewBox="0 0 32 33" fill="none" xmlns="http://www.w3.org/2000/svg">
<g clip-path="url(#clip0_703_2909)">
<path d="M22.0001 14.9463H20.7401C20.366 13.4973 19.5929 12.1823 18.5088 11.1507C17.4246 10.1191 16.0728 9.41228 14.607 9.11057C13.1412 8.80885 11.6202 8.92433 10.2168 9.44388C8.81332 9.96343 7.58375 10.8662 6.66776 12.0497C5.75177 13.2331 5.1861 14.6498 5.03502 16.1386C4.88393 17.6275 5.1535 19.1289 5.81309 20.4723C6.47267 21.8156 7.49583 22.947 8.76629 23.7379C10.0368 24.5287 11.5036 24.9474 13.0001 24.9463H22.0001C23.3262 24.9463 24.598 24.4195 25.5356 23.4818C26.4733 22.5441 27.0001 21.2724 27.0001 19.9463C27.0001 18.6202 26.4733 17.3484 25.5356 16.4108C24.598 15.4731 23.3262 14.9463 22.0001 14.9463Z" stroke="#BB65EA" stroke-width="3" stroke-linecap="round" stroke-linejoin="round"/>
</g>
<defs>
<clipPath id="clip0_703_2909">
<rect width="24" height="24" fill="white" transform="translate(4 4.94629)"/>
</clipPath>
</defs>
</svg>
