<svg width="32" height="33" viewBox="0 0 32 33" fill="none" xmlns="http://www.w3.org/2000/svg">
<path d="M22 7.94629C21.2044 7.94629 20.4413 8.26236 19.8787 8.82497C19.3161 9.38758 19 10.1506 19 10.9463V22.9463C19 23.7419 19.3161 24.505 19.8787 25.0676C20.4413 25.6302 21.2044 25.9463 22 25.9463C22.7956 25.9463 23.5587 25.6302 24.1213 25.0676C24.6839 24.505 25 23.7419 25 22.9463C25 22.1506 24.6839 21.3876 24.1213 20.825C23.5587 20.2624 22.7956 19.9463 22 19.9463H10C9.20435 19.9463 8.44129 20.2624 7.87868 20.825C7.31607 21.3876 7 22.1506 7 22.9463C7 23.7419 7.31607 24.505 7.87868 25.0676C8.44129 25.6302 9.20435 25.9463 10 25.9463C10.7956 25.9463 11.5587 25.6302 12.1213 25.0676C12.6839 24.505 13 23.7419 13 22.9463V10.9463C13 10.1506 12.6839 9.38758 12.1213 8.82497C11.5587 8.26236 10.7956 7.94629 10 7.94629C9.20435 7.94629 8.44129 8.26236 7.87868 8.82497C7.31607 9.38758 7 10.1506 7 10.9463C7 11.7419 7.31607 12.505 7.87868 13.0676C8.44129 13.6302 9.20435 13.9463 10 13.9463H22C22.7956 13.9463 23.5587 13.6302 24.1213 13.0676C24.6839 12.505 25 11.7419 25 10.9463C25 10.1506 24.6839 9.38758 24.1213 8.82497C23.5587 8.26236 22.7956 7.94629 22 7.94629Z" stroke="#BB65EA" stroke-width="3" stroke-linecap="round" stroke-linejoin="round"/>
</svg>
