<svg width="225" height="150" viewBox="0 0 225 150" fill="none" xmlns="http://www.w3.org/2000/svg">
<g id="Frame 427320292">
<g clip-path="url(#clip0_965_3966)">
<rect y="0.207031" width="225" height="149.324" rx="16.2162" fill="white"/>
<g id="TruthWorthy Websites tend to have healthier conversion by Using [ Maximum ] potential of Marketing Compared to traditional recommendation">
<path d="M10.9927 23.5494V21.8945H20.1222V23.5494H16.6224V33.4232H14.4925V23.5494H10.9927ZM20.4073 33.4232V25.133H22.3551L22.4026 26.099H22.4501C22.6296 25.777 22.8751 25.4972 23.1865 25.2597C23.4979 25.0221 23.8569 24.9034 24.2634 24.9034C24.3742 24.9034 24.4877 24.9166 24.6038 24.943C24.7252 24.9694 24.8097 24.9931 24.8572 25.0142V26.8116C24.7622 26.7905 24.6593 26.7747 24.5484 26.7641C24.4428 26.7483 24.3241 26.7404 24.1921 26.7404C23.7962 26.7404 23.4452 26.8539 23.139 27.0808C22.8381 27.3078 22.6164 27.5929 22.4739 27.936V33.4232H20.4073ZM26.0924 30.3035V25.133H28.159V30.351C28.159 30.9475 28.2831 31.3672 28.5312 31.61C28.7846 31.8528 29.1356 31.9742 29.5843 31.9742C29.9749 31.9742 30.3233 31.8634 30.6295 31.6417C30.9357 31.4147 31.1706 31.1323 31.3342 30.7944V25.133H33.3929V33.4232H31.453L31.3975 32.4414H31.358C31.0993 32.7951 30.7562 33.0748 30.3286 33.2807C29.901 33.4813 29.4207 33.5816 28.8875 33.5816C28.0588 33.5816 27.3857 33.3308 26.8684 32.8294C26.3511 32.3279 26.0924 31.4859 26.0924 30.3035ZM34.4539 26.6533V25.133H39.4581V26.6533H34.4539ZM35.7762 31.0874V25.9327L35.7842 25.7031V23.106H37.827V31.032C37.827 31.4173 37.8983 31.6839 38.0408 31.8317C38.1886 31.9795 38.3998 32.0534 38.6743 32.0534C38.8009 32.0534 38.9276 32.0402 39.0543 32.0138C39.1863 31.9821 39.313 31.9425 39.4344 31.895V33.4153C39.3077 33.4786 39.1309 33.5341 38.9039 33.5816C38.6822 33.6291 38.4367 33.6528 38.1675 33.6528C37.4443 33.6528 36.8637 33.447 36.4255 33.0352C35.9927 32.6235 35.7762 31.9742 35.7762 31.0874ZM40.8676 33.4232V21.3165H42.9263V26.2019C43.1849 25.8377 43.5254 25.5421 43.9477 25.3151C44.3753 25.0828 44.882 24.9667 45.468 24.9667C46.2439 24.9667 46.8827 25.2122 47.3841 25.7031C47.8909 26.1887 48.1443 26.9858 48.1443 28.0944V33.4232H46.0777V28.1973C46.0777 27.6166 45.9483 27.2023 45.6897 26.9542C45.431 26.7061 45.0773 26.582 44.6286 26.582C44.2275 26.582 43.8817 26.6929 43.5914 26.9146C43.3063 27.131 43.0846 27.4292 42.9263 27.8093V33.4232H40.8676ZM52.1825 33.4786L49.427 21.8945H51.5332L53.3227 29.9155C53.3649 30.0897 53.394 30.2322 53.4098 30.3431C53.4256 30.4487 53.4441 30.5912 53.4652 30.7707H53.5365C53.5523 30.5912 53.5681 30.4487 53.584 30.3431C53.5998 30.2322 53.6289 30.0897 53.6711 29.9155L55.6348 21.8945H57.931L59.9422 29.9076C59.9844 30.0818 60.0135 30.2243 60.0293 30.3352C60.0451 30.446 60.0636 30.5912 60.0847 30.7707H60.1481C60.1692 30.5912 60.1877 30.446 60.2035 30.3352C60.2246 30.2243 60.2536 30.0818 60.2906 29.9076L62.0088 21.8945H63.9329L61.217 33.4786H58.9287L56.8858 25.4418C56.8436 25.2676 56.8066 25.1066 56.775 24.9588C56.7486 24.8057 56.7248 24.6421 56.7037 24.4679H56.6404C56.6192 24.6421 56.5955 24.8057 56.5691 24.9588C56.5427 25.1066 56.5084 25.2676 56.4662 25.4418L54.4233 33.4786H52.1825ZM64.5505 29.4008V29.1475C64.5505 27.8647 64.9332 26.8354 65.6986 26.0594C66.4641 25.2834 67.4697 24.8955 68.7154 24.8955C69.9559 24.8955 70.9589 25.2834 71.7243 26.0594C72.4897 26.8354 72.8724 27.8647 72.8724 29.1475V29.4008C72.8724 30.6888 72.4897 31.7208 71.7243 32.4968C70.9589 33.2728 69.9559 33.6608 68.7154 33.6608C67.4697 33.6608 66.4641 33.2728 65.6986 32.4968C64.9332 31.7208 64.5505 30.6888 64.5505 29.4008ZM66.6567 29.0604V29.4879C66.6567 30.285 66.8336 30.9158 67.1872 31.3804C67.5409 31.8396 68.0503 32.0692 68.7154 32.0692C69.3805 32.0692 69.8873 31.8396 70.2357 31.3804C70.5894 30.9158 70.7662 30.285 70.7662 29.4879V29.0604C70.7662 28.2686 70.5867 27.6404 70.2278 27.1759C69.8741 26.7113 69.37 26.4791 68.7154 26.4791C68.0556 26.4791 67.5462 26.7113 67.1872 27.1759C66.8336 27.6404 66.6567 28.2686 66.6567 29.0604ZM74.5352 33.4232V25.133H76.4831L76.5306 26.099H76.5781C76.7576 25.777 77.003 25.4972 77.3145 25.2597C77.6259 25.0221 77.9849 24.9034 78.3913 24.9034C78.5022 24.9034 78.6157 24.9166 78.7318 24.943C78.8532 24.9694 78.9377 24.9931 78.9852 25.0142V26.8116C78.8902 26.7905 78.7872 26.7747 78.6764 26.7641C78.5708 26.7483 78.452 26.7404 78.3201 26.7404C77.9241 26.7404 77.5731 26.8539 77.2669 27.0808C76.9661 27.3078 76.7444 27.5929 76.6018 27.936V33.4232H74.5352ZM79.6186 26.6533V25.133H84.6228V26.6533H79.6186ZM80.9409 31.0874V25.9327L80.9489 25.7031V23.106H82.9917V31.032C82.9917 31.4173 83.063 31.6839 83.2055 31.8317C83.3533 31.9795 83.5645 32.0534 83.8389 32.0534C83.9656 32.0534 84.0923 32.0402 84.219 32.0138C84.351 31.9821 84.4777 31.9425 84.5991 31.895V33.4153C84.4724 33.4786 84.2956 33.5341 84.0686 33.5816C83.8469 33.6291 83.6014 33.6528 83.3322 33.6528C82.609 33.6528 82.0283 33.447 81.5902 33.0352C81.1574 32.6235 80.9409 31.9742 80.9409 31.0874ZM86.0323 33.4232V21.3165H88.091V26.2019C88.3496 25.8377 88.6901 25.5421 89.1124 25.3151C89.54 25.0828 90.0467 24.9667 90.6327 24.9667C91.4086 24.9667 92.0474 25.2122 92.5488 25.7031C93.0556 26.1887 93.309 26.9858 93.309 28.0944V33.4232H91.2424V28.1973C91.2424 27.6166 91.113 27.2023 90.8544 26.9542C90.5957 26.7061 90.242 26.582 89.7933 26.582C89.3922 26.582 89.0464 26.6929 88.7561 26.9146C88.471 27.131 88.2493 27.4292 88.091 27.8093V33.4232H86.0323ZM94.9401 36.7171L94.9559 35.1494C95.0879 35.1916 95.2357 35.2233 95.3993 35.2444C95.563 35.2708 95.7213 35.284 95.8744 35.284C96.2387 35.284 96.5527 35.1599 96.8167 34.9118C97.0859 34.669 97.3366 34.1622 97.5689 33.3915L97.5135 33.3836L94.3383 25.133H96.4049L98.1786 30.161C98.2472 30.3616 98.3026 30.549 98.3449 30.7232C98.3924 30.8921 98.4346 31.061 98.4716 31.2299H98.5191C98.556 31.061 98.5982 30.8921 98.6458 30.7232C98.6933 30.5542 98.7487 30.3668 98.812 30.161L100.514 25.133H102.383L98.9941 34.4288C98.6985 35.2312 98.3079 35.8382 97.8223 36.25C97.3366 36.667 96.7401 36.8755 96.0328 36.8755C95.8005 36.8755 95.5973 36.8623 95.4231 36.8359C95.2489 36.8095 95.0879 36.7699 94.9401 36.7171ZM109.335 33.4786L106.58 21.8945H108.686L110.475 29.9155C110.518 30.0897 110.547 30.2322 110.562 30.3431C110.578 30.4487 110.597 30.5912 110.618 30.7707H110.689C110.705 30.5912 110.721 30.4487 110.737 30.3431C110.752 30.2322 110.782 30.0897 110.824 29.9155L112.787 21.8945H115.084L117.095 29.9076C117.137 30.0818 117.166 30.2243 117.182 30.3352C117.198 30.446 117.216 30.5912 117.237 30.7707H117.301C117.322 30.5912 117.34 30.446 117.356 30.3352C117.377 30.2243 117.406 30.0818 117.443 29.9076L119.161 21.8945H121.086L118.37 33.4786H116.081L114.038 25.4418C113.996 25.2676 113.959 25.1066 113.928 24.9588C113.901 24.8057 113.877 24.6421 113.856 24.4679H113.793C113.772 24.6421 113.748 24.8057 113.722 24.9588C113.695 25.1066 113.661 25.2676 113.619 25.4418L111.576 33.4786H109.335ZM121.703 29.4008V29.1475C121.703 27.8753 122.075 26.8486 122.82 26.0673C123.564 25.2861 124.527 24.8955 125.71 24.8955C126.897 24.8955 127.821 25.2623 128.481 25.9961C129.146 26.7298 129.479 27.7354 129.479 29.0129V29.7651H123.065V28.4111H127.436V28.229C127.436 27.7275 127.288 27.3025 126.992 26.9542C126.702 26.6005 126.28 26.4236 125.726 26.4236C125.082 26.4236 124.593 26.6665 124.261 27.1521C123.933 27.6377 123.77 28.2738 123.77 29.0604V29.48C123.77 30.256 123.944 30.8868 124.292 31.3724C124.646 31.8581 125.177 32.1009 125.884 32.1009C126.354 32.1009 126.758 31.99 127.095 31.7683C127.439 31.5466 127.716 31.288 127.927 30.9924L129.36 31.9505C129.101 32.4203 128.671 32.8241 128.069 33.1619C127.468 33.4945 126.75 33.6608 125.916 33.6608C124.591 33.6608 123.556 33.2701 122.812 32.4889C122.073 31.7024 121.703 30.673 121.703 29.4008ZM131.054 33.4232V21.3165H133.113V26.0277C133.367 25.7005 133.691 25.4418 134.087 25.2518C134.488 25.0617 134.958 24.9667 135.496 24.9667C136.557 24.9667 137.402 25.3573 138.03 26.1386C138.658 26.9146 138.973 27.9149 138.973 29.1395V29.3929C138.973 30.6281 138.656 31.6364 138.022 32.4176C137.394 33.1936 136.55 33.5816 135.489 33.5816C134.95 33.5816 134.462 33.4734 134.024 33.2569C133.586 33.0405 133.271 32.7687 133.081 32.4414H133.042L132.986 33.4232H131.054ZM133.113 30.739C133.25 31.0663 133.475 31.3592 133.786 31.6179C134.098 31.8713 134.491 31.998 134.966 31.998C135.615 31.998 136.093 31.7604 136.399 31.2853C136.711 30.8103 136.866 30.2058 136.866 29.4721V29.0762C136.866 28.3425 136.711 27.7407 136.399 27.2709C136.093 26.7958 135.61 26.5582 134.95 26.5582C134.486 26.5582 134.098 26.6876 133.786 26.9462C133.475 27.1996 133.25 27.4899 133.113 27.8172V30.739ZM140.121 30.8657H142.148V30.9686C142.148 31.3909 142.293 31.7024 142.583 31.9029C142.873 32.0983 143.267 32.1959 143.763 32.1959C144.254 32.1959 144.631 32.1009 144.895 31.9109C145.164 31.7208 145.299 31.4701 145.299 31.1586C145.299 30.8419 145.172 30.607 144.919 30.4539C144.666 30.2956 144.09 30.1187 143.193 29.9234C142.248 29.7176 141.538 29.414 141.063 29.0129C140.593 28.6064 140.358 28.068 140.358 27.3976C140.358 26.6427 140.662 26.0383 141.269 25.5843C141.881 25.1251 142.707 24.8955 143.747 24.8955C144.782 24.8955 145.61 25.1304 146.233 25.6002C146.856 26.0647 147.168 26.7008 147.168 27.5084V27.5797H145.157V27.4688C145.157 27.1257 145.04 26.8565 144.808 26.6612C144.576 26.4659 144.22 26.3682 143.739 26.3682C143.264 26.3682 142.916 26.4527 142.694 26.6216C142.478 26.7852 142.369 27.0017 142.369 27.2709C142.369 27.5348 142.501 27.746 142.765 27.9043C143.034 28.0574 143.623 28.2316 144.531 28.4269C145.476 28.6328 146.181 28.9363 146.645 29.3375C147.11 29.7334 147.342 30.2903 147.342 31.0082C147.342 31.8211 147.038 32.4678 146.431 32.9481C145.83 33.4232 144.943 33.6608 143.771 33.6608C142.599 33.6608 141.696 33.4206 141.063 32.9402C140.435 32.4599 140.121 31.7921 140.121 30.9369V30.8657ZM149.036 33.4232V25.133H151.103V33.4232H149.036ZM148.846 22.7338C148.846 22.4171 148.952 22.1505 149.163 21.9341C149.374 21.7124 149.678 21.6015 150.074 21.6015C150.464 21.6015 150.765 21.7124 150.976 21.9341C151.193 22.1505 151.301 22.4171 151.301 22.7338C151.301 23.0558 151.193 23.3277 150.976 23.5494C150.765 23.7658 150.462 23.874 150.066 23.874C149.675 23.874 149.374 23.7658 149.163 23.5494C148.952 23.3277 148.846 23.0558 148.846 22.7338ZM152.212 26.6533V25.133H157.216V26.6533H152.212ZM153.534 31.0874V25.9327L153.542 25.7031V23.106H155.585V31.032C155.585 31.4173 155.656 31.6839 155.798 31.8317C155.946 31.9795 156.157 32.0534 156.432 32.0534C156.559 32.0534 156.685 32.0402 156.812 32.0138C156.944 31.9821 157.071 31.9425 157.192 31.895V33.4153C157.065 33.4786 156.888 33.5341 156.661 33.5816C156.44 33.6291 156.194 33.6528 155.925 33.6528C155.202 33.6528 154.621 33.447 154.183 33.0352C153.75 32.6235 153.534 31.9742 153.534 31.0874ZM158.158 29.4008V29.1475C158.158 27.8753 158.53 26.8486 159.274 26.0673C160.019 25.2861 160.982 24.8955 162.165 24.8955C163.352 24.8955 164.276 25.2623 164.936 25.9961C165.601 26.7298 165.934 27.7354 165.934 29.0129V29.7651H159.52V28.4111H163.891V28.229C163.891 27.7275 163.743 27.3025 163.447 26.9542C163.157 26.6005 162.735 26.4236 162.18 26.4236C161.536 26.4236 161.048 26.6665 160.716 27.1521C160.388 27.6377 160.225 28.2738 160.225 29.0604V29.48C160.225 30.256 160.399 30.8868 160.747 31.3724C161.101 31.8581 161.631 32.1009 162.339 32.1009C162.809 32.1009 163.212 31.99 163.55 31.7683C163.893 31.5466 164.17 31.288 164.382 30.9924L165.815 31.9505C165.556 32.4203 165.126 32.8241 164.524 33.1619C163.922 33.4945 163.204 33.6608 162.37 33.6608C161.045 33.6608 160.011 33.2701 159.267 32.4889C158.528 31.7024 158.158 30.673 158.158 29.4008ZM166.995 30.8657H169.022V30.9686C169.022 31.3909 169.167 31.7024 169.457 31.9029C169.747 32.0983 170.141 32.1959 170.637 32.1959C171.128 32.1959 171.505 32.1009 171.769 31.9109C172.038 31.7208 172.173 31.4701 172.173 31.1586C172.173 30.8419 172.046 30.607 171.793 30.4539C171.54 30.2956 170.964 30.1187 170.067 29.9234C169.122 29.7176 168.412 29.414 167.937 29.0129C167.467 28.6064 167.232 28.068 167.232 27.3976C167.232 26.6427 167.536 26.0383 168.143 25.5843C168.755 25.1251 169.581 24.8955 170.621 24.8955C171.656 24.8955 172.484 25.1304 173.107 25.6002C173.73 26.0647 174.042 26.7008 174.042 27.5084V27.5797H172.03V27.4688C172.03 27.1257 171.914 26.8565 171.682 26.6612C171.45 26.4659 171.093 26.3682 170.613 26.3682C170.138 26.3682 169.79 26.4527 169.568 26.6216C169.352 26.7852 169.243 27.0017 169.243 27.2709C169.243 27.5348 169.375 27.746 169.639 27.9043C169.908 28.0574 170.497 28.2316 171.405 28.4269C172.35 28.6328 173.055 28.9363 173.519 29.3375C173.984 29.7334 174.216 30.2903 174.216 31.0082C174.216 31.8211 173.912 32.4678 173.305 32.9481C172.704 33.4232 171.817 33.6608 170.645 33.6608C169.473 33.6608 168.57 33.4206 167.937 32.9402C167.309 32.4599 166.995 31.7921 166.995 30.9369V30.8657ZM178.753 26.6533V25.133H183.757V26.6533H178.753ZM180.075 31.0874V25.9327L180.083 25.7031V23.106H182.126V31.032C182.126 31.4173 182.197 31.6839 182.34 31.8317C182.488 31.9795 182.699 32.0534 182.973 32.0534C183.1 32.0534 183.227 32.0402 183.353 32.0138C183.485 31.9821 183.612 31.9425 183.733 31.895V33.4153C183.607 33.4786 183.43 33.5341 183.203 33.5816C182.981 33.6291 182.736 33.6528 182.466 33.6528C181.743 33.6528 181.163 33.447 180.725 33.0352C180.292 32.6235 180.075 31.9742 180.075 31.0874ZM184.699 29.4008V29.1475C184.699 27.8753 185.072 26.8486 185.816 26.0673C186.56 25.2861 187.523 24.8955 188.706 24.8955C189.894 24.8955 190.817 25.2623 191.477 25.9961C192.142 26.7298 192.475 27.7354 192.475 29.0129V29.7651H186.061V28.4111H190.432V28.229C190.432 27.7275 190.284 27.3025 189.989 26.9542C189.698 26.6005 189.276 26.4236 188.722 26.4236C188.078 26.4236 187.589 26.6665 187.257 27.1521C186.93 27.6377 186.766 28.2738 186.766 29.0604V29.48C186.766 30.256 186.94 30.8868 187.289 31.3724C187.642 31.8581 188.173 32.1009 188.88 32.1009C189.35 32.1009 189.754 31.99 190.092 31.7683C190.435 31.5466 190.712 31.288 190.923 30.9924L192.356 31.9505C192.098 32.4203 191.667 32.8241 191.066 33.1619C190.464 33.4945 189.746 33.6608 188.912 33.6608C187.587 33.6608 186.552 33.2701 185.808 32.4889C185.069 31.7024 184.699 30.673 184.699 29.4008ZM194.051 33.4232V25.133H195.991L196.038 26.1148H196.086C196.323 25.7717 196.656 25.4946 197.083 25.2834C197.516 25.0723 197.991 24.9667 198.509 24.9667C199.353 24.9667 200.037 25.2069 200.559 25.6873C201.087 26.1676 201.351 26.9964 201.351 28.1735V33.4232H199.292V28.1339C199.292 27.5691 199.168 27.1706 198.92 26.9383C198.672 26.7008 198.321 26.582 197.867 26.582C197.487 26.582 197.141 26.6902 196.83 26.9066C196.518 27.1178 196.278 27.4055 196.109 27.7697V33.4232H194.051ZM202.927 29.4008V29.1475C202.927 27.9228 203.254 26.9225 203.909 26.1465C204.563 25.3653 205.421 24.9746 206.482 24.9746C207.026 24.9746 207.493 25.0723 207.884 25.2676C208.274 25.4576 208.578 25.7084 208.794 26.0198V21.3165H210.853V33.4232H208.913L208.865 32.4176H208.826C208.636 32.7449 208.332 33.022 207.915 33.249C207.503 33.4707 207.028 33.5816 206.49 33.5816C205.392 33.5816 204.524 33.191 203.885 32.4097C203.246 31.6285 202.927 30.6255 202.927 29.4008ZM205.033 29.4721C205.033 30.2111 205.191 30.8182 205.508 31.2933C205.83 31.7631 206.318 31.998 206.973 31.998C207.422 31.998 207.799 31.8792 208.105 31.6417C208.417 31.3988 208.644 31.1138 208.786 30.7865V27.7618C208.649 27.4345 208.427 27.1521 208.121 26.9146C207.82 26.6717 207.44 26.5503 206.981 26.5503C206.332 26.5503 205.843 26.7879 205.516 27.263C205.194 27.738 205.033 28.3425 205.033 29.0762V29.4721ZM10.8105 49.6533V48.133H15.8148V49.6533H10.8105ZM12.1329 54.0874V48.9327L12.1408 48.7031V46.106H14.1836V54.032C14.1836 54.4173 14.2549 54.6839 14.3974 54.8317C14.5452 54.9795 14.7564 55.0534 15.0309 55.0534C15.1576 55.0534 15.2843 55.0402 15.4109 55.0138C15.5429 54.9821 15.6696 54.9425 15.791 54.895V56.4153C15.6643 56.4786 15.4875 56.5341 15.2605 56.5816C15.0388 56.6291 14.7933 56.6528 14.5241 56.6528C13.8009 56.6528 13.2203 56.447 12.7821 56.0352C12.3493 55.6235 12.1329 54.9742 12.1329 54.0874ZM16.5987 52.4008V52.1475C16.5987 50.8647 16.9814 49.8354 17.7468 49.0594C18.5122 48.2834 19.5178 47.8955 20.7636 47.8955C22.0041 47.8955 23.007 48.2834 23.7724 49.0594C24.5378 49.8354 24.9206 50.8647 24.9206 52.1475V52.4008C24.9206 53.6888 24.5378 54.7208 23.7724 55.4968C23.007 56.2728 22.0041 56.6608 20.7636 56.6608C19.5178 56.6608 18.5122 56.2728 17.7468 55.4968C16.9814 54.7208 16.5987 53.6888 16.5987 52.4008ZM18.7049 52.0604V52.4879C18.7049 53.285 18.8817 53.9158 19.2354 54.3804C19.5891 54.8396 20.0984 55.0692 20.7636 55.0692C21.4287 55.0692 21.9354 54.8396 22.2838 54.3804C22.6375 53.9158 22.8143 53.285 22.8143 52.4879V52.0604C22.8143 51.2686 22.6349 50.6404 22.2759 50.1759C21.9222 49.7113 21.4181 49.4791 20.7636 49.4791C20.1037 49.4791 19.5943 49.7113 19.2354 50.1759C18.8817 50.6404 18.7049 51.2686 18.7049 52.0604ZM30.5266 56.4232V44.3165H32.5853V49.2019C32.8439 48.8377 33.1844 48.5421 33.6067 48.3151C34.0343 48.0828 34.541 47.9667 35.127 47.9667C35.9029 47.9667 36.5416 48.2122 37.0431 48.7031C37.5499 49.1887 37.8033 49.9858 37.8033 51.0944V56.4232H35.7366V51.1973C35.7366 50.6166 35.6073 50.2023 35.3487 49.9542C35.09 49.7061 34.7363 49.582 34.2876 49.582C33.8865 49.582 33.5407 49.6929 33.2504 49.9146C32.9653 50.131 32.7436 50.4292 32.5853 50.8093V56.4232H30.5266ZM39.4423 53.9845C39.4423 53.0923 39.7881 52.414 40.4796 51.9495C41.1764 51.4797 42.0579 51.2448 43.1242 51.2448H44.8345V50.738C44.8345 50.3263 44.7263 49.9911 44.5099 49.7324C44.2987 49.4738 43.9292 49.3445 43.4013 49.3445C42.8682 49.3445 42.4881 49.4527 42.2611 49.6691C42.0342 49.8802 41.9207 50.1363 41.9207 50.4372V50.5322H39.8936V50.4292C39.8936 49.7166 40.2236 49.1175 40.8834 48.6318C41.5432 48.1409 42.4089 47.8955 43.4805 47.8955C44.5574 47.8955 45.3967 48.1304 45.9985 48.6002C46.6002 49.0647 46.9011 49.78 46.9011 50.746V54.5466C46.9011 54.8845 46.9302 55.2065 46.9882 55.5126C47.0463 55.8135 47.1255 56.0748 47.2258 56.2965V56.4232H45.2067C45.138 56.2965 45.0773 56.1329 45.0245 55.9323C44.9718 55.7317 44.9374 55.5338 44.9216 55.3384C44.7474 55.6604 44.436 55.9481 43.9873 56.2015C43.5386 56.4496 42.9738 56.5737 42.2928 56.5737C41.4852 56.5737 40.8069 56.3572 40.2579 55.9244C39.7142 55.4862 39.4423 54.8396 39.4423 53.9845ZM41.501 53.8182C41.501 54.2194 41.6171 54.5387 41.8494 54.7763C42.0817 55.0138 42.4459 55.1326 42.9421 55.1326C43.4594 55.1326 43.9028 54.9637 44.2723 54.6258C44.6471 54.2827 44.8345 53.8921 44.8345 53.4539V52.5354H43.4172C42.7732 52.5354 42.2928 52.6489 41.9761 52.8759C41.6594 53.0976 41.501 53.4117 41.501 53.8182ZM47.7721 48.133H49.8387L51.6361 53.2164C51.7048 53.417 51.7602 53.6017 51.8024 53.7707C51.8446 53.9396 51.8763 54.0927 51.8974 54.2299H51.9449C51.9661 54.0927 51.9977 53.9422 52.04 53.7786C52.0822 53.6097 52.135 53.4223 52.1983 53.2164L53.9957 48.133H55.8723L52.7288 56.4232H50.9314L47.7721 48.133ZM56.284 52.4008V52.1475C56.284 50.8753 56.6562 49.8486 57.4005 49.0673C58.1448 48.2861 59.1082 47.8955 60.2906 47.8955C61.4783 47.8955 62.4021 48.2623 63.0619 48.9961C63.727 49.7298 64.0596 50.7354 64.0596 52.0129V52.7651H57.646V51.4111H62.0167V51.229C62.0167 50.7275 61.8689 50.3025 61.5733 49.9542C61.283 49.6005 60.8607 49.4236 60.3064 49.4236C59.6624 49.4236 59.1741 49.6665 58.8416 50.1521C58.5143 50.6377 58.3507 51.2738 58.3507 52.0604V52.48C58.3507 53.256 58.5249 53.8868 58.8733 54.3724C59.2269 54.8581 59.7574 55.1009 60.4648 55.1009C60.9346 55.1009 61.3384 54.99 61.6763 54.7683C62.0194 54.5466 62.2965 54.288 62.5077 53.9924L63.9408 54.9505C63.6822 55.4203 63.252 55.8241 62.6502 56.1619C62.0484 56.4945 61.3305 56.6608 60.4965 56.6608C59.1715 56.6608 58.1369 56.2701 57.3926 55.4889C56.6536 54.7024 56.284 53.673 56.284 52.4008ZM11.4941 69.4232V62.3286H12.3948V65.0722C12.5827 64.8444 12.8121 64.6658 13.083 64.5364C13.354 64.4071 13.6558 64.3425 13.9883 64.3425C14.5026 64.3425 14.9136 64.4903 15.2216 64.7859C15.5326 65.0784 15.6881 65.5711 15.6881 66.2639V69.4232H14.7828V66.2547C14.7828 65.8451 14.6889 65.5526 14.501 65.3771C14.3132 65.2016 14.0468 65.1138 13.702 65.1138C13.4064 65.1138 13.1462 65.1908 12.9214 65.3447C12.6997 65.4956 12.5242 65.6927 12.3948 65.936V69.4232H11.4941ZM16.7181 67.0029V66.8551C16.7181 66.1038 16.9321 65.4895 17.3601 65.0122C17.7881 64.5349 18.3532 64.2963 19.0552 64.2963C19.7604 64.2963 20.3023 64.5195 20.6811 64.966C21.0598 65.4125 21.2492 66.0145 21.2492 66.772V67.1507H17.277V66.4256H20.3393V66.4117C20.3393 66.0206 20.2392 65.6942 20.0391 65.4325C19.8389 65.1708 19.5125 65.0399 19.0599 65.0399C18.5949 65.0399 18.2408 65.2154 17.9975 65.5665C17.7543 65.9144 17.6326 66.344 17.6326 66.8551V67.0029C17.6326 67.511 17.7604 67.9406 18.016 68.2916C18.2716 68.6426 18.6657 68.8181 19.1984 68.8181C19.5279 68.8181 19.8112 68.7504 20.0483 68.6149C20.2854 68.4794 20.4763 68.3178 20.621 68.1299L21.203 68.6149C21.0429 68.8489 20.7904 69.066 20.4455 69.2662C20.1037 69.4632 19.688 69.5618 19.1984 69.5618C18.3978 69.5618 17.7835 69.3231 17.3555 68.8459C16.9306 68.3686 16.7181 67.7543 16.7181 67.0029ZM22.0252 67.9544C22.0252 67.4494 22.233 67.0568 22.6487 66.7766C23.0675 66.4933 23.5971 66.3517 24.2376 66.3517H25.4247V65.9683C25.4247 65.6881 25.3415 65.4602 25.1753 65.2847C25.0121 65.1061 24.7318 65.0168 24.3346 65.0168C23.9343 65.0168 23.6479 65.0953 23.4755 65.2524C23.3061 65.4063 23.2215 65.5849 23.2215 65.7882V65.8113H22.3208V65.7882C22.3208 65.3909 22.504 65.043 22.8704 64.7443C23.2369 64.4456 23.7326 64.2963 24.3577 64.2963C24.9797 64.2963 25.4632 64.4364 25.808 64.7166C26.1529 64.9968 26.3254 65.414 26.3254 65.9683V68.3147C26.3254 68.5148 26.3407 68.7042 26.3715 68.8828C26.4054 69.0583 26.4501 69.2138 26.5055 69.3493V69.4232H25.6325C25.5863 69.3432 25.5448 69.24 25.5078 69.1138C25.4739 68.9844 25.4524 68.8566 25.4431 68.7304C25.32 68.9367 25.1214 69.1199 24.8473 69.28C24.5733 69.4371 24.2191 69.5156 23.785 69.5156C23.2984 69.5156 22.8828 69.3816 22.5379 69.1138C22.1961 68.8459 22.0252 68.4594 22.0252 67.9544ZM22.9259 67.9082C22.9259 68.1854 23.0121 68.4024 23.1845 68.5595C23.357 68.7165 23.6264 68.7951 23.9928 68.7951C24.3562 68.7951 24.6857 68.678 24.9813 68.444C25.2769 68.2069 25.4247 67.9575 25.4247 67.6958V66.9983H24.3346C23.8727 66.9983 23.5217 67.0814 23.2815 67.2477C23.0444 67.4109 22.9259 67.6311 22.9259 67.9082ZM27.7249 69.4232V62.3286H28.6256V69.4232H27.7249ZM29.3507 65.1415V64.4348H32.2883V65.1415H29.3507ZM30.2699 68.1807V64.8551V64.7166V63.3633H31.1706V68.1807C31.1706 68.3963 31.2152 68.5503 31.3045 68.6426C31.3969 68.735 31.5401 68.7812 31.7341 68.7812C31.8264 68.7812 31.9157 68.772 32.002 68.7535C32.0882 68.735 32.1775 68.7104 32.2698 68.6796V69.4232C32.1836 69.4602 32.0728 69.4925 31.9373 69.5202C31.8049 69.5479 31.6602 69.5618 31.5031 69.5618C31.1274 69.5618 30.8272 69.4509 30.6024 69.2292C30.3807 69.0044 30.2699 68.6549 30.2699 68.1807ZM33.2029 69.4232V62.3286H34.1035V65.0722C34.2914 64.8444 34.5208 64.6658 34.7918 64.5364C35.0627 64.4071 35.3645 64.3425 35.6971 64.3425C36.2113 64.3425 36.6224 64.4903 36.9303 64.7859C37.2413 65.0784 37.3968 65.5711 37.3968 66.2639V69.4232H36.4915V66.2547C36.4915 65.8451 36.3976 65.5526 36.2097 65.3771C36.0219 65.2016 35.7556 65.1138 35.4107 65.1138C35.1151 65.1138 34.8549 65.1908 34.6301 65.3447C34.4084 65.4956 34.2329 65.6927 34.1035 65.936V69.4232H33.2029ZM38.7594 69.4232V64.4348H39.6601V69.4232H38.7594ZM38.667 62.9937C38.667 62.8459 38.7132 62.7228 38.8056 62.6242C38.901 62.5226 39.0365 62.4718 39.212 62.4718C39.3845 62.4718 39.5169 62.5226 39.6092 62.6242C39.7047 62.7228 39.7524 62.8459 39.7524 62.9937C39.7524 63.1446 39.7047 63.2709 39.6092 63.3725C39.5169 63.471 39.3845 63.5203 39.212 63.5203C39.0365 63.5203 38.901 63.471 38.8056 63.3725C38.7132 63.2709 38.667 63.1446 38.667 62.9937ZM40.7824 67.0029V66.8551C40.7824 66.1038 40.9964 65.4895 41.4245 65.0122C41.8525 64.5349 42.4175 64.2963 43.1196 64.2963C43.8247 64.2963 44.3667 64.5195 44.7454 64.966C45.1242 65.4125 45.3136 66.0145 45.3136 66.772V67.1507H41.3413V66.4256H44.4036V66.4117C44.4036 66.0206 44.3036 65.6942 44.1034 65.4325C43.9033 65.1708 43.5769 65.0399 43.1242 65.0399C42.6592 65.0399 42.3051 65.2154 42.0619 65.5665C41.8186 65.9144 41.697 66.344 41.697 66.8551V67.0029C41.697 67.511 41.8248 67.9406 42.0803 68.2916C42.3359 68.6426 42.7301 68.8181 43.2628 68.8181C43.5923 68.8181 43.8755 68.7504 44.1126 68.6149C44.3498 68.4794 44.5407 68.3178 44.6854 68.1299L45.2674 68.6149C45.1072 68.8489 44.8547 69.066 44.5099 69.2662C44.1681 69.4632 43.7524 69.5618 43.2628 69.5618C42.4622 69.5618 41.8479 69.3231 41.4198 68.8459C40.9949 68.3686 40.7824 67.7543 40.7824 67.0029ZM46.3574 69.4232V64.4348H47.175L47.2165 65.0815H47.2396C47.372 64.8721 47.546 64.6889 47.7616 64.5318C47.9771 64.3748 48.2342 64.2963 48.5329 64.2963C48.6037 64.2963 48.6776 64.304 48.7546 64.3194C48.8316 64.3348 48.8855 64.3486 48.9163 64.3609V65.2154C48.8516 65.2031 48.7839 65.1939 48.713 65.1877C48.6453 65.1815 48.5683 65.1785 48.4821 65.1785C48.1834 65.1785 47.9294 65.2539 47.72 65.4048C47.5137 65.5526 47.3597 65.7358 47.2581 65.9544V69.4232H46.3574ZM51.7569 67.0029V66.8551C51.7569 66.1038 51.9694 65.4895 52.3943 65.0122C52.8192 64.5349 53.4027 64.2963 54.1448 64.2963C54.8346 64.2963 55.3581 64.4749 55.7153 64.8321C56.0725 65.1892 56.2511 65.588 56.2511 66.0283V66.0514H55.3735V66.0283C55.3735 65.7697 55.2765 65.5418 55.0825 65.3447C54.8885 65.1446 54.5759 65.0445 54.1448 65.0445C53.6429 65.0445 53.2734 65.22 53.0363 65.5711C52.7992 65.919 52.6807 66.347 52.6807 66.8551V67.0029C52.6807 67.511 52.7992 67.9406 53.0363 68.2916C53.2734 68.6395 53.6429 68.8135 54.1448 68.8135C54.5759 68.8135 54.8885 68.715 55.0825 68.5179C55.2765 68.3178 55.3735 68.0884 55.3735 67.8297V67.8066H56.2511V67.8297C56.2511 68.27 56.0725 68.6688 55.7153 69.026C55.3581 69.3832 54.8346 69.5618 54.1448 69.5618C53.4027 69.5618 52.8192 69.3231 52.3943 68.8459C51.9694 68.3686 51.7569 67.7543 51.7569 67.0029ZM56.9855 67.0029V66.8551C56.9855 66.1038 57.2056 65.4895 57.646 65.0122C58.0894 64.5349 58.6806 64.2963 59.4196 64.2963C60.1586 64.2963 60.7498 64.5349 61.1933 65.0122C61.6367 65.4895 61.8584 66.1038 61.8584 66.8551V67.0029C61.8584 67.7543 61.6367 68.3686 61.1933 68.8459C60.7498 69.3231 60.1586 69.5618 59.4196 69.5618C58.6806 69.5618 58.0894 69.3231 57.646 68.8459C57.2056 68.3686 56.9855 67.7543 56.9855 67.0029ZM57.9092 66.8551V67.0029C57.9092 67.5079 58.0355 67.9359 58.288 68.287C58.5405 68.6349 58.9177 68.8089 59.4196 68.8089C59.9215 68.8089 60.2987 68.6349 60.5512 68.287C60.8068 67.9359 60.9346 67.5079 60.9346 67.0029V66.8551C60.9346 66.3501 60.8068 65.9236 60.5512 65.5757C60.2987 65.2247 59.9215 65.0491 59.4196 65.0491C58.9177 65.0491 58.5405 65.2247 58.288 65.5757C58.0355 65.9236 57.9092 66.3501 57.9092 66.8551ZM62.9392 69.4232V64.4348H63.7567L63.7983 65.0907H63.8214C64.0123 64.8536 64.2433 64.6704 64.5142 64.5411C64.7883 64.4087 65.09 64.3425 65.4195 64.3425C65.943 64.3425 66.3587 64.4903 66.6666 64.7859C66.9776 65.0784 67.1331 65.5711 67.1331 66.2639V69.4232H66.2278V66.2547C66.2278 65.8451 66.1339 65.5526 65.9461 65.3771C65.7582 65.2016 65.4919 65.1138 65.147 65.1138C64.8514 65.1138 64.5912 65.1908 64.3664 65.3447C64.1447 65.4956 63.9692 65.6927 63.8399 65.936V69.4232H62.9392ZM67.7705 64.4348H68.6666L69.8814 67.7281C69.9275 67.8543 69.966 67.9714 69.9968 68.0791C70.0307 68.1838 70.0584 68.2901 70.08 68.3978H70.1077C70.1262 68.2901 70.1523 68.1838 70.1862 68.0791C70.2201 67.9714 70.2601 67.8543 70.3063 67.7281L71.5164 64.4348H72.3709L70.4356 69.4232H69.7105L67.7705 64.4348ZM72.6989 67.0029V66.8551C72.6989 66.1038 72.9129 65.4895 73.3409 65.0122C73.7689 64.5349 74.334 64.2963 75.036 64.2963C75.7412 64.2963 76.2831 64.5195 76.6619 64.966C77.0406 65.4125 77.23 66.0145 77.23 66.772V67.1507H73.2578V66.4256H76.3201V66.4117C76.3201 66.0206 76.22 65.6942 76.0198 65.4325C75.8197 65.1708 75.4933 65.0399 75.0406 65.0399C74.5757 65.0399 74.2216 65.2154 73.9783 65.5665C73.735 65.9144 73.6134 66.344 73.6134 66.8551V67.0029C73.6134 67.511 73.7412 67.9406 73.9968 68.2916C74.2524 68.6426 74.6465 68.8181 75.1792 68.8181C75.5087 68.8181 75.792 68.7504 76.0291 68.6149C76.2662 68.4794 76.4571 68.3178 76.6018 68.1299L77.1838 68.6149C77.0237 68.8489 76.7712 69.066 76.4263 69.2662C76.0845 69.4632 75.6688 69.5618 75.1792 69.5618C74.3786 69.5618 73.7643 69.3231 73.3363 68.8459C72.9113 68.3686 72.6989 67.7543 72.6989 67.0029ZM78.2739 69.4232V64.4348H79.0914L79.133 65.0815H79.1561C79.2885 64.8721 79.4624 64.6889 79.678 64.5318C79.8935 64.3748 80.1507 64.2963 80.4493 64.2963C80.5202 64.2963 80.5941 64.304 80.6711 64.3194C80.748 64.3348 80.8019 64.3486 80.8327 64.3609V65.2154C80.7681 65.2031 80.7003 65.1939 80.6295 65.1877C80.5617 65.1815 80.4848 65.1785 80.3985 65.1785C80.0999 65.1785 79.8458 65.2539 79.6364 65.4048C79.4301 65.5526 79.2762 65.7358 79.1745 65.9544V69.4232H78.2739ZM81.3408 67.9544H82.2415V67.9775C82.2415 68.2577 82.3523 68.4717 82.574 68.6195C82.7988 68.7643 83.0929 68.8366 83.4562 68.8366C83.8196 68.8366 84.1044 68.7673 84.3107 68.6288C84.5201 68.4871 84.6248 68.3085 84.6248 68.093C84.6248 67.8744 84.5417 67.7065 84.3754 67.5895C84.2122 67.4694 83.8458 67.3509 83.2761 67.2339C82.7095 67.1138 82.2723 66.9367 81.9643 66.7027C81.6595 66.4656 81.5071 66.1407 81.5071 65.7281C81.5071 65.3186 81.6811 64.9783 82.029 64.7073C82.38 64.4333 82.8527 64.2963 83.447 64.2963C84.0475 64.2963 84.5247 64.4348 84.8789 64.712C85.236 64.9891 85.4146 65.3555 85.4146 65.8113V65.8344H84.5186V65.8066C84.5186 65.5665 84.4308 65.3755 84.2553 65.2339C84.0829 65.0923 83.8134 65.0214 83.447 65.0214C83.0775 65.0214 82.8111 65.0861 82.6479 65.2154C82.4847 65.3417 82.4031 65.4972 82.4031 65.6819C82.4031 65.8698 82.4894 66.0191 82.6618 66.13C82.8342 66.2408 83.2068 66.3563 83.7796 66.4764C84.3461 66.5934 84.7788 66.7735 85.0775 67.0168C85.3762 67.26 85.5255 67.6034 85.5255 68.0468C85.5255 68.4871 85.3531 68.8505 85.0082 69.1368C84.6633 69.4201 84.146 69.5618 83.4562 69.5618C82.7665 69.5618 82.2415 69.4171 81.8812 69.1276C81.5209 68.8382 81.3408 68.4548 81.3408 67.9775V67.9544ZM86.6202 69.4232V64.4348H87.5208V69.4232H86.6202ZM86.5278 62.9937C86.5278 62.8459 86.574 62.7228 86.6664 62.6242C86.7618 62.5226 86.8973 62.4718 87.0728 62.4718C87.2453 62.4718 87.3777 62.5226 87.47 62.6242C87.5655 62.7228 87.6132 62.8459 87.6132 62.9937C87.6132 63.1446 87.5655 63.2709 87.47 63.3725C87.3777 63.471 87.2453 63.5203 87.0728 63.5203C86.8973 63.5203 86.7618 63.471 86.6664 63.3725C86.574 63.2709 86.5278 63.1446 86.5278 62.9937ZM88.6432 67.0029V66.8551C88.6432 66.1038 88.8634 65.4895 89.3037 65.0122C89.7471 64.5349 90.3384 64.2963 91.0774 64.2963C91.8164 64.2963 92.4076 64.5349 92.851 65.0122C93.2944 65.4895 93.5162 66.1038 93.5162 66.8551V67.0029C93.5162 67.7543 93.2944 68.3686 92.851 68.8459C92.4076 69.3231 91.8164 69.5618 91.0774 69.5618C90.3384 69.5618 89.7471 69.3231 89.3037 68.8459C88.8634 68.3686 88.6432 67.7543 88.6432 67.0029ZM89.567 66.8551V67.0029C89.567 67.5079 89.6933 67.9359 89.9458 68.287C90.1983 68.6349 90.5755 68.8089 91.0774 68.8089C91.5793 68.8089 91.9565 68.6349 92.209 68.287C92.4646 67.9359 92.5924 67.5079 92.5924 67.0029V66.8551C92.5924 66.3501 92.4646 65.9236 92.209 65.5757C91.9565 65.2247 91.5793 65.0491 91.0774 65.0491C90.5755 65.0491 90.1983 65.2247 89.9458 65.5757C89.6933 65.9236 89.567 66.3501 89.567 66.8551ZM94.597 69.4232V64.4348H95.4145L95.4561 65.0907H95.4792C95.6701 64.8536 95.901 64.6704 96.172 64.5411C96.4461 64.4087 96.7478 64.3425 97.0773 64.3425C97.6008 64.3425 98.0165 64.4903 98.3244 64.7859C98.6354 65.0784 98.7909 65.5711 98.7909 66.2639V69.4232H97.8856V66.2547C97.8856 65.8451 97.7917 65.5526 97.6039 65.3771C97.416 65.2016 97.1497 65.1138 96.8048 65.1138C96.5092 65.1138 96.249 65.1908 96.0242 65.3447C95.8025 65.4956 95.627 65.6927 95.4977 65.936V69.4232H94.597ZM102.421 69.4232V62.3286H103.322V65.026C103.476 64.8197 103.681 64.655 103.936 64.5318C104.195 64.4056 104.506 64.3425 104.869 64.3425C105.522 64.3425 106.044 64.5796 106.435 65.0538C106.829 65.528 107.026 66.1284 107.026 66.8551V67.0029C107.026 67.7296 106.829 68.3301 106.435 68.8043C106.044 69.2785 105.522 69.5156 104.869 69.5156C104.506 69.5156 104.187 69.4432 103.913 69.2985C103.639 69.1538 103.436 68.9783 103.304 68.772H103.28L103.239 69.4232H102.421ZM103.322 67.9175C103.424 68.1361 103.59 68.3316 103.821 68.5041C104.055 68.6765 104.338 68.7627 104.671 68.7627C105.163 68.7627 105.525 68.5934 105.756 68.2546C105.987 67.9159 106.103 67.4987 106.103 67.0029V66.8551C106.103 66.3594 105.987 65.9421 105.756 65.6034C105.525 65.2647 105.163 65.0953 104.671 65.0953C104.338 65.0953 104.055 65.1815 103.821 65.354C103.59 65.5264 103.424 65.722 103.322 65.9406V67.9175ZM107.618 71.3447V70.5733C107.704 70.598 107.798 70.618 107.899 70.6334C108.004 70.6488 108.104 70.6565 108.2 70.6565C108.431 70.6565 108.623 70.5918 108.777 70.4625C108.931 70.3362 109.111 69.9775 109.317 69.3863V69.3816L107.41 64.4348H108.306L109.511 67.6819C109.558 67.8082 109.599 67.9313 109.636 68.0514C109.676 68.1684 109.708 68.2839 109.733 68.3978H109.761C109.782 68.2839 109.813 68.1684 109.853 68.0514C109.893 67.9313 109.936 67.8082 109.982 67.6819L111.114 64.4348H111.969L109.885 70.0699C109.722 70.501 109.507 70.8366 109.239 71.0768C108.971 71.317 108.641 71.437 108.25 71.437C108.121 71.437 108.006 71.4293 107.904 71.414C107.805 71.3986 107.71 71.3755 107.618 71.3447ZM114.98 67.1738V62.6981H115.913V67.1738C115.913 67.7065 116.061 68.1038 116.356 68.3655C116.655 68.6242 117.048 68.7535 117.534 68.7535C118.018 68.7535 118.409 68.6242 118.708 68.3655C119.006 68.1038 119.156 67.7065 119.156 67.1738V62.6981H120.084V67.1738C120.084 67.9714 119.836 68.5687 119.34 68.9659C118.845 69.3632 118.243 69.5618 117.534 69.5618C116.823 69.5618 116.219 69.3632 115.724 68.9659C115.228 68.5687 114.98 67.9714 114.98 67.1738ZM121.174 67.9544H122.075V67.9775C122.075 68.2577 122.186 68.4717 122.407 68.6195C122.632 68.7643 122.926 68.8366 123.289 68.8366C123.653 68.8366 123.938 68.7673 124.144 68.6288C124.353 68.4871 124.458 68.3085 124.458 68.093C124.458 67.8744 124.375 67.7065 124.209 67.5895C124.045 67.4694 123.679 67.3509 123.109 67.2339C122.543 67.1138 122.105 66.9367 121.798 66.7027C121.493 66.4656 121.34 66.1407 121.34 65.7281C121.34 65.3186 121.514 64.9783 121.862 64.7073C122.213 64.4333 122.686 64.2963 123.28 64.2963C123.881 64.2963 124.358 64.4348 124.712 64.712C125.069 64.9891 125.248 65.3555 125.248 65.8113V65.8344H124.352V65.8066C124.352 65.5665 124.264 65.3755 124.088 65.2339C123.916 65.0923 123.647 65.0214 123.28 65.0214C122.911 65.0214 122.644 65.0861 122.481 65.2154C122.318 65.3417 122.236 65.4972 122.236 65.6819C122.236 65.8698 122.323 66.0191 122.495 66.13C122.667 66.2408 123.04 66.3563 123.613 66.4764C124.179 66.5934 124.612 66.7735 124.911 67.0168C125.209 67.26 125.359 67.6034 125.359 68.0468C125.359 68.4871 125.186 68.8505 124.841 69.1368C124.496 69.4201 123.979 69.5618 123.289 69.5618C122.6 69.5618 122.075 69.4171 121.714 69.1276C121.354 68.8382 121.174 68.4548 121.174 67.9775V67.9544ZM126.453 69.4232V64.4348H127.354V69.4232H126.453ZM126.361 62.9937C126.361 62.8459 126.407 62.7228 126.5 62.6242C126.595 62.5226 126.73 62.4718 126.906 62.4718C127.078 62.4718 127.211 62.5226 127.303 62.6242C127.399 62.7228 127.446 62.8459 127.446 62.9937C127.446 63.1446 127.399 63.2709 127.303 63.3725C127.211 63.471 127.078 63.5203 126.906 63.5203C126.73 63.5203 126.595 63.471 126.5 63.3725C126.407 63.2709 126.361 63.1446 126.361 62.9937ZM128.767 69.4232V64.4348H129.585L129.627 65.0907H129.65C129.841 64.8536 130.071 64.6704 130.342 64.5411C130.617 64.4087 130.918 64.3425 131.248 64.3425C131.771 64.3425 132.187 64.4903 132.495 64.7859C132.806 65.0784 132.961 65.5711 132.961 66.2639V69.4232H132.056V66.2547C132.056 65.8451 131.962 65.5526 131.774 65.3771C131.586 65.2016 131.32 65.1138 130.975 65.1138C130.68 65.1138 130.419 65.1908 130.195 65.3447C129.973 65.4956 129.797 65.6927 129.668 65.936V69.4232H128.767ZM134.19 70.735L134.721 70.0468C134.872 70.2069 135.081 70.347 135.349 70.4671C135.617 70.5872 135.919 70.6472 136.255 70.6472C136.698 70.6472 137.049 70.5287 137.308 70.2916C137.566 70.0575 137.696 69.725 137.696 69.2939V68.832C137.542 69.0383 137.335 69.2046 137.077 69.3308C136.821 69.454 136.51 69.5156 136.144 69.5156C135.491 69.5156 134.969 69.2785 134.578 68.8043C134.187 68.3301 133.991 67.7296 133.991 67.0029V66.8551C133.991 66.1284 134.187 65.528 134.578 65.0538C134.969 64.5796 135.491 64.3425 136.144 64.3425C136.51 64.3425 136.83 64.4148 137.104 64.5595C137.379 64.7043 137.582 64.8798 137.714 65.0861H137.737L137.779 64.4348H138.596V69.2939C138.596 69.9836 138.381 70.5133 137.95 70.8828C137.522 71.2523 136.964 71.437 136.278 71.437C135.853 71.437 135.46 71.3708 135.1 71.2384C134.74 71.106 134.436 70.9382 134.19 70.735ZM134.915 67.0029C134.915 67.4987 135.031 67.9159 135.262 68.2546C135.493 68.5934 135.854 68.7627 136.347 68.7627C136.68 68.7627 136.961 68.6765 137.192 68.5041C137.423 68.3316 137.591 68.1361 137.696 67.9175V65.9406C137.591 65.722 137.423 65.5264 137.192 65.354C136.961 65.1815 136.68 65.0953 136.347 65.0953C135.854 65.0953 135.493 65.2647 135.262 65.6034C135.031 65.9421 134.915 66.3594 134.915 66.8551V67.0029ZM109.391 95.7251V84.133H111.307L111.362 85.1228H111.402C111.587 84.7955 111.893 84.521 112.32 84.2993C112.753 84.0776 113.241 83.9667 113.785 83.9667C114.841 83.9667 115.691 84.3521 116.335 85.1228C116.984 85.8882 117.309 86.8964 117.309 88.1475V88.4008C117.309 89.6466 116.989 90.6548 116.351 91.4255C115.712 92.1962 114.87 92.5816 113.825 92.5816C113.286 92.5816 112.809 92.4892 112.392 92.3044C111.98 92.1197 111.666 91.8663 111.449 91.5443V95.7251H109.391ZM111.449 89.7627C111.587 90.09 111.816 90.3777 112.138 90.6258C112.465 90.8739 112.851 90.998 113.294 90.998C113.943 90.998 114.424 90.771 114.735 90.317C115.047 89.8578 115.202 89.2481 115.202 88.4879V88.0604C115.202 87.3002 115.047 86.6932 114.735 86.2392C114.424 85.78 113.943 85.5503 113.294 85.5503C112.835 85.5503 112.447 85.6744 112.13 85.9225C111.819 86.1653 111.592 86.4477 111.449 86.7697V89.7627ZM118.504 88.4008V88.1475C118.504 86.8647 118.887 85.8354 119.652 85.0594C120.418 84.2834 121.423 83.8955 122.669 83.8955C123.91 83.8955 124.913 84.2834 125.678 85.0594C126.443 85.8354 126.826 86.8647 126.826 88.1475V88.4008C126.826 89.6888 126.443 90.7208 125.678 91.4968C124.913 92.2728 123.91 92.6608 122.669 92.6608C121.423 92.6608 120.418 92.2728 119.652 91.4968C118.887 90.7208 118.504 89.6888 118.504 88.4008ZM120.61 88.0604V88.4879C120.61 89.285 120.787 89.9158 121.141 90.3804C121.495 90.8396 122.004 91.0692 122.669 91.0692C123.334 91.0692 123.841 90.8396 124.189 90.3804C124.543 89.9158 124.72 89.285 124.72 88.4879V88.0604C124.72 87.2686 124.54 86.6404 124.182 86.1759C123.828 85.7113 123.324 85.4791 122.669 85.4791C122.009 85.4791 121.5 85.7113 121.141 86.1759C120.787 86.6404 120.61 87.2686 120.61 88.0604ZM127.428 85.6533V84.133H132.432V85.6533H127.428ZM128.75 90.0874V84.9327L128.758 84.7031V82.106H130.801V90.032C130.801 90.4173 130.872 90.6839 131.015 90.8317C131.163 90.9795 131.374 91.0534 131.648 91.0534C131.775 91.0534 131.902 91.0402 132.028 91.0138C132.16 90.9821 132.287 90.9425 132.408 90.895V92.4153C132.282 92.4786 132.105 92.5341 131.878 92.5816C131.656 92.6291 131.411 92.6528 131.142 92.6528C130.418 92.6528 129.838 92.447 129.4 92.0352C128.967 91.6235 128.75 90.9742 128.75 90.0874ZM133.374 88.4008V88.1475C133.374 86.8753 133.747 85.8486 134.491 85.0673C135.235 84.2861 136.199 83.8955 137.381 83.8955C138.569 83.8955 139.492 84.2623 140.152 84.9961C140.817 85.7298 141.15 86.7354 141.15 88.0129V88.7651H134.736V87.4111H139.107V87.229C139.107 86.7275 138.959 86.3025 138.664 85.9542C138.373 85.6005 137.951 85.4236 137.397 85.4236C136.753 85.4236 136.265 85.6665 135.932 86.1521C135.605 86.6377 135.441 87.2738 135.441 88.0604V88.48C135.441 89.256 135.615 89.8868 135.964 90.3724C136.317 90.8581 136.848 91.1009 137.555 91.1009C138.025 91.1009 138.429 90.99 138.767 90.7683C139.11 90.5466 139.387 90.288 139.598 89.9924L141.031 90.9505C140.773 91.4203 140.342 91.8241 139.741 92.1619C139.139 92.4945 138.421 92.6608 137.587 92.6608C136.262 92.6608 135.227 92.2701 134.483 91.4889C133.744 90.7024 133.374 89.673 133.374 88.4008ZM142.726 92.4232V84.133H144.666L144.713 85.1148H144.761C144.998 84.7717 145.331 84.4946 145.758 84.2834C146.191 84.0723 146.666 83.9667 147.184 83.9667C148.028 83.9667 148.712 84.2069 149.234 84.6873C149.762 85.1676 150.026 85.9964 150.026 87.1735V92.4232H147.967V87.1339C147.967 86.5691 147.843 86.1706 147.595 85.9383C147.347 85.7008 146.996 85.582 146.542 85.582C146.162 85.582 145.816 85.6902 145.505 85.9066C145.193 86.1178 144.953 86.4055 144.784 86.7697V92.4232H142.726ZM151.008 85.6533V84.133H156.012V85.6533H151.008ZM152.33 90.0874V84.9327L152.338 84.7031V82.106H154.381V90.032C154.381 90.4173 154.452 90.6839 154.595 90.8317C154.743 90.9795 154.954 91.0534 155.228 91.0534C155.355 91.0534 155.482 91.0402 155.608 91.0138C155.74 90.9821 155.867 90.9425 155.988 90.895V92.4153C155.862 92.4786 155.685 92.5341 155.458 92.5816C155.236 92.6291 154.991 92.6528 154.722 92.6528C153.998 92.6528 153.418 92.447 152.98 92.0352C152.547 91.6235 152.33 90.9742 152.33 90.0874ZM157.461 92.4232V84.133H159.528V92.4232H157.461ZM157.271 81.7338C157.271 81.4171 157.377 81.1505 157.588 80.9341C157.799 80.7124 158.103 80.6015 158.498 80.6015C158.889 80.6015 159.19 80.7124 159.401 80.9341C159.618 81.1505 159.726 81.4171 159.726 81.7338C159.726 82.0558 159.618 82.3277 159.401 82.5494C159.19 82.7658 158.886 82.874 158.491 82.874C158.1 82.874 157.799 82.7658 157.588 82.5494C157.377 82.3277 157.271 82.0558 157.271 81.7338ZM161.27 89.9845C161.27 89.0923 161.616 88.414 162.307 87.9495C163.004 87.4797 163.885 87.2448 164.952 87.2448H166.662V86.738C166.662 86.3263 166.554 85.9911 166.337 85.7324C166.126 85.4738 165.757 85.3445 165.229 85.3445C164.696 85.3445 164.316 85.4527 164.089 85.6691C163.862 85.8802 163.748 86.1363 163.748 86.4372V86.5322H161.721V86.4292C161.721 85.7166 162.051 85.1175 162.711 84.6318C163.371 84.1409 164.236 83.8955 165.308 83.8955C166.385 83.8955 167.224 84.1304 167.826 84.6002C168.428 85.0647 168.729 85.78 168.729 86.746V90.5466C168.729 90.8845 168.758 91.2065 168.816 91.5126C168.874 91.8135 168.953 92.0748 169.053 92.2965V92.4232H167.034C166.966 92.2965 166.905 92.1329 166.852 91.9323C166.799 91.7317 166.765 91.5338 166.749 91.3384C166.575 91.6604 166.263 91.9481 165.815 92.2015C165.366 92.4496 164.801 92.5737 164.12 92.5737C163.313 92.5737 162.634 92.3572 162.085 91.9244C161.542 91.4862 161.27 90.8396 161.27 89.9845ZM163.328 89.8182C163.328 90.2194 163.445 90.5387 163.677 90.7763C163.909 91.0138 164.273 91.1326 164.77 91.1326C165.287 91.1326 165.73 90.9637 166.1 90.6258C166.475 90.2827 166.662 89.8921 166.662 89.4539V88.5354H165.245C164.601 88.5354 164.12 88.6489 163.804 88.8759C163.487 89.0976 163.328 89.4117 163.328 89.8182ZM170.898 92.4232V80.3165H172.965V92.4232H170.898ZM178.602 88.4008V88.1475C178.602 86.8647 178.985 85.8354 179.751 85.0594C180.516 84.2834 181.522 83.8955 182.767 83.8955C184.008 83.8955 185.011 84.2834 185.776 85.0594C186.542 85.8354 186.924 86.8647 186.924 88.1475V88.4008C186.924 89.6888 186.542 90.7208 185.776 91.4968C185.011 92.2728 184.008 92.6608 182.767 92.6608C181.522 92.6608 180.516 92.2728 179.751 91.4968C178.985 90.7208 178.602 89.6888 178.602 88.4008ZM180.709 88.0604V88.4879C180.709 89.285 180.886 89.9158 181.239 90.3804C181.593 90.8396 182.102 91.0692 182.767 91.0692C183.433 91.0692 183.939 90.8396 184.288 90.3804C184.641 89.9158 184.818 89.285 184.818 88.4879V88.0604C184.818 87.2686 184.639 86.6404 184.28 86.1759C183.926 85.7113 183.422 85.4791 182.767 85.4791C182.108 85.4791 181.598 85.7113 181.239 86.1759C180.886 86.6404 180.709 87.2686 180.709 88.0604ZM188.896 92.4232V83.262C188.896 82.2327 189.181 81.4593 189.751 80.942C190.321 80.4194 191.063 80.1581 191.976 80.1581C192.166 80.1581 192.351 80.1687 192.53 80.1898C192.715 80.2109 192.884 80.2426 193.037 80.2848L192.966 81.8368C192.86 81.8156 192.747 81.7972 192.625 81.7813C192.504 81.7602 192.38 81.7497 192.253 81.7497C191.841 81.7497 191.522 81.879 191.295 82.1376C191.068 82.3963 190.955 82.7869 190.955 83.3095V84.7506V84.9169V92.4232H188.896ZM187.708 85.6533V84.133H189.664H189.981H192.546V85.6533H187.708ZM12.0537 115.423V103.895H14.7933L17.7468 111.749C17.8101 111.918 17.8656 112.084 17.9131 112.248C17.9658 112.412 18.0107 112.586 18.0477 112.771H18.1031C18.14 112.586 18.1823 112.412 18.2298 112.248C18.2826 112.084 18.3406 111.918 18.404 111.749L21.3653 103.895H24.1367V115.423H22.0384V107.751C22.0384 107.582 22.041 107.394 22.0463 107.188C22.0569 106.977 22.07 106.785 22.0859 106.61H22.0225C21.9961 106.785 21.9539 106.977 21.8959 107.188C21.8431 107.394 21.785 107.582 21.7217 107.751L18.8395 115.423H17.0658L14.1916 107.751C14.1282 107.582 14.0675 107.392 14.0094 107.181C13.9567 106.969 13.9171 106.779 13.8907 106.61H13.8273C13.8432 106.779 13.8537 106.969 13.859 107.181C13.8696 107.392 13.8748 107.582 13.8748 107.751V115.423H12.0537ZM26.0133 112.984C26.0133 112.092 26.359 111.414 27.0505 110.95C27.7473 110.48 28.6289 110.245 29.6952 110.245H31.4055V109.738C31.4055 109.326 31.2972 108.991 31.0808 108.732C30.8697 108.474 30.5002 108.344 29.9723 108.344C29.4391 108.344 29.0591 108.453 28.8321 108.669C28.6051 108.88 28.4916 109.136 28.4916 109.437V109.532H26.4646V109.429C26.4646 108.717 26.7945 108.117 27.4543 107.632C28.1142 107.141 28.9799 106.895 30.0515 106.895C31.1283 106.895 31.9676 107.13 32.5694 107.6C33.1712 108.065 33.4721 108.78 33.4721 109.746V113.547C33.4721 113.884 33.5011 114.206 33.5592 114.513C33.6172 114.814 33.6964 115.075 33.7967 115.297V115.423H31.7776C31.709 115.297 31.6483 115.133 31.5955 114.932C31.5427 114.732 31.5084 114.534 31.4926 114.338C31.3184 114.66 31.0069 114.948 30.5582 115.202C30.1095 115.45 29.5447 115.574 28.8638 115.574C28.0561 115.574 27.3778 115.357 26.8288 114.924C26.2851 114.486 26.0133 113.84 26.0133 112.984ZM28.072 112.818C28.072 113.219 28.1881 113.539 28.4203 113.776C28.6526 114.014 29.0168 114.133 29.513 114.133C30.0304 114.133 30.4738 113.964 30.8433 113.626C31.2181 113.283 31.4055 112.892 31.4055 112.454V111.535H29.9881C29.3441 111.535 28.8638 111.649 28.547 111.876C28.2303 112.098 28.072 112.412 28.072 112.818ZM35.61 115.423V107.133H37.5578L37.6053 108.099H37.6528C37.8323 107.777 38.0778 107.497 38.3892 107.26C38.7006 107.022 39.0596 106.903 39.4661 106.903C39.5769 106.903 39.6904 106.917 39.8065 106.943C39.9279 106.969 40.0124 106.993 40.0599 107.014V108.812C39.9649 108.791 39.862 108.775 39.7511 108.764C39.6455 108.748 39.5268 108.74 39.3948 108.74C38.9989 108.74 38.6479 108.854 38.3417 109.081C38.0408 109.308 37.8191 109.593 37.6766 109.936V115.423H35.61ZM41.3743 115.423V103.316H43.433V110.371L46.434 107.133H48.7223L43.433 112.771V115.423H41.3743ZM46.6557 115.423L43.6785 111.409L44.985 109.96L49.0786 115.423H46.6557ZM49.3003 111.401V111.147C49.3003 109.875 49.6725 108.849 50.4168 108.067C51.1611 107.286 52.1244 106.895 53.3069 106.895C54.4946 106.895 55.4183 107.262 56.0782 107.996C56.7433 108.73 57.0759 109.735 57.0759 111.013V111.765H50.6622V110.411H55.033V110.229C55.033 109.727 54.8852 109.303 54.5896 108.954C54.2993 108.6 53.877 108.424 53.3227 108.424C52.6787 108.424 52.1904 108.666 51.8578 109.152C51.5306 109.638 51.3669 110.274 51.3669 111.06V111.48C51.3669 112.256 51.5411 112.887 51.8895 113.372C52.2432 113.858 52.7737 114.101 53.4811 114.101C53.9509 114.101 54.3547 113.99 54.6925 113.768C55.0356 113.547 55.3128 113.288 55.5239 112.992L56.9571 113.95C56.6984 114.42 56.2682 114.824 55.6664 115.162C55.0647 115.494 54.3468 115.661 53.5127 115.661C52.1878 115.661 51.1531 115.27 50.4088 114.489C49.6698 113.702 49.3003 112.673 49.3003 111.401ZM57.5905 108.653V107.133H62.5948V108.653H57.5905ZM58.9128 113.087V107.933L58.9208 107.703V105.106H60.9636V113.032C60.9636 113.417 61.0349 113.684 61.1774 113.832C61.3252 113.979 61.5364 114.053 61.8109 114.053C61.9376 114.053 62.0642 114.04 62.1909 114.014C62.3229 113.982 62.4496 113.943 62.571 113.895V115.415C62.4443 115.479 62.2675 115.534 62.0405 115.582C61.8188 115.629 61.5733 115.653 61.3041 115.653C60.5809 115.653 60.0003 115.447 59.5621 115.035C59.1293 114.623 58.9128 113.974 58.9128 113.087ZM64.0438 115.423V107.133H66.1104V115.423H64.0438ZM63.8537 104.734C63.8537 104.417 63.9593 104.151 64.1705 103.934C64.3816 103.712 64.6851 103.602 65.081 103.602C65.4717 103.602 65.7725 103.712 65.9837 103.934C66.2001 104.151 66.3083 104.417 66.3083 104.734C66.3083 105.056 66.2001 105.328 65.9837 105.549C65.7725 105.766 65.469 105.874 65.0731 105.874C64.6825 105.874 64.3816 105.766 64.1705 105.549C63.9593 105.328 63.8537 105.056 63.8537 104.734ZM68.2799 115.423V107.133H70.2199L70.2674 108.115H70.3149C70.5524 107.772 70.885 107.495 71.3126 107.283C71.7454 107.072 72.2205 106.967 72.7378 106.967C73.5824 106.967 74.266 107.207 74.7886 107.687C75.3165 108.168 75.5804 108.996 75.5804 110.174V115.423H73.5217V110.134C73.5217 109.569 73.3976 109.171 73.1495 108.938C72.9014 108.701 72.5504 108.582 72.0964 108.582C71.7164 108.582 71.3706 108.69 71.0592 108.907C70.7477 109.118 70.5076 109.405 70.3386 109.77V115.423H68.2799ZM77.5916 117.719L78.5497 116.381C78.7608 116.603 79.0828 116.809 79.5157 116.999C79.9485 117.189 80.4289 117.284 80.9568 117.284C81.5744 117.284 82.0732 117.097 82.4533 116.722C82.8334 116.347 83.0234 115.793 83.0234 115.059V114.513C82.8017 114.845 82.4929 115.106 82.097 115.297C81.7011 115.481 81.2286 115.574 80.6796 115.574C79.6239 115.574 78.7714 115.191 78.1221 114.426C77.4781 113.655 77.1561 112.647 77.1561 111.401V111.147C77.1561 109.907 77.4781 108.901 78.1221 108.131C78.7661 107.36 79.6186 106.975 80.6796 106.975C81.2181 106.975 81.6984 107.085 82.1207 107.307C82.543 107.524 82.8492 107.798 83.0392 108.131H83.0867L83.1342 107.133H85.0742V115.004C85.0742 116.249 84.6967 117.207 83.9419 117.878C83.1923 118.548 82.2342 118.883 81.0676 118.883C80.3497 118.883 79.6899 118.773 79.0881 118.551C78.4916 118.329 77.9928 118.052 77.5916 117.719ZM79.2623 111.472C79.2623 112.211 79.4207 112.818 79.7374 113.293C80.0594 113.763 80.5556 113.998 81.226 113.998C81.6641 113.998 82.0389 113.874 82.3504 113.626C82.6618 113.372 82.8835 113.085 83.0155 112.763V109.817C82.8782 109.464 82.6512 109.165 82.3345 108.922C82.0231 108.674 81.6456 108.55 81.2022 108.55C80.5477 108.55 80.0594 108.788 79.7374 109.263C79.4207 109.738 79.2623 110.342 79.2623 111.076V111.472ZM11.3417 125.255V124.867C11.3417 123.826 11.6189 123.015 12.1731 122.433C12.7305 121.851 13.4279 121.56 14.2655 121.56C15.1061 121.56 15.7512 121.781 16.2008 122.225C16.6534 122.668 16.9028 123.202 16.949 123.827L16.9537 123.874H16.0206V123.827C15.9929 123.449 15.839 123.112 15.5588 122.816C15.2785 122.517 14.8474 122.368 14.2655 122.368C13.6896 122.368 13.2154 122.585 12.8429 123.019C12.4703 123.453 12.284 124.069 12.284 124.867V125.255C12.284 126.034 12.4687 126.645 12.8382 127.088C13.2108 127.532 13.6866 127.753 14.2655 127.753C14.8382 127.753 15.2631 127.604 15.5403 127.305C15.8205 127.007 15.9791 126.67 16.016 126.294L16.0206 126.248H16.9537L16.949 126.294C16.8874 126.919 16.635 127.453 16.1915 127.897C15.7481 128.34 15.1061 128.562 14.2655 128.562C13.4279 128.562 12.7305 128.271 12.1731 127.689C11.6189 127.107 11.3417 126.295 11.3417 125.255ZM17.7527 126.003V125.855C17.7527 125.104 17.9729 124.489 18.4132 124.012C18.8566 123.535 19.4478 123.296 20.1869 123.296C20.9259 123.296 21.5171 123.535 21.9605 124.012C22.4039 124.489 22.6256 125.104 22.6256 125.855V126.003C22.6256 126.754 22.4039 127.369 21.9605 127.846C21.5171 128.323 20.9259 128.562 20.1869 128.562C19.4478 128.562 18.8566 128.323 18.4132 127.846C17.9729 127.369 17.7527 126.754 17.7527 126.003ZM18.6765 125.855V126.003C18.6765 126.508 18.8027 126.936 19.0552 127.287C19.3077 127.635 19.6849 127.809 20.1869 127.809C20.6888 127.809 21.066 127.635 21.3185 127.287C21.5741 126.936 21.7019 126.508 21.7019 126.003V125.855C21.7019 125.35 21.5741 124.924 21.3185 124.576C21.066 124.225 20.6888 124.049 20.1869 124.049C19.6849 124.049 19.3077 124.225 19.0552 124.576C18.8027 124.924 18.6765 125.35 18.6765 125.855ZM23.7065 128.423V123.435H24.524L24.5656 124.091H24.5887C24.7765 123.857 25.0013 123.673 25.263 123.541C25.5278 123.409 25.8204 123.342 26.1406 123.342C26.4886 123.342 26.7888 123.41 27.0413 123.546C27.2938 123.681 27.4847 123.897 27.614 124.192H27.6371C27.8588 123.891 28.1036 123.673 28.3715 123.541C28.6425 123.409 28.9489 123.342 29.2907 123.342C29.8265 123.342 30.2452 123.49 30.547 123.786C30.8519 124.081 31.0043 124.574 31.0043 125.264V128.423H30.1036V125.255C30.1005 124.845 30.0097 124.553 29.8311 124.377C29.6525 124.202 29.3984 124.114 29.069 124.114C28.7826 124.114 28.5332 124.191 28.3207 124.345C28.1082 124.496 27.9373 124.693 27.808 124.936V128.423H26.9027V125.255C26.9027 124.845 26.8119 124.553 26.6302 124.377C26.4516 124.202 26.1976 124.114 25.8681 124.114C25.5817 124.114 25.3323 124.191 25.1198 124.345C24.9074 124.496 24.7365 124.693 24.6071 124.936V128.423H23.7065ZM32.3253 130.345V123.435H33.1428L33.1844 124.086H33.2075C33.3399 123.88 33.5431 123.704 33.8172 123.56C34.0912 123.415 34.4099 123.342 34.7733 123.342C35.4261 123.342 35.948 123.58 36.3391 124.054C36.7332 124.528 36.9303 125.128 36.9303 125.855V126.003C36.9303 126.73 36.7332 127.33 36.3391 127.804C35.948 128.278 35.4261 128.516 34.7733 128.516C34.4099 128.516 34.0989 128.454 33.8403 128.331C33.5847 128.205 33.3799 128.038 33.226 127.832V130.345H32.3253ZM33.226 126.917C33.3276 127.136 33.4939 127.332 33.7248 127.504C33.9588 127.676 34.2421 127.763 34.5747 127.763C35.0673 127.763 35.4292 127.593 35.6601 127.255C35.891 126.916 36.0065 126.499 36.0065 126.003V125.855C36.0065 125.359 35.891 124.942 35.6601 124.603C35.4292 124.265 35.0673 124.095 34.5747 124.095C34.2421 124.095 33.9588 124.182 33.7248 124.354C33.4939 124.526 33.3276 124.722 33.226 124.941V126.917ZM37.7386 126.954C37.7386 126.449 37.9464 126.057 38.3621 125.777C38.7809 125.493 39.3106 125.352 39.951 125.352H41.1381V124.968C41.1381 124.688 41.055 124.46 40.8887 124.285C40.7255 124.106 40.4453 124.017 40.048 124.017C39.6477 124.017 39.3614 124.095 39.1889 124.252C39.0196 124.406 38.9349 124.585 38.9349 124.788V124.811H38.0342V124.788C38.0342 124.391 38.2174 124.043 38.5839 123.744C38.9503 123.446 39.446 123.296 40.0711 123.296C40.6931 123.296 41.1766 123.436 41.5215 123.717C41.8663 123.997 42.0388 124.414 42.0388 124.968V127.315C42.0388 127.515 42.0542 127.704 42.085 127.883C42.1188 128.058 42.1635 128.214 42.2189 128.349V128.423H41.3459C41.2998 128.343 41.2582 128.24 41.2212 128.114C41.1874 127.984 41.1658 127.857 41.1566 127.73C41.0334 127.937 40.8348 128.12 40.5607 128.28C40.2867 128.437 39.9326 128.516 39.4984 128.516C39.0119 128.516 38.5962 128.382 38.2513 128.114C37.9095 127.846 37.7386 127.459 37.7386 126.954ZM38.6393 126.908C38.6393 127.185 38.7255 127.402 38.8979 127.559C39.0704 127.717 39.3398 127.795 39.7062 127.795C40.0696 127.795 40.3991 127.678 40.6947 127.444C40.9903 127.207 41.1381 126.957 41.1381 126.696V125.998H40.048C39.5861 125.998 39.2351 126.081 38.9949 126.248C38.7578 126.411 38.6393 126.631 38.6393 126.908ZM43.4013 128.423V123.435H44.2189L44.2605 124.081H44.2835C44.416 123.872 44.5899 123.689 44.8055 123.532C45.021 123.375 45.2781 123.296 45.5768 123.296C45.6477 123.296 45.7216 123.304 45.7985 123.319C45.8755 123.335 45.9294 123.349 45.9602 123.361V124.215C45.8955 124.203 45.8278 124.194 45.757 124.188C45.6892 124.182 45.6122 124.178 45.526 124.178C45.2273 124.178 44.9733 124.254 44.7639 124.405C44.5576 124.553 44.4036 124.736 44.302 124.954V128.423H43.4013ZM46.399 126.003V125.855C46.399 125.104 46.613 124.489 47.041 124.012C47.469 123.535 48.0341 123.296 48.7361 123.296C49.4413 123.296 49.9832 123.52 50.362 123.966C50.7407 124.412 50.9301 125.014 50.9301 125.772V126.151H46.9579V125.426H50.0202V125.412C50.0202 125.021 49.9201 124.694 49.72 124.433C49.5198 124.171 49.1934 124.04 48.7408 124.04C48.2758 124.04 47.9217 124.215 47.6784 124.566C47.4352 124.914 47.3135 125.344 47.3135 125.855V126.003C47.3135 126.511 47.4413 126.941 47.6969 127.292C47.9525 127.643 48.3466 127.818 48.8793 127.818C49.2088 127.818 49.4921 127.75 49.7292 127.615C49.9663 127.479 50.1572 127.318 50.3019 127.13L50.8839 127.615C50.7238 127.849 50.4713 128.066 50.1264 128.266C49.7846 128.463 49.3689 128.562 48.8793 128.562C48.0787 128.562 47.4644 128.323 47.0364 127.846C46.6115 127.369 46.399 126.754 46.399 126.003ZM51.683 126.003V125.855C51.683 125.128 51.8785 124.528 52.2696 124.054C52.6606 123.58 53.1826 123.342 53.8354 123.342C54.2018 123.342 54.5128 123.406 54.7684 123.532C55.0271 123.655 55.2334 123.82 55.3873 124.026V121.329H56.288V128.423H55.4705L55.4289 127.772H55.4058C55.2734 127.978 55.0702 128.154 54.7961 128.299C54.5221 128.443 54.2018 128.516 53.8354 128.516C53.1826 128.516 52.6606 128.278 52.2696 127.804C51.8785 127.33 51.683 126.73 51.683 126.003ZM52.6068 126.003C52.6068 126.499 52.7222 126.916 52.9532 127.255C53.1841 127.593 53.5459 127.763 54.0386 127.763C54.3712 127.763 54.6529 127.676 54.8839 127.504C55.1148 127.332 55.2826 127.136 55.3873 126.917V124.941C55.2826 124.722 55.1148 124.526 54.8839 124.354C54.6529 124.182 54.3712 124.095 54.0386 124.095C53.5459 124.095 53.1841 124.265 52.9532 124.603C52.7222 124.942 52.6068 125.359 52.6068 125.855V126.003ZM59.2718 124.142V123.435H62.2094V124.142H59.2718ZM60.191 127.181V123.855V123.717V122.363H61.0916V127.181C61.0916 127.396 61.1363 127.55 61.2256 127.643C61.318 127.735 61.4611 127.781 61.6551 127.781C61.7475 127.781 61.8368 127.772 61.923 127.753C62.0093 127.735 62.0986 127.71 62.1909 127.68V128.423C62.1047 128.46 61.9939 128.493 61.8584 128.52C61.726 128.548 61.5812 128.562 61.4242 128.562C61.0485 128.562 60.7483 128.451 60.5235 128.229C60.3018 128.004 60.191 127.655 60.191 127.181ZM62.7406 126.003V125.855C62.7406 125.104 62.9607 124.489 63.4011 124.012C63.8445 123.535 64.4357 123.296 65.1747 123.296C65.9137 123.296 66.505 123.535 66.9484 124.012C67.3918 124.489 67.6135 125.104 67.6135 125.855V126.003C67.6135 126.754 67.3918 127.369 66.9484 127.846C66.505 128.323 65.9137 128.562 65.1747 128.562C64.4357 128.562 63.8445 128.323 63.4011 127.846C62.9607 127.369 62.7406 126.754 62.7406 126.003ZM63.6644 125.855V126.003C63.6644 126.508 63.7906 126.936 64.0431 127.287C64.2956 127.635 64.6728 127.809 65.1747 127.809C65.6766 127.809 66.0539 127.635 66.3064 127.287C66.5619 126.936 66.6897 126.508 66.6897 126.003V125.855C66.6897 125.35 66.5619 124.924 66.3064 124.576C66.0539 124.225 65.6766 124.049 65.1747 124.049C64.6728 124.049 64.2956 124.225 64.0431 124.576C63.7906 124.924 63.6644 125.35 63.6644 125.855ZM70.3109 124.142V123.435H73.2485V124.142H70.3109ZM71.2301 127.181V123.855V123.717V122.363H72.1308V127.181C72.1308 127.396 72.1754 127.55 72.2647 127.643C72.3571 127.735 72.5003 127.781 72.6943 127.781C72.7866 127.781 72.8759 127.772 72.9622 127.753C73.0484 127.735 73.1377 127.71 73.23 127.68V128.423C73.1438 128.46 73.033 128.493 72.8975 128.52C72.7651 128.548 72.6204 128.562 72.4633 128.562C72.0876 128.562 71.7874 128.451 71.5626 128.229C71.3409 128.004 71.2301 127.655 71.2301 127.181ZM74.1631 128.423V123.435H74.9806L75.0222 124.081H75.0453C75.1777 123.872 75.3517 123.689 75.5672 123.532C75.7827 123.375 76.0399 123.296 76.3386 123.296C76.4094 123.296 76.4833 123.304 76.5603 123.319C76.6372 123.335 76.6911 123.349 76.7219 123.361V124.215C76.6573 124.203 76.5895 124.194 76.5187 124.188C76.4509 124.182 76.374 124.178 76.2877 124.178C75.9891 124.178 75.735 124.254 75.5256 124.405C75.3193 124.553 75.1654 124.736 75.0637 124.954V128.423H74.1631ZM77.0822 126.954C77.0822 126.449 77.29 126.057 77.7057 125.777C78.1245 125.493 78.6541 125.352 79.2946 125.352H80.4817V124.968C80.4817 124.688 80.3985 124.46 80.2323 124.285C80.0691 124.106 79.7888 124.017 79.3916 124.017C78.9913 124.017 78.705 124.095 78.5325 124.252C78.3632 124.406 78.2785 124.585 78.2785 124.788V124.811H77.3778V124.788C77.3778 124.391 77.561 124.043 77.9274 123.744C78.2939 123.446 78.7896 123.296 79.4147 123.296C80.0367 123.296 80.5202 123.436 80.865 123.717C81.2099 123.997 81.3824 124.414 81.3824 124.968V127.315C81.3824 127.515 81.3978 127.704 81.4286 127.883C81.4624 128.058 81.5071 128.214 81.5625 128.349V128.423H80.6895C80.6433 128.343 80.6018 128.24 80.5648 128.114C80.5309 127.984 80.5094 127.857 80.5002 127.73C80.377 127.937 80.1784 128.12 79.9043 128.28C79.6303 128.437 79.2762 128.516 78.842 128.516C78.3555 128.516 77.9398 128.382 77.5949 128.114C77.2531 127.846 77.0822 127.459 77.0822 126.954ZM77.9829 126.908C77.9829 127.185 78.0691 127.402 78.2415 127.559C78.414 127.717 78.6834 127.795 79.0498 127.795C79.4132 127.795 79.7427 127.678 80.0383 127.444C80.3339 127.207 80.4817 126.957 80.4817 126.696V125.998H79.3916C78.9297 125.998 78.5787 126.081 78.3385 126.248C78.1014 126.411 77.9829 126.631 77.9829 126.908ZM82.4539 126.003V125.855C82.4539 125.128 82.6495 124.528 83.0405 124.054C83.4316 123.58 83.9535 123.342 84.6063 123.342C84.9728 123.342 85.2838 123.406 85.5394 123.532C85.798 123.655 86.0043 123.82 86.1583 124.026V121.329H87.059V128.423H86.2414L86.1999 127.772H86.1768C86.0444 127.978 85.8411 128.154 85.5671 128.299C85.293 128.443 84.9728 128.516 84.6063 128.516C83.9535 128.516 83.4316 128.278 83.0405 127.804C82.6495 127.33 82.4539 126.73 82.4539 126.003ZM83.3777 126.003C83.3777 126.499 83.4932 126.916 83.7241 127.255C83.9551 127.593 84.3169 127.763 84.8096 127.763C85.1421 127.763 85.4239 127.676 85.6548 127.504C85.8858 127.332 86.0536 127.136 86.1583 126.917V124.941C86.0536 124.722 85.8858 124.526 85.6548 124.354C85.4239 124.182 85.1421 124.095 84.8096 124.095C84.3169 124.095 83.9551 124.265 83.7241 124.603C83.4932 124.942 83.3777 125.359 83.3777 125.855V126.003ZM88.4677 128.423V123.435H89.3684V128.423H88.4677ZM88.3753 121.994C88.3753 121.846 88.4215 121.723 88.5139 121.624C88.6094 121.523 88.7448 121.472 88.9204 121.472C89.0928 121.472 89.2252 121.523 89.3176 121.624C89.413 121.723 89.4608 121.846 89.4608 121.994C89.4608 122.145 89.413 122.271 89.3176 122.372C89.2252 122.471 89.0928 122.52 88.9204 122.52C88.7448 122.52 88.6094 122.471 88.5139 122.372C88.4215 122.271 88.3753 122.145 88.3753 121.994ZM90.0982 124.142V123.435H93.0358V124.142H90.0982ZM91.0173 127.181V123.855V123.717V122.363H91.918V127.181C91.918 127.396 91.9627 127.55 92.052 127.643C92.1443 127.735 92.2875 127.781 92.4815 127.781C92.5739 127.781 92.6632 127.772 92.7494 127.753C92.8356 127.735 92.9249 127.71 93.0173 127.68V128.423C92.9311 128.46 92.8202 128.493 92.6848 128.52C92.5523 128.548 92.4076 128.562 92.2506 128.562C91.8749 128.562 91.5747 128.451 91.3499 128.229C91.1282 128.004 91.0173 127.655 91.0173 127.181ZM93.9919 128.423V123.435H94.8926V128.423H93.9919ZM93.8995 121.994C93.8995 121.846 93.9457 121.723 94.0381 121.624C94.1335 121.523 94.269 121.472 94.4445 121.472C94.617 121.472 94.7494 121.523 94.8418 121.624C94.9372 121.723 94.985 121.846 94.985 121.994C94.985 122.145 94.9372 122.271 94.8418 122.372C94.7494 122.471 94.617 122.52 94.4445 122.52C94.269 122.52 94.1335 122.471 94.0381 122.372C93.9457 122.271 93.8995 122.145 93.8995 121.994ZM96.015 126.003V125.855C96.015 125.104 96.2351 124.489 96.6755 124.012C97.1189 123.535 97.7101 123.296 98.4491 123.296C99.1881 123.296 99.7793 123.535 100.223 124.012C100.666 124.489 100.888 125.104 100.888 125.855V126.003C100.888 126.754 100.666 127.369 100.223 127.846C99.7793 128.323 99.1881 128.562 98.4491 128.562C97.7101 128.562 97.1189 128.323 96.6755 127.846C96.2351 127.369 96.015 126.754 96.015 126.003ZM96.9387 125.855V126.003C96.9387 126.508 97.065 126.936 97.3175 127.287C97.57 127.635 97.9472 127.809 98.4491 127.809C98.951 127.809 99.3282 127.635 99.5807 127.287C99.8363 126.936 99.9641 126.508 99.9641 126.003V125.855C99.9641 125.35 99.8363 124.924 99.5807 124.576C99.3282 124.225 98.951 124.049 98.4491 124.049C97.9472 124.049 97.57 124.225 97.3175 124.576C97.065 124.924 96.9387 125.35 96.9387 125.855ZM101.969 128.423V123.435H102.786L102.828 124.091H102.851C103.042 123.854 103.273 123.67 103.544 123.541C103.818 123.409 104.12 123.342 104.449 123.342C104.973 123.342 105.388 123.49 105.696 123.786C106.007 124.078 106.163 124.571 106.163 125.264V128.423H105.257V125.255C105.257 124.845 105.163 124.553 104.976 124.377C104.788 124.202 104.521 124.114 104.177 124.114C103.881 124.114 103.621 124.191 103.396 124.345C103.174 124.496 102.999 124.693 102.869 124.936V128.423H101.969ZM107.216 126.954C107.216 126.449 107.424 126.057 107.839 125.777C108.258 125.493 108.788 125.352 109.428 125.352H110.615V124.968C110.615 124.688 110.532 124.46 110.366 124.285C110.203 124.106 109.922 124.017 109.525 124.017C109.125 124.017 108.839 124.095 108.666 124.252C108.497 124.406 108.412 124.585 108.412 124.788V124.811H107.511V124.788C107.511 124.391 107.695 124.043 108.061 123.744C108.427 123.446 108.923 123.296 109.548 123.296C110.17 123.296 110.654 123.436 110.999 123.717C111.343 123.997 111.516 124.414 111.516 124.968V127.315C111.516 127.515 111.531 127.704 111.562 127.883C111.596 128.058 111.641 128.214 111.696 128.349V128.423H110.823C110.777 128.343 110.735 128.24 110.698 128.114C110.665 127.984 110.643 127.857 110.634 127.73C110.511 127.937 110.312 128.12 110.038 128.28C109.764 128.437 109.41 128.516 108.976 128.516C108.489 128.516 108.073 128.382 107.728 128.114C107.387 127.846 107.216 127.459 107.216 126.954ZM108.116 126.908C108.116 127.185 108.203 127.402 108.375 127.559C108.548 127.717 108.817 127.795 109.183 127.795C109.547 127.795 109.876 127.678 110.172 127.444C110.467 127.207 110.615 126.957 110.615 126.696V125.998H109.525C109.063 125.998 108.712 126.081 108.472 126.248C108.235 126.411 108.116 126.631 108.116 126.908ZM112.915 128.423V121.329H113.816V128.423H112.915ZM117.534 128.423V123.435H118.352L118.393 124.081H118.417C118.549 123.872 118.723 123.689 118.938 123.532C119.154 123.375 119.411 123.296 119.71 123.296C119.781 123.296 119.855 123.304 119.932 123.319C120.008 123.335 120.062 123.349 120.093 123.361V124.215C120.029 124.203 119.961 124.194 119.89 124.188C119.822 124.182 119.745 124.178 119.659 124.178C119.36 124.178 119.106 124.254 118.897 124.405C118.691 124.553 118.537 124.736 118.435 124.954V128.423H117.534ZM120.532 126.003V125.855C120.532 125.104 120.746 124.489 121.174 124.012C121.602 123.535 122.167 123.296 122.869 123.296C123.574 123.296 124.116 123.52 124.495 123.966C124.874 124.412 125.063 125.014 125.063 125.772V126.151H121.091V125.426H124.153V125.412C124.153 125.021 124.053 124.694 123.853 124.433C123.653 124.171 123.326 124.04 122.874 124.04C122.409 124.04 122.055 124.215 121.811 124.566C121.568 124.914 121.447 125.344 121.447 125.855V126.003C121.447 126.511 121.574 126.941 121.83 127.292C122.085 127.643 122.48 127.818 123.012 127.818C123.342 127.818 123.625 127.75 123.862 127.615C124.099 127.479 124.29 127.318 124.435 127.13L125.017 127.615C124.857 127.849 124.604 128.066 124.259 128.266C123.918 128.463 123.502 128.562 123.012 128.562C122.212 128.562 121.597 128.323 121.169 127.846C120.744 127.369 120.532 126.754 120.532 126.003ZM125.816 126.003V125.855C125.816 125.104 126.028 124.489 126.453 124.012C126.878 123.535 127.462 123.296 128.204 123.296C128.894 123.296 129.417 123.475 129.774 123.832C130.132 124.189 130.31 124.588 130.31 125.028V125.051H129.433V125.028C129.433 124.77 129.336 124.542 129.142 124.345C128.948 124.145 128.635 124.045 128.204 124.045C127.702 124.045 127.332 124.22 127.095 124.571C126.858 124.919 126.74 125.347 126.74 125.855V126.003C126.74 126.511 126.858 126.941 127.095 127.292C127.332 127.64 127.702 127.814 128.204 127.814C128.635 127.814 128.948 127.715 129.142 127.518C129.336 127.318 129.433 127.088 129.433 126.83V126.807H130.31V126.83C130.31 127.27 130.132 127.669 129.774 128.026C129.417 128.383 128.894 128.562 128.204 128.562C127.462 128.562 126.878 128.323 126.453 127.846C126.028 127.369 125.816 126.754 125.816 126.003ZM131.045 126.003V125.855C131.045 125.104 131.265 124.489 131.705 124.012C132.148 123.535 132.74 123.296 133.479 123.296C134.218 123.296 134.809 123.535 135.252 124.012C135.696 124.489 135.917 125.104 135.917 125.855V126.003C135.917 126.754 135.696 127.369 135.252 127.846C134.809 128.323 134.218 128.562 133.479 128.562C132.74 128.562 132.148 128.323 131.705 127.846C131.265 127.369 131.045 126.754 131.045 126.003ZM131.968 125.855V126.003C131.968 126.508 132.095 126.936 132.347 127.287C132.6 127.635 132.977 127.809 133.479 127.809C133.981 127.809 134.358 127.635 134.61 127.287C134.866 126.936 134.994 126.508 134.994 126.003V125.855C134.994 125.35 134.866 124.924 134.61 124.576C134.358 124.225 133.981 124.049 133.479 124.049C132.977 124.049 132.6 124.225 132.347 124.576C132.095 124.924 131.968 125.35 131.968 125.855ZM136.998 128.423V123.435H137.816L137.857 124.091H137.88C138.068 123.857 138.293 123.673 138.555 123.541C138.82 123.409 139.112 123.342 139.432 123.342C139.78 123.342 140.081 123.41 140.333 123.546C140.586 123.681 140.776 123.897 140.906 124.192H140.929C141.151 123.891 141.395 123.673 141.663 123.541C141.934 123.409 142.241 123.342 142.582 123.342C143.118 123.342 143.537 123.49 143.839 123.786C144.144 124.081 144.296 124.574 144.296 125.264V128.423H143.395V125.255C143.392 124.845 143.301 124.553 143.123 124.377C142.944 124.202 142.69 124.114 142.361 124.114C142.074 124.114 141.825 124.191 141.613 124.345C141.4 124.496 141.229 124.693 141.1 124.936V128.423H140.195V125.255C140.195 124.845 140.104 124.553 139.922 124.377C139.743 124.202 139.489 124.114 139.16 124.114C138.874 124.114 138.624 124.191 138.412 124.345C138.199 124.496 138.028 124.693 137.899 124.936V128.423H136.998ZM145.617 128.423V123.435H146.435L146.476 124.091H146.499C146.687 123.857 146.912 123.673 147.174 123.541C147.438 123.409 147.731 123.342 148.051 123.342C148.399 123.342 148.699 123.41 148.952 123.546C149.204 123.681 149.395 123.897 149.525 124.192H149.548C149.769 123.891 150.014 123.673 150.282 123.541C150.553 123.409 150.86 123.342 151.201 123.342C151.737 123.342 152.156 123.49 152.458 123.786C152.762 124.081 152.915 124.574 152.915 125.264V128.423H152.014V125.255C152.011 124.845 151.92 124.553 151.742 124.377C151.563 124.202 151.309 124.114 150.98 124.114C150.693 124.114 150.444 124.191 150.231 124.345C150.019 124.496 149.848 124.693 149.719 124.936V128.423H148.813V125.255C148.813 124.845 148.723 124.553 148.541 124.377C148.362 124.202 148.108 124.114 147.779 124.114C147.492 124.114 147.243 124.191 147.03 124.345C146.818 124.496 146.647 124.693 146.518 124.936V128.423H145.617ZM153.945 126.003V125.855C153.945 125.104 154.159 124.489 154.587 124.012C155.015 123.535 155.58 123.296 156.282 123.296C156.987 123.296 157.529 123.52 157.908 123.966C158.287 124.412 158.476 125.014 158.476 125.772V126.151H154.504V125.426H157.566V125.412C157.566 125.021 157.466 124.694 157.266 124.433C157.066 124.171 156.739 124.04 156.287 124.04C155.822 124.04 155.468 124.215 155.224 124.566C154.981 124.914 154.859 125.344 154.859 125.855V126.003C154.859 126.511 154.987 126.941 155.243 127.292C155.498 127.643 155.893 127.818 156.425 127.818C156.755 127.818 157.038 127.75 157.275 127.615C157.512 127.479 157.703 127.318 157.848 127.13L158.43 127.615C158.27 127.849 158.017 128.066 157.672 128.266C157.331 128.463 156.915 128.562 156.425 128.562C155.625 128.562 155.01 128.323 154.582 127.846C154.157 127.369 153.945 126.754 153.945 126.003ZM159.52 128.423V123.435H160.337L160.379 124.091H160.402C160.593 123.854 160.824 123.67 161.095 123.541C161.369 123.409 161.671 123.342 162 123.342C162.524 123.342 162.939 123.49 163.247 123.786C163.558 124.078 163.714 124.571 163.714 125.264V128.423H162.809V125.255C162.809 124.845 162.715 124.553 162.527 124.377C162.339 124.202 162.073 124.114 161.728 124.114C161.432 124.114 161.172 124.191 160.947 124.345C160.725 124.496 160.55 124.693 160.421 124.936V128.423H159.52ZM164.744 126.003V125.855C164.744 125.128 164.939 124.528 165.33 124.054C165.722 123.58 166.243 123.342 166.896 123.342C167.263 123.342 167.574 123.406 167.829 123.532C168.088 123.655 168.294 123.82 168.448 124.026V121.329H169.349V128.423H168.531L168.49 127.772H168.467C168.334 127.978 168.131 128.154 167.857 128.299C167.583 128.443 167.263 128.516 166.896 128.516C166.243 128.516 165.722 128.278 165.33 127.804C164.939 127.33 164.744 126.73 164.744 126.003ZM165.668 126.003C165.668 126.499 165.783 126.916 166.014 127.255C166.245 127.593 166.607 127.763 167.099 127.763C167.432 127.763 167.714 127.676 167.945 127.504C168.176 127.332 168.343 127.136 168.448 126.917V124.941C168.343 124.722 168.176 124.526 167.945 124.354C167.714 124.182 167.432 124.095 167.099 124.095C166.607 124.095 166.245 124.265 166.014 124.603C165.783 124.942 165.668 125.359 165.668 125.855V126.003ZM170.448 126.954C170.448 126.449 170.656 126.057 171.072 125.777C171.49 125.493 172.02 125.352 172.661 125.352H173.848V124.968C173.848 124.688 173.765 124.46 173.598 124.285C173.435 124.106 173.155 124.017 172.758 124.017C172.357 124.017 172.071 124.095 171.898 124.252C171.729 124.406 171.644 124.585 171.644 124.788V124.811H170.744V124.788C170.744 124.391 170.927 124.043 171.293 123.744C171.66 123.446 172.156 123.296 172.781 123.296C173.403 123.296 173.886 123.436 174.231 123.717C174.576 123.997 174.748 124.414 174.748 124.968V127.315C174.748 127.515 174.764 127.704 174.795 127.883C174.828 128.058 174.873 128.214 174.928 128.349V128.423H174.055C174.009 128.343 173.968 128.24 173.931 128.114C173.897 127.984 173.875 127.857 173.866 127.73C173.743 127.937 173.544 128.12 173.27 128.28C172.996 128.437 172.642 128.516 172.208 128.516C171.721 128.516 171.306 128.382 170.961 128.114C170.619 127.846 170.448 127.459 170.448 126.954ZM171.349 126.908C171.349 127.185 171.435 127.402 171.607 127.559C171.78 127.717 172.049 127.795 172.416 127.795C172.779 127.795 173.109 127.678 173.404 127.444C173.7 127.207 173.848 126.957 173.848 126.696V125.998H172.758C172.296 125.998 171.945 126.081 171.704 126.248C171.467 126.411 171.349 126.631 171.349 126.908ZM175.427 124.142V123.435H178.365V124.142H175.427ZM176.346 127.181V123.855V123.717V122.363H177.247V127.181C177.247 127.396 177.292 127.55 177.381 127.643C177.473 127.735 177.617 127.781 177.811 127.781C177.903 127.781 177.992 127.772 178.079 127.753C178.165 127.735 178.254 127.71 178.346 127.68V128.423C178.26 128.46 178.149 128.493 178.014 128.52C177.881 128.548 177.737 128.562 177.58 128.562C177.204 128.562 176.904 128.451 176.679 128.229C176.457 128.004 176.346 127.655 176.346 127.181ZM179.321 128.423V123.435H180.222V128.423H179.321ZM179.229 121.994C179.229 121.846 179.275 121.723 179.367 121.624C179.463 121.523 179.598 121.472 179.774 121.472C179.946 121.472 180.079 121.523 180.171 121.624C180.266 121.723 180.314 121.846 180.314 121.994C180.314 122.145 180.266 122.271 180.171 122.372C180.079 122.471 179.946 122.52 179.774 122.52C179.598 122.52 179.463 122.471 179.367 122.372C179.275 122.271 179.229 122.145 179.229 121.994ZM181.344 126.003V125.855C181.344 125.104 181.564 124.489 182.005 124.012C182.448 123.535 183.039 123.296 183.778 123.296C184.517 123.296 185.108 123.535 185.552 124.012C185.995 124.489 186.217 125.104 186.217 125.855V126.003C186.217 126.754 185.995 127.369 185.552 127.846C185.108 128.323 184.517 128.562 183.778 128.562C183.039 128.562 182.448 128.323 182.005 127.846C181.564 127.369 181.344 126.754 181.344 126.003ZM182.268 125.855V126.003C182.268 126.508 182.394 126.936 182.647 127.287C182.899 127.635 183.276 127.809 183.778 127.809C184.28 127.809 184.657 127.635 184.91 127.287C185.165 126.936 185.293 126.508 185.293 126.003V125.855C185.293 125.35 185.165 124.924 184.91 124.576C184.657 124.225 184.28 124.049 183.778 124.049C183.276 124.049 182.899 124.225 182.647 124.576C182.394 124.924 182.268 125.35 182.268 125.855ZM187.298 128.423V123.435H188.115L188.157 124.091H188.18C188.371 123.854 188.602 123.67 188.873 123.541C189.147 123.409 189.449 123.342 189.778 123.342C190.302 123.342 190.717 123.49 191.025 123.786C191.336 124.078 191.492 124.571 191.492 125.264V128.423H190.586V125.255C190.586 124.845 190.493 124.553 190.305 124.377C190.117 124.202 189.851 124.114 189.506 124.114C189.21 124.114 188.95 124.191 188.725 124.345C188.503 124.496 188.328 124.693 188.199 124.936V128.423H187.298Z" fill="#4E4B66"/>
<path d="M11.9191 94.8778V80.8945H15.9335V82.5019H13.954V93.2705H15.9335V94.8778H11.9191ZM21.7296 92.4232V80.8945H24.4692L27.4227 88.7492C27.486 88.9182 27.5414 89.0844 27.5889 89.2481C27.6417 89.4117 27.6866 89.5859 27.7236 89.7707H27.779C27.8159 89.5859 27.8582 89.4117 27.9057 89.2481C27.9585 89.0844 28.0165 88.9182 28.0799 88.7492L31.0412 80.8945H33.8126V92.4232H31.7143V84.7506C31.7143 84.5817 31.7169 84.3943 31.7222 84.1884C31.7327 83.9773 31.7459 83.7846 31.7618 83.6104H31.6984C31.672 83.7846 31.6298 83.9773 31.5717 84.1884C31.519 84.3943 31.4609 84.5817 31.3975 84.7506L28.5154 92.4232H26.7417L23.8675 84.7506C23.8041 84.5817 23.7434 84.3917 23.6853 84.1805C23.6325 83.9694 23.593 83.7793 23.5666 83.6104H23.5032C23.5191 83.7793 23.5296 83.9694 23.5349 84.1805C23.5455 84.3917 23.5507 84.5817 23.5507 84.7506V92.4232H21.7296ZM35.6891 89.9845C35.6891 89.0923 36.0349 88.414 36.7264 87.9495C37.4232 87.4797 38.3047 87.2448 39.371 87.2448H41.0813V86.738C41.0813 86.3263 40.9731 85.9911 40.7567 85.7324C40.5456 85.4738 40.176 85.3445 39.6482 85.3445C39.115 85.3445 38.735 85.4527 38.508 85.6691C38.281 85.8802 38.1675 86.1363 38.1675 86.4372V86.5322H36.1405V86.4292C36.1405 85.7166 36.4704 85.1175 37.1302 84.6318C37.7901 84.1409 38.6558 83.8955 39.7274 83.8955C40.8042 83.8955 41.6435 84.1304 42.2453 84.6002C42.8471 85.0647 43.148 85.78 43.148 86.746V90.5466C43.148 90.8845 43.177 91.2065 43.2351 91.5126C43.2931 91.8135 43.3723 92.0748 43.4726 92.2965V92.4232H41.4535C41.3849 92.2965 41.3242 92.1329 41.2714 91.9323C41.2186 91.7317 41.1843 91.5338 41.1684 91.3384C40.9942 91.6604 40.6828 91.9481 40.2341 92.2015C39.7854 92.4496 39.2206 92.5737 38.5396 92.5737C37.732 92.5737 37.0537 92.3572 36.5047 91.9244C35.961 91.4862 35.6891 90.8396 35.6891 89.9845ZM37.7478 89.8182C37.7478 90.2194 37.864 90.5387 38.0962 90.7763C38.3285 91.0138 38.6927 91.1326 39.1889 91.1326C39.7062 91.1326 40.1497 90.9637 40.5192 90.6258C40.894 90.2827 41.0813 89.8921 41.0813 89.4539V88.5354H39.664C39.02 88.5354 38.5396 88.6489 38.2229 88.8759C37.9062 89.0976 37.7478 89.4117 37.7478 89.8182ZM44.2961 92.4232L47.495 87.7199H47.7721L50.0209 84.133H52.0558L49.0548 88.7017H48.7856L46.3389 92.4232H44.2961ZM44.494 84.133H46.8378L49.1182 87.712L49.1736 87.7199L52.3567 92.4232H50.0129L47.6058 88.6938L47.5504 88.6859L44.494 84.133ZM53.5286 92.4232V84.133H55.5952V92.4232H53.5286ZM53.3385 81.7338C53.3385 81.4171 53.4441 81.1505 53.6552 80.9341C53.8664 80.7124 54.1699 80.6015 54.5658 80.6015C54.9565 80.6015 55.2573 80.7124 55.4685 80.9341C55.6849 81.1505 55.7931 81.4171 55.7931 81.7338C55.7931 82.0558 55.6849 82.3277 55.4685 82.5494C55.2573 82.7658 54.9538 82.874 54.5579 82.874C54.1673 82.874 53.8664 82.7658 53.6552 82.5494C53.4441 82.3277 53.3385 82.0558 53.3385 81.7338ZM57.7647 92.4232V84.133H59.6967L59.7522 85.1307H59.7997C60.0583 84.7664 60.3962 84.4814 60.8132 84.2755C61.2302 84.0696 61.6815 83.9667 62.1672 83.9667C62.7373 83.9667 63.2308 84.0855 63.6479 84.323C64.0702 84.5606 64.3816 84.9169 64.5822 85.392H64.6218C64.9227 84.9169 65.3054 84.5606 65.7699 84.323C66.2344 84.0855 66.7412 83.9667 67.2902 83.9667C68.1295 83.9667 68.7999 84.2201 69.3014 84.7268C69.8028 85.2283 70.0536 86.0703 70.0536 87.2527V92.4232H67.987V87.1735C67.987 86.6193 67.8708 86.2181 67.6386 85.97C67.4063 85.7166 67.0711 85.5873 66.633 85.582C66.2476 85.582 65.9098 85.6902 65.6195 85.9066C65.3344 86.1178 65.1074 86.4081 64.9385 86.7776V92.4232H62.8719V87.1894C62.8719 86.6298 62.7558 86.2234 62.5235 85.97C62.2912 85.7113 61.9508 85.582 61.5021 85.582C61.1167 85.582 60.7815 85.6876 60.4965 85.8987C60.2167 86.1099 59.9923 86.4028 59.8234 86.7776V92.4232H57.7647ZM72.0173 89.3035V84.133H74.0839V89.351C74.0839 89.9475 74.2079 90.3672 74.456 90.61C74.7094 90.8528 75.0604 90.9742 75.5091 90.9742C75.8998 90.9742 76.2482 90.8634 76.5543 90.6417C76.8605 90.4147 77.0954 90.1323 77.259 89.7944V84.133H79.3177V92.4232H77.3778L77.3224 91.4414H77.2828C77.0241 91.7951 76.681 92.0748 76.2534 92.2807C75.8259 92.4813 75.3455 92.5816 74.8123 92.5816C73.9836 92.5816 73.3106 92.3308 72.7932 91.8294C72.2759 91.3279 72.0173 90.4859 72.0173 89.3035ZM81.4398 92.4232V84.133H83.3718L83.4272 85.1307H83.4747C83.7334 84.7664 84.0712 84.4814 84.4882 84.2755C84.9053 84.0696 85.3566 83.9667 85.8422 83.9667C86.4123 83.9667 86.9059 84.0855 87.3229 84.323C87.7452 84.5606 88.0566 84.9169 88.2572 85.392H88.2968C88.5977 84.9169 88.9804 84.5606 89.4449 84.323C89.9095 84.0855 90.4162 83.9667 90.9652 83.9667C91.8045 83.9667 92.4749 84.2201 92.9764 84.7268C93.4779 85.2283 93.7286 86.0703 93.7286 87.2527V92.4232H91.662V87.1735C91.662 86.6193 91.5459 86.2181 91.3136 85.97C91.0814 85.7166 90.7462 85.5873 90.308 85.582C89.9227 85.582 89.5848 85.6902 89.2945 85.9066C89.0095 86.1178 88.7825 86.4081 88.6136 86.7776V92.4232H86.5469V87.1894C86.5469 86.6298 86.4308 86.2234 86.1985 85.97C85.9663 85.7113 85.6258 85.582 85.1771 85.582C84.7918 85.582 84.4566 85.6876 84.1715 85.8987C83.8917 86.1099 83.6674 86.4028 83.4985 86.7776V92.4232H81.4398ZM103.27 94.8778H99.2554V93.2705H101.235V82.5019H99.2554V80.8945H103.27V94.8778Z" fill="#BC66EE"/>
</g>
<path id="Label" d="M11.2617 16.3152V10.5584H13.8077C14.0725 10.5584 14.3158 10.6125 14.5374 10.7206C14.7644 10.8287 14.959 10.9746 15.1212 11.1584C15.2887 11.3422 15.4158 11.5476 15.5023 11.7746C15.5941 12.0017 15.6401 12.2341 15.6401 12.4719C15.6401 12.7152 15.5968 12.9503 15.5104 13.1773C15.4293 13.399 15.3104 13.5936 15.1536 13.7611C14.9968 13.9287 14.8131 14.0584 14.6023 14.1503L15.9158 16.3152H14.6833L13.4996 14.3855H12.3806V16.3152H11.2617ZM12.3806 13.4044H13.7833C13.9239 13.4044 14.0482 13.3638 14.1563 13.2828C14.2644 13.1963 14.3509 13.0828 14.4158 12.9422C14.4806 12.8017 14.5131 12.6449 14.5131 12.4719C14.5131 12.2882 14.4752 12.1287 14.3996 11.9936C14.3239 11.853 14.2266 11.7422 14.1077 11.6611C13.9941 11.58 13.8698 11.5395 13.7347 11.5395H12.3806V13.4044ZM21.4958 15.3341V16.3152H17.4985V10.5584H21.4228V11.5395H18.6174V12.926H21.0418V13.8341H18.6174V15.3341H21.4958ZM24.7776 10.5584H25.9127L28.0289 16.3152H26.8776L26.3425 14.8801H24.3316L23.8046 16.3152H22.6533L24.7776 10.5584ZM26.1398 14.0936L25.3452 11.7179L24.5181 14.0936H26.1398ZM29.505 16.3152V10.5584H31.5968C32.2239 10.5584 32.7482 10.6882 33.1698 10.9476C33.5914 11.2017 33.9077 11.5476 34.1185 11.9855C34.3293 12.4179 34.4347 12.899 34.4347 13.4287C34.4347 14.0125 34.3185 14.5206 34.086 14.953C33.8536 15.3855 33.5239 15.7206 33.0968 15.9584C32.6752 16.1963 32.1752 16.3152 31.5968 16.3152H29.505ZM33.3077 13.4287C33.3077 13.0557 33.2401 12.7287 33.105 12.4476C32.9698 12.1611 32.7752 11.9395 32.5212 11.7828C32.2671 11.6206 31.959 11.5395 31.5968 11.5395H30.6239V15.3341H31.5968C31.9644 15.3341 32.2752 15.253 32.5293 15.0909C32.7833 14.9233 32.9752 14.6963 33.105 14.4098C33.2401 14.1179 33.3077 13.7909 33.3077 13.4287ZM43.6405 16.3152V12.5368L42.1649 15.3503H41.5405L40.0649 12.5368V16.3152H38.9459V10.5584H40.1459L41.8486 13.8341L43.5676 10.5584H44.7595V16.3152H43.6405ZM49.2627 16.3557C48.8411 16.3557 48.4573 16.2746 48.1114 16.1125C47.7708 15.9503 47.4762 15.7314 47.2276 15.4557C46.9843 15.1746 46.7951 14.8611 46.66 14.5152C46.5249 14.1638 46.4573 13.8044 46.4573 13.4368C46.4573 13.053 46.5276 12.6882 46.6681 12.3422C46.8141 11.9909 47.0114 11.6801 47.26 11.4098C47.5141 11.1341 47.8114 10.9179 48.1519 10.7611C48.4978 10.599 48.8762 10.5179 49.287 10.5179C49.7032 10.5179 50.0816 10.6017 50.4222 10.7692C50.7681 10.9368 51.0627 11.1611 51.306 11.4422C51.5492 11.7233 51.7384 12.0368 51.8735 12.3828C52.0087 12.7287 52.0762 13.0855 52.0762 13.453C52.0762 13.8314 52.006 14.1963 51.8654 14.5476C51.7249 14.8936 51.5276 15.2044 51.2735 15.4801C51.0249 15.7503 50.7276 15.9638 50.3816 16.1206C50.0411 16.2773 49.6681 16.3557 49.2627 16.3557ZM47.5924 13.4368C47.5924 13.6855 47.6303 13.926 47.706 14.1584C47.7816 14.3909 47.8897 14.599 48.0303 14.7828C48.1762 14.9611 48.3519 15.1044 48.5573 15.2125C48.7681 15.3152 49.006 15.3665 49.2708 15.3665C49.5411 15.3665 49.7816 15.3125 49.9924 15.2044C50.2032 15.0909 50.3789 14.9422 50.5195 14.7584C50.66 14.5692 50.7654 14.3611 50.8357 14.1341C50.9114 13.9017 50.9492 13.6692 50.9492 13.4368C50.9492 13.1882 50.9087 12.9503 50.8276 12.7233C50.7519 12.4909 50.6411 12.2855 50.4951 12.1071C50.3546 11.9233 50.1789 11.78 49.9681 11.6773C49.7627 11.5692 49.5303 11.5152 49.2708 11.5152C48.9951 11.5152 48.7519 11.5719 48.5411 11.6855C48.3357 11.7936 48.1627 11.9395 48.0222 12.1233C47.8816 12.3071 47.7735 12.5125 47.6978 12.7395C47.6276 12.9665 47.5924 13.199 47.5924 13.4368ZM53.7791 16.3152V10.5584H56.3251C56.5899 10.5584 56.8332 10.6125 57.0548 10.7206C57.2818 10.8287 57.4764 10.9746 57.6386 11.1584C57.8062 11.3422 57.9332 11.5476 58.0197 11.7746C58.1116 12.0017 58.1575 12.2341 58.1575 12.4719C58.1575 12.7152 58.1143 12.9503 58.0278 13.1773C57.9467 13.399 57.8278 13.5936 57.671 13.7611C57.5143 13.9287 57.3305 14.0584 57.1197 14.1503L58.4332 16.3152H57.2008L56.017 14.3855H54.8981V16.3152H53.7791ZM54.8981 13.4044H56.3008C56.4413 13.4044 56.5656 13.3638 56.6737 13.2828C56.7818 13.1963 56.8683 13.0828 56.9332 12.9422C56.9981 12.8017 57.0305 12.6449 57.0305 12.4719C57.0305 12.2882 56.9926 12.1287 56.917 11.9936C56.8413 11.853 56.744 11.7422 56.6251 11.6611C56.5116 11.58 56.3872 11.5395 56.2521 11.5395H54.8981V13.4044ZM64.0132 15.3341V16.3152H60.0159V10.5584H63.9403V11.5395H61.1349V12.926H63.5592V13.8341H61.1349V15.3341H64.0132Z" fill="white"/>
</g>
<rect x="1.01351" y="1.22054" width="222.973" height="147.297" rx="15.2027" stroke="url(#paint0_linear_965_3966)" stroke-width="2.02703"/>
</g>
<defs>
<linearGradient id="paint0_linear_965_3966" x1="112.5" y1="0.207031" x2="112.5" y2="149.531" gradientUnits="userSpaceOnUse">
<stop stop-color="white"/>
<stop offset="0.049011" stop-color="#D9DBE9"/>
<stop offset="0.95" stop-color="#D3D3D3"/>
<stop offset="1" stop-color="#7A7B83"/>
<stop offset="1" stop-color="#EDEDED"/>
</linearGradient>
<clipPath id="clip0_965_3966">
<rect y="0.207031" width="225" height="149.324" rx="16.2162" fill="white"/>
</clipPath>
</defs>
</svg>
