<svg width="345" height="230" viewBox="0 0 345 230" fill="none" xmlns="http://www.w3.org/2000/svg">
<g id="Frame 427320290">
<g clip-path="url(#clip0_965_3972)">
<rect y="0.207031" width="345" height="228.964" rx="24.8649" fill="white"/>
<g id="TruthWorthy Websites tend to have healthier conversion by Using [ Maximum ] potential of Marketing Compared to traditional recommendation">
<path d="M16.819 35.9563V33.3945H30.5869V35.9563H25.3541V51.0719H22.0639V35.9563H16.819ZM31.0483 51.0719V38.688H34.0836L34.1443 40.1814H34.1928C34.4842 39.6796 34.8727 39.2546 35.3584 38.9066C35.844 38.5504 36.4025 38.3724 37.0338 38.3724C37.2119 38.3724 37.394 38.3926 37.5802 38.4331C37.7744 38.4654 37.908 38.4978 37.9808 38.5302V41.2134C37.8351 41.181 37.6733 41.1567 37.4952 41.1405C37.3171 41.1162 37.1229 41.1041 36.9124 41.1041C36.3216 41.1041 35.7874 41.2781 35.3098 41.6262C34.8323 41.9661 34.4761 42.4072 34.2414 42.9495V51.0719H31.0483ZM39.6927 46.5069V38.688H42.8737V46.4704C42.8737 47.3608 43.0598 47.984 43.4322 48.3402C43.8045 48.6963 44.3225 48.8744 44.9862 48.8744C45.569 48.8744 46.087 48.7084 46.5403 48.3766C46.9935 48.0366 47.3416 47.6077 47.5844 47.0896V38.688H50.7532V51.0719H47.7544L47.6815 49.5421H47.6208C47.2404 50.0925 46.7224 50.5296 46.0668 50.8534C45.4193 51.169 44.6867 51.3269 43.8692 51.3269C42.6309 51.3269 41.6232 50.9586 40.8461 50.222C40.0772 49.4774 39.6927 48.239 39.6927 46.5069ZM52.3194 41.0313V38.688H59.9683V41.0313H52.3194ZM54.2984 47.5389V39.7686L54.3227 39.4651V35.4099H57.4551V47.3203C57.4551 47.9678 57.5643 48.4049 57.7829 48.6315C58.0014 48.8582 58.3292 48.9715 58.7663 48.9715C58.9606 48.9715 59.1548 48.9513 59.3491 48.9108C59.5433 48.8703 59.7376 48.8137 59.9319 48.7408V51.0598C59.7295 51.1488 59.4503 51.2257 59.0941 51.2904C58.7461 51.3633 58.3495 51.3997 57.9043 51.3997C56.7954 51.3997 55.9172 51.0921 55.2697 50.477C54.6222 49.8618 54.2984 48.8825 54.2984 47.5389ZM61.9837 51.0719V32.6904H65.1525V40.3028C65.5248 39.7443 66.0347 39.2951 66.6823 38.9551C67.3298 38.6071 68.0987 38.4331 68.9891 38.4331C70.1627 38.4331 71.1259 38.7933 71.8786 39.5136C72.6314 40.234 73.0078 41.4198 73.0078 43.0709V51.0719H69.8389V43.3016C69.8389 42.4356 69.6487 41.8204 69.2683 41.4562C68.8879 41.0839 68.3618 40.8977 67.69 40.8977C67.0991 40.8977 66.5851 41.0636 66.1481 41.3955C65.7191 41.7273 65.3872 42.1725 65.1525 42.731V51.0719H61.9837ZM78.9933 51.1447L74.7925 33.3945H78.022L80.7659 45.6934C80.8225 45.9362 80.863 46.1426 80.8873 46.3126C80.9197 46.4826 80.948 46.7011 80.9723 46.9682H81.0694C81.1018 46.7011 81.1301 46.4826 81.1544 46.3126C81.1868 46.1426 81.2313 45.9362 81.288 45.6934L84.2868 33.3945H87.7227L90.7944 45.6813C90.8591 45.9322 90.9037 46.1426 90.9279 46.3126C90.9522 46.4826 90.9765 46.7011 91.0008 46.9682H91.0979C91.1303 46.7011 91.1586 46.4826 91.1829 46.3126C91.2153 46.1345 91.2558 45.9241 91.3043 45.6813L93.9511 33.3945H96.9135L92.7491 51.1447H89.2889L86.1565 38.8094C86.0999 38.5747 86.0472 38.344 85.9987 38.1174C85.9582 37.8908 85.9218 37.6479 85.8894 37.3889H85.8044C85.772 37.6479 85.7356 37.8908 85.6952 38.1174C85.6547 38.3359 85.6061 38.5666 85.5495 38.8094L82.4292 51.1447H78.9933ZM97.6662 45.0621V44.6736C97.6662 42.7634 98.2409 41.2296 99.3903 40.0721C100.548 38.9147 102.065 38.3359 103.943 38.3359C105.829 38.3359 107.347 38.9147 108.496 40.0721C109.645 41.2296 110.22 42.7634 110.22 44.6736V45.0621C110.22 46.9804 109.645 48.5182 108.496 49.6757C107.347 50.8331 105.829 51.4118 103.943 51.4118C102.065 51.4118 100.548 50.8331 99.3903 49.6757C98.2409 48.5182 97.6662 46.9804 97.6662 45.0621ZM100.896 44.5522V45.1835C100.896 46.349 101.155 47.2798 101.673 47.9759C102.199 48.6639 102.956 49.0079 103.943 49.0079C104.931 49.0079 105.683 48.6639 106.201 47.9759C106.727 47.2798 106.991 46.349 106.991 45.1835V44.5522C106.991 43.3866 106.727 42.4639 106.201 41.784C105.675 41.096 104.923 40.752 103.943 40.752C102.964 40.752 102.211 41.096 101.685 41.784C101.159 42.4639 100.896 43.3866 100.896 44.5522ZM112.588 51.0719V38.688H115.623L115.684 40.1814H115.732C116.023 39.6796 116.412 39.2546 116.898 38.9066C117.383 38.5504 117.942 38.3724 118.573 38.3724C118.751 38.3724 118.933 38.3926 119.119 38.4331C119.314 38.4654 119.447 38.4978 119.52 38.5302V41.2134C119.374 41.181 119.213 41.1567 119.034 41.1405C118.856 41.1162 118.662 41.1041 118.452 41.1041C117.861 41.1041 117.327 41.2781 116.849 41.6262C116.372 41.9661 116.015 42.4072 115.781 42.9495V51.0719H112.588ZM120.431 41.0313V38.688H128.08V41.0313H120.431ZM122.41 47.5389V39.7686L122.434 39.4651V35.4099H125.566V47.3203C125.566 47.9678 125.676 48.4049 125.894 48.6315C126.113 48.8582 126.441 48.9715 126.878 48.9715C127.072 48.9715 127.266 48.9513 127.46 48.9108C127.655 48.8703 127.849 48.8137 128.043 48.7408V51.0598C127.841 51.1488 127.562 51.2257 127.205 51.2904C126.857 51.3633 126.461 51.3997 126.016 51.3997C124.907 51.3997 124.028 51.0921 123.381 50.477C122.733 49.8618 122.41 48.8825 122.41 47.5389ZM130.095 51.0719V32.6904H133.264V40.3028C133.636 39.7443 134.146 39.2951 134.794 38.9551C135.441 38.6071 136.21 38.4331 137.1 38.4331C138.274 38.4331 139.237 38.7933 139.99 39.5136C140.743 40.234 141.119 41.4198 141.119 43.0709V51.0719H137.95V43.3016C137.95 42.4356 137.76 41.8204 137.38 41.4562C136.999 41.0839 136.473 40.8977 135.801 40.8977C135.21 40.8977 134.696 41.0636 134.259 41.3955C133.83 41.7273 133.499 42.1725 133.264 42.731V51.0719H130.095ZM143.389 56.1104L143.414 53.7551C143.624 53.8198 143.855 53.8684 144.106 53.9008C144.365 53.9412 144.612 53.9615 144.846 53.9615C145.405 53.9615 145.886 53.7632 146.291 53.3666C146.704 52.978 147.084 52.2051 147.432 51.0476L147.372 51.0355L142.6 38.688H145.757L148.416 46.2033C148.521 46.4947 148.606 46.7618 148.671 47.0046C148.736 47.2475 148.796 47.4903 148.853 47.7331H148.926C148.982 47.4903 149.043 47.2475 149.108 47.0046C149.181 46.7618 149.266 46.4907 149.363 46.1912L151.949 38.688H154.826L149.751 52.456C149.258 53.7753 148.642 54.7547 147.906 55.3941C147.177 56.0416 146.263 56.3654 145.162 56.3654C144.773 56.3654 144.438 56.3452 144.154 56.3047C143.879 56.2642 143.624 56.1995 143.389 56.1104ZM165.219 51.1447L161.018 33.3945H164.248L166.992 45.6934C167.048 45.9362 167.089 46.1426 167.113 46.3126C167.145 46.4826 167.174 46.7011 167.198 46.9682H167.295C167.328 46.7011 167.356 46.4826 167.38 46.3126C167.412 46.1426 167.457 45.9362 167.514 45.6934L170.513 33.3945H173.948L177.02 45.6813C177.085 45.9322 177.129 46.1426 177.154 46.3126C177.178 46.4826 177.202 46.7011 177.227 46.9682H177.324C177.356 46.7011 177.384 46.4826 177.409 46.3126C177.441 46.1345 177.481 45.9241 177.53 45.6813L180.177 33.3945H183.139L178.975 51.1447H175.515L172.382 38.8094C172.326 38.5747 172.273 38.344 172.224 38.1174C172.184 37.8908 172.148 37.6479 172.115 37.3889H172.03C171.998 37.6479 171.961 37.8908 171.921 38.1174C171.88 38.3359 171.832 38.5666 171.775 38.8094L168.655 51.1447H165.219ZM183.892 45.0621V44.6736C183.892 42.7715 184.45 41.2417 185.567 40.0843C186.692 38.9187 188.153 38.3359 189.95 38.3359C191.747 38.3359 193.143 38.8823 194.139 39.975C195.135 41.0677 195.632 42.5691 195.632 44.4793V45.5841H185.895V43.5809H192.5V43.3502C192.5 42.6055 192.285 41.9742 191.856 41.4562C191.427 40.9301 190.796 40.667 189.962 40.667C189.007 40.667 188.283 41.0232 187.789 41.7354C187.304 42.4477 187.061 43.3704 187.061 44.5036V45.1592C187.061 46.3248 187.32 47.2637 187.838 47.9759C188.364 48.6882 189.145 49.0443 190.181 49.0443C190.877 49.0443 191.476 48.8865 191.978 48.5708C192.48 48.2471 192.88 47.8626 193.18 47.4174L195.475 48.753C195.086 49.5057 194.438 50.137 193.532 50.647C192.634 51.1569 191.529 51.4118 190.217 51.4118C188.226 51.4118 186.672 50.8331 185.555 49.6757C184.446 48.5101 183.892 46.9723 183.892 45.0621ZM197.891 51.0719V32.6904H201.059V40.0721C201.448 39.5622 201.942 39.1615 202.541 38.8701C203.148 38.5788 203.86 38.4331 204.677 38.4331C206.264 38.4331 207.522 39.0118 208.453 40.1692C209.392 41.3267 209.862 42.82 209.862 44.6493V45.0378C209.862 46.8671 209.388 48.3725 208.441 49.5543C207.502 50.7279 206.244 51.3147 204.665 51.3147C203.848 51.3147 203.107 51.1569 202.443 50.8412C201.788 50.5175 201.31 50.1047 201.011 49.6028H200.95L200.889 51.0719H197.891ZM201.059 47.0532C201.262 47.5469 201.594 47.984 202.055 48.3644C202.516 48.7368 203.103 48.9229 203.815 48.9229C204.77 48.9229 205.479 48.5668 205.94 47.8545C206.401 47.1342 206.632 46.2236 206.632 45.1228V44.5886C206.632 43.4878 206.401 42.5894 205.94 41.8933C205.487 41.1891 204.766 40.837 203.779 40.837C203.099 40.837 202.524 41.0272 202.055 41.4076C201.594 41.78 201.262 42.2089 201.059 42.6946V47.0532ZM211.549 47.2232L214.597 47.2353V47.4053C214.597 48.0447 214.815 48.5101 215.252 48.8015C215.689 49.0929 216.276 49.2386 217.013 49.2386C217.749 49.2386 218.312 49.105 218.7 48.8379C219.097 48.5627 219.295 48.1864 219.295 47.7088C219.295 47.2394 219.101 46.8873 218.712 46.6526C218.324 46.4178 217.474 46.1588 216.163 45.8755C214.722 45.568 213.65 45.1106 212.945 44.5036C212.241 43.8965 211.889 43.0831 211.889 42.0632C211.889 40.922 212.347 40.0155 213.261 39.3436C214.184 38.6718 215.434 38.3359 217.013 38.3359C218.575 38.3359 219.821 38.684 220.752 39.3801C221.691 40.0681 222.161 41.0191 222.161 42.2332V42.3789H219.125V42.1847C219.125 41.6504 218.947 41.2417 218.591 40.9584C218.235 40.6751 217.701 40.5335 216.988 40.5335C216.284 40.5335 215.77 40.6549 215.447 40.8977C215.123 41.1324 214.961 41.4562 214.961 41.869C214.961 42.2656 215.163 42.5813 215.568 42.816C215.973 43.0507 216.831 43.3097 218.142 43.593C219.583 43.8925 220.659 44.3417 221.371 44.9407C222.084 45.5315 222.44 46.3652 222.44 47.4417C222.44 48.672 221.982 49.6433 221.068 50.3556C220.153 51.0598 218.81 51.4118 217.037 51.4118C215.281 51.4118 213.929 51.0557 212.982 50.3434C212.035 49.6312 211.557 48.6356 211.549 47.3567V47.2232ZM224.904 51.0719V38.688H228.085V51.0719H224.904ZM224.625 34.9364C224.625 34.4508 224.787 34.0421 225.111 33.7102C225.435 33.3783 225.896 33.2124 226.495 33.2124C227.102 33.2124 227.567 33.3783 227.891 33.7102C228.215 34.0421 228.377 34.4508 228.377 34.9364C228.377 35.4302 228.211 35.847 227.879 36.187C227.555 36.5188 227.094 36.6848 226.495 36.6848C225.888 36.6848 225.422 36.5188 225.099 36.187C224.783 35.847 224.625 35.4302 224.625 34.9364ZM229.7 41.0313V38.688H237.349V41.0313H229.7ZM231.679 47.5389V39.7686L231.703 39.4651V35.4099H234.836V47.3203C234.836 47.9678 234.945 48.4049 235.164 48.6315C235.382 48.8582 235.71 48.9715 236.147 48.9715C236.341 48.9715 236.536 48.9513 236.73 48.9108C236.924 48.8703 237.118 48.8137 237.313 48.7408V51.0598C237.11 51.1488 236.831 51.2257 236.475 51.2904C236.127 51.3633 235.73 51.3997 235.285 51.3997C234.176 51.3997 233.298 51.0921 232.65 50.477C232.003 49.8618 231.679 48.8825 231.679 47.5389ZM238.672 45.0621V44.6736C238.672 42.7715 239.231 41.2417 240.348 40.0843C241.473 38.9187 242.934 38.3359 244.731 38.3359C246.528 38.3359 247.924 38.8823 248.919 39.975C249.915 41.0677 250.413 42.5691 250.413 44.4793V45.5841H240.676V43.5809H247.28V43.3502C247.28 42.6055 247.066 41.9742 246.637 41.4562C246.208 40.9301 245.577 40.667 244.743 40.667C243.788 40.667 243.063 41.0232 242.57 41.7354C242.084 42.4477 241.841 43.3704 241.841 44.5036V45.1592C241.841 46.3248 242.1 47.2637 242.618 47.9759C243.144 48.6882 243.925 49.0443 244.961 49.0443C245.657 49.0443 246.256 48.8865 246.758 48.5708C247.26 48.2471 247.661 47.8626 247.96 47.4174L250.255 48.753C249.866 49.5057 249.219 50.137 248.312 50.647C247.414 51.1569 246.309 51.4118 244.998 51.4118C243.007 51.4118 241.453 50.8331 240.336 49.6757C239.227 48.5101 238.672 46.9723 238.672 45.0621ZM251.979 47.2232L255.026 47.2353V47.4053C255.026 48.0447 255.245 48.5101 255.682 48.8015C256.119 49.0929 256.706 49.2386 257.442 49.2386C258.179 49.2386 258.742 49.105 259.13 48.8379C259.527 48.5627 259.725 48.1864 259.725 47.7088C259.725 47.2394 259.531 46.8873 259.142 46.6526C258.754 46.4178 257.904 46.1588 256.593 45.8755C255.152 45.568 254.079 45.1106 253.375 44.5036C252.671 43.8965 252.319 43.0831 252.319 42.0632C252.319 40.922 252.776 40.0155 253.691 39.3436C254.614 38.6718 255.864 38.3359 257.442 38.3359C259.005 38.3359 260.251 38.684 261.182 39.3801C262.121 40.0681 262.59 41.0191 262.59 42.2332V42.3789H259.555V42.1847C259.555 41.6504 259.377 41.2417 259.021 40.9584C258.665 40.6751 258.13 40.5335 257.418 40.5335C256.714 40.5335 256.2 40.6549 255.876 40.8977C255.552 41.1324 255.391 41.4562 255.391 41.869C255.391 42.2656 255.593 42.5813 255.998 42.816C256.402 43.0507 257.26 43.3097 258.572 43.593C260.012 43.8925 261.089 44.3417 261.801 44.9407C262.513 45.5315 262.869 46.3652 262.869 47.4417C262.869 48.672 262.412 49.6433 261.498 50.3556C260.583 51.0598 259.239 51.4118 257.467 51.4118C255.71 51.4118 254.359 51.0557 253.412 50.3434C252.465 49.6312 251.987 48.6356 251.979 47.3567V47.2232ZM269.668 41.0313V38.688H277.317V41.0313H269.668ZM271.647 47.5389V39.7686L271.672 39.4651V35.4099H274.804V47.3203C274.804 47.9678 274.913 48.4049 275.132 48.6315C275.35 48.8582 275.678 48.9715 276.115 48.9715C276.31 48.9715 276.504 48.9513 276.698 48.9108C276.892 48.8703 277.087 48.8137 277.281 48.7408V51.0598C277.079 51.1488 276.799 51.2257 276.443 51.2904C276.095 51.3633 275.698 51.3997 275.253 51.3997C274.144 51.3997 273.266 51.0921 272.619 50.477C271.971 49.8618 271.647 48.8825 271.647 47.5389ZM278.641 45.0621V44.6736C278.641 42.7715 279.199 41.2417 280.316 40.0843C281.441 38.9187 282.902 38.3359 284.699 38.3359C286.496 38.3359 287.892 38.8823 288.888 39.975C289.883 41.0677 290.381 42.5691 290.381 44.4793V45.5841H280.644V43.5809H287.249V43.3502C287.249 42.6055 287.034 41.9742 286.605 41.4562C286.176 40.9301 285.545 40.667 284.711 40.667C283.756 40.667 283.032 41.0232 282.538 41.7354C282.052 42.4477 281.809 43.3704 281.809 44.5036V45.1592C281.809 46.3248 282.069 47.2637 282.587 47.9759C283.113 48.6882 283.894 49.0443 284.93 49.0443C285.626 49.0443 286.225 48.8865 286.727 48.5708C287.228 48.2471 287.629 47.8626 287.929 47.4174L290.223 48.753C289.835 49.5057 289.187 50.137 288.281 50.647C287.382 51.1569 286.277 51.4118 284.966 51.4118C282.975 51.4118 281.421 50.8331 280.304 49.6757C279.195 48.5101 278.641 46.9723 278.641 45.0621ZM292.639 51.0719V38.688H295.65L295.711 40.2057H295.772C296.128 39.6715 296.63 39.2425 297.277 38.9187C297.933 38.595 298.665 38.4331 299.475 38.4331C300.737 38.4331 301.757 38.7892 302.534 39.5015C303.311 40.2138 303.7 41.4319 303.7 43.1559V51.0719H300.531V43.2288C300.531 42.387 300.345 41.788 299.972 41.4319C299.608 41.0758 299.086 40.8977 298.406 40.8977C297.84 40.8977 297.326 41.0596 296.864 41.3833C296.403 41.7071 296.051 42.1361 295.808 42.6703V51.0719H292.639ZM305.958 45.0742V44.6857C305.958 42.8565 306.444 41.3591 307.415 40.1935C308.386 39.028 309.661 38.4452 311.239 38.4452C312.073 38.4452 312.789 38.5909 313.388 38.8823C313.987 39.1737 314.457 39.5581 314.797 40.0357V32.6904H317.941V51.0719H314.955L314.882 49.5178H314.833C314.534 50.0197 314.068 50.4446 313.437 50.7927C312.814 51.1407 312.085 51.3147 311.252 51.3147C309.617 51.3147 308.326 50.732 307.379 49.5664C306.432 48.3928 305.958 46.8954 305.958 45.0742ZM309.188 45.1471C309.188 46.2479 309.422 47.1544 309.892 47.8667C310.369 48.5708 311.098 48.9229 312.077 48.9229C312.733 48.9229 313.291 48.7408 313.753 48.3766C314.222 48.0124 314.562 47.5874 314.772 47.1018V42.6217C314.562 42.1361 314.23 41.7192 313.777 41.3712C313.324 41.0151 312.757 40.837 312.077 40.837C311.106 40.837 310.381 41.1931 309.904 41.9054C309.426 42.6096 309.188 43.508 309.188 44.6007V45.1471ZM16.6005 76.0313V73.688H24.2493V76.0313H16.6005ZM18.5794 82.5389V74.7686L18.6037 74.4651V70.4099H21.7361V82.3203C21.7361 82.9678 21.8454 83.4049 22.0639 83.6315C22.2825 83.8582 22.6103 83.9715 23.0473 83.9715C23.2416 83.9715 23.4359 83.9513 23.6301 83.9108C23.8244 83.8703 24.0186 83.8137 24.2129 83.7408V86.0598C24.0105 86.1488 23.7313 86.2257 23.3752 86.2904C23.0271 86.3633 22.6305 86.3997 22.1853 86.3997C21.0765 86.3997 20.1983 86.0921 19.5507 85.477C18.9032 84.8618 18.5794 83.8825 18.5794 82.5389ZM25.3541 80.0621V79.6736C25.3541 77.7634 25.9288 76.2296 27.0782 75.0721C28.2356 73.9147 29.7533 73.3359 31.6311 73.3359C33.517 73.3359 35.0346 73.9147 36.184 75.0721C37.3333 76.2296 37.908 77.7634 37.908 79.6736V80.0621C37.908 81.9804 37.3333 83.5182 36.184 84.6757C35.0346 85.8331 33.517 86.4118 31.6311 86.4118C29.7533 86.4118 28.2356 85.8331 27.0782 84.6757C25.9288 83.5182 25.3541 81.9804 25.3541 80.0621ZM28.5837 79.5522V80.1835C28.5837 81.349 28.8427 82.2798 29.3607 82.9759C29.8868 83.6639 30.6436 84.0079 31.6311 84.0079C32.6185 84.0079 33.3713 83.6639 33.8893 82.9759C34.4154 82.2798 34.6785 81.349 34.6785 80.1835V79.5522C34.6785 78.3866 34.4154 77.4639 33.8893 76.784C33.3632 76.096 32.6104 75.752 31.6311 75.752C30.6517 75.752 29.8989 76.096 29.3728 76.784C28.8467 77.4639 28.5837 78.3866 28.5837 79.5522ZM46.176 86.0719V67.6904H49.3449V75.3028C49.7172 74.7443 50.2271 74.2951 50.8746 73.9551C51.5222 73.6071 52.2911 73.4331 53.1814 73.4331C54.3551 73.4331 55.3183 73.7933 56.071 74.5136C56.8237 75.234 57.2001 76.4198 57.2001 78.0709V86.0719H54.0313V78.3016C54.0313 77.4356 53.8411 76.8204 53.4607 76.4562C53.0803 76.0839 52.5541 75.8977 51.8823 75.8977C51.2915 75.8977 50.7775 76.0636 50.3404 76.3955C49.9114 76.7273 49.5796 77.1725 49.3449 77.731V86.0719H46.176ZM59.5433 82.4539C59.5433 81.1345 60.0573 80.1268 61.0852 79.4307C62.1132 78.7266 63.4244 78.3704 65.0189 78.3623H67.6778V77.5732C67.6778 76.9499 67.516 76.4521 67.1922 76.0798C66.8765 75.6994 66.3261 75.5092 65.541 75.5092C64.7559 75.5092 64.1893 75.667 63.8413 75.9827C63.4932 76.2903 63.3192 76.6788 63.3192 77.1482V77.3303L60.2475 77.3182V77.1239C60.2475 76.0474 60.7413 75.149 61.7287 74.4286C62.7243 73.7083 64.0396 73.3481 65.6746 73.3481C67.3177 73.3481 68.5884 73.6961 69.4869 74.3922C70.3934 75.0802 70.8467 76.1527 70.8467 77.6096V83.2309C70.8467 83.7489 70.8871 84.2386 70.9681 84.7C71.0571 85.1532 71.1826 85.5458 71.3444 85.8776V86.0719H68.2363C68.1311 85.8776 68.038 85.6308 67.9571 85.3313C67.8761 85.0237 67.8195 84.7161 67.7871 84.4086C67.5281 84.9023 67.0546 85.3394 66.3666 85.7198C65.6867 86.1002 64.8287 86.2904 63.7927 86.2904C62.5705 86.2904 61.5547 85.9667 60.7453 85.3192C59.944 84.6716 59.5433 83.7165 59.5433 82.4539ZM62.7121 82.211C62.7121 82.81 62.8862 83.2835 63.2342 83.6315C63.5823 83.9715 64.1165 84.1415 64.8368 84.1415C65.6058 84.1415 66.2695 83.8906 66.828 83.3887C67.3945 82.8788 67.6778 82.296 67.6778 81.6404V80.2928H65.5774C64.6142 80.2928 63.8939 80.4587 63.4163 80.7905C62.9469 81.1224 62.7121 81.5959 62.7121 82.211ZM72.1093 73.688H75.266L77.9492 81.2519C78.0544 81.5514 78.1394 81.8266 78.2041 82.0775C78.2689 82.3284 78.3174 82.5469 78.3498 82.7331H78.4105C78.451 82.5469 78.5036 82.3284 78.5684 82.0775C78.6331 81.8266 78.7141 81.5514 78.8112 81.2519L81.5065 73.688H84.3961L79.6853 86.0719H76.8443L72.1093 73.688ZM84.9424 80.0621V79.6736C84.9424 77.7715 85.5009 76.2417 86.6179 75.0843C87.7429 73.9187 89.2039 73.3359 91.0008 73.3359C92.7977 73.3359 94.1939 73.8823 95.1895 74.975C96.185 76.0677 96.6828 77.5691 96.6828 79.4793V80.5841H86.9457V78.5809H93.5504V78.3502C93.5504 77.6055 93.3359 76.9742 92.9069 76.4562C92.478 75.9301 91.8466 75.667 91.0129 75.667C90.0578 75.667 89.3334 76.0232 88.8397 76.7354C88.354 77.4477 88.1112 78.3704 88.1112 79.5036V80.1592C88.1112 81.3248 88.3702 82.2637 88.8882 82.9759C89.4144 83.6882 90.1954 84.0443 91.2315 84.0443C91.9276 84.0443 92.5265 83.8865 93.0283 83.5708C93.5302 83.2471 93.9308 82.8626 94.2303 82.4174L96.525 83.753C96.1365 84.5057 95.4889 85.137 94.5824 85.647C93.684 86.1569 92.5791 86.4118 91.2679 86.4118C89.2768 86.4118 87.7227 85.8331 86.6057 84.6757C85.4968 83.5101 84.9424 81.9723 84.9424 80.0621ZM17.6243 106.072V95.2006H18.9346V99.5491C19.199 99.2281 19.5318 98.9731 19.9332 98.7842C20.3392 98.5907 20.783 98.4939 21.2646 98.4939C21.9587 98.4939 22.5276 98.7063 22.9715 99.1313C23.42 99.5562 23.6443 100.269 23.6443 101.27V106.072H22.3341V101.256C22.3341 100.661 22.1995 100.236 21.9304 99.9811C21.666 99.7215 21.2882 99.5916 20.7972 99.5916C20.377 99.5916 20.0064 99.7049 19.6853 99.9316C19.3642 100.158 19.114 100.451 18.9346 100.81V106.072H17.6243ZM25.2236 102.467V102.24C25.2236 101.117 25.5305 100.201 26.1443 99.4925C26.7581 98.7795 27.5726 98.423 28.5877 98.423C29.5981 98.423 30.3772 98.7559 30.9249 99.4216C31.4726 100.083 31.7464 100.98 31.7464 102.113V102.644H26.0239V101.603H30.4291V101.433C30.4291 100.895 30.2757 100.437 29.9688 100.059C29.6619 99.6813 29.2204 99.4925 28.6444 99.4925C27.9456 99.4925 27.4239 99.7592 27.0792 100.293C26.7345 100.822 26.5622 101.471 26.5622 102.24V102.467C26.5622 103.237 26.744 103.888 27.1075 104.422C27.4711 104.951 28.0329 105.215 28.7931 105.215C29.2653 105.215 29.6713 105.111 30.0113 104.903C30.3512 104.696 30.6274 104.45 30.8399 104.167L31.6898 104.833C31.4537 105.187 31.0878 105.517 30.592 105.824C30.101 106.131 29.5013 106.284 28.7931 106.284C27.6411 106.284 26.7581 105.928 26.1443 105.215C25.5305 104.502 25.2236 103.586 25.2236 102.467ZM32.9504 103.883C32.9504 103.128 33.2479 102.54 33.8428 102.12C34.4424 101.7 35.2049 101.49 36.1303 101.49H37.8159V100.98C37.8159 100.531 37.7002 100.168 37.4689 99.8891C37.2375 99.6058 36.8386 99.4641 36.272 99.4641C35.7054 99.4641 35.2994 99.5822 35.0538 99.8182C34.813 100.05 34.6926 100.319 34.6926 100.626V100.661H33.3895V100.626C33.3895 100.035 33.6515 99.5208 34.1756 99.0817C34.6997 98.6426 35.4103 98.423 36.3074 98.423C37.1998 98.423 37.8915 98.6379 38.3825 99.0675C38.8783 99.4925 39.1261 100.13 39.1261 100.98V104.372C39.1261 104.679 39.1498 104.969 39.197 105.243C39.2442 105.512 39.3103 105.751 39.3953 105.959V106.072H38.1275C38.0614 105.954 38.0001 105.8 37.9434 105.612C37.8915 105.423 37.8584 105.234 37.8443 105.045C37.6696 105.352 37.3863 105.623 36.9944 105.859C36.6072 106.096 36.1067 106.214 35.4929 106.214C34.7847 106.214 34.1827 106.013 33.687 105.612C33.1959 105.21 32.9504 104.634 32.9504 103.883ZM34.2606 103.813C34.2606 104.238 34.3834 104.57 34.6289 104.811C34.8744 105.047 35.2569 105.165 35.7762 105.165C36.2956 105.165 36.7654 104.988 37.1856 104.634C37.6058 104.275 37.8159 103.895 37.8159 103.494V102.425H36.272C35.611 102.425 35.1105 102.55 34.7705 102.8C34.4306 103.05 34.2606 103.388 34.2606 103.813ZM41.2367 106.072V95.2006H42.5469V106.072H41.2367ZM43.6446 99.6341V98.6355H47.8869V99.6341H43.6446ZM44.9761 104.231V99.2375V99.025V96.78H46.2863V104.231C46.2863 104.566 46.3524 104.804 46.4846 104.946C46.6168 105.087 46.8246 105.158 47.1079 105.158C47.2401 105.158 47.3699 105.144 47.4974 105.116C47.6249 105.087 47.7547 105.05 47.8869 105.002V106.072C47.7642 106.129 47.6036 106.178 47.4053 106.221C47.207 106.263 46.9898 106.284 46.7538 106.284C46.2108 106.284 45.7788 106.119 45.4577 105.789C45.1366 105.458 44.9761 104.939 44.9761 104.231ZM49.2963 106.072V95.2006H50.6065V99.5491C50.8709 99.2281 51.2038 98.9731 51.6051 98.7842C52.0112 98.5907 52.455 98.4939 52.9366 98.4939C53.6306 98.4939 54.1996 98.7063 54.6434 99.1313C55.092 99.5562 55.3162 100.269 55.3162 101.27V106.072H54.006V101.256C54.006 100.661 53.8714 100.236 53.6023 99.9811C53.3379 99.7215 52.9602 99.5916 52.4692 99.5916C52.0489 99.5916 51.6783 99.7049 51.3572 99.9316C51.0362 100.158 50.7859 100.451 50.6065 100.81V106.072H49.2963ZM57.4055 106.072V98.6355H58.7157V106.072H57.4055ZM57.2426 96.3763C57.2426 96.1544 57.3111 95.9702 57.448 95.8238C57.5896 95.6728 57.7927 95.5972 58.0571 95.5972C58.3215 95.5972 58.5245 95.6728 58.6661 95.8238C58.8078 95.9702 58.8786 96.1544 58.8786 96.3763C58.8786 96.5982 58.8078 96.7847 58.6661 96.9358C58.5245 97.0869 58.3215 97.1624 58.0571 97.1624C57.7927 97.1624 57.5896 97.0869 57.448 96.9358C57.3111 96.7847 57.2426 96.5982 57.2426 96.3763ZM60.4226 102.467V102.24C60.4226 101.117 60.7294 100.201 61.3432 99.4925C61.957 98.7795 62.7715 98.423 63.7866 98.423C64.797 98.423 65.5761 98.7559 66.1238 99.4216C66.6715 100.083 66.9453 100.98 66.9453 102.113V102.644H61.2228V101.603H65.628V101.433C65.628 100.895 65.4746 100.437 65.1677 100.059C64.8608 99.6813 64.4193 99.4925 63.8433 99.4925C63.1445 99.4925 62.6228 99.7592 62.2781 100.293C61.9334 100.822 61.7611 101.471 61.7611 102.24V102.467C61.7611 103.237 61.9429 103.888 62.3064 104.422C62.67 104.951 63.2319 105.215 63.992 105.215C64.4642 105.215 64.8702 105.111 65.2102 104.903C65.5501 104.696 65.8263 104.45 66.0388 104.167L66.8887 104.833C66.6526 105.187 66.2867 105.517 65.7909 105.824C65.2999 106.131 64.7002 106.284 63.992 106.284C62.84 106.284 61.957 105.928 61.3432 105.215C60.7294 104.502 60.4226 103.586 60.4226 102.467ZM68.5601 106.072V98.6355H69.7428L69.7995 99.5845H69.842C70.0308 99.2729 70.2787 99.0014 70.5856 98.7701C70.8925 98.5387 71.2584 98.423 71.6834 98.423C71.7872 98.423 71.8958 98.4348 72.0092 98.4585C72.1225 98.4821 72.2027 98.5033 72.25 98.5222V99.7333C72.1555 99.7144 72.0564 99.7002 71.9525 99.6908C71.8486 99.6813 71.7353 99.6766 71.6126 99.6766C71.1876 99.6766 70.8264 99.7876 70.529 100.009C70.2315 100.231 70.012 100.508 69.8703 100.838V106.072H68.5601ZM76.5843 102.467V102.24C76.5843 101.117 76.8888 100.201 77.4979 99.4925C78.107 98.7795 78.9474 98.423 80.0192 98.423C81.006 98.423 81.7567 98.6898 82.2714 99.2233C82.786 99.7569 83.0433 100.354 83.0433 101.015V101.051H81.7756V101.015C81.7756 100.614 81.634 100.26 81.3507 99.9528C81.0721 99.6459 80.6283 99.4925 80.0192 99.4925C79.3015 99.4925 78.7727 99.7592 78.4328 100.293C78.0928 100.822 77.9229 101.471 77.9229 102.24V102.467C77.9229 103.237 78.0928 103.886 78.4328 104.415C78.7727 104.943 79.3015 105.208 80.0192 105.208C80.6283 105.208 81.0721 105.057 81.3507 104.755C81.634 104.448 81.7756 104.091 81.7756 103.685V103.65H83.0433V103.685C83.0433 104.346 82.786 104.946 82.2714 105.484C81.7567 106.018 81.006 106.284 80.0192 106.284C78.9474 106.284 78.107 105.93 77.4979 105.222C76.8888 104.509 76.5843 103.591 76.5843 102.467ZM84.134 102.467V102.24C84.134 101.117 84.4504 100.201 85.083 99.4925C85.7204 98.7795 86.5727 98.423 87.6397 98.423C88.7021 98.423 89.552 98.7795 90.1894 99.4925C90.8268 100.201 91.1455 101.117 91.1455 102.24V102.467C91.1455 103.586 90.8268 104.502 90.1894 105.215C89.552 105.928 88.7021 106.284 87.6397 106.284C86.5727 106.284 85.7204 105.928 85.083 105.215C84.4504 104.502 84.134 103.586 84.134 102.467ZM85.4726 102.24V102.467C85.4726 103.237 85.6543 103.886 86.0179 104.415C86.3815 104.943 86.9221 105.208 87.6397 105.208C88.3574 105.208 88.898 104.943 89.2616 104.415C89.6251 103.886 89.8069 103.237 89.8069 102.467V102.24C89.8069 101.471 89.6251 100.822 89.2616 100.293C88.898 99.7592 88.3574 99.4925 87.6397 99.4925C86.9221 99.4925 86.3815 99.7592 86.0179 100.293C85.6543 100.822 85.4726 101.471 85.4726 102.24ZM92.7956 106.072V98.6355H93.9784L94.035 99.5916H94.0775C94.3467 99.2469 94.6748 98.9778 95.062 98.7842C95.4539 98.5907 95.8835 98.4939 96.3509 98.4939C97.1017 98.4939 97.6989 98.7063 98.1428 99.1313C98.5913 99.5562 98.8156 100.269 98.8156 101.27V106.072H97.5054V101.256C97.5054 100.661 97.3708 100.236 97.1017 99.9811C96.8373 99.7215 96.4595 99.5916 95.9685 99.5916C95.5483 99.5916 95.1777 99.7049 94.8566 99.9316C94.5355 100.158 94.2853 100.451 94.1059 100.81V106.072H92.7956ZM99.7929 98.6355H101.061L102.86 103.6C102.926 103.789 102.98 103.966 103.022 104.131C103.07 104.297 103.103 104.426 103.122 104.521H103.164C103.183 104.426 103.214 104.297 103.256 104.131C103.303 103.966 103.36 103.789 103.426 103.6L105.211 98.6355H106.457L103.624 106.072H102.619L99.7929 98.6355ZM106.967 102.467V102.24C106.967 101.117 107.274 100.201 107.888 99.4925C108.502 98.7795 109.316 98.423 110.331 98.423C111.342 98.423 112.121 98.7559 112.669 99.4216C113.216 100.083 113.49 100.98 113.49 102.113V102.644H107.768V101.603H112.173V101.433C112.173 100.895 112.019 100.437 111.712 100.059C111.406 99.6813 110.964 99.4925 110.388 99.4925C109.689 99.4925 109.168 99.7592 108.823 100.293C108.478 100.822 108.306 101.471 108.306 102.24V102.467C108.306 103.237 108.488 103.888 108.851 104.422C109.215 104.951 109.777 105.215 110.537 105.215C111.009 105.215 111.415 105.111 111.755 104.903C112.095 104.696 112.371 104.45 112.584 104.167L113.433 104.833C113.197 105.187 112.831 105.517 112.336 105.824C111.845 106.131 111.245 106.284 110.537 106.284C109.385 106.284 108.502 105.928 107.888 105.215C107.274 104.502 106.967 103.586 106.967 102.467ZM115.105 106.072V98.6355H116.288L116.344 99.5845H116.387C116.576 99.2729 116.823 99.0014 117.13 98.7701C117.437 98.5387 117.803 98.423 118.228 98.423C118.332 98.423 118.441 98.4348 118.554 98.4585C118.667 98.4821 118.747 98.5033 118.795 98.5222V99.7333C118.7 99.7144 118.601 99.7002 118.497 99.6908C118.393 99.6813 118.28 99.6766 118.157 99.6766C117.732 99.6766 117.371 99.7876 117.074 100.009C116.776 100.231 116.557 100.508 116.415 100.838V106.072H115.105ZM119.567 103.876H120.877V103.912C120.877 104.346 121.035 104.672 121.351 104.889C121.668 105.106 122.086 105.215 122.605 105.215C123.124 105.215 123.533 105.111 123.83 104.903C124.132 104.696 124.283 104.424 124.283 104.089C124.283 103.758 124.163 103.506 123.922 103.331C123.681 103.152 123.16 102.968 122.357 102.779C121.554 102.59 120.917 102.325 120.445 101.985C119.977 101.645 119.744 101.169 119.744 100.555C119.744 99.941 119.996 99.4334 120.502 99.0321C121.011 98.6261 121.689 98.423 122.534 98.423C123.384 98.423 124.066 98.6237 124.581 99.025C125.1 99.4264 125.36 99.9717 125.36 100.661V100.696H124.057V100.633C124.057 100.279 123.932 100 123.681 99.797C123.436 99.594 123.053 99.4925 122.534 99.4925C122.015 99.4925 121.635 99.5869 121.394 99.7758C121.158 99.9646 121.04 100.201 121.04 100.484C121.04 100.767 121.177 100.992 121.451 101.157C121.724 101.322 122.263 101.499 123.065 101.688C123.863 101.877 124.479 102.148 124.914 102.502C125.353 102.857 125.572 103.362 125.572 104.018C125.572 104.679 125.325 105.222 124.829 105.647C124.338 106.072 123.596 106.284 122.605 106.284C121.618 106.284 120.865 106.07 120.346 105.64C119.826 105.206 119.567 104.629 119.567 103.912V103.876ZM127.251 106.072V98.6355H128.561V106.072H127.251ZM127.088 96.3763C127.088 96.1544 127.156 95.9702 127.293 95.8238C127.435 95.6728 127.638 95.5972 127.902 95.5972C128.167 95.5972 128.37 95.6728 128.512 95.8238C128.653 95.9702 128.724 96.1544 128.724 96.3763C128.724 96.5982 128.653 96.7847 128.512 96.9358C128.37 97.0869 128.167 97.1624 127.902 97.1624C127.638 97.1624 127.435 97.0869 127.293 96.9358C127.156 96.7847 127.088 96.5982 127.088 96.3763ZM130.268 102.467V102.24C130.268 101.117 130.584 100.201 131.217 99.4925C131.854 98.7795 132.707 98.423 133.774 98.423C134.836 98.423 135.686 98.7795 136.323 99.4925C136.961 100.201 137.279 101.117 137.279 102.24V102.467C137.279 103.586 136.961 104.502 136.323 105.215C135.686 105.928 134.836 106.284 133.774 106.284C132.707 106.284 131.854 105.928 131.217 105.215C130.584 104.502 130.268 103.586 130.268 102.467ZM131.607 102.24V102.467C131.607 103.237 131.788 103.886 132.152 104.415C132.515 104.943 133.056 105.208 133.774 105.208C134.491 105.208 135.032 104.943 135.396 104.415C135.759 103.886 135.941 103.237 135.941 102.467V102.24C135.941 101.471 135.759 100.822 135.396 100.293C135.032 99.7592 134.491 99.4925 133.774 99.4925C133.056 99.4925 132.515 99.7592 132.152 100.293C131.788 100.822 131.607 101.471 131.607 102.24ZM138.93 106.072V98.6355H140.112L140.169 99.5916H140.211C140.481 99.2469 140.809 98.9778 141.196 98.7842C141.588 98.5907 142.017 98.4939 142.485 98.4939C143.236 98.4939 143.833 98.7063 144.277 99.1313C144.725 99.5562 144.95 100.269 144.95 101.27V106.072H143.639V101.256C143.639 100.661 143.505 100.236 143.236 99.9811C142.971 99.7215 142.593 99.5916 142.102 99.5916C141.682 99.5916 141.312 99.7049 140.991 99.9316C140.669 100.158 140.419 100.451 140.24 100.81V106.072H138.93ZM150.502 106.072V95.2006H151.812V99.5066C152.029 99.2045 152.32 98.9613 152.683 98.7772C153.052 98.5883 153.495 98.4939 154.015 98.4939C154.954 98.4939 155.708 98.848 156.274 99.5562C156.841 100.26 157.124 101.154 157.124 102.24V102.467C157.124 103.548 156.841 104.443 156.274 105.151C155.708 105.859 154.954 106.214 154.015 106.214C153.495 106.214 153.04 106.105 152.648 105.888C152.261 105.671 151.973 105.409 151.784 105.102H151.741L151.685 106.072H150.502ZM151.812 103.869C151.959 104.2 152.197 104.495 152.528 104.755C152.858 105.014 153.259 105.144 153.732 105.144C154.44 105.144 154.959 104.887 155.29 104.372C155.62 103.858 155.785 103.222 155.785 102.467V102.24C155.785 101.485 155.62 100.85 155.29 100.335C154.959 99.8206 154.44 99.5633 153.732 99.5633C153.259 99.5633 152.858 99.6931 152.528 99.9528C152.197 100.212 151.959 100.508 151.812 100.838V103.869ZM157.995 109.018V107.906C158.118 107.944 158.255 107.975 158.406 107.998C158.557 108.022 158.703 108.034 158.845 108.034C159.175 108.034 159.461 107.909 159.702 107.658C159.947 107.408 160.207 106.87 160.481 106.044V106.036L157.712 98.6355H158.98L160.743 103.529C160.809 103.718 160.868 103.895 160.92 104.061C160.972 104.226 161.017 104.379 161.055 104.521H161.097C161.14 104.379 161.187 104.226 161.239 104.061C161.295 103.895 161.354 103.718 161.416 103.529L163.059 98.6355H164.305L161.281 107.063C161.045 107.724 160.731 108.239 160.339 108.607C159.952 108.976 159.478 109.16 158.916 109.16C158.727 109.16 158.559 109.148 158.413 109.124C158.267 109.101 158.127 109.065 157.995 109.018ZM168.852 102.743V95.7601H170.205V102.743C170.205 103.546 170.422 104.146 170.857 104.542C171.291 104.934 171.862 105.13 172.57 105.13C173.279 105.13 173.85 104.934 174.284 104.542C174.723 104.146 174.943 103.546 174.943 102.743V95.7601H176.296V102.743C176.296 103.924 175.935 104.809 175.212 105.399C174.49 105.989 173.609 106.284 172.57 106.284C171.536 106.284 170.658 105.989 169.936 105.399C169.213 104.809 168.852 103.924 168.852 102.743ZM177.967 103.876H179.277V103.912C179.277 104.346 179.436 104.672 179.752 104.889C180.068 105.106 180.486 105.215 181.005 105.215C181.525 105.215 181.933 105.111 182.231 104.903C182.533 104.696 182.684 104.424 182.684 104.089C182.684 103.758 182.564 103.506 182.323 103.331C182.082 103.152 181.56 102.968 180.758 102.779C179.955 102.59 179.317 102.325 178.845 101.985C178.378 101.645 178.144 101.169 178.144 100.555C178.144 99.941 178.397 99.4334 178.902 99.0321C179.412 98.6261 180.089 98.423 180.935 98.423C181.784 98.423 182.467 98.6237 182.981 99.025C183.501 99.4264 183.76 99.9717 183.76 100.661V100.696H182.457V100.633C182.457 100.279 182.332 100 182.082 99.797C181.836 99.594 181.454 99.4925 180.935 99.4925C180.415 99.4925 180.035 99.5869 179.794 99.7758C179.558 99.9646 179.44 100.201 179.44 100.484C179.44 100.767 179.577 100.992 179.851 101.157C180.125 101.322 180.663 101.499 181.466 101.688C182.264 101.877 182.88 102.148 183.314 102.502C183.753 102.857 183.973 103.362 183.973 104.018C183.973 104.679 183.725 105.222 183.229 105.647C182.738 106.072 181.997 106.284 181.005 106.284C180.019 106.284 179.266 106.07 178.746 105.64C178.227 105.206 177.967 104.629 177.967 103.912V103.876ZM185.651 106.072V98.6355H186.962V106.072H185.651ZM185.488 96.3763C185.488 96.1544 185.557 95.9702 185.694 95.8238C185.836 95.6728 186.039 95.5972 186.303 95.5972C186.567 95.5972 186.77 95.6728 186.912 95.8238C187.054 95.9702 187.124 96.1544 187.124 96.3763C187.124 96.5982 187.054 96.7847 186.912 96.9358C186.77 97.0869 186.567 97.1624 186.303 97.1624C186.039 97.1624 185.836 97.0869 185.694 96.9358C185.557 96.7847 185.488 96.5982 185.488 96.3763ZM189.115 106.072V98.6355H190.297L190.354 99.5916H190.397C190.666 99.2469 190.994 98.9778 191.381 98.7842C191.773 98.5907 192.202 98.4939 192.67 98.4939C193.421 98.4939 194.018 98.7063 194.462 99.1313C194.91 99.5562 195.135 100.269 195.135 101.27V106.072H193.824V101.256C193.824 100.661 193.69 100.236 193.421 99.9811C193.156 99.7215 192.779 99.5916 192.287 99.5916C191.867 99.5916 191.497 99.7049 191.176 99.9316C190.854 100.158 190.604 100.451 190.425 100.81V106.072H189.115ZM196.99 108.083L197.812 107.099C198.019 107.34 198.312 107.552 198.69 107.736C199.068 107.925 199.493 108.02 199.965 108.02C200.602 108.02 201.105 107.835 201.473 107.467C201.841 107.104 202.026 106.591 202.026 105.93V105.194C201.808 105.501 201.516 105.748 201.147 105.937C200.784 106.121 200.342 106.214 199.823 106.214C198.879 106.214 198.123 105.859 197.557 105.151C196.995 104.443 196.714 103.548 196.714 102.467V102.24C196.714 101.154 196.995 100.26 197.557 99.5562C198.123 98.848 198.879 98.4939 199.823 98.4939C200.342 98.4939 200.796 98.6025 201.183 98.8196C201.575 99.0321 201.865 99.2918 202.054 99.5987H202.096L202.146 98.6355H203.336V105.93C203.336 106.969 203.027 107.767 202.408 108.324C201.79 108.881 200.987 109.16 200 109.16C199.386 109.16 198.82 109.058 198.3 108.855C197.786 108.652 197.349 108.395 196.99 108.083ZM198.052 102.467C198.052 103.222 198.218 103.858 198.548 104.372C198.879 104.887 199.398 105.144 200.106 105.144C200.578 105.144 200.98 105.014 201.31 104.755C201.641 104.495 201.879 104.2 202.026 103.869V100.838C201.879 100.508 201.641 100.212 201.31 99.9528C200.98 99.6931 200.578 99.5633 200.106 99.5633C199.398 99.5633 198.879 99.8206 198.548 100.335C198.218 100.85 198.052 101.485 198.052 102.24V102.467ZM164.357 146.183V128.688H167.332L167.392 130.181H167.453C167.744 129.688 168.214 129.275 168.861 128.943C169.517 128.603 170.258 128.433 171.083 128.433C172.67 128.433 173.94 129 174.895 130.133C175.851 131.266 176.328 132.776 176.328 134.661V135.05C176.328 136.928 175.851 138.441 174.895 139.591C173.948 140.74 172.694 141.315 171.132 141.315C170.306 141.315 169.582 141.173 168.958 140.89C168.343 140.606 167.866 140.222 167.526 139.736V146.183H164.357ZM167.526 137.077C167.728 137.571 168.068 138.004 168.546 138.377C169.023 138.741 169.594 138.923 170.258 138.923C171.229 138.923 171.945 138.583 172.407 137.903C172.868 137.215 173.099 136.305 173.099 135.171V134.552C173.099 133.419 172.864 132.517 172.394 131.845C171.933 131.173 171.221 130.837 170.258 130.837C169.578 130.837 169.003 131.019 168.534 131.383C168.072 131.748 167.736 132.168 167.526 132.646V137.077ZM178.016 135.062V134.674C178.016 132.763 178.59 131.23 179.74 130.072C180.897 128.915 182.415 128.336 184.293 128.336C186.179 128.336 187.696 128.915 188.845 130.072C189.995 131.23 190.57 132.763 190.57 134.674V135.062C190.57 136.98 189.995 138.518 188.845 139.676C187.696 140.833 186.179 141.412 184.293 141.412C182.415 141.412 180.897 140.833 179.74 139.676C178.59 138.518 178.016 136.98 178.016 135.062ZM181.245 134.552V135.183C181.245 136.349 181.504 137.28 182.022 137.976C182.548 138.664 183.305 139.008 184.293 139.008C185.28 139.008 186.033 138.664 186.551 137.976C187.077 137.28 187.34 136.349 187.34 135.183V134.552C187.34 133.387 187.077 132.464 186.551 131.784C186.025 131.096 185.272 130.752 184.293 130.752C183.313 130.752 182.56 131.096 182.034 131.784C181.508 132.464 181.245 133.387 181.245 134.552ZM191.432 131.031V128.688H199.08V131.031H191.432ZM193.411 137.539V129.769L193.435 129.465V125.41H196.567V137.32C196.567 137.968 196.676 138.405 196.895 138.632C197.114 138.858 197.441 138.971 197.878 138.971C198.073 138.971 198.267 138.951 198.461 138.911C198.655 138.87 198.85 138.814 199.044 138.741V141.06C198.842 141.149 198.562 141.226 198.206 141.29C197.858 141.363 197.462 141.4 197.016 141.4C195.908 141.4 195.029 141.092 194.382 140.477C193.734 139.862 193.411 138.882 193.411 137.539ZM200.404 135.062V134.674C200.404 132.771 200.962 131.242 202.079 130.084C203.204 128.919 204.665 128.336 206.462 128.336C208.259 128.336 209.655 128.882 210.651 129.975C211.646 131.068 212.144 132.569 212.144 134.479V135.584H202.407V133.581H209.012V133.35C209.012 132.606 208.797 131.974 208.368 131.456C207.939 130.93 207.308 130.667 206.474 130.667C205.519 130.667 204.795 131.023 204.301 131.735C203.815 132.448 203.573 133.37 203.573 134.504V135.159C203.573 136.325 203.832 137.264 204.35 137.976C204.876 138.688 205.657 139.044 206.693 139.044C207.389 139.044 207.988 138.887 208.49 138.571C208.992 138.247 209.392 137.863 209.692 137.417L211.986 138.753C211.598 139.506 210.95 140.137 210.044 140.647C209.145 141.157 208.04 141.412 206.729 141.412C204.738 141.412 203.184 140.833 202.067 139.676C200.958 138.51 200.404 136.972 200.404 135.062ZM214.402 141.072V128.688H217.413L217.474 130.206H217.535C217.891 129.671 218.393 129.242 219.04 128.919C219.696 128.595 220.428 128.433 221.238 128.433C222.5 128.433 223.52 128.789 224.297 129.501C225.074 130.214 225.463 131.432 225.463 133.156V141.072H222.294V133.229C222.294 132.387 222.108 131.788 221.736 131.432C221.371 131.076 220.849 130.898 220.169 130.898C219.603 130.898 219.089 131.06 218.627 131.383C218.166 131.707 217.814 132.136 217.571 132.67V141.072H214.402ZM226.908 131.031V128.688H234.557V131.031H226.908ZM228.887 137.539V129.769L228.911 129.465V125.41H232.043V137.32C232.043 137.968 232.153 138.405 232.371 138.632C232.59 138.858 232.917 138.971 233.355 138.971C233.549 138.971 233.743 138.951 233.937 138.911C234.132 138.87 234.326 138.814 234.52 138.741V141.06C234.318 141.149 234.039 141.226 233.682 141.29C233.334 141.363 232.938 141.4 232.493 141.4C231.384 141.4 230.505 141.092 229.858 140.477C229.21 139.862 228.887 138.882 228.887 137.539ZM236.633 141.072V128.688H239.814V141.072H236.633ZM236.353 124.936C236.353 124.451 236.515 124.042 236.839 123.71C237.163 123.378 237.624 123.212 238.223 123.212C238.83 123.212 239.296 123.378 239.619 123.71C239.943 124.042 240.105 124.451 240.105 124.936C240.105 125.43 239.939 125.847 239.607 126.187C239.283 126.519 238.822 126.685 238.223 126.685C237.616 126.685 237.151 126.519 236.827 126.187C236.511 125.847 236.353 125.43 236.353 124.936ZM242.29 137.454C242.29 136.135 242.804 135.127 243.832 134.431C244.86 133.727 246.171 133.37 247.766 133.362H250.425V132.573C250.425 131.95 250.263 131.452 249.939 131.08C249.624 130.699 249.073 130.509 248.288 130.509C247.503 130.509 246.936 130.667 246.588 130.983C246.24 131.29 246.066 131.679 246.066 132.148V132.33L242.995 132.318V132.124C242.995 131.047 243.488 130.149 244.476 129.429C245.471 128.708 246.787 128.348 248.422 128.348C250.065 128.348 251.335 128.696 252.234 129.392C253.14 130.08 253.594 131.153 253.594 132.61V138.231C253.594 138.749 253.634 139.239 253.715 139.7C253.804 140.153 253.93 140.546 254.091 140.878V141.072H250.983C250.878 140.878 250.785 140.631 250.704 140.331C250.623 140.024 250.567 139.716 250.534 139.409C250.275 139.902 249.802 140.339 249.114 140.72C248.434 141.1 247.576 141.29 246.54 141.29C245.318 141.29 244.302 140.967 243.492 140.319C242.691 139.672 242.29 138.717 242.29 137.454ZM245.459 137.211C245.459 137.81 245.633 138.284 245.981 138.632C246.329 138.971 246.864 139.141 247.584 139.141C248.353 139.141 249.017 138.891 249.575 138.389C250.142 137.879 250.425 137.296 250.425 136.64V135.293H248.324C247.361 135.293 246.641 135.459 246.163 135.791C245.694 136.122 245.459 136.596 245.459 137.211ZM256.714 141.072V122.69H259.895V141.072H256.714ZM268.199 135.062V134.674C268.199 132.763 268.774 131.23 269.923 130.072C271.081 128.915 272.598 128.336 274.476 128.336C276.362 128.336 277.88 128.915 279.029 130.072C280.179 131.23 280.753 132.763 280.753 134.674V135.062C280.753 136.98 280.179 138.518 279.029 139.676C277.88 140.833 276.362 141.412 274.476 141.412C272.598 141.412 271.081 140.833 269.923 139.676C268.774 138.518 268.199 136.98 268.199 135.062ZM271.429 134.552V135.183C271.429 136.349 271.688 137.28 272.206 137.976C272.732 138.664 273.489 139.008 274.476 139.008C275.464 139.008 276.217 138.664 276.735 137.976C277.261 137.28 277.524 136.349 277.524 135.183V134.552C277.524 133.387 277.261 132.464 276.735 131.784C276.208 131.096 275.456 130.752 274.476 130.752C273.497 130.752 272.744 131.096 272.218 131.784C271.692 132.464 271.429 133.387 271.429 134.552ZM283.643 141.072V127.183C283.643 125.612 284.076 124.431 284.942 123.637C285.808 122.836 286.949 122.435 288.366 122.435C288.665 122.435 288.952 122.456 289.228 122.496C289.503 122.528 289.762 122.577 290.005 122.642L289.883 125.021C289.729 124.989 289.56 124.961 289.373 124.936C289.187 124.904 288.993 124.888 288.791 124.888C288.151 124.888 287.657 125.09 287.309 125.495C286.961 125.892 286.787 126.503 286.787 127.328V129.562L286.799 129.793V141.072H283.643ZM281.809 131.031V128.688H284.711H285.148H289.216V131.031H281.809ZM18.3366 176.072V158.395H22.6224L27.0418 170.341C27.1308 170.608 27.2117 170.867 27.2846 171.118C27.3655 171.369 27.4343 171.636 27.491 171.92H27.5638C27.6205 171.636 27.6852 171.369 27.7581 171.118C27.839 170.859 27.9281 170.6 28.0252 170.341L32.4324 158.395H36.7667V176.072H33.5372V164.344C33.5372 164.085 33.5413 163.793 33.5494 163.469C33.5655 163.146 33.5858 162.85 33.6101 162.583H33.5251C33.4765 162.85 33.4077 163.146 33.3187 163.469C33.2377 163.785 33.1487 164.077 33.0516 164.344L28.7658 176.072H25.9733L21.6876 164.344C21.5985 164.085 21.5095 163.785 21.4204 163.445C21.3314 163.105 21.2667 162.818 21.2262 162.583H21.1412C21.1655 162.818 21.1817 163.105 21.1898 163.445C21.1979 163.785 21.2019 164.085 21.2019 164.344V176.072H18.3366ZM39.4135 172.454C39.4135 171.135 39.9275 170.127 40.9554 169.431C41.9833 168.727 43.2946 168.37 44.8891 168.362H47.548V167.573C47.548 166.95 47.3861 166.452 47.0623 166.08C46.7467 165.699 46.1963 165.509 45.4112 165.509C44.626 165.509 44.0595 165.667 43.7114 165.983C43.3634 166.29 43.1893 166.679 43.1893 167.148V167.33L40.1177 167.318V167.124C40.1177 166.047 40.6114 165.149 41.5989 164.429C42.5944 163.708 43.9097 163.348 45.5447 163.348C47.1878 163.348 48.4586 163.696 49.357 164.392C50.2635 165.08 50.7168 166.153 50.7168 167.61V173.231C50.7168 173.749 50.7573 174.239 50.8382 174.7C50.9272 175.153 51.0527 175.546 51.2146 175.878V176.072H48.1065C48.0012 175.878 47.9082 175.631 47.8272 175.331C47.7463 175.024 47.6896 174.716 47.6573 174.409C47.3982 174.902 46.9247 175.339 46.2368 175.72C45.5569 176.1 44.6989 176.29 43.6628 176.29C42.4406 176.29 41.4248 175.967 40.6154 175.319C39.8141 174.672 39.4135 173.717 39.4135 172.454ZM42.5823 172.211C42.5823 172.81 42.7563 173.284 43.1044 173.632C43.4524 173.971 43.9866 174.141 44.707 174.141C45.4759 174.141 46.1396 173.891 46.6981 173.389C47.2647 172.879 47.548 172.296 47.548 171.64V170.293H45.4476C44.4844 170.293 43.764 170.459 43.2865 170.791C42.817 171.122 42.5823 171.596 42.5823 172.211ZM53.8006 176.072V163.688H56.8359L56.8966 165.181H56.9452C57.2365 164.68 57.6251 164.255 58.1107 163.907C58.5963 163.55 59.1548 163.372 59.7862 163.372C59.9642 163.372 60.1463 163.393 60.3325 163.433C60.5268 163.465 60.6603 163.498 60.7332 163.53V166.213C60.5875 166.181 60.4256 166.157 60.2475 166.141C60.0695 166.116 59.8752 166.104 59.6647 166.104C59.0739 166.104 58.5397 166.278 58.0621 166.626C57.5846 166.966 57.2284 167.407 56.9937 167.95V176.072H53.8006ZM62.5665 176.072V157.69H65.7353V168.496L70.1668 163.688H73.7241L65.7353 172.162V176.072H62.5665ZM70.5553 176.072L66.1481 170.026L68.1513 167.804L74.2826 176.072H70.5553ZM74.5254 170.062V169.674C74.5254 167.771 75.0839 166.242 76.2009 165.084C77.3259 163.919 78.7869 163.336 80.5838 163.336C82.3806 163.336 83.7769 163.882 84.7724 164.975C85.768 166.068 86.2658 167.569 86.2658 169.479V170.584H76.5287V168.581H83.1334V168.35C83.1334 167.606 82.9189 166.974 82.4899 166.456C82.0609 165.93 81.4296 165.667 80.5959 165.667C79.6408 165.667 78.9164 166.023 78.4227 166.735C77.937 167.448 77.6942 168.37 77.6942 169.504V170.159C77.6942 171.325 77.9532 172.264 78.4712 172.976C78.9973 173.688 79.7784 174.044 80.8145 174.044C81.5105 174.044 82.1095 173.887 82.6113 173.571C83.1132 173.247 83.5138 172.863 83.8133 172.417L86.108 173.753C85.7194 174.506 85.0719 175.137 84.1654 175.647C83.2669 176.157 82.1621 176.412 80.8509 176.412C78.8597 176.412 77.3057 175.833 76.1887 174.676C75.0798 173.51 74.5254 171.972 74.5254 170.062ZM87.0185 166.031V163.688H94.6674V166.031H87.0185ZM88.9975 172.539V164.769L89.0218 164.465V160.41H92.1542V172.32C92.1542 172.968 92.2635 173.405 92.482 173.632C92.7005 173.858 93.0283 173.971 93.4654 173.971C93.6597 173.971 93.8539 173.951 94.0482 173.911C94.2425 173.87 94.4367 173.814 94.631 173.741V176.06C94.4286 176.149 94.1494 176.226 93.7932 176.29C93.4452 176.363 93.0486 176.4 92.6034 176.4C91.4945 176.4 90.6163 176.092 89.9688 175.477C89.3213 174.862 88.9975 173.882 88.9975 172.539ZM96.7435 176.072V163.688H99.9245V176.072H96.7435ZM96.4643 159.936C96.4643 159.451 96.6261 159.042 96.9499 158.71C97.2737 158.378 97.735 158.212 98.334 158.212C98.941 158.212 99.4064 158.378 99.7302 158.71C100.054 159.042 100.216 159.451 100.216 159.936C100.216 160.43 100.05 160.847 99.7181 161.187C99.3943 161.519 98.9329 161.685 98.334 161.685C97.7269 161.685 97.2615 161.519 96.9378 161.187C96.6221 160.847 96.4643 160.43 96.4643 159.936ZM103.045 176.072V163.688H106.056L106.116 165.206H106.177C106.533 164.671 107.035 164.242 107.683 163.919C108.338 163.595 109.071 163.433 109.88 163.433C111.143 163.433 112.163 163.789 112.94 164.501C113.717 165.214 114.105 166.432 114.105 168.156V176.072H110.936V168.229C110.936 167.387 110.75 166.788 110.378 166.432C110.014 166.076 109.492 165.898 108.812 165.898C108.245 165.898 107.731 166.06 107.27 166.383C106.808 166.707 106.456 167.136 106.214 167.67V176.072H103.045ZM117.007 179.714L118.306 177.626C118.63 177.95 119.128 178.253 119.799 178.537C120.479 178.828 121.216 178.974 122.009 178.974C122.94 178.974 123.701 178.69 124.292 178.124C124.882 177.565 125.178 176.707 125.178 175.55V174.651C124.838 175.153 124.368 175.554 123.769 175.853C123.171 176.145 122.442 176.29 121.584 176.29C120.006 176.29 118.739 175.716 117.784 174.566C116.837 173.417 116.363 171.92 116.363 170.074V169.686C116.363 167.832 116.833 166.331 117.772 165.181C118.719 164.024 119.99 163.445 121.584 163.445C122.393 163.445 123.122 163.615 123.769 163.955C124.425 164.287 124.899 164.704 125.19 165.206H125.251L125.324 163.688H128.322V175.38C128.322 177.314 127.76 178.796 126.635 179.823C125.51 180.86 124.049 181.378 122.252 181.378C121.175 181.378 120.18 181.216 119.265 180.892C118.359 180.576 117.606 180.184 117.007 179.714ZM119.581 170.147C119.581 171.248 119.816 172.15 120.285 172.855C120.763 173.559 121.499 173.911 122.495 173.911C123.15 173.911 123.709 173.725 124.17 173.352C124.631 172.98 124.963 172.555 125.166 172.077V167.707C124.955 167.189 124.615 166.748 124.146 166.383C123.684 166.019 123.122 165.837 122.458 165.837C121.487 165.837 120.763 166.193 120.285 166.905C119.816 167.61 119.581 168.508 119.581 169.601V170.147ZM17.3906 191.242V190.59C17.3906 189.004 17.7967 187.767 18.6088 186.879C19.4209 185.991 20.4407 185.548 21.6683 185.548C22.8912 185.548 23.8497 185.885 24.5437 186.56C25.2378 187.231 25.5848 188.041 25.5848 188.99V189.06H24.2321V188.99C24.2321 188.329 24.0196 187.783 23.5947 187.354C23.1698 186.919 22.5276 186.702 21.6683 186.702C20.8185 186.702 20.1197 187.023 19.572 187.665C19.029 188.303 18.7575 189.278 18.7575 190.59V191.242C18.7575 192.455 19.029 193.407 19.572 194.096C20.1197 194.785 20.8185 195.13 21.6683 195.13C22.4757 195.13 23.0871 194.91 23.5026 194.471C23.9181 194.032 24.1589 193.489 24.225 192.842L24.2321 192.772H25.5848L25.5777 192.842C25.488 193.787 25.1198 194.596 24.4729 195.272C23.8261 195.947 22.8888 196.284 21.6612 196.284C20.4384 196.284 19.4209 195.841 18.6088 194.953C17.7967 194.065 17.3906 192.828 17.3906 191.242ZM26.7817 192.467V192.24C26.7817 191.117 27.0981 190.201 27.7308 189.492C28.3682 188.78 29.2204 188.423 30.2875 188.423C31.3498 188.423 32.1997 188.78 32.8371 189.492C33.4745 190.201 33.7932 191.117 33.7932 192.24V192.467C33.7932 193.586 33.4745 194.502 32.8371 195.215C32.1997 195.928 31.3498 196.284 30.2875 196.284C29.2204 196.284 28.3682 195.928 27.7308 195.215C27.0981 194.502 26.7817 193.586 26.7817 192.467ZM28.1203 192.24V192.467C28.1203 193.237 28.3021 193.886 28.6656 194.415C29.0292 194.943 29.5698 195.208 30.2875 195.208C31.0051 195.208 31.5457 194.943 31.9093 194.415C32.2729 193.886 32.4546 193.237 32.4546 192.467V192.24C32.4546 191.471 32.2729 190.822 31.9093 190.293C31.5457 189.759 31.0051 189.492 30.2875 189.492C29.5698 189.492 29.0292 189.759 28.6656 190.293C28.3021 190.822 28.1203 191.471 28.1203 192.24ZM35.4434 196.072V188.636H36.6261L36.6828 189.592H36.7253C36.9897 189.256 37.3084 188.99 37.6814 188.791C38.0591 188.593 38.4746 188.494 38.9278 188.494C39.4283 188.494 39.8603 188.593 40.2239 188.791C40.5875 188.99 40.8637 189.308 41.0525 189.747H41.095C41.4066 189.308 41.7513 188.99 42.129 188.791C42.5068 188.593 42.9411 188.494 43.4322 188.494C44.2018 188.494 44.8038 188.706 45.2381 189.131C45.6725 189.556 45.8897 190.269 45.8897 191.27V196.072H44.5795V191.256C44.5795 190.661 44.452 190.236 44.1971 189.981C43.9421 189.721 43.5809 189.592 43.1135 189.592C42.7074 189.592 42.3509 189.705 42.044 189.932C41.7419 190.158 41.5011 190.451 41.3216 190.81V196.072H40.0114V191.256C40.0114 190.661 39.8839 190.236 39.629 189.981C39.374 189.721 39.0128 189.592 38.5454 189.592C38.1393 189.592 37.7829 189.705 37.476 189.932C37.1738 190.158 36.933 190.451 36.7536 190.81V196.072H35.4434ZM47.9082 199.018V188.636H49.0909L49.1476 189.599H49.1901C49.3789 189.297 49.6669 189.037 50.0541 188.82C50.446 188.602 50.9016 188.494 51.421 188.494C52.3606 188.494 53.1136 188.848 53.6802 189.556C54.2468 190.26 54.5301 191.154 54.5301 192.24V192.467C54.5301 193.553 54.2468 194.45 53.6802 195.158C53.1136 195.862 52.3606 196.214 51.421 196.214C50.9016 196.214 50.4578 196.121 50.0895 195.937C49.726 195.748 49.4356 195.501 49.2184 195.194V199.018H47.9082ZM49.2184 193.869C49.3648 194.2 49.6032 194.495 49.9337 194.755C50.2642 195.014 50.6655 195.144 51.1377 195.144C51.8459 195.144 52.3653 194.887 52.6958 194.372C53.0263 193.858 53.1915 193.222 53.1915 192.467V192.24C53.1915 191.485 53.0263 190.85 52.6958 190.335C52.3653 189.821 51.8459 189.563 51.1377 189.563C50.6655 189.563 50.2642 189.693 49.9337 189.953C49.6032 190.212 49.3648 190.508 49.2184 190.838V193.869ZM55.7695 193.883C55.7695 193.128 56.067 192.54 56.6619 192.12C57.2615 191.7 58.024 191.49 58.9494 191.49H60.635V190.98C60.635 190.531 60.5193 190.168 60.288 189.889C60.0566 189.606 59.6577 189.464 59.0911 189.464C58.5245 189.464 58.1185 189.582 57.8729 189.818C57.6321 190.05 57.5117 190.319 57.5117 190.626V190.661H56.2086V190.626C56.2086 190.035 56.4706 189.521 56.9947 189.082C57.5188 188.643 58.2294 188.423 59.1265 188.423C60.0189 188.423 60.7106 188.638 61.2016 189.068C61.6974 189.492 61.9452 190.13 61.9452 190.98V194.372C61.9452 194.679 61.9689 194.969 62.0161 195.243C62.0633 195.512 62.1294 195.751 62.2144 195.959V196.072H60.9466C60.8805 195.954 60.8192 195.8 60.7625 195.612C60.7106 195.423 60.6775 195.234 60.6634 195.045C60.4887 195.352 60.2054 195.623 59.8135 195.859C59.4263 196.096 58.9258 196.214 58.312 196.214C57.6038 196.214 57.0018 196.013 56.5061 195.612C56.015 195.21 55.7695 194.634 55.7695 193.883ZM57.0797 193.813C57.0797 194.238 57.2025 194.57 57.448 194.811C57.6935 195.047 58.076 195.165 58.5953 195.165C59.1147 195.165 59.5845 194.988 60.0047 194.634C60.4249 194.275 60.635 193.895 60.635 193.494V192.425H59.0911C58.4301 192.425 57.9296 192.55 57.5896 192.8C57.2497 193.05 57.0797 193.388 57.0797 193.813ZM63.9991 196.072V188.636H65.1818L65.2385 189.585H65.281C65.4699 189.273 65.7177 189.001 66.0246 188.77C66.3315 188.539 66.6974 188.423 67.1224 188.423C67.2263 188.423 67.3349 188.435 67.4482 188.458C67.5615 188.482 67.6418 188.503 67.689 188.522V189.733C67.5945 189.714 67.4954 189.7 67.3915 189.691C67.2876 189.681 67.1743 189.677 67.0516 189.677C66.6266 189.677 66.2654 189.788 65.968 190.009C65.6705 190.231 65.451 190.508 65.3093 190.838V196.072H63.9991ZM68.3547 192.467V192.24C68.3547 191.117 68.6616 190.201 69.2754 189.492C69.8892 188.78 70.7037 188.423 71.7188 188.423C72.7292 188.423 73.5082 188.756 74.0559 189.422C74.6036 190.083 74.8775 190.98 74.8775 192.113V192.644H69.155V191.603H73.5602V191.433C73.5602 190.895 73.4067 190.437 73.0998 190.059C72.7929 189.681 72.3515 189.492 71.7754 189.492C71.0767 189.492 70.5549 189.759 70.2103 190.293C69.8656 190.822 69.6933 191.471 69.6933 192.24V192.467C69.6933 193.237 69.875 193.888 70.2386 194.422C70.6021 194.951 71.164 195.215 71.9242 195.215C72.3963 195.215 72.8024 195.111 73.1423 194.903C73.4823 194.696 73.7585 194.45 73.9709 194.167L74.8208 194.833C74.5847 195.187 74.2188 195.517 73.7231 195.824C73.232 196.131 72.6324 196.284 71.9242 196.284C70.7721 196.284 69.8892 195.928 69.2754 195.215C68.6616 194.502 68.3547 193.586 68.3547 192.467ZM76.0461 192.467V192.24C76.0461 191.154 76.327 190.26 76.8888 189.556C77.4554 188.848 78.2109 188.494 79.1552 188.494C79.6745 188.494 80.116 188.586 80.4796 188.77C80.8478 188.954 81.1406 189.2 81.3578 189.507V185.201H82.668V196.072H81.4782L81.4286 195.102H81.3861C81.1972 195.409 80.9069 195.671 80.515 195.888C80.1278 196.105 79.6745 196.214 79.1552 196.214C78.2109 196.214 77.4554 195.859 76.8888 195.151C76.327 194.443 76.0461 193.548 76.0461 192.467ZM77.3846 192.467C77.3846 193.222 77.5499 193.858 77.8804 194.372C78.2109 194.887 78.7302 195.144 79.4385 195.144C79.9106 195.144 80.3119 195.014 80.6425 194.755C80.973 194.495 81.2114 194.2 81.3578 193.869V190.838C81.2114 190.508 80.973 190.212 80.6425 189.953C80.3119 189.693 79.9106 189.563 79.4385 189.563C78.7302 189.563 78.2109 189.821 77.8804 190.335C77.5499 190.85 77.3846 191.485 77.3846 192.24V192.467ZM87.1581 189.634V188.636H91.4004V189.634H87.1581ZM88.4896 194.231V189.238V189.025V186.78H89.7998V194.231C89.7998 194.566 89.8659 194.804 89.9981 194.946C90.1303 195.087 90.3381 195.158 90.6214 195.158C90.7536 195.158 90.8834 195.144 91.0109 195.116C91.1384 195.087 91.2682 195.05 91.4004 195.002V196.072C91.2777 196.129 91.1171 196.178 90.9188 196.221C90.7205 196.263 90.5033 196.284 90.2673 196.284C89.7243 196.284 89.2923 196.119 88.9712 195.789C88.6501 195.458 88.4896 194.939 88.4896 194.231ZM92.222 192.467V192.24C92.222 191.117 92.5383 190.201 93.171 189.492C93.8084 188.78 94.6606 188.423 95.7277 188.423C96.7901 188.423 97.6399 188.78 98.2773 189.492C98.9147 190.201 99.2334 191.117 99.2334 192.24V192.467C99.2334 193.586 98.9147 194.502 98.2773 195.215C97.6399 195.928 96.7901 196.284 95.7277 196.284C94.6606 196.284 93.8084 195.928 93.171 195.215C92.5383 194.502 92.222 193.586 92.222 192.467ZM93.5605 192.24V192.467C93.5605 193.237 93.7423 193.886 94.1059 194.415C94.4694 194.943 95.01 195.208 95.7277 195.208C96.4454 195.208 96.986 194.943 97.3495 194.415C97.7131 193.886 97.8949 193.237 97.8949 192.467V192.24C97.8949 191.471 97.7131 190.822 97.3495 190.293C96.986 189.759 96.4454 189.492 95.7277 189.492C95.01 189.492 94.4694 189.759 94.1059 190.293C93.7423 190.822 93.5605 191.471 93.5605 192.24ZM103.277 189.634V188.636H107.52V189.634H103.277ZM104.609 194.231V189.238V189.025V186.78H105.919V194.231C105.919 194.566 105.985 194.804 106.117 194.946C106.25 195.087 106.457 195.158 106.741 195.158C106.873 195.158 107.003 195.144 107.13 195.116C107.258 195.087 107.387 195.05 107.52 195.002V196.072C107.397 196.129 107.236 196.178 107.038 196.221C106.84 196.263 106.623 196.284 106.387 196.284C105.844 196.284 105.412 196.119 105.09 195.789C104.769 195.458 104.609 194.939 104.609 194.231ZM108.929 196.072V188.636H110.112L110.168 189.585H110.211C110.4 189.273 110.648 189.001 110.955 188.77C111.261 188.539 111.627 188.423 112.052 188.423C112.156 188.423 112.265 188.435 112.378 188.458C112.491 188.482 112.572 188.503 112.619 188.522V189.733C112.525 189.714 112.425 189.7 112.321 189.691C112.218 189.681 112.104 189.677 111.982 189.677C111.557 189.677 111.195 189.788 110.898 190.009C110.6 190.231 110.381 190.508 110.239 190.838V196.072H108.929ZM113.178 193.883C113.178 193.128 113.476 192.54 114.071 192.12C114.67 191.7 115.433 191.49 116.358 191.49H118.044V190.98C118.044 190.531 117.928 190.168 117.697 189.889C117.466 189.606 117.067 189.464 116.5 189.464C115.933 189.464 115.527 189.582 115.282 189.818C115.041 190.05 114.921 190.319 114.921 190.626V190.661H113.618V190.626C113.618 190.035 113.88 189.521 114.404 189.082C114.928 188.643 115.638 188.423 116.535 188.423C117.428 188.423 118.12 188.638 118.611 189.068C119.106 189.492 119.354 190.13 119.354 190.98V194.372C119.354 194.679 119.378 194.969 119.425 195.243C119.472 195.512 119.538 195.751 119.623 195.959V196.072H118.356C118.289 195.954 118.228 195.8 118.171 195.612C118.12 195.423 118.086 195.234 118.072 195.045C117.898 195.352 117.614 195.623 117.222 195.859C116.835 196.096 116.335 196.214 115.721 196.214C115.013 196.214 114.411 196.013 113.915 195.612C113.424 195.21 113.178 194.634 113.178 193.883ZM114.489 193.813C114.489 194.238 114.611 194.57 114.857 194.811C115.102 195.047 115.485 195.165 116.004 195.165C116.524 195.165 116.993 194.988 117.414 194.634C117.834 194.275 118.044 193.895 118.044 193.494V192.425H116.5C115.839 192.425 115.339 192.55 114.999 192.8C114.659 193.05 114.489 193.388 114.489 193.813ZM120.962 192.467V192.24C120.962 191.154 121.243 190.26 121.805 189.556C122.371 188.848 123.127 188.494 124.071 188.494C124.59 188.494 125.032 188.586 125.395 188.77C125.764 188.954 126.056 189.2 126.274 189.507V185.201H127.584V196.072H126.394L126.344 195.102H126.302C126.113 195.409 125.823 195.671 125.431 195.888C125.044 196.105 124.59 196.214 124.071 196.214C123.127 196.214 122.371 195.859 121.805 195.151C121.243 194.443 120.962 193.548 120.962 192.467ZM122.3 192.467C122.3 193.222 122.466 193.858 122.796 194.372C123.127 194.887 123.646 195.144 124.354 195.144C124.826 195.144 125.228 195.014 125.558 194.755C125.889 194.495 126.127 194.2 126.274 193.869V190.838C126.127 190.508 125.889 190.212 125.558 189.953C125.228 189.693 124.826 189.563 124.354 189.563C123.646 189.563 123.127 189.821 122.796 190.335C122.466 190.85 122.3 191.485 122.3 192.24V192.467ZM129.744 196.072V188.636H131.054V196.072H129.744ZM129.581 186.376C129.581 186.154 129.649 185.97 129.786 185.824C129.928 185.673 130.131 185.597 130.395 185.597C130.66 185.597 130.863 185.673 131.005 185.824C131.146 185.97 131.217 186.154 131.217 186.376C131.217 186.598 131.146 186.785 131.005 186.936C130.863 187.087 130.66 187.162 130.395 187.162C130.131 187.162 129.928 187.087 129.786 186.936C129.649 186.785 129.581 186.598 129.581 186.376ZM132.159 189.634V188.636H136.401V189.634H132.159ZM133.49 194.231V189.238V189.025V186.78H134.801V194.231C134.801 194.566 134.867 194.804 134.999 194.946C135.131 195.087 135.339 195.158 135.622 195.158C135.754 195.158 135.884 195.144 136.012 195.116C136.139 195.087 136.269 195.05 136.401 195.002V196.072C136.278 196.129 136.118 196.178 135.92 196.221C135.721 196.263 135.504 196.284 135.268 196.284C134.725 196.284 134.293 196.119 133.972 195.789C133.651 195.458 133.49 194.939 133.49 194.231ZM137.874 196.072V188.636H139.185V196.072H137.874ZM137.711 186.376C137.711 186.154 137.78 185.97 137.917 185.824C138.058 185.673 138.262 185.597 138.526 185.597C138.79 185.597 138.993 185.673 139.135 185.824C139.277 185.97 139.347 186.154 139.347 186.376C139.347 186.598 139.277 186.785 139.135 186.936C138.993 187.087 138.79 187.162 138.526 187.162C138.262 187.162 138.058 187.087 137.917 186.936C137.78 186.785 137.711 186.598 137.711 186.376ZM140.891 192.467V192.24C140.891 191.117 141.208 190.201 141.84 189.492C142.478 188.78 143.33 188.423 144.397 188.423C145.459 188.423 146.309 188.78 146.947 189.492C147.584 190.201 147.903 191.117 147.903 192.24V192.467C147.903 193.586 147.584 194.502 146.947 195.215C146.309 195.928 145.459 196.284 144.397 196.284C143.33 196.284 142.478 195.928 141.84 195.215C141.208 194.502 140.891 193.586 140.891 192.467ZM142.23 192.24V192.467C142.23 193.237 142.412 193.886 142.775 194.415C143.139 194.943 143.679 195.208 144.397 195.208C145.115 195.208 145.655 194.943 146.019 194.415C146.383 193.886 146.564 193.237 146.564 192.467V192.24C146.564 191.471 146.383 190.822 146.019 190.293C145.655 189.759 145.115 189.492 144.397 189.492C143.679 189.492 143.139 189.759 142.775 190.293C142.412 190.822 142.23 191.471 142.23 192.24ZM149.553 196.072V188.636H150.736L150.792 189.592H150.835C151.104 189.247 151.432 188.978 151.819 188.784C152.211 188.591 152.641 188.494 153.108 188.494C153.859 188.494 154.456 188.706 154.9 189.131C155.349 189.556 155.573 190.269 155.573 191.27V196.072H154.263V191.256C154.263 190.661 154.128 190.236 153.859 189.981C153.595 189.721 153.217 189.592 152.726 189.592C152.306 189.592 151.935 189.705 151.614 189.932C151.293 190.158 151.043 190.451 150.863 190.81V196.072H149.553ZM157.188 193.883C157.188 193.128 157.485 192.54 158.08 192.12C158.68 191.7 159.442 191.49 160.368 191.49H162.053V190.98C162.053 190.531 161.938 190.168 161.706 189.889C161.475 189.606 161.076 189.464 160.509 189.464C159.943 189.464 159.537 189.582 159.291 189.818C159.05 190.05 158.93 190.319 158.93 190.626V190.661H157.627V190.626C157.627 190.035 157.889 189.521 158.413 189.082C158.937 188.643 159.648 188.423 160.545 188.423C161.437 188.423 162.129 188.638 162.62 189.068C163.116 189.492 163.363 190.13 163.363 190.98V194.372C163.363 194.679 163.387 194.969 163.434 195.243C163.481 195.512 163.548 195.751 163.633 195.959V196.072H162.365C162.299 195.954 162.237 195.8 162.181 195.612C162.129 195.423 162.096 195.234 162.082 195.045C161.907 195.352 161.624 195.623 161.232 195.859C160.845 196.096 160.344 196.214 159.73 196.214C159.022 196.214 158.42 196.013 157.924 195.612C157.433 195.21 157.188 194.634 157.188 193.883ZM158.498 193.813C158.498 194.238 158.621 194.57 158.866 194.811C159.112 195.047 159.494 195.165 160.014 195.165C160.533 195.165 161.003 194.988 161.423 194.634C161.843 194.275 162.053 193.895 162.053 193.494V192.425H160.509C159.848 192.425 159.348 192.55 159.008 192.8C158.668 193.05 158.498 193.388 158.498 193.813ZM165.474 196.072V185.201H166.784V196.072H165.474ZM172.457 196.072V188.636H173.64L173.696 189.585H173.739C173.928 189.273 174.176 189.001 174.483 188.77C174.79 188.539 175.155 188.423 175.58 188.423C175.684 188.423 175.793 188.435 175.906 188.458C176.019 188.482 176.1 188.503 176.147 188.522V189.733C176.053 189.714 175.953 189.7 175.85 189.691C175.746 189.681 175.632 189.677 175.51 189.677C175.085 189.677 174.723 189.788 174.426 190.009C174.129 190.231 173.909 190.508 173.767 190.838V196.072H172.457ZM176.813 192.467V192.24C176.813 191.117 177.12 190.201 177.733 189.492C178.347 188.78 179.162 188.423 180.177 188.423C181.187 188.423 181.966 188.756 182.514 189.422C183.062 190.083 183.335 190.98 183.335 192.113V192.644H177.613V191.603H182.018V191.433C182.018 190.895 181.865 190.437 181.558 190.059C181.251 189.681 180.809 189.492 180.233 189.492C179.535 189.492 179.013 189.759 178.668 190.293C178.324 190.822 178.151 191.471 178.151 192.24V192.467C178.151 193.237 178.333 193.888 178.697 194.422C179.06 194.951 179.622 195.215 180.382 195.215C180.854 195.215 181.26 195.111 181.6 194.903C181.94 194.696 182.216 194.45 182.429 194.167L183.279 194.833C183.043 195.187 182.677 195.517 182.181 195.824C181.69 196.131 181.09 196.284 180.382 196.284C179.23 196.284 178.347 195.928 177.733 195.215C177.12 194.502 176.813 193.586 176.813 192.467ZM184.504 192.467V192.24C184.504 191.117 184.809 190.201 185.418 189.492C186.027 188.78 186.867 188.423 187.939 188.423C188.926 188.423 189.676 188.69 190.191 189.223C190.706 189.757 190.963 190.354 190.963 191.015V191.051H189.695V191.015C189.695 190.614 189.554 190.26 189.27 189.953C188.992 189.646 188.548 189.492 187.939 189.492C187.221 189.492 186.692 189.759 186.353 190.293C186.013 190.822 185.843 191.471 185.843 192.24V192.467C185.843 193.237 186.013 193.886 186.353 194.415C186.692 194.943 187.221 195.208 187.939 195.208C188.548 195.208 188.992 195.057 189.27 194.755C189.554 194.448 189.695 194.091 189.695 193.685V193.65H190.963V193.685C190.963 194.346 190.706 194.946 190.191 195.484C189.676 196.018 188.926 196.284 187.939 196.284C186.867 196.284 186.027 195.93 185.418 195.222C184.809 194.509 184.504 193.591 184.504 192.467ZM192.054 192.467V192.24C192.054 191.117 192.37 190.201 193.003 189.492C193.64 188.78 194.492 188.423 195.559 188.423C196.622 188.423 197.472 188.78 198.109 189.492C198.747 190.201 199.065 191.117 199.065 192.24V192.467C199.065 193.586 198.747 194.502 198.109 195.215C197.472 195.928 196.622 196.284 195.559 196.284C194.492 196.284 193.64 195.928 193.003 195.215C192.37 194.502 192.054 193.586 192.054 192.467ZM193.392 192.24V192.467C193.392 193.237 193.574 193.886 193.938 194.415C194.301 194.943 194.842 195.208 195.559 195.208C196.277 195.208 196.818 194.943 197.181 194.415C197.545 193.886 197.727 193.237 197.727 192.467V192.24C197.727 191.471 197.545 190.822 197.181 190.293C196.818 189.759 196.277 189.492 195.559 189.492C194.842 189.492 194.301 189.759 193.938 190.293C193.574 190.822 193.392 191.471 193.392 192.24ZM200.715 196.072V188.636H201.898L201.955 189.592H201.997C202.262 189.256 202.58 188.99 202.953 188.791C203.331 188.593 203.747 188.494 204.2 188.494C204.7 188.494 205.132 188.593 205.496 188.791C205.859 188.99 206.136 189.308 206.325 189.747H206.367C206.679 189.308 207.023 188.99 207.401 188.791C207.779 188.593 208.213 188.494 208.704 188.494C209.474 188.494 210.076 188.706 210.51 189.131C210.945 189.556 211.162 190.269 211.162 191.27V196.072H209.852V191.256C209.852 190.661 209.724 190.236 209.469 189.981C209.214 189.721 208.853 189.592 208.385 189.592C207.979 189.592 207.623 189.705 207.316 189.932C207.014 190.158 206.773 190.451 206.594 190.81V196.072H205.283V191.256C205.283 190.661 205.156 190.236 204.901 189.981C204.646 189.721 204.285 189.592 203.817 189.592C203.411 189.592 203.055 189.705 202.748 189.932C202.446 190.158 202.205 190.451 202.026 190.81V196.072H200.715ZM213.18 196.072V188.636H214.363L214.42 189.592H214.462C214.726 189.256 215.045 188.99 215.418 188.791C215.796 188.593 216.211 188.494 216.665 188.494C217.165 188.494 217.597 188.593 217.961 188.791C218.324 188.99 218.6 189.308 218.789 189.747H218.832C219.143 189.308 219.488 188.99 219.866 188.791C220.244 188.593 220.678 188.494 221.169 188.494C221.939 188.494 222.541 188.706 222.975 189.131C223.409 189.556 223.627 190.269 223.627 191.27V196.072H222.316V191.256C222.316 190.661 222.189 190.236 221.934 189.981C221.679 189.721 221.318 189.592 220.85 189.592C220.444 189.592 220.088 189.705 219.781 189.932C219.479 190.158 219.238 190.451 219.058 190.81V196.072H217.748V191.256C217.748 190.661 217.621 190.236 217.366 189.981C217.111 189.721 216.75 189.592 216.282 189.592C215.876 189.592 215.52 189.705 215.213 189.932C214.911 190.158 214.67 190.451 214.49 190.81V196.072H213.18ZM225.199 192.467V192.24C225.199 191.117 225.506 190.201 226.12 189.492C226.733 188.78 227.548 188.423 228.563 188.423C229.573 188.423 230.352 188.756 230.9 189.422C231.448 190.083 231.722 190.98 231.722 192.113V192.644H225.999V191.603H230.404V191.433C230.404 190.895 230.251 190.437 229.944 190.059C229.637 189.681 229.196 189.492 228.62 189.492C227.921 189.492 227.399 189.759 227.054 190.293C226.71 190.822 226.537 191.471 226.537 192.24V192.467C226.537 193.237 226.719 193.888 227.083 194.422C227.446 194.951 228.008 195.215 228.768 195.215C229.24 195.215 229.646 195.111 229.986 194.903C230.326 194.696 230.603 194.45 230.815 194.167L231.665 194.833C231.429 195.187 231.063 195.517 230.567 195.824C230.076 196.131 229.477 196.284 228.768 196.284C227.616 196.284 226.733 195.928 226.12 195.215C225.506 194.502 225.199 193.586 225.199 192.467ZM233.336 196.072V188.636H234.519L234.576 189.592H234.618C234.887 189.247 235.216 188.978 235.603 188.784C235.995 188.591 236.424 188.494 236.892 188.494C237.642 188.494 238.24 188.706 238.683 189.131C239.132 189.556 239.356 190.269 239.356 191.27V196.072H238.046V191.256C238.046 190.661 237.912 190.236 237.642 189.981C237.378 189.721 237 189.592 236.509 189.592C236.089 189.592 235.718 189.705 235.397 189.932C235.076 190.158 234.826 190.451 234.647 190.81V196.072H233.336ZM240.936 192.467V192.24C240.936 191.154 241.217 190.26 241.778 189.556C242.345 188.848 243.1 188.494 244.045 188.494C244.564 188.494 245.006 188.586 245.369 188.77C245.737 188.954 246.03 189.2 246.247 189.507V185.201H247.558V196.072H246.368L246.318 195.102H246.276C246.087 195.409 245.796 195.671 245.405 195.888C245.017 196.105 244.564 196.214 244.045 196.214C243.1 196.214 242.345 195.859 241.778 195.151C241.217 194.443 240.936 193.548 240.936 192.467ZM242.274 192.467C242.274 193.222 242.439 193.858 242.77 194.372C243.1 194.887 243.62 195.144 244.328 195.144C244.8 195.144 245.202 195.014 245.532 194.755C245.863 194.495 246.101 194.2 246.247 193.869V190.838C246.101 190.508 245.863 190.212 245.532 189.953C245.202 189.693 244.8 189.563 244.328 189.563C243.62 189.563 243.1 189.821 242.77 190.335C242.439 190.85 242.274 191.485 242.274 192.24V192.467ZM249.243 193.883C249.243 193.128 249.541 192.54 250.136 192.12C250.735 191.7 251.498 191.49 252.423 191.49H254.109V190.98C254.109 190.531 253.993 190.168 253.762 189.889C253.53 189.606 253.131 189.464 252.565 189.464C251.998 189.464 251.592 189.582 251.347 189.818C251.106 190.05 250.985 190.319 250.985 190.626V190.661H249.682V190.626C249.682 190.035 249.944 189.521 250.468 189.082C250.992 188.643 251.703 188.423 252.6 188.423C253.493 188.423 254.184 188.638 254.675 189.068C255.171 189.492 255.419 190.13 255.419 190.98V194.372C255.419 194.679 255.443 194.969 255.49 195.243C255.537 195.512 255.603 195.751 255.688 195.959V196.072H254.42C254.354 195.954 254.293 195.8 254.236 195.612C254.184 195.423 254.151 195.234 254.137 195.045C253.962 195.352 253.679 195.623 253.287 195.859C252.9 196.096 252.399 196.214 251.786 196.214C251.077 196.214 250.475 196.013 249.98 195.612C249.489 195.21 249.243 194.634 249.243 193.883ZM250.553 193.813C250.553 194.238 250.676 194.57 250.922 194.811C251.167 195.047 251.55 195.165 252.069 195.165C252.588 195.165 253.058 194.988 253.478 194.634C253.899 194.275 254.109 193.895 254.109 193.494V192.425H252.565C251.904 192.425 251.403 192.55 251.063 192.8C250.723 193.05 250.553 193.388 250.553 193.813ZM256.425 189.634V188.636H260.667V189.634H256.425ZM257.756 194.231V189.238V189.025V186.78H259.066V194.231C259.066 194.566 259.132 194.804 259.265 194.946C259.397 195.087 259.605 195.158 259.888 195.158C260.02 195.158 260.15 195.144 260.277 195.116C260.405 195.087 260.535 195.05 260.667 195.002V196.072C260.544 196.129 260.384 196.178 260.185 196.221C259.987 196.263 259.77 196.284 259.534 196.284C258.991 196.284 258.559 196.119 258.238 195.789C257.917 195.458 257.756 194.939 257.756 194.231ZM262.14 196.072V188.636H263.45V196.072H262.14ZM261.977 186.376C261.977 186.154 262.046 185.97 262.182 185.824C262.324 185.673 262.527 185.597 262.792 185.597C263.056 185.597 263.259 185.673 263.401 185.824C263.542 185.97 263.613 186.154 263.613 186.376C263.613 186.598 263.542 186.785 263.401 186.936C263.259 187.087 263.056 187.162 262.792 187.162C262.527 187.162 262.324 187.087 262.182 186.936C262.046 186.785 261.977 186.598 261.977 186.376ZM265.157 192.467V192.24C265.157 191.117 265.473 190.201 266.106 189.492C266.743 188.78 267.596 188.423 268.663 188.423C269.725 188.423 270.575 188.78 271.212 189.492C271.85 190.201 272.168 191.117 272.168 192.24V192.467C272.168 193.586 271.85 194.502 271.212 195.215C270.575 195.928 269.725 196.284 268.663 196.284C267.596 196.284 266.743 195.928 266.106 195.215C265.473 194.502 265.157 193.586 265.157 192.467ZM266.496 192.24V192.467C266.496 193.237 266.677 193.886 267.041 194.415C267.404 194.943 267.945 195.208 268.663 195.208C269.38 195.208 269.921 194.943 270.285 194.415C270.648 193.886 270.83 193.237 270.83 192.467V192.24C270.83 191.471 270.648 190.822 270.285 190.293C269.921 189.759 269.38 189.492 268.663 189.492C267.945 189.492 267.404 189.759 267.041 190.293C266.677 190.822 266.496 191.471 266.496 192.24ZM273.819 196.072V188.636H275.001L275.058 189.592H275.101C275.37 189.247 275.698 188.978 276.085 188.784C276.477 188.591 276.907 188.494 277.374 188.494C278.125 188.494 278.722 188.706 279.166 189.131C279.614 189.556 279.839 190.269 279.839 191.27V196.072H278.528V191.256C278.528 190.661 278.394 190.236 278.125 189.981C277.86 189.721 277.483 189.592 276.992 189.592C276.571 189.592 276.201 189.705 275.88 189.932C275.559 190.158 275.308 190.451 275.129 190.81V196.072H273.819Z" fill="#4E4B66"/>
<path d="M18.2274 144.836V123.395H24.3464V125.847H21.3233V142.383H24.3464V144.836H18.2274ZM32.8573 141.072V123.395H37.1431L41.5624 135.341C41.6515 135.608 41.7324 135.867 41.8053 136.118C41.8862 136.369 41.955 136.636 42.0117 136.92H42.0845C42.1412 136.636 42.2059 136.369 42.2788 136.118C42.3597 135.859 42.4487 135.6 42.5459 135.341L46.9531 123.395H51.2874V141.072H48.0579V129.344C48.0579 129.085 48.062 128.793 48.07 128.469C48.0862 128.146 48.1065 127.85 48.1308 127.583H48.0458C47.9972 127.85 47.9284 128.146 47.8394 128.469C47.7584 128.785 47.6694 129.077 47.5723 129.344L43.2865 141.072H40.494L36.2082 129.344C36.1192 129.085 36.0302 128.785 35.9411 128.445C35.8521 128.105 35.7874 127.818 35.7469 127.583H35.6619C35.6862 127.818 35.7024 128.105 35.7105 128.445C35.7186 128.785 35.7226 129.085 35.7226 129.344V141.072H32.8573ZM53.9342 137.454C53.9342 136.135 54.4481 135.127 55.4761 134.431C56.504 133.727 57.8153 133.37 59.4098 133.362H62.0687V132.573C62.0687 131.95 61.9068 131.452 61.583 131.08C61.2674 130.699 60.717 130.509 59.9319 130.509C59.1467 130.509 58.5801 130.667 58.2321 130.983C57.8841 131.29 57.71 131.679 57.71 132.148V132.33L54.6384 132.318V132.124C54.6384 131.047 55.1321 130.149 56.1196 129.429C57.1151 128.708 58.4304 128.348 60.0654 128.348C61.7085 128.348 62.9793 128.696 63.8777 129.392C64.7842 130.08 65.2375 131.153 65.2375 132.61V138.231C65.2375 138.749 65.278 139.239 65.3589 139.7C65.4479 140.153 65.5734 140.546 65.7353 140.878V141.072H62.6272C62.5219 140.878 62.4289 140.631 62.3479 140.331C62.267 140.024 62.2103 139.716 62.1779 139.409C61.9189 139.902 61.4454 140.339 60.7574 140.72C60.0775 141.1 59.2196 141.29 58.1835 141.29C56.9613 141.29 55.9455 140.967 55.1361 140.319C54.3348 139.672 53.9342 138.717 53.9342 137.454ZM57.103 137.211C57.103 137.81 57.277 138.284 57.6251 138.632C57.9731 138.971 58.5073 139.141 59.2277 139.141C59.9966 139.141 60.6603 138.891 61.2188 138.389C61.7854 137.879 62.0687 137.296 62.0687 136.64V135.293H59.9683C59.0051 135.293 58.2847 135.459 57.8072 135.791C57.3377 136.122 57.103 136.596 57.103 137.211ZM66.8644 141.072L71.5873 134.03L72.0972 134.006L75.4481 128.688H78.5077L74.0519 135.523L73.5177 135.548L69.9361 141.072H66.8644ZM67.1558 128.688H70.701L74.064 134.006L74.2097 134.042L78.9083 141.072H75.3631L71.8058 135.511L71.6722 135.475L67.1558 128.688ZM80.5959 141.072V128.688H83.7769V141.072H80.5959ZM80.3167 124.936C80.3167 124.451 80.4785 124.042 80.8023 123.71C81.1261 123.378 81.5874 123.212 82.1864 123.212C82.7934 123.212 83.2588 123.378 83.5826 123.71C83.9064 124.042 84.0683 124.451 84.0683 124.936C84.0683 125.43 83.9023 125.847 83.5705 126.187C83.2467 126.519 82.7853 126.685 82.1864 126.685C81.5793 126.685 81.1139 126.519 80.7902 126.187C80.4745 125.847 80.3167 125.43 80.3167 124.936ZM86.8971 141.072V128.688H89.896L89.9567 130.242H90.0174C90.4221 129.676 90.9401 129.234 91.5714 128.919C92.2028 128.595 92.8988 128.433 93.6597 128.433C94.5177 128.433 95.2583 128.611 95.8815 128.967C96.5128 129.323 96.9701 129.862 97.2534 130.582H97.302C97.7553 129.87 98.338 129.336 99.0503 128.979C99.7626 128.615 100.536 128.433 101.369 128.433C102.616 128.433 103.611 128.805 104.356 129.55C105.101 130.287 105.473 131.521 105.473 133.253V141.072H102.292V133.253C102.292 132.427 102.118 131.833 101.77 131.468C101.43 131.096 100.932 130.906 100.277 130.898C99.71 130.898 99.2122 131.06 98.7832 131.383C98.3623 131.707 98.0224 132.14 97.7634 132.682V141.072H94.5945V133.277C94.5945 132.436 94.4205 131.829 94.0725 131.456C93.7244 131.084 93.2186 130.898 92.5548 130.898C91.9883 130.898 91.4945 131.06 91.0736 131.383C90.6528 131.707 90.3168 132.144 90.0659 132.695V141.072H86.8971ZM108.29 136.507V128.688H111.471V136.47C111.471 137.361 111.657 137.984 112.029 138.34C112.401 138.696 112.919 138.874 113.583 138.874C114.166 138.874 114.684 138.708 115.137 138.377C115.59 138.037 115.939 137.608 116.181 137.09V128.688H119.35V141.072H116.351L116.278 139.542H116.218C115.837 140.093 115.319 140.53 114.664 140.853C114.016 141.169 113.284 141.327 112.466 141.327C111.228 141.327 110.22 140.959 109.443 140.222C108.674 139.477 108.29 138.239 108.29 136.507ZM122.422 141.072V128.688H125.421L125.481 130.242H125.542C125.947 129.676 126.465 129.234 127.096 128.919C127.727 128.595 128.424 128.433 129.184 128.433C130.042 128.433 130.783 128.611 131.406 128.967C132.038 129.323 132.495 129.862 132.778 130.582H132.827C133.28 129.87 133.863 129.336 134.575 128.979C135.287 128.615 136.06 128.433 136.894 128.433C138.14 128.433 139.136 128.805 139.881 129.55C140.625 130.287 140.998 131.521 140.998 133.253V141.072H137.817V133.253C137.817 132.427 137.643 131.833 137.295 131.468C136.955 131.096 136.457 130.906 135.801 130.898C135.235 130.898 134.737 131.06 134.308 131.383C133.887 131.707 133.547 132.14 133.288 132.682V141.072H130.119V133.277C130.119 132.436 129.945 131.829 129.597 131.456C129.249 131.084 128.743 130.898 128.08 130.898C127.513 130.898 127.019 131.06 126.598 131.383C126.177 131.707 125.842 132.144 125.591 132.695V141.072H122.422ZM155.263 144.836H149.144V142.383H152.167V125.847H149.144V123.395H155.263V144.836Z" fill="#BC66EE"/>
</g>
<path id="Label" d="M17.367 25.6394V16.8124H21.2708C21.6769 16.8124 22.0499 16.8953 22.3897 17.061C22.7378 17.2268 23.0362 17.4506 23.2848 17.7324C23.5418 18.0142 23.7365 18.3291 23.8691 18.6772C24.01 19.0254 24.0805 19.3817 24.0805 19.7464C24.0805 20.1194 24.0142 20.4799 23.8816 20.8281C23.7573 21.1679 23.5749 21.4663 23.3346 21.7232C23.0942 21.9801 22.8124 22.179 22.4891 22.3199L24.5032 25.6394H22.6135L20.7983 22.6805H19.0827V25.6394H17.367ZM19.0827 21.1762H21.2335C21.449 21.1762 21.6396 21.114 21.8054 20.9897C21.9711 20.8571 22.1037 20.683 22.2032 20.4675C22.3027 20.252 22.3524 20.0117 22.3524 19.7464C22.3524 19.4646 22.2944 19.2201 22.1783 19.0129C22.0623 18.7974 21.9131 18.6275 21.7308 18.5032C21.5567 18.3789 21.3661 18.3167 21.1589 18.3167H19.0827V21.1762ZM33.0593 24.1351V25.6394H26.9301V16.8124H32.9474V18.3167H28.6458V20.4426H32.3631V21.8351H28.6458V24.1351H33.0593ZM38.0913 16.8124H39.8319L43.0767 25.6394H41.3113L40.4908 23.4389H37.4075L36.5994 25.6394H34.834L38.0913 16.8124ZM40.18 22.2329L38.9616 18.5902L37.6935 22.2329H40.18ZM45.34 25.6394V16.8124H48.5475C49.509 16.8124 50.3129 17.0113 50.9594 17.4091C51.6059 17.7987 52.0908 18.3291 52.414 19.0005C52.7373 19.6635 52.8989 20.4012 52.8989 21.2135C52.8989 22.1086 52.7207 22.8877 52.3643 23.5508C52.0079 24.2138 51.5023 24.7277 50.8475 25.0924C50.201 25.4571 49.4344 25.6394 48.5475 25.6394H45.34ZM51.1708 21.2135C51.1708 20.6416 51.0672 20.1401 50.86 19.7091C50.6527 19.2699 50.3544 18.93 49.9648 18.6897C49.5753 18.441 49.1028 18.3167 48.5475 18.3167H47.0556V24.1351H48.5475C49.1111 24.1351 49.5877 24.0108 49.9773 23.7621C50.3668 23.5052 50.661 23.1571 50.86 22.7178C51.0672 22.2702 51.1708 21.7688 51.1708 21.2135ZM67.0145 25.6394V19.8459L64.7518 24.1599H63.7945L61.5318 19.8459V25.6394H59.8161V16.8124H61.6561L64.2669 21.8351L66.9026 16.8124H68.7302V25.6394H67.0145ZM75.6352 25.7016C74.9887 25.7016 74.4002 25.5772 73.8698 25.3286C73.3476 25.0799 72.8959 24.7443 72.5146 24.3216C72.1417 23.8906 71.8516 23.4099 71.6444 22.8794C71.4372 22.3407 71.3335 21.7895 71.3335 21.2259C71.3335 20.6374 71.4413 20.078 71.6568 19.5475C71.8806 19.0088 72.1831 18.5322 72.5644 18.1178C72.9539 17.6951 73.4098 17.3635 73.9319 17.1232C74.4624 16.8745 75.0426 16.7502 75.6725 16.7502C76.3107 16.7502 76.8908 16.8787 77.413 17.1356C77.9435 17.3926 78.3952 17.7365 78.7681 18.1675C79.1411 18.5985 79.4312 19.0792 79.6384 19.6097C79.8456 20.1401 79.9492 20.6872 79.9492 21.2508C79.9492 21.8309 79.8415 22.3904 79.626 22.9291C79.4105 23.4596 79.108 23.9362 78.7184 24.3589C78.3372 24.7733 77.8813 25.1007 77.3508 25.341C76.8287 25.5814 76.2568 25.7016 75.6352 25.7016ZM73.0741 21.2259C73.0741 21.6072 73.1321 21.976 73.2481 22.3324C73.3642 22.6888 73.5299 23.0079 73.7454 23.2897C73.9692 23.5632 74.2386 23.7828 74.5535 23.9486C74.8768 24.1061 75.2415 24.1848 75.6476 24.1848C76.062 24.1848 76.4308 24.1019 76.7541 23.9362C77.0773 23.7621 77.3467 23.5342 77.5622 23.2524C77.7777 22.9623 77.9393 22.6432 78.0471 22.2951C78.1631 21.9387 78.2211 21.5823 78.2211 21.2259C78.2211 20.8446 78.159 20.4799 78.0346 20.1318C77.9186 19.7754 77.7487 19.4605 77.5249 19.187C77.3094 18.9052 77.04 18.6855 76.7168 18.5281C76.4018 18.3623 76.0454 18.2794 75.6476 18.2794C75.2249 18.2794 74.8519 18.3664 74.5287 18.5405C74.2137 18.7063 73.9485 18.93 73.733 19.2118C73.5175 19.4936 73.3517 19.8086 73.2357 20.1567C73.128 20.5048 73.0741 20.8612 73.0741 21.2259ZM82.5604 25.6394V16.8124H86.4641C86.8703 16.8124 87.2432 16.8953 87.5831 17.061C87.9312 17.2268 88.2295 17.4506 88.4782 17.7324C88.7351 18.0142 88.9299 18.3291 89.0625 18.6772C89.2034 19.0254 89.2739 19.3817 89.2739 19.7464C89.2739 20.1194 89.2076 20.4799 89.075 20.8281C88.9506 21.1679 88.7683 21.4663 88.5279 21.7232C88.2876 21.9801 88.0058 22.179 87.6825 22.3199L89.6966 25.6394H87.8068L85.9917 22.6805H84.276V25.6394H82.5604ZM84.276 21.1762H86.4268C86.6423 21.1762 86.833 21.114 86.9987 20.9897C87.1645 20.8571 87.2971 20.683 87.3966 20.4675C87.496 20.252 87.5458 20.0117 87.5458 19.7464C87.5458 19.4646 87.4877 19.2201 87.3717 19.0129C87.2557 18.7974 87.1065 18.6275 86.9241 18.5032C86.7501 18.3789 86.5595 18.3167 86.3522 18.3167H84.276V21.1762ZM98.2527 24.1351V25.6394H92.1235V16.8124H98.1408V18.3167H93.8391V20.4426H97.5564V21.8351H93.8391V24.1351H98.2527Z" fill="white"/>
</g>
<rect x="1.55405" y="1.76109" width="341.892" height="225.856" rx="23.3108" stroke="url(#paint0_linear_965_3972)" stroke-width="3.10811"/>
</g>
<defs>
<linearGradient id="paint0_linear_965_3972" x1="172.5" y1="0.207031" x2="172.5" y2="229.171" gradientUnits="userSpaceOnUse">
<stop stop-color="white"/>
<stop offset="0.049011" stop-color="#D9DBE9"/>
<stop offset="0.95" stop-color="#D3D3D3"/>
<stop offset="1" stop-color="#7A7B83"/>
<stop offset="1" stop-color="#EDEDED"/>
</linearGradient>
<clipPath id="clip0_965_3972">
<rect y="0.207031" width="345" height="228.964" rx="24.8649" fill="white"/>
</clipPath>
</defs>
</svg>
