<svg width="392" height="261" viewBox="0 0 392 261" fill="none" xmlns="http://www.w3.org/2000/svg">
<g id="Frame 427320289">
<g clip-path="url(#clip0_965_3987)">
<rect y="0.207031" width="391.765" height="260" rx="28.2353" fill="white"/>
<g id="TruthWorthy Websites tend to have healthier conversion by Using [ Maximum ] potential of Marketing Compared to traditional recommendation">
<path d="M19.0852 41.2916V38.3689H34.6229V41.2916H28.7221V58.4424H24.9859V41.2916H19.0852ZM35.133 58.4424V44.5315H38.5935L38.6624 46.2273H38.7175C39.0484 45.6575 39.4896 45.1749 40.0411 44.7797C40.5925 44.3753 41.2313 44.1731 41.9574 44.1731C42.1688 44.1731 42.3802 44.1961 42.5916 44.242C42.8122 44.2788 42.9639 44.3155 43.0466 44.3523V47.3854C42.8811 47.3394 42.6973 47.3027 42.4951 47.2751C42.2929 47.2475 42.0677 47.2337 41.8196 47.2337C41.1486 47.2337 40.542 47.4314 39.9997 47.8266C39.4574 48.2218 39.0438 48.7273 38.7589 49.3431V58.4424H35.133ZM44.9216 53.3413V44.5315H48.5337V53.2586C48.5337 54.2604 48.7405 54.9589 49.1541 55.3541C49.5769 55.7494 50.1606 55.947 50.905 55.947C51.5668 55.947 52.1459 55.7586 52.6422 55.3817C53.1477 55.0049 53.5383 54.5269 53.8141 53.9479V44.5315H57.4262V58.4424H53.9933L53.9106 56.6915H53.8554C53.4326 57.3257 52.8536 57.8266 52.1183 58.1942C51.383 58.5527 50.5466 58.7319 49.6091 58.7319C48.212 58.7319 47.0815 58.3183 46.2175 57.4911C45.3536 56.6639 44.9216 55.2806 44.9216 53.3413ZM59.1495 47.1924V44.5315H67.8076V47.1924H59.1495ZM61.383 54.4442V45.6896L61.4106 45.3587V40.7264H64.9538V54.1547C64.9538 54.8992 65.0778 55.4047 65.326 55.6712C65.5742 55.9286 65.9464 56.0573 66.4427 56.0573C66.6725 56.0573 66.8977 56.0343 67.1183 55.9883C67.3389 55.9424 67.5549 55.878 67.7663 55.7953V58.4286C67.5457 58.5205 67.2286 58.6078 66.815 58.6905C66.4106 58.7733 65.951 58.8146 65.4363 58.8146C64.1863 58.8146 63.1982 58.47 62.4721 57.7806C61.746 57.0821 61.383 55.97 61.383 54.4442ZM70.0411 58.4424V37.6519H73.6394V46.3514C74.053 45.7172 74.6275 45.2071 75.3628 44.8211C76.0981 44.4258 76.9666 44.2282 77.9685 44.2282C79.3012 44.2282 80.3903 44.6326 81.2359 45.4415C82.0815 46.2503 82.5043 47.5784 82.5043 49.4258V58.4424H78.8922V49.7291C78.8922 48.7549 78.6762 48.0655 78.2442 47.6611C77.8214 47.2475 77.2332 47.0407 76.4795 47.0407C75.8269 47.0407 75.2525 47.2246 74.7561 47.5922C74.269 47.9598 73.8968 48.4562 73.6394 49.0812V58.4424H70.0411ZM89.1771 58.5251L84.4207 38.3689H88.088L91.2038 52.3348C91.2681 52.6014 91.3141 52.8312 91.3416 53.0242C91.3692 53.2172 91.4014 53.4608 91.4381 53.7549H91.5484C91.576 53.4608 91.6036 53.2172 91.6312 53.0242C91.6679 52.8312 91.7185 52.6014 91.7828 52.3348L95.1881 38.3689H99.0484L102.536 52.3348C102.601 52.5922 102.647 52.822 102.674 53.0242C102.702 53.2172 102.734 53.4654 102.771 53.7687H102.881C102.909 53.4654 102.936 53.2172 102.964 53.0242C103.001 52.822 103.047 52.5922 103.102 52.3348L106.121 38.3689H109.471L104.77 58.5251H100.841L97.2975 44.504C97.2332 44.2466 97.178 43.9939 97.1321 43.7457C97.0861 43.4975 97.0448 43.2264 97.008 42.9323H96.9115C96.8747 43.2264 96.8334 43.4975 96.7874 43.7457C96.7414 43.9939 96.6863 44.2466 96.622 44.504L93.0788 58.5251H89.1771ZM110.257 51.6869V51.2457C110.257 49.1041 110.905 47.3854 112.201 46.0894C113.506 44.7843 115.225 44.1317 117.357 44.1317C119.48 44.1317 121.19 44.7843 122.486 46.0894C123.791 47.3854 124.444 49.1041 124.444 51.2457V51.6869C124.444 53.8468 123.791 55.5793 122.486 56.8845C121.19 58.1804 119.48 58.8284 117.357 58.8284C115.225 58.8284 113.506 58.1804 112.201 56.8845C110.905 55.5793 110.257 53.8468 110.257 51.6869ZM113.938 51.1216V51.8247C113.938 53.1299 114.228 54.1685 114.807 54.9405C115.395 55.7126 116.241 56.0986 117.343 56.0986C118.456 56.0986 119.301 55.7126 119.88 54.9405C120.468 54.1685 120.763 53.1299 120.763 51.8247V51.1216C120.763 49.8165 120.468 48.7825 119.88 48.0196C119.292 47.2475 118.446 46.8615 117.343 46.8615C116.25 46.8615 115.409 47.2475 114.82 48.0196C114.232 48.7825 113.938 49.8165 113.938 51.1216ZM127.063 58.4424V44.5315H130.524L130.593 46.2273H130.648C130.979 45.6575 131.42 45.1749 131.971 44.7797C132.523 44.3753 133.161 44.1731 133.888 44.1731C134.099 44.1731 134.31 44.1961 134.522 44.242C134.742 44.2788 134.894 44.3155 134.977 44.3523V47.3854C134.811 47.3394 134.627 47.3027 134.425 47.2751C134.223 47.2475 133.998 47.2337 133.75 47.2337C133.079 47.2337 132.472 47.4314 131.93 47.8266C131.388 48.2218 130.974 48.7273 130.689 49.3431V58.4424H127.063ZM135.997 47.1924V44.5315H144.655V47.1924H135.997ZM138.23 54.4442V45.6896L138.258 45.3587V40.7264H141.801V54.1547C141.801 54.8992 141.925 55.4047 142.173 55.6712C142.422 55.9286 142.794 56.0573 143.29 56.0573C143.52 56.0573 143.745 56.0343 143.966 55.9883C144.186 55.9424 144.402 55.878 144.614 55.7953V58.4286C144.393 58.5205 144.076 58.6078 143.662 58.6905C143.258 58.7733 142.798 58.8146 142.284 58.8146C141.034 58.8146 140.046 58.47 139.32 57.7806C138.593 57.0821 138.23 55.97 138.23 54.4442ZM146.888 58.4424V37.6519H150.487V46.3514C150.9 45.7172 151.475 45.2071 152.21 44.8211C152.945 44.4258 153.814 44.2282 154.816 44.2282C156.149 44.2282 157.238 44.6326 158.083 45.4415C158.929 46.2503 159.352 47.5784 159.352 49.4258V58.4424H155.74V49.7291C155.74 48.7549 155.524 48.0655 155.092 47.6611C154.669 47.2475 154.081 47.0407 153.327 47.0407C152.674 47.0407 152.1 47.2246 151.604 47.5922C151.116 47.9598 150.744 48.4562 150.487 49.0812V58.4424H146.888ZM161.792 64.1639L161.82 61.5168C162.068 61.5904 162.334 61.6455 162.619 61.6823C162.913 61.719 163.194 61.7374 163.46 61.7374C164.094 61.7466 164.641 61.5214 165.101 61.0619C165.56 60.6023 165.992 59.7246 166.397 58.4286L166.328 58.4148L160.951 44.5315H164.549L167.527 52.969C167.647 53.2999 167.743 53.5986 167.817 53.8652C167.89 54.1317 167.959 54.4029 168.024 54.6786H168.093C168.166 54.4029 168.24 54.1317 168.313 53.8652C168.387 53.5986 168.479 53.2953 168.589 52.9553L171.525 44.5315H174.793L169.085 59.9314C168.506 61.4847 167.803 62.6244 166.976 63.3505C166.149 64.0858 165.105 64.4534 163.846 64.4534C163.396 64.4534 163.01 64.4304 162.688 64.3845C162.366 64.3385 162.068 64.265 161.792 64.1639ZM186.457 58.5251L181.7 38.3689H185.367L188.483 52.3348C188.548 52.6014 188.593 52.8312 188.621 53.0242C188.649 53.2172 188.681 53.4608 188.718 53.7549H188.828C188.855 53.4608 188.883 53.2172 188.911 53.0242C188.947 52.8312 188.998 52.6014 189.062 52.3348L192.468 38.3689H196.328L199.816 52.3348C199.88 52.5922 199.926 52.822 199.954 53.0242C199.981 53.2172 200.014 53.4654 200.05 53.7687H200.161C200.188 53.4654 200.216 53.2172 200.243 53.0242C200.28 52.822 200.326 52.5922 200.381 52.3348L203.4 38.3689H206.751L202.049 58.5251H198.12L194.577 44.504C194.513 44.2466 194.457 43.9939 194.411 43.7457C194.366 43.4975 194.324 43.2264 194.287 42.9323H194.191C194.154 43.2264 194.113 43.4975 194.067 43.7457C194.021 43.9939 193.966 44.2466 193.901 44.504L190.358 58.5251H186.457ZM207.536 51.6869V51.2457C207.536 49.1133 208.166 47.3946 209.425 46.0894C210.694 44.7843 212.343 44.1317 214.375 44.1317C216.406 44.1317 217.982 44.7475 219.104 45.9791C220.234 47.2016 220.799 48.8882 220.799 51.0389V52.2659H209.784V50.0187H217.242V49.7705C217.242 48.9433 217.003 48.2402 216.525 47.6611C216.048 47.0729 215.335 46.7788 214.389 46.7788C213.322 46.7788 212.514 47.174 211.962 47.9644C211.42 48.7549 211.149 49.7797 211.149 51.0389V51.7972C211.149 53.1023 211.438 54.1547 212.017 54.9543C212.605 55.7448 213.479 56.14 214.637 56.14C215.418 56.14 216.084 55.9654 216.636 55.6161C217.196 55.2576 217.647 54.8257 217.987 54.3201L220.62 55.7953C220.188 56.6501 219.462 57.3716 218.442 57.9598C217.431 58.5389 216.176 58.8284 214.678 58.8284C212.426 58.8284 210.671 58.1758 209.411 56.8707C208.161 55.5655 207.536 53.8376 207.536 51.6869ZM223.295 58.4424V37.6519H226.893V46.1032C227.334 45.5242 227.895 45.0692 228.575 44.7383C229.255 44.3983 230.064 44.2282 231.002 44.2282C232.775 44.2282 234.186 44.8808 235.234 46.1859C236.291 47.4819 236.82 49.1547 236.82 51.2043V51.6455C236.82 53.7043 236.286 55.4001 235.22 56.7328C234.163 58.0564 232.748 58.7181 230.974 58.7181C230.046 58.7181 229.209 58.5389 228.465 58.1804C227.72 57.822 227.178 57.3578 226.838 56.788H226.783L226.714 58.4424H223.295ZM226.893 53.9203C227.123 54.4718 227.495 54.9589 228.01 55.3817C228.534 55.8045 229.195 56.0159 229.995 56.0159C231.061 56.0159 231.852 55.6115 232.366 54.8027C232.881 53.9939 233.139 52.9736 233.139 51.742V51.1492C233.139 49.9176 232.881 48.9111 232.366 48.1299C231.852 47.3486 231.043 46.958 229.94 46.958C229.177 46.958 228.534 47.1694 228.01 47.5922C227.495 48.0058 227.123 48.4883 226.893 49.0398V53.9203ZM238.667 54.0996L242.114 54.1133V54.3201C242.114 55.0462 242.357 55.5747 242.844 55.9056C243.341 56.2273 244.002 56.3882 244.83 56.3882C245.657 56.3882 246.286 56.2365 246.718 55.9332C247.16 55.6299 247.38 55.2117 247.38 54.6786C247.38 54.1455 247.16 53.7457 246.718 53.4791C246.277 53.2126 245.331 52.9231 243.878 52.6106C242.252 52.2613 241.038 51.7466 240.239 51.0665C239.448 50.3863 239.053 49.4718 239.053 48.3229C239.053 47.0361 239.572 46.0159 240.611 45.2622C241.65 44.5086 243.056 44.1317 244.83 44.1317C246.604 44.1317 248.014 44.5178 249.062 45.2898C250.119 46.0619 250.648 47.1326 250.648 48.5021V48.6814H247.215V48.4608C247.215 47.845 247.013 47.3808 246.608 47.0683C246.213 46.7558 245.611 46.5996 244.802 46.5996C244.021 46.5996 243.446 46.7328 243.079 46.9994C242.72 47.2659 242.541 47.629 242.541 48.0885C242.541 48.5389 242.766 48.8973 243.217 49.1639C243.676 49.4212 244.632 49.7062 246.084 50.0187C247.729 50.3587 248.952 50.8643 249.752 51.5352C250.56 52.2062 250.965 53.1437 250.965 54.3477C250.965 55.7448 250.445 56.8431 249.407 57.6428C248.377 58.4332 246.861 58.8284 244.857 58.8284C242.881 58.8284 241.36 58.4286 240.294 57.629C239.228 56.8293 238.69 55.7126 238.681 54.2788L238.667 54.0996ZM253.681 58.4424V44.5315H257.32V58.4424H253.681ZM253.377 40.2301C253.377 39.6786 253.561 39.2144 253.929 38.8376C254.297 38.4608 254.82 38.2723 255.501 38.2723C256.19 38.2723 256.714 38.4608 257.072 38.8376C257.44 39.2144 257.624 39.6786 257.624 40.2301C257.624 40.7907 257.44 41.2641 257.072 41.6501C256.705 42.0269 256.176 42.2154 255.487 42.2154C254.807 42.2154 254.283 42.0269 253.915 41.6501C253.557 41.2641 253.377 40.7907 253.377 40.2301ZM259.113 47.1924V44.5315H267.771V47.1924H259.113ZM261.346 54.4442V45.6896L261.374 45.3587V40.7264H264.917V54.1547C264.917 54.8992 265.041 55.4047 265.289 55.6712C265.537 55.9286 265.91 56.0573 266.406 56.0573C266.636 56.0573 266.861 56.0343 267.082 55.9883C267.302 55.9424 267.518 55.878 267.729 55.7953V58.4286C267.509 58.5205 267.192 58.6078 266.778 58.6905C266.374 58.7733 265.914 58.8146 265.4 58.8146C264.15 58.8146 263.161 58.47 262.435 57.7806C261.709 57.0821 261.346 55.97 261.346 54.4442ZM269.218 51.6869V51.2457C269.218 49.1133 269.848 47.3946 271.107 46.0894C272.376 44.7843 274.025 44.1317 276.057 44.1317C278.088 44.1317 279.664 44.7475 280.786 45.9791C281.916 47.2016 282.481 48.8882 282.481 51.0389V52.2659H271.466V50.0187H278.924V49.7705C278.924 48.9433 278.685 48.2402 278.207 47.6611C277.729 47.0729 277.017 46.7788 276.07 46.7788C275.004 46.7788 274.195 47.174 273.644 47.9644C273.102 48.7549 272.831 49.7797 272.831 51.0389V51.7972C272.831 53.1023 273.12 54.1547 273.699 54.9543C274.287 55.7448 275.161 56.14 276.319 56.14C277.1 56.14 277.766 55.9654 278.318 55.6161C278.878 55.2576 279.329 54.8257 279.669 54.3201L282.302 55.7953C281.87 56.6501 281.144 57.3716 280.124 57.9598C279.113 58.5389 277.858 58.8284 276.36 58.8284C274.108 58.8284 272.353 58.1758 271.093 56.8707C269.843 55.5655 269.218 53.8376 269.218 51.6869ZM284.218 54.0996L287.665 54.1133V54.3201C287.665 55.0462 287.909 55.5747 288.396 55.9056C288.892 56.2273 289.554 56.3882 290.381 56.3882C291.208 56.3882 291.838 56.2365 292.27 55.9332C292.711 55.6299 292.932 55.2117 292.932 54.6786C292.932 54.1455 292.711 53.7457 292.27 53.4791C291.829 53.2126 290.882 52.9231 289.43 52.6106C287.803 52.2613 286.59 51.7466 285.79 51.0665C285 50.3863 284.605 49.4718 284.605 48.3229C284.605 47.0361 285.124 46.0159 286.162 45.2622C287.201 44.5086 288.607 44.1317 290.381 44.1317C292.155 44.1317 293.566 44.5178 294.614 45.2898C295.671 46.0619 296.199 47.1326 296.199 48.5021V48.6814H292.766V48.4608C292.766 47.845 292.564 47.3808 292.16 47.0683C291.764 46.7558 291.162 46.5996 290.354 46.5996C289.572 46.5996 288.998 46.7328 288.63 46.9994C288.272 47.2659 288.093 47.629 288.093 48.0885C288.093 48.5389 288.318 48.8973 288.768 49.1639C289.228 49.4212 290.184 49.7062 291.636 50.0187C293.281 50.3587 294.503 50.8643 295.303 51.5352C296.112 52.2062 296.516 53.1437 296.516 54.3477C296.516 55.7448 295.997 56.8431 294.958 57.6428C293.929 58.4332 292.412 58.8284 290.409 58.8284C288.433 58.8284 286.911 58.4286 285.845 57.629C284.779 56.8293 284.241 55.7126 284.232 54.2788L284.218 54.0996ZM304.14 47.1924V44.5315H312.798V47.1924H304.14ZM306.374 54.4442V45.6896L306.401 45.3587V40.7264H309.945V54.1547C309.945 54.8992 310.069 55.4047 310.317 55.6712C310.565 55.9286 310.937 56.0573 311.434 56.0573C311.663 56.0573 311.888 56.0343 312.109 55.9883C312.33 55.9424 312.546 55.878 312.757 55.7953V58.4286C312.536 58.5205 312.219 58.6078 311.806 58.6905C311.401 58.7733 310.942 58.8146 310.427 58.8146C309.177 58.8146 308.189 58.47 307.463 57.7806C306.737 57.0821 306.374 55.97 306.374 54.4442ZM314.246 51.6869V51.2457C314.246 49.1133 314.876 47.3946 316.135 46.0894C317.403 44.7843 319.053 44.1317 321.084 44.1317C323.116 44.1317 324.692 44.7475 325.813 45.9791C326.944 47.2016 327.509 48.8882 327.509 51.0389V52.2659H316.493V50.0187H323.952V49.7705C323.952 48.9433 323.713 48.2402 323.235 47.6611C322.757 47.0729 322.045 46.7788 321.098 46.7788C320.032 46.7788 319.223 47.174 318.672 47.9644C318.129 48.7549 317.858 49.7797 317.858 51.0389V51.7972C317.858 53.1023 318.148 54.1547 318.727 54.9543C319.315 55.7448 320.188 56.14 321.346 56.14C322.127 56.14 322.794 55.9654 323.345 55.6161C323.906 55.2576 324.356 54.8257 324.696 54.3201L327.33 55.7953C326.898 56.6501 326.172 57.3716 325.151 57.9598C324.14 58.5389 322.886 58.8284 321.388 58.8284C319.136 58.8284 317.38 58.1758 316.121 56.8707C314.871 55.5655 314.246 53.8376 314.246 51.6869ZM330.004 58.4424V44.5315H333.437L333.506 46.2549H333.561C333.966 45.6391 334.536 45.1473 335.271 44.7797C336.006 44.4121 336.838 44.2282 337.766 44.2282C339.182 44.2282 340.321 44.628 341.185 45.4277C342.059 46.2273 342.495 47.5922 342.495 49.5223V58.4424H338.897V49.6602C338.897 48.7043 338.69 48.0288 338.276 47.6336C337.863 47.2383 337.275 47.0407 336.512 47.0407C335.877 47.0407 335.303 47.22 334.788 47.5784C334.274 47.9369 333.878 48.4194 333.603 49.026V58.4424H330.004ZM344.963 51.7007V51.2595C344.963 49.2098 345.505 47.5325 346.59 46.2273C347.684 44.913 349.117 44.2558 350.891 44.2558C351.847 44.2558 352.665 44.4212 353.345 44.7521C354.025 45.0738 354.554 45.5058 354.931 46.0481V37.6519H358.502V58.4424H355.096L355.027 56.6639H354.972C354.632 57.2429 354.104 57.7301 353.387 58.1253C352.679 58.5205 351.852 58.7181 350.905 58.7181C349.076 58.7181 347.628 58.0609 346.562 56.7466C345.496 55.4323 344.963 53.7503 344.963 51.7007ZM348.644 51.7834C348.644 53.015 348.906 54.0306 349.43 54.8303C349.963 55.6207 350.776 56.0159 351.87 56.0159C352.615 56.0159 353.244 55.8137 353.759 55.4093C354.283 54.9957 354.664 54.5178 354.903 53.9755V48.9571C354.673 48.4056 354.301 47.9369 353.786 47.5508C353.272 47.1556 352.638 46.958 351.884 46.958C350.79 46.958 349.977 47.3532 349.444 48.1437C348.911 48.9341 348.644 49.9497 348.644 51.1905V51.7834ZM18.8646 87.1924V84.5315H27.5227V87.1924H18.8646ZM21.0981 94.4442V85.6896L21.1256 85.3587V80.7264H24.6688V94.1547C24.6688 94.8992 24.7929 95.4047 25.0411 95.6712C25.2892 95.9286 25.6615 96.0573 26.1578 96.0573C26.3876 96.0573 26.6128 96.0343 26.8334 95.9883C27.0539 95.9424 27.2699 95.878 27.4813 95.7953V98.4286C27.2607 98.5205 26.9436 98.6078 26.53 98.6905C26.1256 98.7733 25.6661 98.8146 25.1514 98.8146C23.9014 98.8146 22.9133 98.47 22.1872 97.7806C21.4611 97.0821 21.0981 95.97 21.0981 94.4442ZM28.7221 91.6869V91.2457C28.7221 89.1041 29.3701 87.3854 30.6661 86.0894C31.9712 84.7843 33.69 84.1317 35.8223 84.1317C37.9455 84.1317 39.655 84.7843 40.951 86.0894C42.2561 87.3854 42.9087 89.1041 42.9087 91.2457V91.6869C42.9087 93.8468 42.2561 95.5793 40.951 96.8845C39.655 98.1804 37.9455 98.8284 35.8223 98.8284C33.69 98.8284 31.9712 98.1804 30.6661 96.8845C29.3701 95.5793 28.7221 93.8468 28.7221 91.6869ZM32.4032 91.1216V91.8247C32.4032 93.1299 32.6927 94.1685 33.2718 94.9405C33.86 95.7126 34.7056 96.0986 35.8085 96.0986C36.9207 96.0986 37.7663 95.7126 38.3453 94.9405C38.9335 94.1685 39.2277 93.1299 39.2277 91.8247V91.1216C39.2277 89.8165 38.9335 88.7825 38.3453 88.0196C37.7571 87.2475 36.9115 86.8615 35.8085 86.8615C34.7148 86.8615 33.8738 87.2475 33.2856 88.0196C32.6973 88.7825 32.4032 89.8165 32.4032 91.1216ZM52.1459 98.4424V77.6519H55.7442V86.3514C56.1578 85.7172 56.7323 85.2071 57.4675 84.8211C58.2028 84.4258 59.0714 84.2282 60.0732 84.2282C61.406 84.2282 62.4951 84.6326 63.3407 85.4415C64.1863 86.2503 64.6091 87.5784 64.6091 89.4258V98.4424H60.997V89.7291C60.997 88.7549 60.781 88.0655 60.349 87.6611C59.9262 87.2475 59.3379 87.0407 58.5843 87.0407C57.9317 87.0407 57.3573 87.2246 56.8609 87.5922C56.3738 87.9598 56.0016 88.4562 55.7442 89.0812V98.4424H52.1459ZM67.1596 94.3753C67.1596 92.9139 67.7341 91.788 68.883 90.9975C70.0319 90.1979 71.5071 89.7981 73.3085 89.7981H76.3416V88.8882C76.3416 88.1804 76.1578 87.6198 75.7902 87.2062C75.4317 86.7834 74.8159 86.572 73.9427 86.572C73.0696 86.572 72.4354 86.7466 72.0402 87.0959C71.6449 87.4451 71.4473 87.8909 71.4473 88.4332V88.64L67.9593 88.6262V88.3918C67.9593 87.1786 68.5199 86.1676 69.6413 85.3587C70.7626 84.5499 72.2516 84.1455 74.1082 84.1455C75.974 84.1455 77.4124 84.5361 78.4234 85.3174C79.4345 86.0894 79.94 87.2981 79.94 88.9433V95.2439C79.94 95.8229 79.9859 96.3698 80.0778 96.8845C80.1789 97.3992 80.3214 97.845 80.5052 98.2218V98.4424H76.9758C76.8471 98.2218 76.7368 97.9415 76.6449 97.6014C76.553 97.2521 76.4933 96.9075 76.4657 96.5674C76.1624 97.1097 75.6247 97.6014 74.8527 98.0426C74.0806 98.4746 73.1109 98.6905 71.9436 98.6905C70.5558 98.6905 69.4115 98.3275 68.5107 97.6014C67.61 96.8753 67.1596 95.7999 67.1596 94.3753ZM70.758 94.1133C70.758 94.7843 70.951 95.3128 71.337 95.6988C71.7322 96.0848 72.3389 96.2779 73.1569 96.2779C74.0025 96.2779 74.7424 95.9929 75.3766 95.4231C76.0199 94.8532 76.3416 94.2007 76.3416 93.4654V91.9626H73.9841C72.8995 91.9626 72.0907 92.1464 71.5576 92.5141C71.0245 92.8817 70.758 93.4148 70.758 94.1133ZM81.3324 84.5315H84.917L87.9363 93.0242C88.0466 93.3459 88.1385 93.6492 88.212 93.9341C88.2947 94.219 88.3545 94.4626 88.3913 94.6648H88.4602C88.5061 94.4626 88.5659 94.219 88.6394 93.9341C88.7129 93.6492 88.8049 93.3459 88.9152 93.0242L91.9482 84.5315H95.2433L89.9216 98.4424H86.6679L81.3324 84.5315ZM95.8361 91.6869V91.2457C95.8361 89.1133 96.4657 87.3946 97.7249 86.0894C98.9933 84.7843 100.643 84.1317 102.674 84.1317C104.706 84.1317 106.282 84.7475 107.403 85.9791C108.534 87.2016 109.099 88.8882 109.099 91.0389V92.2659H98.0834V90.0187H105.542V89.7705C105.542 88.9433 105.303 88.2402 104.825 87.6611C104.347 87.0729 103.635 86.7788 102.688 86.7788C101.622 86.7788 100.813 87.174 100.262 87.9644C99.7194 88.7549 99.4482 89.7797 99.4482 91.0389V91.7972C99.4482 93.1023 99.7378 94.1547 100.317 94.9543C100.905 95.7448 101.778 96.14 102.936 96.14C103.718 96.14 104.384 95.9654 104.935 95.6161C105.496 95.2576 105.946 94.8257 106.286 94.3201L108.92 95.7953C108.488 96.6501 107.762 97.3716 106.741 97.9598C105.73 98.5389 104.476 98.8284 102.978 98.8284C100.726 98.8284 98.9703 98.1758 97.7111 96.8707C96.4611 95.5655 95.8361 93.8376 95.8361 91.6869ZM19.9974 121.442V109.122H21.4611V114.084C21.756 113.719 22.1313 113.43 22.587 113.215C23.0481 112.995 23.5521 112.885 24.099 112.885C24.8818 112.885 25.5225 113.127 26.0211 113.609C26.5251 114.086 26.7771 114.888 26.7771 116.014V121.442H25.3134V116.006C25.3134 115.325 25.1606 114.84 24.855 114.55C24.5547 114.255 24.1285 114.108 23.5762 114.108C23.0991 114.108 22.6782 114.239 22.3136 114.502C21.949 114.759 21.6648 115.092 21.4611 115.499V121.442H19.9974ZM28.5464 117.373V117.116C28.5464 115.845 28.8922 114.81 29.5838 114.011C30.2808 113.207 31.1976 112.805 32.3343 112.805C33.4763 112.805 34.3556 113.18 34.9721 113.931C35.5887 114.676 35.897 115.689 35.897 116.971V117.566H29.4391V116.4H34.4253V116.215C34.4253 115.604 34.251 115.084 33.9025 114.655C33.5594 114.22 33.0581 114.003 32.3986 114.003C31.6105 114.003 31.0207 114.304 30.6293 114.904C30.2379 115.504 30.0422 116.242 30.0422 117.116V117.373C30.0422 118.247 30.2486 118.984 30.6615 119.585C31.0743 120.185 31.7097 120.485 32.5675 120.485C33.1037 120.485 33.5647 120.367 33.9508 120.131C34.3368 119.896 34.6478 119.617 34.8837 119.295L35.8327 120.051C35.5646 120.448 35.1544 120.818 34.6022 121.161C34.05 121.504 33.3744 121.676 32.5755 121.676C31.2781 121.676 30.2808 121.276 29.5838 120.477C28.8922 119.673 28.5464 118.638 28.5464 117.373ZM37.2401 118.973C37.2401 118.121 37.5778 117.459 38.2534 116.987C38.9289 116.51 39.7868 116.271 40.8269 116.271H42.7329V115.684C42.7329 115.175 42.6016 114.762 42.3389 114.446C42.0762 114.129 41.6258 113.971 40.9878 113.971C40.3444 113.971 39.8833 114.105 39.6045 114.373C39.3257 114.636 39.1863 114.942 39.1863 115.29V115.338H37.7387V115.29C37.7387 114.625 38.0336 114.046 38.6233 113.553C39.2131 113.054 40.012 112.805 41.0199 112.805C42.0279 112.805 42.808 113.046 43.3602 113.529C43.9178 114.006 44.1966 114.724 44.1966 115.684V119.512C44.1966 119.861 44.2234 120.19 44.2771 120.501C44.3307 120.807 44.4057 121.078 44.5022 121.314V121.442H43.0868C43.0117 121.308 42.942 121.134 42.8777 120.92C42.8187 120.705 42.7812 120.491 42.7651 120.276C42.5721 120.625 42.2531 120.933 41.8081 121.201C41.3684 121.469 40.8028 121.603 40.1112 121.603C39.3069 121.603 38.626 121.378 38.0684 120.928C37.5162 120.472 37.2401 119.821 37.2401 118.973ZM38.7038 118.893C38.7038 119.376 38.8432 119.754 39.122 120.027C39.4008 120.295 39.835 120.429 40.4248 120.429C41.0092 120.429 41.54 120.228 42.0172 119.826C42.4944 119.418 42.7329 118.984 42.7329 118.523V117.317H40.9878C40.2372 117.317 39.6688 117.459 39.2828 117.743C38.8968 118.027 38.7038 118.41 38.7038 118.893ZM46.5691 121.442V109.122H48.0328V121.442H46.5691ZM49.2713 114.164V113.046H54.0484V114.164H49.2713ZM50.7752 119.351V113.714V113.481V110.907H52.2309V119.351C52.2309 119.743 52.3059 120.019 52.4561 120.18C52.6115 120.341 52.8501 120.421 53.1718 120.421C53.3219 120.421 53.4667 120.405 53.6061 120.373C53.7509 120.341 53.8983 120.298 54.0484 120.244V121.442C53.909 121.507 53.7294 121.56 53.5096 121.603C53.2898 121.651 53.0485 121.676 52.7858 121.676C52.1746 121.676 51.6867 121.491 51.3221 121.121C50.9575 120.751 50.7752 120.161 50.7752 119.351ZM55.6247 121.442V109.122H57.0884V114.084C57.3833 113.719 57.7586 113.43 58.2143 113.215C58.6754 112.995 59.1794 112.885 59.7263 112.885C60.5091 112.885 61.1498 113.127 61.6484 113.609C62.1524 114.086 62.4044 114.888 62.4044 116.014V121.442H60.9407V116.006C60.9407 115.325 60.7879 114.84 60.4823 114.55C60.182 114.255 59.7558 114.108 59.2035 114.108C58.7264 114.108 58.3055 114.239 57.9409 114.502C57.5763 114.759 57.2921 115.092 57.0884 115.499V121.442H55.6247ZM64.7527 121.442V113.046H66.2164V121.442H64.7527ZM64.5677 110.473C64.5677 110.226 64.6455 110.02 64.801 109.853C64.9618 109.682 65.1897 109.596 65.4846 109.596C65.7794 109.596 66.0046 109.682 66.1601 109.853C66.3209 110.02 66.4014 110.226 66.4014 110.473C66.4014 110.719 66.3209 110.928 66.1601 111.1C66.0046 111.266 65.7794 111.349 65.4846 111.349C65.1897 111.349 64.9618 111.266 64.801 111.1C64.6455 110.928 64.5677 110.719 64.5677 110.473ZM68.1305 117.373V117.116C68.1305 115.845 68.4763 114.81 69.1679 114.011C69.8649 113.207 70.7817 112.805 71.9184 112.805C73.0604 112.805 73.9397 113.18 74.5562 113.931C75.1728 114.676 75.4811 115.689 75.4811 116.971V117.566H69.0232V116.4H74.0094V116.215C74.0094 115.604 73.8351 115.084 73.4866 114.655C73.1435 114.22 72.6422 114.003 71.9827 114.003C71.1946 114.003 70.6048 114.304 70.2134 114.904C69.822 115.504 69.6263 116.242 69.6263 117.116V117.373C69.6263 118.247 69.8327 118.984 70.2456 119.585C70.6584 120.185 71.2938 120.485 72.1516 120.485C72.6878 120.485 73.1488 120.367 73.5349 120.131C73.9209 119.896 74.2319 119.617 74.4678 119.295L75.4168 120.051C75.1487 120.448 74.7385 120.818 74.1863 121.161C73.6341 121.504 72.9585 121.676 72.1596 121.676C70.8622 121.676 69.8649 121.276 69.1679 120.477C68.4763 119.673 68.1305 118.638 68.1305 117.373ZM77.2906 121.442V113.046H78.6176L78.6739 114.124H78.7221C78.9366 113.77 79.2181 113.462 79.5666 113.199C79.9151 112.936 80.3306 112.805 80.8131 112.805C80.9311 112.805 81.0544 112.818 81.1831 112.845C81.3118 112.872 81.4029 112.896 81.4565 112.918V114.269C81.3493 114.247 81.2367 114.231 81.1187 114.22C81.0008 114.21 80.8721 114.204 80.7327 114.204C80.2555 114.204 79.8454 114.33 79.5022 114.582C79.1645 114.834 78.9152 115.148 78.7543 115.523V121.442H77.2906ZM86.306 117.373V117.116C86.306 115.845 86.6492 114.81 87.3354 114.011C88.0271 113.207 88.9734 112.805 90.1743 112.805C91.2895 112.805 92.1367 113.108 92.7157 113.714C93.2948 114.314 93.5843 114.99 93.5843 115.74V115.781H92.1688V115.74C92.1688 115.279 92.008 114.875 91.6863 114.526C91.37 114.178 90.866 114.003 90.1743 114.003C89.3648 114.003 88.767 114.304 88.3809 114.904C87.9949 115.499 87.8019 116.236 87.8019 117.116V117.373C87.8019 118.247 87.9949 118.984 88.3809 119.585C88.767 120.18 89.3648 120.477 90.1743 120.477C90.8713 120.477 91.378 120.306 91.6943 119.963C92.0107 119.614 92.1688 119.207 92.1688 118.74V118.7H93.5843V118.74C93.5843 119.496 93.2948 120.174 92.7157 120.775C92.1367 121.375 91.2895 121.676 90.1743 121.676C88.9734 121.676 88.0271 121.276 87.3354 120.477C86.6492 119.673 86.306 118.638 86.306 117.373ZM94.7987 117.373V117.116C94.7987 115.845 95.1579 114.81 95.8763 114.011C96.5948 113.207 97.5545 112.805 98.7555 112.805C99.9511 112.805 100.908 113.207 101.627 114.011C102.345 114.81 102.704 115.845 102.704 117.116V117.373C102.704 118.638 102.345 119.673 101.627 120.477C100.908 121.276 99.9511 121.676 98.7555 121.676C97.5545 121.676 96.5948 121.276 95.8763 120.477C95.1579 119.673 94.7987 118.638 94.7987 117.373ZM96.2945 117.116V117.373C96.2945 118.247 96.5009 118.984 96.9138 119.585C97.3266 120.18 97.9378 120.477 98.7474 120.477C99.5624 120.477 100.176 120.18 100.589 119.585C101.002 118.984 101.208 118.247 101.208 117.373V117.116C101.208 116.242 101.002 115.504 100.589 114.904C100.176 114.304 99.5624 114.003 98.7474 114.003C97.9378 114.003 97.3266 114.304 96.9138 114.904C96.5009 115.504 96.2945 116.242 96.2945 117.116ZM104.554 121.442V113.046H105.881L105.937 114.132H105.985C106.286 113.741 106.656 113.435 107.095 113.215C107.54 112.995 108.028 112.885 108.559 112.885C109.406 112.885 110.079 113.127 110.578 113.609C111.082 114.086 111.334 114.888 111.334 116.014V121.442H109.87V116.006C109.87 115.325 109.717 114.84 109.411 114.55C109.111 114.255 108.685 114.108 108.133 114.108C107.656 114.108 107.235 114.239 106.87 114.502C106.506 114.759 106.221 115.092 106.018 115.499V121.442H104.554ZM112.435 113.046H113.851L115.894 118.676C115.969 118.89 116.03 119.091 116.079 119.279C116.132 119.467 116.17 119.614 116.191 119.721H116.239C116.261 119.614 116.298 119.467 116.352 119.279C116.406 119.091 116.47 118.89 116.545 118.676L118.572 113.046H119.955L116.762 121.442H115.628L112.435 113.046ZM120.518 117.373V117.116C120.518 115.845 120.864 114.81 121.555 114.011C122.252 113.207 123.169 112.805 124.306 112.805C125.448 112.805 126.327 113.18 126.944 113.931C127.56 114.676 127.869 115.689 127.869 116.971V117.566H121.411V116.4H126.397V116.215C126.397 115.604 126.223 115.084 125.874 114.655C125.531 114.22 125.03 114.003 124.37 114.003C123.582 114.003 122.992 114.304 122.601 114.904C122.209 115.504 122.014 116.242 122.014 117.116V117.373C122.014 118.247 122.22 118.984 122.633 119.585C123.046 120.185 123.681 120.485 124.539 120.485C125.075 120.485 125.536 120.367 125.922 120.131C126.308 119.896 126.619 119.617 126.855 119.295L127.804 120.051C127.536 120.448 127.126 120.818 126.574 121.161C126.021 121.504 125.346 121.676 124.547 121.676C123.25 121.676 122.252 121.276 121.555 120.477C120.864 119.673 120.518 118.638 120.518 117.373ZM129.678 121.442V113.046H131.005L131.061 114.124H131.11C131.324 113.77 131.605 113.462 131.954 113.199C132.302 112.936 132.718 112.805 133.201 112.805C133.318 112.805 133.442 112.818 133.57 112.845C133.699 112.872 133.79 112.896 133.844 112.918V114.269C133.737 114.247 133.624 114.231 133.506 114.22C133.388 114.21 133.26 114.204 133.12 114.204C132.643 114.204 132.233 114.33 131.89 114.582C131.552 114.834 131.303 115.148 131.142 115.523V121.442H129.678ZM134.721 118.957H136.176V119.006C136.176 119.499 136.353 119.869 136.707 120.115C137.066 120.357 137.541 120.477 138.13 120.477C138.72 120.477 139.184 120.362 139.522 120.131C139.865 119.896 140.036 119.587 140.036 119.207C140.036 118.831 139.897 118.544 139.618 118.346C139.345 118.142 138.758 117.933 137.857 117.719C136.951 117.504 136.235 117.207 135.71 116.826C135.184 116.44 134.922 115.901 134.922 115.21C134.922 114.518 135.206 113.944 135.774 113.489C136.342 113.033 137.104 112.805 138.058 112.805C139.012 112.805 139.779 113.033 140.358 113.489C140.943 113.939 141.235 114.553 141.235 115.33V115.379H139.787V115.306C139.787 114.899 139.645 114.58 139.361 114.349C139.077 114.119 138.642 114.003 138.058 114.003C137.474 114.003 137.045 114.111 136.771 114.325C136.498 114.539 136.361 114.808 136.361 115.129C136.361 115.451 136.517 115.708 136.828 115.901C137.139 116.089 137.744 116.29 138.645 116.504C139.546 116.719 140.243 117.024 140.736 117.421C141.229 117.818 141.476 118.386 141.476 119.126C141.476 119.871 141.197 120.483 140.64 120.96C140.082 121.437 139.246 121.676 138.13 121.676C137.021 121.676 136.174 121.434 135.589 120.952C135.01 120.464 134.721 119.815 134.721 119.006V118.957ZM143.374 121.442V113.046H144.838V121.442H143.374ZM143.189 110.473C143.189 110.226 143.267 110.02 143.422 109.853C143.583 109.682 143.811 109.596 144.106 109.596C144.401 109.596 144.626 109.682 144.781 109.853C144.942 110.02 145.023 110.226 145.023 110.473C145.023 110.719 144.942 110.928 144.781 111.1C144.626 111.266 144.401 111.349 144.106 111.349C143.811 111.349 143.583 111.266 143.422 111.1C143.267 110.928 143.189 110.719 143.189 110.473ZM146.752 117.373V117.116C146.752 115.845 147.111 114.81 147.829 114.011C148.548 113.207 149.508 112.805 150.709 112.805C151.904 112.805 152.861 113.207 153.58 114.011C154.298 114.81 154.657 115.845 154.657 117.116V117.373C154.657 118.638 154.298 119.673 153.58 120.477C152.861 121.276 151.904 121.676 150.709 121.676C149.508 121.676 148.548 121.276 147.829 120.477C147.111 119.673 146.752 118.638 146.752 117.373ZM148.248 117.116V117.373C148.248 118.247 148.454 118.984 148.867 119.585C149.28 120.18 149.891 120.477 150.701 120.477C151.515 120.477 152.129 120.18 152.542 119.585C152.955 118.984 153.161 118.247 153.161 117.373V117.116C153.161 116.242 152.955 115.504 152.542 114.904C152.129 114.304 151.515 114.003 150.701 114.003C149.891 114.003 149.28 114.304 148.867 114.904C148.454 115.504 148.248 116.242 148.248 117.116ZM156.507 121.442V113.046H157.834L157.89 114.132H157.939C158.239 113.741 158.609 113.435 159.048 113.215C159.493 112.995 159.981 112.885 160.512 112.885C161.359 112.885 162.032 113.127 162.531 113.609C163.035 114.086 163.287 114.888 163.287 116.014V121.442H161.823V116.006C161.823 115.325 161.67 114.84 161.365 114.55C161.064 114.255 160.638 114.108 160.086 114.108C159.609 114.108 159.188 114.239 158.823 114.502C158.459 114.759 158.175 115.092 157.971 115.499V121.442H156.507ZM169.519 121.442V109.122H170.983V114.035C171.23 113.687 171.56 113.408 171.972 113.199C172.391 112.99 172.892 112.885 173.476 112.885C174.538 112.885 175.388 113.285 176.026 114.084C176.664 114.877 176.983 115.885 176.983 117.108V117.365C176.983 118.593 176.664 119.606 176.026 120.405C175.388 121.204 174.538 121.603 173.476 121.603C172.892 121.603 172.377 121.483 171.932 121.241C171.493 120.995 171.165 120.697 170.951 120.349H170.903L170.846 121.442H169.519ZM170.983 118.965C171.149 119.335 171.42 119.668 171.795 119.963C172.171 120.257 172.626 120.405 173.163 120.405C173.961 120.405 174.549 120.113 174.924 119.528C175.299 118.944 175.487 118.223 175.487 117.365V117.108C175.487 116.25 175.299 115.531 174.924 114.952C174.549 114.373 173.961 114.084 173.163 114.084C172.626 114.084 172.171 114.231 171.795 114.526C171.42 114.816 171.149 115.148 170.983 115.523V118.965ZM177.956 124.788V123.549C178.095 123.592 178.248 123.625 178.414 123.646C178.586 123.673 178.752 123.686 178.913 123.686C179.288 123.686 179.613 123.541 179.886 123.252C180.165 122.968 180.46 122.357 180.771 121.418V121.41L177.634 113.046H179.058L181.06 118.603C181.135 118.818 181.202 119.019 181.261 119.207C181.32 119.389 181.371 119.56 181.414 119.721H181.462C181.511 119.56 181.564 119.389 181.623 119.207C181.682 119.019 181.746 118.818 181.816 118.603L183.698 113.046H185.081L181.655 122.568C181.387 123.324 181.036 123.909 180.602 124.322C180.167 124.74 179.631 124.949 178.993 124.949C178.779 124.949 178.588 124.935 178.422 124.909C178.261 124.882 178.106 124.842 177.956 124.788ZM190.18 117.654V109.733H191.692V117.654C191.692 118.577 191.936 119.263 192.424 119.713C192.917 120.164 193.566 120.389 194.37 120.389C195.174 120.389 195.823 120.164 196.316 119.713C196.81 119.263 197.056 118.577 197.056 117.654V109.733H198.568V117.654C198.568 118.995 198.163 120 197.354 120.67C196.544 121.341 195.55 121.676 194.37 121.676C193.196 121.676 192.204 121.341 191.394 120.67C190.585 120 190.18 118.995 190.18 117.654ZM200.458 118.957H201.914V119.006C201.914 119.499 202.091 119.869 202.445 120.115C202.804 120.357 203.278 120.477 203.868 120.477C204.458 120.477 204.922 120.362 205.259 120.131C205.603 119.896 205.774 119.587 205.774 119.207C205.774 118.831 205.635 118.544 205.356 118.346C205.082 118.142 204.495 117.933 203.595 117.719C202.689 117.504 201.973 117.207 201.447 116.826C200.922 116.44 200.659 115.901 200.659 115.21C200.659 114.518 200.943 113.944 201.512 113.489C202.08 113.033 202.841 112.805 203.796 112.805C204.75 112.805 205.517 113.033 206.096 113.489C206.68 113.939 206.972 114.553 206.972 115.33V115.379H205.525V115.306C205.525 114.899 205.383 114.58 205.099 114.349C204.814 114.119 204.38 114.003 203.796 114.003C203.211 114.003 202.782 114.111 202.509 114.325C202.235 114.539 202.099 114.808 202.099 115.129C202.099 115.451 202.254 115.708 202.565 115.901C202.876 116.089 203.482 116.29 204.383 116.504C205.283 116.719 205.98 117.024 206.474 117.421C206.967 117.818 207.214 118.386 207.214 119.126C207.214 119.871 206.935 120.483 206.377 120.96C205.82 121.437 204.983 121.676 203.868 121.676C202.758 121.676 201.911 121.434 201.327 120.952C200.748 120.464 200.458 119.815 200.458 119.006V118.957ZM209.112 121.442V113.046H210.575V121.442H209.112ZM208.927 110.473C208.927 110.226 209.004 110.02 209.16 109.853C209.321 109.682 209.549 109.596 209.843 109.596C210.138 109.596 210.364 109.682 210.519 109.853C210.68 110.02 210.76 110.226 210.76 110.473C210.76 110.719 210.68 110.928 210.519 111.1C210.364 111.266 210.138 111.349 209.843 111.349C209.549 111.349 209.321 111.266 209.16 111.1C209.004 110.928 208.927 110.719 208.927 110.473ZM212.996 121.442V113.046H214.323L214.379 114.132H214.428C214.728 113.741 215.098 113.435 215.537 113.215C215.982 112.995 216.47 112.885 217.001 112.885C217.848 112.885 218.521 113.127 219.02 113.609C219.524 114.086 219.776 114.888 219.776 116.014V121.442H218.312V116.006C218.312 115.325 218.159 114.84 217.854 114.55C217.553 114.255 217.127 114.108 216.575 114.108C216.098 114.108 215.677 114.239 215.312 114.502C214.948 114.759 214.663 115.092 214.46 115.499V121.442H212.996ZM221.867 123.742L222.775 122.641C223.011 122.909 223.341 123.147 223.765 123.356C224.194 123.566 224.676 123.67 225.212 123.67C225.931 123.67 226.499 123.461 226.917 123.043C227.335 122.63 227.545 122.04 227.545 121.273V120.445C227.298 120.794 226.968 121.075 226.555 121.29C226.142 121.499 225.641 121.603 225.051 121.603C223.99 121.603 223.14 121.204 222.502 120.405C221.864 119.606 221.545 118.595 221.545 117.373V117.116C221.545 115.888 221.864 114.877 222.502 114.084C223.14 113.285 223.99 112.885 225.051 112.885C225.641 112.885 226.156 113.009 226.596 113.255C227.035 113.497 227.362 113.791 227.577 114.14H227.625L227.681 113.046H229.008V121.273C229.008 122.458 228.66 123.367 227.963 124C227.271 124.632 226.368 124.949 225.252 124.949C224.561 124.949 223.923 124.834 223.338 124.603C222.759 124.378 222.269 124.091 221.867 123.742ZM223.041 117.373C223.041 118.231 223.228 118.952 223.604 119.536C223.979 120.115 224.569 120.405 225.373 120.405C225.904 120.405 226.357 120.257 226.732 119.963C227.108 119.668 227.378 119.333 227.545 118.957V115.523C227.378 115.148 227.108 114.816 226.732 114.526C226.357 114.231 225.904 114.084 225.373 114.084C224.569 114.084 223.979 114.376 223.604 114.96C223.228 115.539 223.041 116.258 223.041 117.116V117.373ZM185.078 167.26V147.532H188.469L188.538 149.214H188.593C188.924 148.653 189.457 148.184 190.193 147.807C190.937 147.421 191.778 147.228 192.716 147.228C194.49 147.228 195.914 147.867 196.99 149.145C198.065 150.413 198.603 152.109 198.603 154.232V154.673C198.603 156.787 198.065 158.492 196.99 159.788C195.923 161.075 194.513 161.718 192.757 161.718C191.82 161.718 191.002 161.557 190.303 161.236C189.614 160.914 189.071 160.482 188.676 159.94V167.26H185.078ZM188.676 156.948C188.897 157.499 189.274 157.982 189.807 158.396C190.349 158.809 190.992 159.016 191.737 159.016C192.821 159.016 193.621 158.63 194.136 157.858C194.66 157.086 194.922 156.07 194.922 154.811V154.108C194.922 152.849 194.66 151.842 194.136 151.089C193.621 150.335 192.821 149.958 191.737 149.958C190.974 149.958 190.331 150.16 189.807 150.565C189.283 150.969 188.906 151.442 188.676 151.985V156.948ZM200.423 154.687V154.246C200.423 152.104 201.07 150.385 202.366 149.089C203.672 147.784 205.39 147.132 207.523 147.132C209.646 147.132 211.355 147.784 212.651 149.089C213.957 150.385 214.609 152.104 214.609 154.246V154.687C214.609 156.847 213.957 158.579 212.651 159.884C211.355 161.18 209.646 161.828 207.523 161.828C205.39 161.828 203.672 161.18 202.366 159.884C201.07 158.579 200.423 156.847 200.423 154.687ZM204.104 154.122V154.825C204.104 156.13 204.393 157.168 204.972 157.941C205.56 158.713 206.406 159.099 207.509 159.099C208.621 159.099 209.467 158.713 210.046 157.941C210.634 157.168 210.928 156.13 210.928 154.825V154.122C210.928 152.816 210.634 151.782 210.046 151.02C209.457 150.248 208.612 149.862 207.509 149.862C206.415 149.862 205.574 150.248 204.986 151.02C204.398 151.782 204.104 152.816 204.104 154.122ZM215.574 150.192V147.532H224.232V150.192H215.574ZM217.808 157.444V148.69L217.835 148.359V143.726H221.378V157.155C221.378 157.899 221.502 158.405 221.751 158.671C221.999 158.929 222.371 159.057 222.867 159.057C223.097 159.057 223.322 159.034 223.543 158.988C223.764 158.942 223.979 158.878 224.191 158.795V161.429C223.97 161.521 223.653 161.608 223.24 161.691C222.835 161.773 222.376 161.815 221.861 161.815C220.611 161.815 219.623 161.47 218.897 160.781C218.171 160.082 217.808 158.97 217.808 157.444ZM225.68 154.687V154.246C225.68 152.113 226.309 150.395 227.569 149.089C228.837 147.784 230.487 147.132 232.518 147.132C234.549 147.132 236.126 147.748 237.247 148.979C238.377 150.202 238.943 151.888 238.943 154.039V155.266H227.927V153.019H235.386V152.771C235.386 151.943 235.147 151.24 234.669 150.661C234.191 150.073 233.479 149.779 232.532 149.779C231.466 149.779 230.657 150.174 230.105 150.964C229.563 151.755 229.292 152.78 229.292 154.039V154.797C229.292 156.102 229.582 157.155 230.161 157.954C230.749 158.745 231.622 159.14 232.78 159.14C233.561 159.14 234.228 158.965 234.779 158.616C235.34 158.258 235.79 157.826 236.13 157.32L238.763 158.795C238.332 159.65 237.605 160.372 236.585 160.96C235.574 161.539 234.32 161.828 232.821 161.828C230.57 161.828 228.814 161.176 227.555 159.871C226.305 158.566 225.68 156.838 225.68 154.687ZM241.438 161.442V147.532H244.871L244.94 149.255H244.995C245.4 148.639 245.969 148.147 246.705 147.78C247.44 147.412 248.272 147.228 249.2 147.228C250.616 147.228 251.755 147.628 252.619 148.428C253.492 149.227 253.929 150.592 253.929 152.522V161.442H250.331V152.66C250.331 151.704 250.124 151.029 249.71 150.634C249.297 150.238 248.708 150.041 247.945 150.041C247.311 150.041 246.737 150.22 246.222 150.578C245.707 150.937 245.312 151.419 245.036 152.026V161.442H241.438ZM255.528 150.192V147.532H264.186V150.192H255.528ZM257.762 157.444V148.69L257.789 148.359V143.726H261.332V157.155C261.332 157.899 261.457 158.405 261.705 158.671C261.953 158.929 262.325 159.057 262.821 159.057C263.051 159.057 263.276 159.034 263.497 158.988C263.718 158.942 263.934 158.878 264.145 158.795V161.429C263.924 161.521 263.607 161.608 263.194 161.691C262.789 161.773 262.33 161.815 261.815 161.815C260.565 161.815 259.577 161.47 258.851 160.781C258.125 160.082 257.762 158.97 257.762 157.444ZM266.475 161.442V147.532H270.115V161.442H266.475ZM266.172 143.23C266.172 142.679 266.355 142.214 266.723 141.838C267.091 141.461 267.615 141.272 268.295 141.272C268.984 141.272 269.508 141.461 269.866 141.838C270.234 142.214 270.418 142.679 270.418 143.23C270.418 143.791 270.234 144.264 269.866 144.65C269.499 145.027 268.97 145.215 268.281 145.215C267.601 145.215 267.077 145.027 266.709 144.65C266.351 144.264 266.172 143.791 266.172 143.23ZM272.831 157.375C272.831 155.914 273.405 154.788 274.554 153.998C275.703 153.198 277.178 152.798 278.979 152.798H282.013V151.888C282.013 151.18 281.829 150.62 281.461 150.206C281.103 149.783 280.487 149.572 279.614 149.572C278.741 149.572 278.106 149.747 277.711 150.096C277.316 150.445 277.118 150.891 277.118 151.433V151.64L273.63 151.626V151.392C273.63 150.179 274.191 149.168 275.312 148.359C276.434 147.55 277.923 147.146 279.779 147.146C281.645 147.146 283.083 147.536 284.094 148.317C285.105 149.089 285.611 150.298 285.611 151.943V158.244C285.611 158.823 285.657 159.37 285.749 159.884C285.85 160.399 285.992 160.845 286.176 161.222V161.442H282.647C282.518 161.222 282.408 160.941 282.316 160.601C282.224 160.252 282.164 159.907 282.137 159.567C281.833 160.11 281.296 160.601 280.524 161.043C279.752 161.475 278.782 161.691 277.615 161.691C276.227 161.691 275.082 161.327 274.182 160.601C273.281 159.875 272.831 158.8 272.831 157.375ZM276.429 157.113C276.429 157.784 276.622 158.313 277.008 158.699C277.403 159.085 278.01 159.278 278.828 159.278C279.673 159.278 280.413 158.993 281.048 158.423C281.691 157.853 282.013 157.201 282.013 156.465V154.963H279.655C278.57 154.963 277.762 155.146 277.229 155.514C276.695 155.882 276.429 156.415 276.429 157.113ZM289.058 161.442V140.652H292.684V161.442H289.058ZM301.948 154.687V154.246C301.948 152.104 302.596 150.385 303.892 149.089C305.197 147.784 306.916 147.132 309.048 147.132C311.172 147.132 312.881 147.784 314.177 149.089C315.482 150.385 316.135 152.104 316.135 154.246V154.687C316.135 156.847 315.482 158.579 314.177 159.884C312.881 161.18 311.172 161.828 309.048 161.828C306.916 161.828 305.197 161.18 303.892 159.884C302.596 158.579 301.948 156.847 301.948 154.687ZM305.629 154.122V154.825C305.629 156.13 305.919 157.168 306.498 157.941C307.086 158.713 307.932 159.099 309.035 159.099C310.147 159.099 310.992 158.713 311.571 157.941C312.16 157.168 312.454 156.13 312.454 154.825V154.122C312.454 152.816 312.16 151.782 311.571 151.02C310.983 150.248 310.138 149.862 309.035 149.862C307.941 149.862 307.1 150.248 306.512 151.02C305.923 151.782 305.629 152.816 305.629 154.122ZM319.361 161.442V145.739C319.361 143.965 319.853 142.628 320.836 141.727C321.82 140.817 323.116 140.362 324.724 140.362C325.064 140.362 325.39 140.385 325.703 140.431C326.025 140.468 326.323 140.523 326.599 140.597L326.461 143.299C326.277 143.262 326.08 143.23 325.868 143.202C325.657 143.166 325.436 143.147 325.207 143.147C324.49 143.147 323.929 143.377 323.525 143.837C323.129 144.287 322.932 144.986 322.932 145.932V148.483L322.959 148.731V161.442H319.361ZM317.279 150.192V147.532H320.533H321.002H325.675V150.192H317.279ZM20.7672 201.442V181.369H25.6753L30.6247 194.88C30.735 195.192 30.8315 195.496 30.9142 195.79C30.997 196.075 31.0705 196.378 31.1348 196.7H31.2175C31.2819 196.378 31.3554 196.07 31.4381 195.776C31.53 195.482 31.6311 195.183 31.7414 194.88L36.6909 181.369H41.6403V201.442H37.9731V188.152C37.9731 187.849 37.9777 187.513 37.9868 187.146C37.996 186.769 38.019 186.433 38.0558 186.139H37.9593C37.9041 186.442 37.826 186.778 37.7249 187.146C37.633 187.513 37.5319 187.849 37.4216 188.152L32.61 201.442H29.4115L24.5999 188.152C24.4896 187.849 24.3839 187.504 24.2828 187.118C24.1817 186.723 24.1128 186.396 24.076 186.139H23.9795C23.9979 186.387 24.0117 186.709 24.0209 187.104C24.0392 187.499 24.0484 187.849 24.0484 188.152V201.442H20.7672ZM44.5493 197.375C44.5493 195.914 45.1238 194.788 46.2727 193.998C47.4216 193.198 48.8968 192.798 50.6982 192.798H53.7313V191.888C53.7313 191.18 53.5475 190.62 53.1799 190.206C52.8214 189.783 52.2056 189.572 51.3324 189.572C50.4593 189.572 49.8251 189.747 49.4299 190.096C49.0346 190.445 48.837 190.891 48.837 191.433V191.64L45.349 191.626V191.392C45.349 190.179 45.9096 189.168 47.031 188.359C48.1523 187.55 49.6413 187.146 51.4979 187.146C53.3637 187.146 54.8021 187.536 55.8131 188.317C56.8242 189.089 57.3297 190.298 57.3297 191.943V198.244C57.3297 198.823 57.3756 199.37 57.4675 199.884C57.5686 200.399 57.7111 200.845 57.8949 201.222V201.442H54.3655C54.2368 201.222 54.1266 200.941 54.0346 200.601C53.9427 200.252 53.883 199.907 53.8554 199.567C53.5521 200.11 53.0144 200.601 52.2424 201.043C51.4703 201.475 50.5006 201.691 49.3334 201.691C47.9455 201.691 46.8012 201.327 45.9004 200.601C44.9997 199.875 44.5493 198.8 44.5493 197.375ZM48.1477 197.113C48.1477 197.784 48.3407 198.313 48.7267 198.699C49.122 199.085 49.7286 199.278 50.5466 199.278C51.3922 199.278 52.1321 198.993 52.7663 198.423C53.4096 197.853 53.7313 197.201 53.7313 196.465V194.963H51.3738C50.2892 194.963 49.4804 195.146 48.9473 195.514C48.4142 195.882 48.1477 196.415 48.1477 197.113ZM60.7488 201.442V187.532H64.2093L64.2782 189.227H64.3334C64.6642 188.657 65.1054 188.175 65.6569 187.78C66.2084 187.375 66.8471 187.173 67.5732 187.173C67.7846 187.173 67.996 187.196 68.2074 187.242C68.428 187.279 68.5797 187.316 68.6624 187.352V190.385C68.497 190.339 68.3131 190.303 68.1109 190.275C67.9087 190.248 67.6835 190.234 67.4354 190.234C66.7644 190.234 66.1578 190.431 65.6155 190.827C65.0732 191.222 64.6596 191.727 64.3747 192.343V201.442H60.7488ZM70.6753 201.442V180.652H74.2736V192.922L79.2506 187.518H83.3039L74.2736 197.072V201.442H70.6753ZM79.7056 201.442L74.7561 194.632L77.031 192.109L83.9381 201.442H79.7056ZM84.1449 194.687V194.246C84.1449 192.113 84.7745 190.395 86.0337 189.089C87.3021 187.784 88.9519 187.132 90.9832 187.132C93.0144 187.132 94.5907 187.748 95.712 188.979C96.8425 190.202 97.4078 191.888 97.4078 194.039V195.266H86.3922V193.019H93.8508V192.771C93.8508 191.943 93.6118 191.24 93.1339 190.661C92.656 190.073 91.9436 189.779 90.997 189.779C89.9308 189.779 89.122 190.174 88.5705 190.964C88.0282 191.755 87.7571 192.78 87.7571 194.039V194.797C87.7571 196.102 88.0466 197.155 88.6256 197.954C89.2139 198.745 90.087 199.14 91.2451 199.14C92.0264 199.14 92.6927 198.965 93.2442 198.616C93.8049 198.258 94.2552 197.826 94.5953 197.32L97.2286 198.795C96.7966 199.65 96.0705 200.372 95.0503 200.96C94.0392 201.539 92.7846 201.828 91.2865 201.828C89.0346 201.828 87.2791 201.176 86.0199 199.871C84.7699 198.566 84.1449 196.838 84.1449 194.687ZM98.2488 190.192V187.532H106.907V190.192H98.2488ZM100.482 197.444V188.69L100.51 188.359V183.726H104.053V197.155C104.053 197.899 104.177 198.405 104.425 198.671C104.673 198.929 105.046 199.057 105.542 199.057C105.772 199.057 105.997 199.034 106.218 198.988C106.438 198.942 106.654 198.878 106.866 198.795V201.429C106.645 201.521 106.328 201.608 105.914 201.691C105.51 201.773 105.05 201.815 104.536 201.815C103.286 201.815 102.298 201.47 101.571 200.781C100.845 200.082 100.482 198.97 100.482 197.444ZM109.195 201.442V187.532H112.835V201.442H109.195ZM108.892 183.23C108.892 182.679 109.076 182.214 109.444 181.838C109.811 181.461 110.335 181.272 111.015 181.272C111.705 181.272 112.229 181.461 112.587 181.838C112.955 182.214 113.138 182.679 113.138 183.23C113.138 183.791 112.955 184.264 112.587 184.65C112.219 185.027 111.691 185.215 111.002 185.215C110.321 185.215 109.798 185.027 109.43 184.65C109.071 184.264 108.892 183.791 108.892 183.23ZM116.282 201.442V187.532H119.715L119.784 189.255H119.839C120.243 188.639 120.813 188.147 121.548 187.78C122.284 187.412 123.116 187.228 124.044 187.228C125.459 187.228 126.599 187.628 127.463 188.428C128.336 189.227 128.773 190.592 128.773 192.522V201.442H125.174V192.66C125.174 191.704 124.968 191.029 124.554 190.634C124.14 190.238 123.552 190.041 122.789 190.041C122.155 190.041 121.581 190.22 121.066 190.578C120.551 190.937 120.156 191.419 119.88 192.026V201.442H116.282ZM131.957 205.634L133.364 203.248C133.731 203.607 134.301 203.947 135.073 204.269C135.845 204.59 136.682 204.751 137.582 204.751C138.621 204.751 139.48 204.434 140.161 203.8C140.841 203.175 141.181 202.196 141.181 200.863V199.816C140.786 200.385 140.248 200.84 139.568 201.18C138.897 201.511 138.07 201.677 137.086 201.677C135.321 201.677 133.906 201.033 132.84 199.747C131.774 198.451 131.241 196.769 131.241 194.701V194.259C131.241 192.191 131.769 190.509 132.826 189.214C133.883 187.908 135.308 187.256 137.1 187.256C138.019 187.256 138.846 187.444 139.582 187.821C140.317 188.198 140.854 188.676 141.195 189.255H141.25L141.319 187.532H144.752V200.629C144.752 202.844 144.117 204.54 142.849 205.716C141.581 206.893 139.931 207.481 137.9 207.481C136.677 207.481 135.551 207.302 134.522 206.943C133.492 206.585 132.638 206.148 131.957 205.634ZM134.894 194.783C134.894 196.015 135.161 197.026 135.694 197.816C136.227 198.598 137.049 198.988 138.161 198.988C138.897 198.988 139.522 198.782 140.036 198.368C140.56 197.945 140.937 197.467 141.167 196.934V192.04C140.928 191.461 140.547 190.969 140.023 190.565C139.508 190.16 138.878 189.958 138.134 189.958C137.04 189.958 136.227 190.353 135.694 191.144C135.161 191.934 134.894 192.95 134.894 194.191V194.783ZM19.732 218.958V218.218C19.732 216.405 20.1904 215.001 21.1072 214.004C22.0241 213.001 23.1741 212.5 24.5574 212.5C25.9407 212.5 27.021 212.878 27.7984 213.634C28.5812 214.39 28.9726 215.309 28.9726 216.392V216.481H27.4607V216.392C27.4607 215.636 27.2194 215.014 26.7368 214.526C26.2597 214.033 25.5332 213.786 24.5574 213.786C23.5923 213.786 22.8015 214.151 22.1849 214.88C21.5683 215.609 21.2601 216.722 21.2601 218.218V218.958C21.2601 220.346 21.5683 221.432 22.1849 222.215C22.8015 222.997 23.5923 223.389 24.5574 223.389C25.4742 223.389 26.1685 223.142 26.6403 222.649C27.1122 222.15 27.3829 221.528 27.4526 220.783L27.4607 220.695H28.9726L28.9646 220.783C28.8627 221.861 28.4472 222.78 27.718 223.542C26.9942 224.298 25.9407 224.676 24.5574 224.676C23.1688 224.676 22.016 224.174 21.0992 223.172C20.1877 222.169 19.732 220.764 19.732 218.958ZM30.2996 220.373V220.116C30.2996 218.845 30.6588 217.81 31.3772 217.011C32.0957 216.207 33.0554 215.805 34.2564 215.805C35.452 215.805 36.409 216.207 37.1275 217.011C37.8459 217.81 38.2051 218.845 38.2051 220.116V220.373C38.2051 221.638 37.8459 222.673 37.1275 223.477C36.409 224.276 35.452 224.676 34.2564 224.676C33.0554 224.676 32.0957 224.276 31.3772 223.477C30.6588 222.673 30.2996 221.638 30.2996 220.373ZM31.7954 220.116V220.373C31.7954 221.247 32.0019 221.984 32.4147 222.585C32.8275 223.18 33.4387 223.477 34.2483 223.477C35.0633 223.477 35.6772 223.18 36.09 222.585C36.5029 221.984 36.7093 221.247 36.7093 220.373V220.116C36.7093 219.242 36.5029 218.504 36.09 217.904C35.6772 217.304 35.0633 217.003 34.2483 217.003C33.4387 217.003 32.8275 217.304 32.4147 217.904C32.0019 218.504 31.7954 219.242 31.7954 220.116ZM40.0549 224.442V216.046H41.3818L41.4381 217.132H41.4864C41.7866 216.751 42.1485 216.448 42.5721 216.223C42.9957 215.998 43.4648 215.885 43.9795 215.885C44.5478 215.885 45.0357 215.998 45.4432 216.223C45.856 216.448 46.167 216.81 46.3761 217.309H46.4163C46.7648 216.81 47.1535 216.448 47.5824 216.223C48.0114 215.998 48.5046 215.885 49.0622 215.885C49.9308 215.885 50.609 216.127 51.0969 216.609C51.5848 217.086 51.8288 217.888 51.8288 219.014V224.442H50.3651V218.998C50.3651 218.322 50.2203 217.84 49.9308 217.55C49.6413 217.255 49.2338 217.108 48.7084 217.108C48.2473 217.108 47.8425 217.239 47.494 217.502C47.1508 217.759 46.8774 218.092 46.6737 218.499V224.442H45.21V218.998C45.21 218.322 45.0652 217.84 44.7757 217.55C44.4862 217.255 44.0787 217.108 43.5533 217.108C43.0922 217.108 42.6874 217.239 42.3389 217.502C41.9957 217.759 41.7223 218.092 41.5186 218.499V224.442H40.0549ZM54.0967 227.804V216.046H55.4237L55.48 217.14H55.5282C55.7427 216.791 56.0697 216.497 56.5094 216.255C56.9544 216.009 57.4691 215.885 58.0535 215.885C59.1151 215.885 59.9649 216.285 60.6029 217.084C61.2409 217.877 61.5599 218.885 61.5599 220.108V220.365C61.5599 221.598 61.2409 222.614 60.6029 223.413C59.9649 224.206 59.1151 224.603 58.0535 224.603C57.4691 224.603 56.9678 224.499 56.5496 224.29C56.1367 224.075 55.807 223.794 55.5604 223.445V227.804H54.0967ZM55.5604 221.957C55.7266 222.333 55.9973 222.668 56.3726 222.963C56.748 223.257 57.2037 223.405 57.7398 223.405C58.5387 223.405 59.1258 223.113 59.5011 222.528C59.8764 221.944 60.0641 221.223 60.0641 220.365V220.108C60.0641 219.25 59.8764 218.531 59.5011 217.952C59.1258 217.373 58.5387 217.084 57.7398 217.084C57.2037 217.084 56.748 217.231 56.3726 217.526C55.9973 217.816 55.7266 218.148 55.5604 218.523V221.957ZM62.9432 221.973C62.9432 221.121 63.281 220.459 63.9565 219.987C64.6321 219.51 65.4899 219.271 66.53 219.271H68.4361V218.684C68.4361 218.175 68.3047 217.762 68.042 217.446C67.7793 217.129 67.3289 216.971 66.6909 216.971C66.0475 216.971 65.5864 217.105 65.3076 217.373C65.0288 217.636 64.8894 217.942 64.8894 218.29V218.338H63.4418V218.29C63.4418 217.625 63.7367 217.046 64.3265 216.553C64.9162 216.054 65.7151 215.805 66.7231 215.805C67.731 215.805 68.5111 216.046 69.0634 216.529C69.621 217.006 69.8998 217.724 69.8998 218.684V222.512C69.8998 222.861 69.9266 223.19 69.9802 223.501C70.0338 223.807 70.1089 224.078 70.2054 224.314V224.442H68.7899C68.7149 224.308 68.6452 224.134 68.5808 223.92C68.5218 223.705 68.4843 223.491 68.4682 223.276C68.2752 223.625 67.9562 223.933 67.5112 224.201C67.0716 224.469 66.5059 224.603 65.8143 224.603C65.0101 224.603 64.3291 224.378 63.7715 223.928C63.2193 223.472 62.9432 222.821 62.9432 221.973ZM64.4069 221.893C64.4069 222.376 64.5463 222.754 64.8251 223.027C65.1039 223.295 65.5382 223.429 66.1279 223.429C66.7123 223.429 67.2431 223.228 67.7203 222.826C68.1975 222.418 68.4361 221.984 68.4361 221.523V220.317H66.6909C65.9403 220.317 65.372 220.459 64.9859 220.743C64.5999 221.027 64.4069 221.41 64.4069 221.893ZM72.2079 224.442V216.046H73.5349L73.5912 217.124H73.6394C73.8539 216.77 74.1354 216.462 74.4839 216.199C74.8324 215.936 75.2479 215.805 75.7304 215.805C75.8484 215.805 75.9717 215.818 76.1004 215.845C76.229 215.872 76.3202 215.896 76.3738 215.918V217.269C76.2666 217.247 76.154 217.231 76.036 217.22C75.9181 217.21 75.7894 217.204 75.65 217.204C75.1728 217.204 74.7627 217.33 74.4195 217.582C74.0817 217.834 73.8324 218.148 73.6716 218.523V224.442H72.2079ZM77.1056 220.373V220.116C77.1056 218.845 77.4515 217.81 78.1431 217.011C78.8401 216.207 79.7569 215.805 80.8936 215.805C82.0356 215.805 82.9148 216.18 83.5314 216.931C84.148 217.676 84.4563 218.689 84.4563 219.971V220.566H77.9983V219.4H82.9845V219.215C82.9845 218.604 82.8103 218.084 82.4618 217.655C82.1187 217.22 81.6174 217.003 80.9579 217.003C80.1698 217.003 79.58 217.304 79.1886 217.904C78.7972 218.504 78.6015 219.242 78.6015 220.116V220.373C78.6015 221.247 78.8079 221.984 79.2208 222.585C79.6336 223.185 80.2689 223.485 81.1268 223.485C81.6629 223.485 82.124 223.367 82.5101 223.131C82.8961 222.896 83.2071 222.617 83.443 222.295L84.3919 223.051C84.1239 223.448 83.7137 223.818 83.1615 224.161C82.6092 224.504 81.9337 224.676 81.1348 224.676C79.8373 224.676 78.8401 224.276 78.1431 223.477C77.4515 222.673 77.1056 221.638 77.1056 220.373ZM85.7591 220.373V220.116C85.7591 218.888 86.0781 217.877 86.7162 217.084C87.3542 216.285 88.2067 215.885 89.2736 215.885C89.858 215.885 90.3566 215.99 90.7695 216.199C91.1823 216.408 91.512 216.687 91.7587 217.035V212.122H93.2224V224.442H91.8954L91.8391 223.341H91.7908C91.5764 223.689 91.2493 223.987 90.8097 224.233C90.37 224.48 89.858 224.603 89.2736 224.603C88.2067 224.603 87.3542 224.204 86.7162 223.405C86.0781 222.606 85.7591 221.595 85.7591 220.373ZM87.255 220.373C87.255 221.231 87.4427 221.952 87.818 222.536C88.1933 223.115 88.783 223.405 89.5873 223.405C90.1181 223.405 90.5711 223.257 90.9464 222.963C91.3217 222.668 91.5925 222.333 91.7587 221.957V218.523C91.5925 218.148 91.3217 217.816 90.9464 217.526C90.5711 217.231 90.1181 217.084 89.5873 217.084C88.783 217.084 88.1933 217.376 87.818 217.96C87.4427 218.539 87.255 219.258 87.255 220.116V220.373ZM98.2649 217.164V216.046H103.042V217.164H98.2649ZM99.7688 222.351V216.714V216.481V213.907H101.224V222.351C101.224 222.743 101.299 223.019 101.45 223.18C101.605 223.341 101.844 223.421 102.165 223.421C102.316 223.421 102.46 223.405 102.6 223.373C102.744 223.341 102.892 223.298 103.042 223.244V224.442C102.903 224.507 102.723 224.56 102.503 224.603C102.283 224.651 102.042 224.676 101.779 224.676C101.168 224.676 100.68 224.491 100.316 224.121C99.9511 223.751 99.7688 223.161 99.7688 222.351ZM103.951 220.373V220.116C103.951 218.845 104.31 217.81 105.028 217.011C105.747 216.207 106.707 215.805 107.908 215.805C109.103 215.805 110.06 216.207 110.779 217.011C111.497 217.81 111.856 218.845 111.856 220.116V220.373C111.856 221.638 111.497 222.673 110.779 223.477C110.06 224.276 109.103 224.676 107.908 224.676C106.707 224.676 105.747 224.276 105.028 223.477C104.31 222.673 103.951 221.638 103.951 220.373ZM105.447 220.116V220.373C105.447 221.247 105.653 221.984 106.066 222.585C106.479 223.18 107.09 223.477 107.9 223.477C108.714 223.477 109.328 223.18 109.741 222.585C110.154 221.984 110.36 221.247 110.36 220.373V220.116C110.36 219.242 110.154 218.504 109.741 217.904C109.328 217.304 108.714 217.003 107.9 217.003C107.09 217.003 106.479 217.304 106.066 217.904C105.653 218.504 105.447 219.242 105.447 220.116ZM116.392 217.164V216.046H121.169V217.164H116.392ZM117.896 222.351V216.714V216.481V213.907H119.352V222.351C119.352 222.743 119.427 223.019 119.577 223.18C119.732 223.341 119.971 223.421 120.293 223.421C120.443 223.421 120.588 223.405 120.727 223.373C120.872 223.341 121.019 223.298 121.169 223.244V224.442C121.03 224.507 120.85 224.56 120.63 224.603C120.411 224.651 120.169 224.676 119.907 224.676C119.295 224.676 118.808 224.491 118.443 224.121C118.078 223.751 117.896 223.161 117.896 222.351ZM122.746 224.442V216.046H124.073L124.129 217.124H124.177C124.392 216.77 124.673 216.462 125.022 216.199C125.37 215.936 125.786 215.805 126.268 215.805C126.386 215.805 126.509 215.818 126.638 215.845C126.767 215.872 126.858 215.896 126.911 215.918V217.269C126.804 217.247 126.692 217.231 126.574 217.22C126.456 217.21 126.327 217.204 126.188 217.204C125.711 217.204 125.3 217.33 124.957 217.582C124.619 217.834 124.37 218.148 124.209 218.523V224.442H122.746ZM127.523 221.973C127.523 221.121 127.86 220.459 128.536 219.987C129.212 219.51 130.069 219.271 131.11 219.271H133.016V218.684C133.016 218.175 132.884 217.762 132.621 217.446C132.359 217.129 131.908 216.971 131.27 216.971C130.627 216.971 130.166 217.105 129.887 217.373C129.608 217.636 129.469 217.942 129.469 218.29V218.338H128.021V218.29C128.021 217.625 128.316 217.046 128.906 216.553C129.496 216.054 130.295 215.805 131.303 215.805C132.311 215.805 133.091 216.046 133.643 216.529C134.2 217.006 134.479 217.724 134.479 218.684V222.512C134.479 222.861 134.506 223.19 134.56 223.501C134.613 223.807 134.688 224.078 134.785 224.314V224.442H133.369C133.294 224.308 133.225 224.134 133.16 223.92C133.101 223.705 133.064 223.491 133.048 223.276C132.855 223.625 132.536 223.933 132.091 224.201C131.651 224.469 131.085 224.603 130.394 224.603C129.59 224.603 128.909 224.378 128.351 223.928C127.799 223.472 127.523 222.821 127.523 221.973ZM128.986 221.893C128.986 222.376 129.126 222.754 129.405 223.027C129.683 223.295 130.118 223.429 130.707 223.429C131.292 223.429 131.823 223.228 132.3 222.826C132.777 222.418 133.016 221.984 133.016 221.523V220.317H131.27C130.52 220.317 129.951 220.459 129.565 220.743C129.179 221.027 128.986 221.41 128.986 221.893ZM136.281 220.373V220.116C136.281 218.888 136.6 217.877 137.238 217.084C137.876 216.285 138.728 215.885 139.795 215.885C140.38 215.885 140.878 215.99 141.291 216.199C141.704 216.408 142.034 216.687 142.28 217.035V212.122H143.744V224.442H142.417L142.361 223.341H142.312C142.098 223.689 141.771 223.987 141.331 224.233C140.892 224.48 140.38 224.603 139.795 224.603C138.728 224.603 137.876 224.204 137.238 223.405C136.6 222.606 136.281 221.595 136.281 220.373ZM137.777 220.373C137.777 221.231 137.964 221.952 138.34 222.536C138.715 223.115 139.305 223.405 140.109 223.405C140.64 223.405 141.093 223.257 141.468 222.963C141.843 222.668 142.114 222.333 142.28 221.957V218.523C142.114 218.148 141.843 217.816 141.468 217.526C141.093 217.231 140.64 217.084 140.109 217.084C139.305 217.084 138.715 217.376 138.34 217.96C137.964 218.539 137.777 219.258 137.777 220.116V220.373ZM146.173 224.442V216.046H147.636V224.442H146.173ZM145.988 213.473C145.988 213.226 146.066 213.02 146.221 212.853C146.382 212.682 146.61 212.596 146.905 212.596C147.199 212.596 147.425 212.682 147.58 212.853C147.741 213.02 147.821 213.226 147.821 213.473C147.821 213.719 147.741 213.928 147.58 214.1C147.425 214.266 147.199 214.349 146.905 214.349C146.61 214.349 146.382 214.266 146.221 214.1C146.066 213.928 145.988 213.719 145.988 213.473ZM148.883 217.164V216.046H153.66V217.164H148.883ZM150.387 222.351V216.714V216.481V213.907H151.843V222.351C151.843 222.743 151.918 223.019 152.068 223.18C152.223 223.341 152.462 223.421 152.784 223.421C152.934 223.421 153.078 223.405 153.218 223.373C153.363 223.341 153.51 223.298 153.66 223.244V224.442C153.521 224.507 153.341 224.56 153.121 224.603C152.901 224.651 152.66 224.676 152.397 224.676C151.786 224.676 151.298 224.491 150.934 224.121C150.569 223.751 150.387 223.161 150.387 222.351ZM155.309 224.442V216.046H156.772V224.442H155.309ZM155.124 213.473C155.124 213.226 155.202 213.02 155.357 212.853C155.518 212.682 155.746 212.596 156.041 212.596C156.336 212.596 156.561 212.682 156.716 212.853C156.877 213.02 156.957 213.226 156.957 213.473C156.957 213.719 156.877 213.928 156.716 214.1C156.561 214.266 156.336 214.349 156.041 214.349C155.746 214.349 155.518 214.266 155.357 214.1C155.202 213.928 155.124 213.719 155.124 213.473ZM158.687 220.373V220.116C158.687 218.845 159.046 217.81 159.764 217.011C160.483 216.207 161.442 215.805 162.643 215.805C163.839 215.805 164.796 216.207 165.514 217.011C166.233 217.81 166.592 218.845 166.592 220.116V220.373C166.592 221.638 166.233 222.673 165.514 223.477C164.796 224.276 163.839 224.676 162.643 224.676C161.442 224.676 160.483 224.276 159.764 223.477C159.046 222.673 158.687 221.638 158.687 220.373ZM160.182 220.116V220.373C160.182 221.247 160.389 221.984 160.802 222.585C161.214 223.18 161.826 223.477 162.635 223.477C163.45 223.477 164.064 223.18 164.477 222.585C164.89 221.984 165.096 221.247 165.096 220.373V220.116C165.096 219.242 164.89 218.504 164.477 217.904C164.064 217.304 163.45 217.003 162.635 217.003C161.826 217.003 161.214 217.304 160.802 217.904C160.389 218.504 160.182 219.242 160.182 220.116ZM168.442 224.442V216.046H169.769L169.825 217.132H169.873C170.174 216.741 170.544 216.435 170.983 216.215C171.428 215.995 171.916 215.885 172.447 215.885C173.294 215.885 173.967 216.127 174.465 216.609C174.969 217.086 175.221 217.888 175.221 219.014V224.442H173.758V219.006C173.758 218.325 173.605 217.84 173.299 217.55C172.999 217.255 172.573 217.108 172.021 217.108C171.543 217.108 171.123 217.239 170.758 217.502C170.393 217.759 170.109 218.092 169.906 218.499V224.442H168.442ZM177.031 221.973C177.031 221.121 177.369 220.459 178.044 219.987C178.72 219.51 179.578 219.271 180.618 219.271H182.524V218.684C182.524 218.175 182.392 217.762 182.13 217.446C181.867 217.129 181.417 216.971 180.779 216.971C180.135 216.971 179.674 217.105 179.395 217.373C179.117 217.636 178.977 217.942 178.977 218.29V218.338H177.53V218.29C177.53 217.625 177.824 217.046 178.414 216.553C179.004 216.054 179.803 215.805 180.811 215.805C181.819 215.805 182.599 216.046 183.151 216.529C183.709 217.006 183.988 217.724 183.988 218.684V222.512C183.988 222.861 184.014 223.19 184.068 223.501C184.122 223.807 184.197 224.078 184.293 224.314V224.442H182.878C182.803 224.308 182.733 224.134 182.669 223.92C182.61 223.705 182.572 223.491 182.556 223.276C182.363 223.625 182.044 223.933 181.599 224.201C181.159 224.469 180.594 224.603 179.902 224.603C179.098 224.603 178.417 224.378 177.859 223.928C177.307 223.472 177.031 222.821 177.031 221.973ZM178.495 221.893C178.495 222.376 178.634 222.754 178.913 223.027C179.192 223.295 179.626 223.429 180.216 223.429C180.8 223.429 181.331 223.228 181.808 222.826C182.285 222.418 182.524 221.984 182.524 221.523V220.317H180.779C180.028 220.317 179.46 220.459 179.074 220.743C178.688 221.027 178.495 221.41 178.495 221.893ZM186.36 224.442V212.122H187.824V224.442H186.36ZM194.193 224.442V216.046H195.52L195.576 217.124H195.625C195.839 216.77 196.121 216.462 196.469 216.199C196.818 215.936 197.233 215.805 197.716 215.805C197.834 215.805 197.957 215.818 198.086 215.845C198.214 215.872 198.305 215.896 198.359 215.918V217.269C198.252 217.247 198.139 217.231 198.021 217.22C197.903 217.21 197.775 217.204 197.635 217.204C197.158 217.204 196.748 217.33 196.405 217.582C196.067 217.834 195.818 218.148 195.657 218.523V224.442H194.193ZM199.091 220.373V220.116C199.091 218.845 199.437 217.81 200.128 217.011C200.825 216.207 201.742 215.805 202.879 215.805C204.021 215.805 204.9 216.18 205.517 216.931C206.133 217.676 206.442 218.689 206.442 219.971V220.566H199.984V219.4H204.97V219.215C204.97 218.604 204.796 218.084 204.447 217.655C204.104 217.22 203.603 217.003 202.943 217.003C202.155 217.003 201.565 217.304 201.174 217.904C200.783 218.504 200.587 219.242 200.587 220.116V220.373C200.587 221.247 200.793 221.984 201.206 222.585C201.619 223.185 202.254 223.485 203.112 223.485C203.648 223.485 204.109 223.367 204.495 223.131C204.881 222.896 205.192 222.617 205.428 222.295L206.377 223.051C206.109 223.448 205.699 223.818 205.147 224.161C204.595 224.504 203.919 224.676 203.12 224.676C201.823 224.676 200.825 224.276 200.128 223.477C199.437 222.673 199.091 221.638 199.091 220.373ZM207.744 220.373V220.116C207.744 218.845 208.088 217.81 208.774 217.011C209.465 216.207 210.412 215.805 211.613 215.805C212.728 215.805 213.575 216.108 214.154 216.714C214.733 217.314 215.023 217.99 215.023 218.74V218.781H213.607V218.74C213.607 218.279 213.446 217.875 213.125 217.526C212.808 217.178 212.304 217.003 211.613 217.003C210.803 217.003 210.205 217.304 209.819 217.904C209.433 218.499 209.24 219.236 209.24 220.116V220.373C209.24 221.247 209.433 221.984 209.819 222.585C210.205 223.18 210.803 223.477 211.613 223.477C212.31 223.477 212.816 223.306 213.133 222.963C213.449 222.614 213.607 222.207 213.607 221.74V221.7H215.023V221.74C215.023 222.496 214.733 223.174 214.154 223.775C213.575 224.375 212.728 224.676 211.613 224.676C210.412 224.676 209.465 224.276 208.774 223.477C208.088 222.673 207.744 221.638 207.744 220.373ZM216.237 220.373V220.116C216.237 218.845 216.596 217.81 217.315 217.011C218.033 216.207 218.993 215.805 220.194 215.805C221.39 215.805 222.347 216.207 223.065 217.011C223.783 217.81 224.143 218.845 224.143 220.116V220.373C224.143 221.638 223.783 222.673 223.065 223.477C222.347 224.276 221.39 224.676 220.194 224.676C218.993 224.676 218.033 224.276 217.315 223.477C216.596 222.673 216.237 221.638 216.237 220.373ZM217.733 220.116V220.373C217.733 221.247 217.939 221.984 218.352 222.585C218.765 223.18 219.376 223.477 220.186 223.477C221.001 223.477 221.615 223.18 222.028 222.585C222.44 221.984 222.647 221.247 222.647 220.373V220.116C222.647 219.242 222.44 218.504 222.028 217.904C221.615 217.304 221.001 217.003 220.186 217.003C219.376 217.003 218.765 217.304 218.352 217.904C217.939 218.504 217.733 219.242 217.733 220.116ZM225.992 224.442V216.046H227.319L227.376 217.132H227.424C227.724 216.751 228.086 216.448 228.51 216.223C228.933 215.998 229.402 215.885 229.917 215.885C230.485 215.885 230.973 215.998 231.381 216.223C231.794 216.448 232.104 216.81 232.314 217.309H232.354C232.702 216.81 233.091 216.448 233.52 216.223C233.949 215.998 234.442 215.885 235 215.885C235.868 215.885 236.547 216.127 237.034 216.609C237.522 217.086 237.766 217.888 237.766 219.014V224.442H236.303V218.998C236.303 218.322 236.158 217.84 235.868 217.55C235.579 217.255 235.171 217.108 234.646 217.108C234.185 217.108 233.78 217.239 233.431 217.502C233.088 217.759 232.815 218.092 232.611 218.499V224.442H231.147V218.998C231.147 218.322 231.003 217.84 230.713 217.55C230.424 217.255 230.016 217.108 229.491 217.108C229.03 217.108 228.625 217.239 228.276 217.502C227.933 217.759 227.66 218.092 227.456 218.499V224.442H225.992ZM240.034 224.442V216.046H241.361L241.417 217.132H241.466C241.766 216.751 242.128 216.448 242.551 216.223C242.975 215.998 243.444 215.885 243.959 215.885C244.527 215.885 245.015 215.998 245.423 216.223C245.835 216.448 246.146 216.81 246.355 217.309H246.396C246.744 216.81 247.133 216.448 247.562 216.223C247.991 215.998 248.484 215.885 249.042 215.885C249.91 215.885 250.588 216.127 251.076 216.609C251.564 217.086 251.808 217.888 251.808 219.014V224.442H250.344V218.998C250.344 218.322 250.2 217.84 249.91 217.55C249.621 217.255 249.213 217.108 248.688 217.108C248.227 217.108 247.822 217.239 247.473 217.502C247.13 217.759 246.857 218.092 246.653 218.499V224.442H245.189V218.998C245.189 218.322 245.045 217.84 244.755 217.55C244.465 217.255 244.058 217.108 243.533 217.108C243.071 217.108 242.667 217.239 242.318 217.502C241.975 217.759 241.702 218.092 241.498 218.499V224.442H240.034ZM253.569 220.373V220.116C253.569 218.845 253.915 217.81 254.607 217.011C255.304 216.207 256.221 215.805 257.357 215.805C258.499 215.805 259.379 216.18 259.995 216.931C260.612 217.676 260.92 218.689 260.92 219.971V220.566H254.462V219.4H259.448V219.215C259.448 218.604 259.274 218.084 258.926 217.655C258.582 217.22 258.081 217.003 257.422 217.003C256.633 217.003 256.044 217.304 255.652 217.904C255.261 218.504 255.065 219.242 255.065 220.116V220.373C255.065 221.247 255.272 221.984 255.684 222.585C256.097 223.185 256.733 223.485 257.59 223.485C258.127 223.485 258.588 223.367 258.974 223.131C259.36 222.896 259.671 222.617 259.907 222.295L260.856 223.051C260.588 223.448 260.177 223.818 259.625 224.161C259.073 224.504 258.397 224.676 257.599 224.676C256.301 224.676 255.304 224.276 254.607 223.477C253.915 222.673 253.569 221.638 253.569 220.373ZM262.73 224.442V216.046H264.056L264.113 217.132H264.161C264.461 216.741 264.831 216.435 265.271 216.215C265.716 215.995 266.204 215.885 266.735 215.885C267.582 215.885 268.255 216.127 268.753 216.609C269.257 217.086 269.509 217.888 269.509 219.014V224.442H268.045V219.006C268.045 218.325 267.893 217.84 267.587 217.55C267.287 217.255 266.861 217.108 266.308 217.108C265.831 217.108 265.41 217.239 265.046 217.502C264.681 217.759 264.397 218.092 264.193 218.499V224.442H262.73ZM271.278 220.373V220.116C271.278 218.888 271.597 217.877 272.235 217.084C272.873 216.285 273.726 215.885 274.793 215.885C275.377 215.885 275.876 215.99 276.289 216.199C276.702 216.408 277.031 216.687 277.278 217.035V212.122H278.742V224.442H277.415L277.358 223.341H277.31C277.096 223.689 276.769 223.987 276.329 224.233C275.889 224.48 275.377 224.603 274.793 224.603C273.726 224.603 272.873 224.204 272.235 223.405C271.597 222.606 271.278 221.595 271.278 220.373ZM272.774 220.373C272.774 221.231 272.962 221.952 273.337 222.536C273.713 223.115 274.302 223.405 275.107 223.405C275.637 223.405 276.09 223.257 276.466 222.963C276.841 222.668 277.112 222.333 277.278 221.957V218.523C277.112 218.148 276.841 217.816 276.466 217.526C276.09 217.231 275.637 217.084 275.107 217.084C274.302 217.084 273.713 217.376 273.337 217.96C272.962 218.539 272.774 219.258 272.774 220.116V220.373ZM280.632 221.973C280.632 221.121 280.969 220.459 281.645 219.987C282.32 219.51 283.178 219.271 284.218 219.271H286.124V218.684C286.124 218.175 285.993 217.762 285.73 217.446C285.468 217.129 285.017 216.971 284.379 216.971C283.736 216.971 283.275 217.105 282.996 217.373C282.717 217.636 282.578 217.942 282.578 218.29V218.338H281.13V218.29C281.13 217.625 281.425 217.046 282.015 216.553C282.605 216.054 283.404 215.805 284.411 215.805C285.419 215.805 286.2 216.046 286.752 216.529C287.309 217.006 287.588 217.724 287.588 218.684V222.512C287.588 222.861 287.615 223.19 287.669 223.501C287.722 223.807 287.797 224.078 287.894 224.314V224.442H286.478C286.403 224.308 286.334 224.134 286.269 223.92C286.21 223.705 286.173 223.491 286.157 223.276C285.964 223.625 285.645 223.933 285.2 224.201C284.76 224.469 284.194 224.603 283.503 224.603C282.698 224.603 282.018 224.378 281.46 223.928C280.908 223.472 280.632 222.821 280.632 221.973ZM282.095 221.893C282.095 222.376 282.235 222.754 282.514 223.027C282.792 223.295 283.227 223.429 283.816 223.429C284.401 223.429 284.932 223.228 285.409 222.826C285.886 222.418 286.124 221.984 286.124 221.523V220.317H284.379C283.629 220.317 283.06 220.459 282.674 220.743C282.288 221.027 282.095 221.41 282.095 221.893ZM288.722 217.164V216.046H293.499V217.164H288.722ZM290.226 222.351V216.714V216.481V213.907H291.682V222.351C291.682 222.743 291.757 223.019 291.907 223.18C292.062 223.341 292.301 223.421 292.623 223.421C292.773 223.421 292.918 223.405 293.057 223.373C293.202 223.341 293.349 223.298 293.499 223.244V224.442C293.36 224.507 293.18 224.56 292.96 224.603C292.741 224.651 292.499 224.676 292.237 224.676C291.625 224.676 291.138 224.491 290.773 224.121C290.408 223.751 290.226 223.161 290.226 222.351ZM295.148 224.442V216.046H296.612V224.442H295.148ZM294.963 213.473C294.963 213.226 295.041 213.02 295.196 212.853C295.357 212.682 295.585 212.596 295.88 212.596C296.175 212.596 296.4 212.682 296.555 212.853C296.716 213.02 296.797 213.226 296.797 213.473C296.797 213.719 296.716 213.928 296.555 214.1C296.4 214.266 296.175 214.349 295.88 214.349C295.585 214.349 295.357 214.266 295.196 214.1C295.041 213.928 294.963 213.719 294.963 213.473ZM298.526 220.373V220.116C298.526 218.845 298.885 217.81 299.603 217.011C300.322 216.207 301.282 215.805 302.482 215.805C303.678 215.805 304.635 216.207 305.354 217.011C306.072 217.81 306.431 218.845 306.431 220.116V220.373C306.431 221.638 306.072 222.673 305.354 223.477C304.635 224.276 303.678 224.676 302.482 224.676C301.282 224.676 300.322 224.276 299.603 223.477C298.885 222.673 298.526 221.638 298.526 220.373ZM300.022 220.116V220.373C300.022 221.247 300.228 221.984 300.641 222.585C301.054 223.18 301.665 223.477 302.474 223.477C303.289 223.477 303.903 223.18 304.316 222.585C304.729 221.984 304.935 221.247 304.935 220.373V220.116C304.935 219.242 304.729 218.504 304.316 217.904C303.903 217.304 303.289 217.003 302.474 217.003C301.665 217.003 301.054 217.304 300.641 217.904C300.228 218.504 300.022 219.242 300.022 220.116ZM308.281 224.442V216.046H309.608L309.664 217.132H309.713C310.013 216.741 310.383 216.435 310.822 216.215C311.267 215.995 311.755 215.885 312.286 215.885C313.133 215.885 313.806 216.127 314.305 216.609C314.809 217.086 315.061 217.888 315.061 219.014V224.442H313.597V219.006C313.597 218.325 313.444 217.84 313.139 217.55C312.838 217.255 312.412 217.108 311.86 217.108C311.383 217.108 310.962 217.239 310.597 217.502C310.233 217.759 309.948 218.092 309.745 218.499V224.442H308.281Z" fill="#4E4B66"/>
<path d="M20.6845 165.716V141.369H27.6054V144.14H24.1863V162.945H27.6054V165.716H20.6845ZM37.0907 161.442V141.369H41.9988L46.9482 154.88C47.0585 155.192 47.155 155.496 47.2378 155.79C47.3205 156.075 47.394 156.378 47.4584 156.7H47.5411C47.6054 156.378 47.6789 156.07 47.7617 155.776C47.8536 155.482 47.9547 155.183 48.065 154.88L53.0144 141.369H57.9639V161.442H54.2966V148.152C54.2966 147.849 54.3012 147.513 54.3104 147.146C54.3196 146.769 54.3425 146.433 54.3793 146.139H54.2828C54.2277 146.442 54.1495 146.778 54.0484 147.146C53.9565 147.513 53.8554 147.849 53.7451 148.152L48.9335 161.442H45.735L40.9234 148.152C40.8131 147.849 40.7074 147.504 40.6063 147.118C40.5052 146.723 40.4363 146.396 40.3995 146.139H40.303C40.3214 146.387 40.3352 146.709 40.3444 147.104C40.3628 147.499 40.372 147.849 40.372 148.152V161.442H37.0907ZM60.8729 157.375C60.8729 155.914 61.4473 154.788 62.5962 153.998C63.7451 153.198 65.2203 152.798 67.0218 152.798H70.0549V151.888C70.0549 151.18 69.871 150.62 69.5034 150.206C69.1449 149.783 68.5291 149.572 67.656 149.572C66.7828 149.572 66.1486 149.747 65.7534 150.096C65.3582 150.445 65.1606 150.891 65.1606 151.433V151.64L61.6725 151.626V151.392C61.6725 150.179 62.2332 149.168 63.3545 148.359C64.4758 147.55 65.9648 147.146 67.8214 147.146C69.6872 147.146 71.1256 147.536 72.1367 148.317C73.1477 149.089 73.6532 150.298 73.6532 151.943V158.244C73.6532 158.823 73.6992 159.37 73.7911 159.884C73.8922 160.399 74.0346 160.845 74.2185 161.222V161.442H70.6891C70.5604 161.222 70.4501 160.941 70.3582 160.601C70.2663 160.252 70.2065 159.907 70.1789 159.567C69.8756 160.11 69.3379 160.601 68.5659 161.043C67.7938 161.475 66.8242 161.691 65.6569 161.691C64.269 161.691 63.1247 161.327 62.224 160.601C61.3232 159.875 60.8729 158.8 60.8729 157.375ZM64.4712 157.113C64.4712 157.784 64.6642 158.313 65.0503 158.699C65.4455 159.085 66.0521 159.278 66.8701 159.278C67.7157 159.278 68.4556 158.993 69.0898 158.423C69.7332 157.853 70.0549 157.201 70.0549 156.465V154.963H67.6973C66.6128 154.963 65.8039 155.146 65.2709 155.514C64.7378 155.882 64.4712 156.415 64.4712 157.113ZM75.4455 161.442L80.7396 153.515L81.3462 153.474L85.0962 147.532H88.5567L83.5521 155.225L82.9041 155.252L78.906 161.442H75.4455ZM75.7626 147.532H79.7745L83.5383 153.487L83.7313 153.543L88.9841 161.442H84.9721L81.0016 155.197L80.8223 155.156L75.7626 147.532ZM90.8315 161.442V147.532H94.4712V161.442H90.8315ZM90.5282 143.23C90.5282 142.679 90.712 142.214 91.0797 141.838C91.4473 141.461 91.9712 141.272 92.6514 141.272C93.3407 141.272 93.8646 141.461 94.2231 141.838C94.5907 142.214 94.7745 142.679 94.7745 143.23C94.7745 143.791 94.5907 144.264 94.2231 144.65C93.8554 145.027 93.3269 145.215 92.6376 145.215C91.9574 145.215 91.4335 145.027 91.0659 144.65C90.7074 144.264 90.5282 143.791 90.5282 143.23ZM97.9179 161.442V147.532H101.337L101.406 149.296H101.461C101.921 148.653 102.504 148.147 103.212 147.78C103.929 147.412 104.724 147.228 105.597 147.228C106.562 147.228 107.399 147.43 108.106 147.835C108.814 148.239 109.324 148.846 109.637 149.655H109.692C110.207 148.855 110.864 148.253 111.663 147.849C112.463 147.435 113.341 147.228 114.297 147.228C115.694 147.228 116.806 147.642 117.633 148.469C118.469 149.296 118.888 150.68 118.888 152.619V161.442H115.275V152.674C115.275 151.737 115.082 151.066 114.696 150.661C114.31 150.248 113.75 150.041 113.014 150.041C112.371 150.032 111.81 150.211 111.332 150.578C110.864 150.946 110.487 151.433 110.202 152.04V161.442H106.59V152.688C106.59 151.741 106.392 151.066 105.997 150.661C105.611 150.248 105.046 150.041 104.301 150.041C103.667 150.041 103.116 150.225 102.647 150.592C102.178 150.951 101.801 151.438 101.516 152.054V161.442H97.9179ZM122.017 156.341V147.532H125.629V156.259C125.629 157.26 125.836 157.959 126.25 158.354C126.673 158.749 127.256 158.947 128.001 158.947C128.662 158.947 129.241 158.759 129.738 158.382C130.243 158.005 130.634 157.527 130.91 156.948V147.532H134.522V161.442H131.089L131.006 159.691H130.951C130.528 160.326 129.949 160.827 129.214 161.194C128.479 161.553 127.642 161.732 126.705 161.732C125.308 161.732 124.177 161.318 123.313 160.491C122.449 159.664 122.017 158.281 122.017 156.341ZM137.9 161.442V147.532H141.319L141.388 149.296H141.443C141.902 148.653 142.486 148.147 143.194 147.78C143.911 147.412 144.706 147.228 145.579 147.228C146.544 147.228 147.38 147.43 148.088 147.835C148.796 148.239 149.306 148.846 149.618 149.655H149.673C150.188 148.855 150.845 148.253 151.645 147.849C152.445 147.435 153.322 147.228 154.278 147.228C155.675 147.228 156.787 147.642 157.615 148.469C158.451 149.296 158.869 150.68 158.869 152.619V161.442H155.257V152.674C155.257 151.737 155.064 151.066 154.678 150.661C154.292 150.248 153.731 150.041 152.996 150.041C152.353 150.032 151.792 150.211 151.314 150.578C150.845 150.946 150.468 151.433 150.184 152.04V161.442H146.571V152.688C146.571 151.741 146.374 151.066 145.979 150.661C145.593 150.248 145.027 150.041 144.283 150.041C143.649 150.041 143.097 150.225 142.628 150.592C142.16 150.951 141.783 151.438 141.498 152.054V161.442H137.9ZM174.903 165.716H167.968V162.945H171.388V144.14H167.968V141.369H174.903V165.716Z" fill="#BC66EE"/>
</g>
<path id="Label" d="M19.5958 28.3247V18.3012H24.0287C24.4899 18.3012 24.9134 18.3953 25.2993 18.5835C25.6946 18.7718 26.0334 19.0259 26.3158 19.3459C26.6075 19.6659 26.8287 20.0235 26.9793 20.4188C27.1393 20.8141 27.2193 21.2188 27.2193 21.6329C27.2193 22.0565 27.144 22.4659 26.9934 22.8612C26.8522 23.2471 26.6452 23.5859 26.3722 23.8776C26.0993 24.1694 25.7793 24.3953 25.4122 24.5553L27.6993 28.3247H25.5534L23.4922 24.9647H21.544V28.3247H19.5958ZM21.544 23.2565H23.9864C24.2311 23.2565 24.4475 23.1859 24.6358 23.0447C24.824 22.8941 24.9746 22.6965 25.0875 22.4518C25.2005 22.2071 25.257 21.9341 25.257 21.6329C25.257 21.3129 25.1911 21.0353 25.0593 20.8C24.9275 20.5553 24.7581 20.3624 24.5511 20.2212C24.3534 20.08 24.1369 20.0094 23.9017 20.0094H21.544V23.2565ZM37.4151 26.6165V28.3247H30.4551V18.3012H37.2881V20.0094H32.4034V22.4235H36.6246V24.0047H32.4034V26.6165H37.4151ZM43.1293 18.3012H45.1058L48.7905 28.3247H46.7858L45.854 25.8259H42.3528L41.4352 28.3247H39.4305L43.1293 18.3012ZM45.5011 24.4565L44.1175 20.32L42.6775 24.4565H45.5011ZM51.3605 28.3247V18.3012H55.0028C56.0946 18.3012 57.0075 18.5271 57.7417 18.9788C58.4758 19.4212 59.0264 20.0235 59.3934 20.7859C59.7605 21.5388 59.944 22.3765 59.944 23.2988C59.944 24.3153 59.7417 25.2 59.337 25.9529C58.9322 26.7059 58.3581 27.2894 57.6146 27.7035C56.8805 28.1176 56.0099 28.3247 55.0028 28.3247H51.3605ZM57.9817 23.2988C57.9817 22.6494 57.864 22.08 57.6287 21.5906C57.3934 21.0918 57.0546 20.7059 56.6122 20.4329C56.1699 20.1506 55.6334 20.0094 55.0028 20.0094H53.3087V26.6165H55.0028C55.6428 26.6165 56.184 26.4753 56.6264 26.1929C57.0687 25.9012 57.4028 25.5059 57.6287 25.0071C57.864 24.4988 57.9817 23.9294 57.9817 23.2988ZM75.973 28.3247V21.7459L73.4036 26.6447H72.3165L69.7471 21.7459V28.3247H67.7989V18.3012H69.8883L72.853 24.0047L75.846 18.3012H77.9213V28.3247H75.973ZM85.7622 28.3953C85.0281 28.3953 84.3599 28.2541 83.7575 27.9718C83.1646 27.6894 82.6516 27.3082 82.2187 26.8282C81.7951 26.3388 81.4657 25.7929 81.2304 25.1906C80.9951 24.5788 80.8775 23.9529 80.8775 23.3129C80.8775 22.6447 80.9999 22.0094 81.2446 21.4071C81.4987 20.7953 81.8422 20.2541 82.2751 19.7835C82.7175 19.3035 83.2351 18.9271 83.8281 18.6541C84.4304 18.3718 85.0893 18.2306 85.8046 18.2306C86.5293 18.2306 87.1881 18.3765 87.781 18.6682C88.3834 18.96 88.8963 19.3506 89.3199 19.84C89.7434 20.3294 90.0728 20.8753 90.3081 21.4776C90.5434 22.08 90.661 22.7012 90.661 23.3412C90.661 24 90.5387 24.6353 90.294 25.2471C90.0493 25.8494 89.7057 26.3906 89.2634 26.8706C88.8304 27.3412 88.3128 27.7129 87.7104 27.9859C87.1175 28.2588 86.4681 28.3953 85.7622 28.3953ZM82.854 23.3129C82.854 23.7459 82.9199 24.1647 83.0516 24.5694C83.1834 24.9741 83.3716 25.3365 83.6163 25.6565C83.8704 25.9671 84.1763 26.2165 84.534 26.4047C84.901 26.5835 85.3151 26.6729 85.7763 26.6729C86.2469 26.6729 86.6657 26.5788 87.0328 26.3906C87.3999 26.1929 87.7057 25.9341 87.9504 25.6141C88.1951 25.2847 88.3787 24.9224 88.501 24.5271C88.6328 24.1224 88.6987 23.7176 88.6987 23.3129C88.6987 22.88 88.6281 22.4659 88.4869 22.0706C88.3551 21.6659 88.1622 21.3082 87.9081 20.9976C87.6634 20.6776 87.3575 20.4282 86.9904 20.2494C86.6328 20.0612 86.2281 19.9671 85.7763 19.9671C85.2963 19.9671 84.8728 20.0659 84.5057 20.2635C84.1481 20.4518 83.8469 20.7059 83.6022 21.0259C83.3575 21.3459 83.1693 21.7035 83.0375 22.0988C82.9151 22.4941 82.854 22.8988 82.854 23.3129ZM93.6261 28.3247V18.3012H98.0591C98.5202 18.3012 98.9438 18.3953 99.3296 18.5835C99.7249 18.7718 100.064 19.0259 100.346 19.3459C100.638 19.6659 100.859 20.0235 101.01 20.4188C101.17 20.8141 101.25 21.2188 101.25 21.6329C101.25 22.0565 101.174 22.4659 101.024 22.8612C100.883 23.2471 100.676 23.5859 100.403 23.8776C100.13 24.1694 99.8096 24.3953 99.4426 24.5553L101.73 28.3247H99.5838L97.5226 24.9647H95.5743V28.3247H93.6261ZM95.5743 23.2565H98.0167C98.2614 23.2565 98.4779 23.1859 98.6661 23.0447C98.8543 22.8941 99.0049 22.6965 99.1179 22.4518C99.2308 22.2071 99.2873 21.9341 99.2873 21.6329C99.2873 21.3129 99.2214 21.0353 99.0896 20.8C98.9579 20.5553 98.7885 20.3624 98.5814 20.2212C98.3838 20.08 98.1673 20.0094 97.932 20.0094H95.5743V23.2565ZM111.445 26.6165V28.3247H104.485V18.3012H111.318V20.0094H106.434V22.4235H110.655V24.0047H106.434V26.6165H111.445Z" fill="white"/>
</g>
<rect x="1.76471" y="1.97174" width="388.235" height="256.471" rx="26.4706" stroke="url(#paint0_linear_965_3987)" stroke-width="3.52941"/>
</g>
<defs>
<linearGradient id="paint0_linear_965_3987" x1="195.882" y1="0.207031" x2="195.882" y2="260.207" gradientUnits="userSpaceOnUse">
<stop stop-color="white"/>
<stop offset="0.049011" stop-color="#D9DBE9"/>
<stop offset="0.95" stop-color="#D3D3D3"/>
<stop offset="1" stop-color="#7A7B83"/>
<stop offset="1" stop-color="#EDEDED"/>
</linearGradient>
<clipPath id="clip0_965_3987">
<rect y="0.207031" width="391.765" height="260" rx="28.2353" fill="white"/>
</clipPath>
</defs>
</svg>
