<svg width="95" height="34" viewBox="0 0 95 34" fill="none" xmlns="http://www.w3.org/2000/svg">
<path d="M32.1271 17.0001C32.1271 20.1772 31.185 23.2829 29.4199 25.9245C27.6549 28.5662 25.1461 30.6251 22.2108 31.8409C19.2756 33.0567 16.0457 33.3748 12.9297 32.755C9.81369 32.1352 6.95144 30.6053 4.70491 28.3587C2.45838 26.1122 0.928473 23.25 0.308657 20.1339C-0.311159 17.0179 0.00695289 13.7881 1.22277 10.8528C2.43858 7.9176 4.49749 5.40881 7.13913 3.64372C9.78077 1.87864 12.8865 0.936523 16.0636 0.936523V4.14908C13.5219 4.14908 11.0373 4.90278 8.92393 6.31487C6.81059 7.72696 5.16345 9.73401 4.19079 12.0822C3.21812 14.4304 2.96363 17.0143 3.45949 19.5072C3.95535 22 5.17929 24.2899 6.97653 26.0871C8.77378 27.8844 11.0636 29.1083 13.5565 29.6042C16.0493 30.1 18.6332 29.8455 20.9814 28.8729C23.3297 27.9002 25.3367 26.2531 26.7488 24.1397C28.1609 22.0264 28.9146 19.5418 28.9146 17.0001H32.1271Z" fill="white"/>
<rect width="9.63814" height="3.21271" transform="translate(25.5411 17)" fill="white"/>
<rect width="15.0998" height="3.21271" transform="translate(28.9144 16.0361) rotate(-90)" fill="#BB65EA"/>
<rect width="15.0998" height="3.21271" transform="translate(17.0274 0.936523)" fill="#BB65EA"/>
<path d="M71.6938 27.8082V29.2602H65.7778V20.7402H71.5858V22.1922H67.4338V24.2442H71.0218V25.5882H67.4338V27.8082H71.6938Z" fill="#AA81FB"/>
<path d="M60.522 29.3202C59.97 29.3202 59.446 29.2082 58.95 28.9842C58.462 28.7602 58.03 28.4522 57.654 28.0602C57.286 27.6602 56.998 27.1962 56.79 26.6682C56.582 26.1402 56.478 25.5682 56.478 24.9522C56.478 24.3682 56.582 23.8202 56.79 23.3082C56.998 22.7882 57.29 22.3322 57.666 21.9402C58.042 21.5482 58.482 21.2402 58.986 21.0162C59.49 20.7922 60.038 20.6802 60.63 20.6802C61.43 20.6802 62.114 20.8522 62.682 21.1962C63.258 21.5322 63.69 21.9802 63.978 22.5402L62.742 23.4522C62.526 23.0282 62.222 22.7042 61.83 22.4802C61.446 22.2562 61.026 22.1442 60.57 22.1442C60.21 22.1442 59.882 22.2202 59.586 22.3722C59.29 22.5242 59.034 22.7322 58.818 22.9962C58.602 23.2602 58.434 23.5642 58.314 23.9082C58.202 24.2522 58.146 24.6162 58.146 25.0002C58.146 25.4082 58.206 25.7842 58.326 26.1282C58.454 26.4722 58.63 26.7722 58.854 27.0282C59.086 27.2842 59.354 27.4882 59.658 27.6402C59.962 27.7842 60.298 27.8562 60.666 27.8562C61.098 27.8562 61.51 27.7442 61.902 27.5202C62.302 27.2962 62.674 26.9682 63.018 26.5362V28.1682C62.306 28.9362 61.474 29.3202 60.522 29.3202ZM62.898 26.0922H61.182V24.8802H64.266V29.2602H62.898V26.0922Z" fill="#AA81FB"/>
<path d="M48.2917 29.2602V20.7402H51.3877C52.3157 20.7402 53.0917 20.9322 53.7157 21.3162C54.3397 21.6922 54.8077 22.2042 55.1197 22.8522C55.4317 23.4922 55.5877 24.2042 55.5877 24.9882C55.5877 25.8522 55.4157 26.6042 55.0717 27.2442C54.7277 27.8842 54.2397 28.3802 53.6077 28.7322C52.9837 29.0842 52.2437 29.2602 51.3877 29.2602H48.2917ZM53.9197 24.9882C53.9197 24.4362 53.8197 23.9522 53.6197 23.5362C53.4197 23.1122 53.1317 22.7842 52.7557 22.5522C52.3797 22.3122 51.9237 22.1922 51.3877 22.1922H49.9477V27.8082H51.3877C51.9317 27.8082 52.3917 27.6882 52.7677 27.4482C53.1437 27.2002 53.4277 26.8642 53.6197 26.4402C53.8197 26.0082 53.9197 25.5242 53.9197 24.9882Z" fill="#AA81FB"/>
<path d="M46.9003 27.8082V29.2602H40.9843V20.7402H46.7923V22.1922H42.6403V24.2442H46.2283V25.5882H42.6403V27.8082H46.9003Z" fill="#AA81FB"/>
<path d="M94.0724 4.74023V13.2602H92.4284V9.62423H88.5644V13.2602H86.9084V4.74023H88.5644V8.18423H92.4284V4.74023H94.0724Z" fill="white"/>
<path d="M85.7503 6.19223H83.0263V13.2602H81.3823V6.19223H78.6583V4.74023H85.7503V6.19223Z" fill="white"/>
<path d="M69.561 4.76423H71.097L72.069 7.58423L73.053 4.76423H74.577L73.113 8.64023L74.193 11.3522L76.605 4.74023H78.405L74.997 13.2602H73.569L72.069 9.68423L70.581 13.2602H69.153L65.757 4.74023H67.533L69.957 11.3522L71.013 8.64023L69.561 4.76423Z" fill="white"/>
<path d="M61.4501 13.3202C60.8261 13.3202 60.2581 13.2002 59.7461 12.9602C59.2421 12.7202 58.8061 12.3962 58.4381 11.9882C58.0781 11.5722 57.7981 11.1082 57.5981 10.5962C57.3981 10.0762 57.2981 9.54418 57.2981 9.00018C57.2981 8.43218 57.4021 7.89218 57.6101 7.38018C57.8261 6.86018 58.1181 6.40018 58.4861 6.00018C58.8621 5.59218 59.3021 5.27218 59.8061 5.04018C60.3181 4.80018 60.8781 4.68018 61.4861 4.68018C62.1021 4.68018 62.6621 4.80418 63.1661 5.05218C63.6781 5.30018 64.1141 5.63218 64.4741 6.04818C64.8341 6.46418 65.1141 6.92818 65.3141 7.44018C65.5141 7.95218 65.6141 8.48018 65.6141 9.02418C65.6141 9.58418 65.5101 10.1242 65.3021 10.6442C65.0941 11.1562 64.8021 11.6162 64.4261 12.0242C64.0581 12.4242 63.6181 12.7402 63.1061 12.9722C62.6021 13.2042 62.0501 13.3202 61.4501 13.3202ZM58.9781 9.00018C58.9781 9.36818 59.0341 9.72418 59.1461 10.0682C59.2581 10.4122 59.4181 10.7202 59.6261 10.9922C59.8421 11.2562 60.1021 11.4682 60.4061 11.6282C60.7181 11.7802 61.0701 11.8562 61.4621 11.8562C61.8621 11.8562 62.2181 11.7762 62.5301 11.6162C62.8421 11.4482 63.1021 11.2282 63.3101 10.9562C63.5181 10.6762 63.6741 10.3682 63.7781 10.0322C63.8901 9.68818 63.9461 9.34418 63.9461 9.00018C63.9461 8.63218 63.8861 8.28018 63.7661 7.94418C63.6541 7.60018 63.4901 7.29618 63.2741 7.03218C63.0661 6.76018 62.8061 6.54818 62.4941 6.39618C62.1901 6.23618 61.8461 6.15618 61.4621 6.15618C61.0541 6.15618 60.6941 6.24018 60.3821 6.40818C60.0781 6.56818 59.8221 6.78418 59.6141 7.05618C59.4061 7.32818 59.2461 7.63218 59.1341 7.96818C59.0301 8.30418 58.9781 8.64818 58.9781 9.00018Z" fill="white"/>
<path d="M49.78 13.2602V4.74023H53.548C53.94 4.74023 54.3 4.82023 54.628 4.98023C54.964 5.14023 55.252 5.35623 55.492 5.62823C55.74 5.90023 55.928 6.20423 56.056 6.54023C56.192 6.87623 56.26 7.22023 56.26 7.57223C56.26 7.93223 56.196 8.28023 56.068 8.61623C55.948 8.94423 55.772 9.23223 55.54 9.48023C55.308 9.72823 55.036 9.92023 54.724 10.0562L56.668 13.2602H54.844L53.092 10.4042H51.436V13.2602H49.78ZM51.436 8.95223H53.512C53.72 8.95223 53.904 8.89223 54.064 8.77223C54.224 8.64423 54.352 8.47623 54.448 8.26823C54.544 8.06023 54.592 7.82823 54.592 7.57223C54.592 7.30023 54.536 7.06423 54.424 6.86423C54.312 6.65623 54.168 6.49223 53.992 6.37223C53.824 6.25223 53.64 6.19223 53.44 6.19223H51.436V8.95223Z" fill="white"/>
<path d="M44.5242 13.3202C43.9722 13.3202 43.4482 13.2082 42.9522 12.9842C42.4642 12.7602 42.0322 12.4522 41.6562 12.0602C41.2882 11.6602 41.0002 11.1962 40.7922 10.6682C40.5842 10.1402 40.4802 9.56818 40.4802 8.95218C40.4802 8.36818 40.5842 7.82018 40.7922 7.30818C41.0002 6.78818 41.2922 6.33218 41.6682 5.94018C42.0442 5.54818 42.4842 5.24018 42.9882 5.01618C43.4922 4.79218 44.0402 4.68018 44.6322 4.68018C45.4322 4.68018 46.1162 4.85218 46.6842 5.19618C47.2602 5.53218 47.6922 5.98018 47.9802 6.54018L46.7442 7.45218C46.5282 7.02818 46.2242 6.70418 45.8322 6.48018C45.4482 6.25618 45.0282 6.14418 44.5722 6.14418C44.2122 6.14418 43.8842 6.22018 43.5882 6.37218C43.2922 6.52418 43.0362 6.73218 42.8202 6.99618C42.6042 7.26018 42.4362 7.56418 42.3162 7.90818C42.2042 8.25218 42.1482 8.61618 42.1482 9.00018C42.1482 9.40818 42.2082 9.78418 42.3282 10.1282C42.4562 10.4722 42.6322 10.7722 42.8562 11.0282C43.0882 11.2842 43.3562 11.4882 43.6602 11.6402C43.9642 11.7842 44.3002 11.8562 44.6682 11.8562C45.1002 11.8562 45.5122 11.7442 45.9042 11.5202C46.3042 11.2962 46.6762 10.9682 47.0202 10.5362V12.1682C46.3082 12.9362 45.4762 13.3202 44.5242 13.3202ZM46.9002 10.0922H45.1842V8.88018H48.2682V13.2602H46.9002V10.0922Z" fill="white"/>
</svg>
