<svg width="76" height="76" viewBox="0 0 76 76" fill="none" xmlns="http://www.w3.org/2000/svg">
<circle cx="38.3761" cy="38.1509" r="27.7579" transform="rotate(58.6252 38.3761 38.1509)" fill="#292929" fill-opacity="0.8"/>
<path d="M36.1756 10.4953C31.7965 10.8218 27.5569 12.18 23.8033 14.4589C20.0498 16.7378 16.8888 19.8727 14.579 23.6073L19.14 26.4283C21.0047 23.4135 23.5564 20.8828 26.5865 19.0431C29.6167 17.2034 33.0392 16.107 36.5742 15.8435L36.1756 10.4953Z" fill="#AA81FB"/>
<path d="M13.286 25.9412C11.3444 29.8799 10.3626 34.2221 10.4208 38.6129C10.479 43.0037 11.5755 47.3184 13.6207 51.2043L18.3665 48.7064C16.7155 45.5695 15.8303 42.0864 15.7833 38.5419C15.7363 34.9973 16.5289 31.492 18.0963 28.3124L13.286 25.9412Z" fill="#AA81FB"/>
<path d="M15.1102 53.707C17.5504 57.3578 20.82 60.3792 24.6516 62.5242C28.4833 64.6692 32.7682 65.877 37.156 66.0487L37.3657 60.6898C33.8236 60.5512 30.3645 59.5762 27.2714 57.8446C24.1782 56.113 21.5388 53.6739 19.5689 50.7268L15.1102 53.707Z" fill="#AA81FB"/>
<path d="M40.1209 66.0068C44.5021 65.7106 48.751 64.3817 52.5202 62.1287C56.2894 59.8758 59.4718 56.7628 61.8074 53.0442L57.2659 50.1918C55.3805 53.1936 52.8114 55.7067 49.7686 57.5254C46.7259 59.3441 43.2959 60.4169 39.7591 60.6561L40.1209 66.0068Z" fill="#AA81FB"/>
<path d="M63.2023 50.5473C65.1439 46.6087 66.1257 42.2664 66.0675 37.8756C66.0093 33.4848 64.9128 29.1701 62.8676 25.2843L58.1218 27.7821C59.7728 30.919 60.658 34.4021 60.705 37.9467C60.7519 41.4912 59.9594 44.9966 58.392 48.1761L63.2023 50.5473Z" fill="#AA81FB"/>
<path d="M61.0003 22.2307C58.5584 18.7607 55.3554 15.8951 51.6361 13.853C47.9168 11.8109 43.7797 10.6464 39.5413 10.4486L39.2912 15.8058C42.7128 15.9654 46.0525 16.9055 49.055 18.554C52.0575 20.2025 54.6432 22.5158 56.6144 25.317L61.0003 22.2307Z" fill="#AA81FB"/>
</svg>
