<svg width="334" height="74" viewBox="0 0 334 74" fill="none" xmlns="http://www.w3.org/2000/svg">
<path d="M4.088 56.3397V18.3797H10.9013V21.8837H8.07867V52.8357H10.9013V56.3397H4.088ZM57.3518 19.8397V54.3931H52.9718V38.6737H33.9431V54.3931H29.5631V19.8397H33.9431V34.7804H52.9718V19.8397H57.3518Z" fill="#BB65EA"/>
<rect x="73.0608" y="2.60519" width="43.0258" height="68.5758" rx="21.5129" fill="white"/>
<rect x="73.0608" y="2.60519" width="43.0258" height="68.5758" rx="21.5129" stroke="#BB65EA" stroke-width="4.42424"/>
<rect x="93.9653" y="48.3209" width="19.9091" height="19.9091" rx="9.95455" fill="#242330"/>
<rect x="129.359" y="2.60519" width="43.0258" height="68.5758" rx="21.5129" fill="white"/>
<rect x="129.359" y="2.60519" width="43.0258" height="68.5758" rx="21.5129" stroke="#BB65EA" stroke-width="4.42424"/>
<rect x="149.268" y="48.3209" width="19.9091" height="19.9091" rx="9.95455" fill="#242330"/>
<path d="M225.201 54.3931H220.919V40.1824C220.919 37.522 220.481 35.5591 219.605 34.2937C218.761 33.0284 217.496 32.3957 215.809 32.3957C214.089 32.3957 212.532 33.0284 211.137 34.2937C209.742 35.5266 208.752 37.1326 208.168 39.1117V54.3931H203.885V40.1824C203.885 37.4895 203.464 35.5266 202.62 34.2937C201.776 33.0284 200.511 32.3957 198.824 32.3957C197.137 32.3957 195.58 33.0122 194.152 34.2451C192.757 35.4455 191.767 37.0515 191.183 39.0631V54.3931H186.901V28.9891H190.794V34.4397C191.832 32.558 193.179 31.1142 194.833 30.1084C196.488 29.0702 198.354 28.5511 200.43 28.5511C202.539 28.5511 204.226 29.1351 205.491 30.3031C206.757 31.4386 207.535 32.9148 207.827 34.7317C208.963 32.7202 210.342 31.1953 211.964 30.1571C213.586 29.0864 215.436 28.5511 217.512 28.5511C218.972 28.5511 220.189 28.8268 221.162 29.3784C222.168 29.8975 222.963 30.6437 223.547 31.6171C224.131 32.558 224.552 33.6773 224.812 34.9751C225.072 36.2728 225.201 37.6842 225.201 39.2091V54.3931ZM229.865 47.0444C229.865 45.4222 230.319 44.0271 231.228 42.8591C232.169 41.6586 233.45 40.734 235.072 40.0851C236.695 39.4362 238.576 39.1117 240.718 39.1117C241.853 39.1117 243.054 39.2091 244.319 39.4037C245.584 39.566 246.704 39.8255 247.677 40.1824V38.3331C247.677 36.3864 247.093 34.8615 245.925 33.7584C244.757 32.6228 243.102 32.0551 240.961 32.0551C239.566 32.0551 238.219 32.3146 236.922 32.8337C235.656 33.3204 234.31 34.0342 232.882 34.9751L231.325 31.9577C232.98 30.8222 234.634 29.9786 236.289 29.4271C237.944 28.8431 239.663 28.5511 241.448 28.5511C244.692 28.5511 247.255 29.4595 249.137 31.2764C251.019 33.0608 251.96 35.5591 251.96 38.7711V49.5264C251.96 50.0455 252.057 50.4348 252.252 50.6944C252.479 50.9215 252.836 51.0513 253.322 51.0837V54.3931C252.901 54.458 252.527 54.5066 252.203 54.5391C251.911 54.5715 251.668 54.5877 251.473 54.5877C250.467 54.5877 249.705 54.312 249.186 53.7604C248.699 53.2088 248.423 52.6248 248.358 52.0084L248.261 50.4024C247.158 51.83 245.714 52.9331 243.93 53.7117C242.145 54.4904 240.377 54.8797 238.625 54.8797C236.938 54.8797 235.429 54.5391 234.099 53.8577C232.769 53.144 231.731 52.2031 230.984 51.0351C230.238 49.8346 229.865 48.5044 229.865 47.0444ZM246.412 48.8451C246.801 48.3908 247.109 47.9366 247.336 47.4824C247.563 46.9957 247.677 46.5902 247.677 46.2657V43.1024C246.671 42.7131 245.617 42.4211 244.514 42.2264C243.411 41.9993 242.324 41.8857 241.253 41.8857C239.079 41.8857 237.311 42.3237 235.948 43.1997C234.618 44.0433 233.953 45.2113 233.953 46.7037C233.953 47.5148 234.164 48.3097 234.586 49.0884C235.04 49.8346 235.689 50.4511 236.532 50.9377C237.408 51.4244 238.479 51.6677 239.744 51.6677C241.075 51.6677 242.34 51.4082 243.54 50.8891C244.741 50.3375 245.698 49.6562 246.412 48.8451ZM280.854 54.3931H276.571V40.1824C276.571 37.4895 276.149 35.5266 275.306 34.2937C274.494 33.0284 273.245 32.3957 271.558 32.3957C270.39 32.3957 269.222 32.6877 268.054 33.2717C266.919 33.8557 265.897 34.6506 264.988 35.6564C264.112 36.6297 263.48 37.7653 263.09 39.0631V54.3931H258.808V28.9891H262.701V34.4397C263.382 33.2393 264.258 32.2011 265.329 31.3251C266.4 30.4491 267.616 29.7677 268.979 29.2811C270.342 28.7944 271.769 28.5511 273.262 28.5511C274.722 28.5511 275.938 28.8268 276.912 29.3784C277.917 29.8975 278.696 30.6437 279.248 31.6171C279.832 32.558 280.237 33.6773 280.464 34.9751C280.724 36.2728 280.854 37.6842 280.854 39.2091V54.3931ZM296.225 54.8797C294.116 54.8797 292.137 54.5391 290.287 53.8577C288.438 53.144 286.848 52.0895 285.518 50.6944L287.173 47.6771C288.633 49.0397 290.093 50.0131 291.553 50.5971C293.013 51.1811 294.505 51.4731 296.03 51.4731C297.782 51.4731 299.21 51.1486 300.313 50.4997C301.416 49.8184 301.967 48.8288 301.967 47.5311C301.967 46.5902 301.675 45.8926 301.091 45.4384C300.54 44.9842 299.745 44.6111 298.707 44.3191C297.668 43.9946 296.436 43.6377 295.008 43.2484C293.256 42.7293 291.78 42.1777 290.579 41.5937C289.379 41.0097 288.47 40.2797 287.854 39.4037C287.238 38.5277 286.929 37.4246 286.929 36.0944C286.929 34.4722 287.351 33.1095 288.195 32.0064C289.038 30.8708 290.19 30.0111 291.65 29.4271C293.142 28.8431 294.83 28.5511 296.711 28.5511C298.593 28.5511 300.296 28.8431 301.821 29.4271C303.346 30.0111 304.66 30.8708 305.763 32.0064L303.817 34.9751C302.811 33.9368 301.708 33.1744 300.507 32.6877C299.307 32.1686 297.96 31.9091 296.468 31.9091C295.592 31.9091 294.732 32.0226 293.889 32.2497C293.045 32.4444 292.348 32.8175 291.796 33.3691C291.244 33.8882 290.969 34.6344 290.969 35.6077C290.969 36.4188 291.18 37.0677 291.601 37.5544C292.056 38.0086 292.704 38.398 293.548 38.7224C294.424 39.0468 295.478 39.4037 296.711 39.7931C298.626 40.3446 300.28 40.8962 301.675 41.4477C303.103 41.9993 304.206 42.7131 304.985 43.5891C305.763 44.4651 306.153 45.6817 306.153 47.2391C306.153 49.64 305.244 51.5217 303.427 52.8844C301.61 54.2146 299.21 54.8797 296.225 54.8797ZM322.369 56.3397V52.8357H325.192V21.8837H322.369V18.3797H329.182V56.3397H322.369Z" fill="#BB65EA"/>
</svg>
