<svg width="300" height="200" viewBox="0 0 300 200" fill="none" xmlns="http://www.w3.org/2000/svg">
<g id="Frame 427320291">
<g clip-path="url(#clip0_965_3969)">
<rect y="0.207031" width="299.796" height="198.964" rx="21.6069" fill="white"/>
<g id="TruthWorthy Websites tend to have healthier conversion by Using [ Maximum ] potential of Marketing Compared to traditional recommendation">
<path d="M14.6259 30.6682V28.4527H26.6637V30.6682H22.0743V43.8138H19.2258V30.6682H14.6259ZM27.0752 43.8138V32.9471H29.6916L29.7549 34.2448H29.8077C30.0539 33.8087 30.3844 33.4359 30.7994 33.1264C31.2214 32.8169 31.7067 32.6622 32.2553 32.6622C32.4101 32.6622 32.5648 32.6798 32.7196 32.715C32.8813 32.7431 32.9974 32.7712 33.0677 32.7994V35.1626C32.9411 35.1275 32.8004 35.1028 32.6457 35.0888C32.498 35.0677 32.3327 35.0571 32.1498 35.0571C31.6294 35.0571 31.1652 35.2083 30.7572 35.5108C30.3493 35.8132 30.0433 36.1965 29.8393 36.6608V43.8138H27.0752ZM34.6081 39.7731V32.9471H37.3617V39.7731C37.3617 40.5608 37.527 41.113 37.8575 41.4295C38.1881 41.739 38.6453 41.8937 39.2291 41.8937C39.7425 41.8937 40.1962 41.746 40.5901 41.4506C40.991 41.1552 41.2969 40.7859 41.5079 40.3428V32.9471H44.2616V43.8138H41.6662L41.5923 42.4951H41.5501C41.2055 42.9663 40.7483 43.3426 40.1786 43.6239C39.6159 43.8982 38.9829 44.0354 38.2796 44.0354C37.1894 44.0354 36.3031 43.7083 35.6209 43.0542C34.9457 42.4001 34.6081 41.3064 34.6081 39.7731ZM45.6436 34.9727V32.9471H52.3009V34.9727H45.6436ZM47.3844 40.7226V33.9282L47.4055 33.6539V30.1512H50.117V40.5855C50.117 41.127 50.2119 41.4963 50.4018 41.6932C50.5987 41.8902 50.8836 41.9886 51.2564 41.9886C51.4252 41.9886 51.594 41.9711 51.7628 41.9359C51.9386 41.8937 52.1074 41.8409 52.2692 41.7776V43.8033C52.1004 43.8807 51.8613 43.951 51.5518 44.0143C51.2493 44.0776 50.9117 44.1093 50.539 44.1093C49.5754 44.1093 48.8087 43.8385 48.239 43.2969C47.6693 42.7553 47.3844 41.8972 47.3844 40.7226ZM54.1049 43.8138V27.7774H56.848V34.3608C57.1856 33.8755 57.6358 33.4816 58.1985 33.1792C58.7611 32.8767 59.4328 32.7255 60.2136 32.7255C61.2404 32.7255 62.081 33.0455 62.7351 33.6856C63.3962 34.3186 63.7268 35.3596 63.7268 36.8085V43.8138H60.9732V36.9773C60.9732 36.2177 60.8044 35.6796 60.4668 35.3631C60.1292 35.0395 59.6649 34.8778 59.0741 34.8778C58.5607 34.8778 58.1141 35.022 57.7342 35.3103C57.3544 35.5917 57.0625 35.982 56.8586 36.4814V43.8138H54.1049ZM68.9914 43.8771L65.341 28.4527H68.1474L70.5317 39.1401C70.581 39.3581 70.6161 39.541 70.6372 39.6887C70.6654 39.8364 70.69 40.0263 70.7111 40.2584H70.806C70.8342 40.0263 70.8588 39.8364 70.8799 39.6887C70.901 39.541 70.9361 39.3581 70.9854 39.1401L73.6018 28.4527H76.6087L79.2884 39.1295C79.3447 39.3546 79.3799 39.541 79.3939 39.6887C79.415 39.8364 79.4397 40.0263 79.4678 40.2584H79.5522C79.5803 40.0263 79.6049 39.8364 79.626 39.6887C79.6542 39.534 79.6894 39.3476 79.7316 39.1295L82.0315 28.4527H84.5952L80.987 43.8771H77.9591L75.2371 33.1686C75.1879 32.9506 75.1422 32.7431 75.1 32.5462C75.0648 32.3492 75.0332 32.1347 75.005 31.9026H74.9312C74.903 32.1347 74.8714 32.3492 74.8362 32.5462C74.8011 32.7431 74.7553 32.9506 74.6991 33.1686L71.9771 43.8771H68.9914ZM85.3337 38.5387V38.2011C85.3337 36.5201 85.8366 35.1732 86.8424 34.1603C87.8553 33.1405 89.1846 32.6306 90.8304 32.6306C92.4692 32.6306 93.7915 33.1405 94.7973 34.1603C95.8102 35.1732 96.3166 36.5201 96.3166 38.2011V38.5387C96.3166 40.2268 95.8102 41.5807 94.7973 42.6006C93.7915 43.6134 92.4692 44.1198 90.8304 44.1198C89.1846 44.1198 87.8553 43.6134 86.8424 42.6006C85.8366 41.5807 85.3337 40.2268 85.3337 38.5387ZM88.1507 38.0956V38.6442C88.1507 39.6781 88.3793 40.4975 88.8364 41.1024C89.2936 41.7073 89.9583 42.0097 90.8304 42.0097C91.6956 42.0097 92.3567 41.7073 92.8139 41.1024C93.2711 40.4975 93.4996 39.6781 93.4996 38.6442V38.0956C93.4996 37.0687 93.2675 36.2528 92.8033 35.6479C92.3462 35.0431 91.6885 34.7406 90.8304 34.7406C89.9653 34.7406 89.3006 35.0431 88.8364 35.6479C88.3793 36.2528 88.1507 37.0687 88.1507 38.0956ZM98.4372 43.8138V32.9471H101.054L101.117 34.2448H101.17C101.416 33.8087 101.746 33.4359 102.161 33.1264C102.583 32.8169 103.069 32.6622 103.617 32.6622C103.772 32.6622 103.927 32.6798 104.082 32.715C104.243 32.7431 104.359 32.7712 104.43 32.7994V35.1626C104.303 35.1275 104.162 35.1028 104.008 35.0888C103.86 35.0677 103.695 35.0571 103.512 35.0571C102.991 35.0571 102.527 35.2083 102.119 35.5108C101.711 35.8132 101.405 36.1965 101.201 36.6608V43.8138H98.4372ZM105.232 34.9727V32.9471H111.889V34.9727H105.232ZM106.972 40.7226V33.9282L106.993 33.6539V30.1512H109.705V40.5855C109.705 41.127 109.8 41.4963 109.99 41.6932C110.187 41.8902 110.472 41.9886 110.844 41.9886C111.013 41.9886 111.182 41.9711 111.351 41.9359C111.527 41.8937 111.695 41.8409 111.857 41.7776V43.8033C111.688 43.8807 111.449 43.951 111.14 44.0143C110.837 44.0776 110.5 44.1093 110.127 44.1093C109.163 44.1093 108.397 43.8385 107.827 43.2969C107.257 42.7553 106.972 41.8972 106.972 40.7226ZM113.693 43.8138V27.7774H116.436V34.3608C116.774 33.8755 117.224 33.4816 117.786 33.1792C118.349 32.8767 119.021 32.7255 119.801 32.7255C120.828 32.7255 121.669 33.0455 122.323 33.6856C122.984 34.3186 123.315 35.3596 123.315 36.8085V43.8138H120.561V36.9773C120.561 36.2177 120.392 35.6796 120.055 35.3631C119.717 35.0395 119.253 34.8778 118.662 34.8778C118.149 34.8778 117.702 35.022 117.322 35.3103C116.942 35.5917 116.65 35.982 116.446 36.4814V43.8138H113.693ZM125.361 48.1922L125.383 46.1349C125.565 46.1912 125.766 46.2334 125.984 46.2615C126.209 46.2967 126.424 46.3143 126.627 46.3143C127.113 46.3143 127.531 46.1455 127.883 45.8078C128.242 45.4702 128.572 44.795 128.875 43.7822H128.822L124.633 32.9471H127.387L129.708 39.541C129.807 39.8012 129.884 40.0404 129.94 40.2584C129.997 40.4764 130.049 40.691 130.099 40.902H130.162C130.211 40.691 130.264 40.4764 130.32 40.2584C130.383 40.0404 130.457 39.7977 130.542 39.5304L132.799 32.9471H135.3L130.848 45.0693C130.433 46.1877 129.902 47.0246 129.255 47.5803C128.614 48.1359 127.82 48.4138 126.87 48.4138C126.547 48.4138 126.265 48.3962 126.026 48.361C125.787 48.3258 125.565 48.2696 125.361 48.1922ZM144.405 43.8771L140.754 28.4527H143.561L145.945 39.1401C145.994 39.3581 146.029 39.541 146.051 39.6887C146.079 39.8364 146.103 40.0263 146.124 40.2584H146.219C146.247 40.0263 146.272 39.8364 146.293 39.6887C146.314 39.541 146.349 39.3581 146.399 39.1401L149.015 28.4527H152.022L154.702 39.1295C154.758 39.3546 154.793 39.541 154.807 39.6887C154.828 39.8364 154.853 40.0263 154.881 40.2584H154.966C154.994 40.0263 155.018 39.8364 155.039 39.6887C155.067 39.534 155.103 39.3476 155.145 39.1295L157.445 28.4527H160.009L156.4 43.8771H153.372L150.65 33.1686C150.601 32.9506 150.555 32.7431 150.513 32.5462C150.478 32.3492 150.446 32.1347 150.418 31.9026H150.344C150.316 32.1347 150.285 32.3492 150.25 32.5462C150.214 32.7431 150.169 32.9506 150.112 33.1686L147.39 43.8771H144.405ZM160.747 38.5387V38.2011C160.747 36.5342 161.236 35.1908 162.214 34.1709C163.198 33.144 164.475 32.6306 166.043 32.6306C167.612 32.6306 168.832 33.1124 169.704 34.0759C170.576 35.0325 171.012 36.3513 171.012 38.0323V39.0029H162.519V37.241H168.29V37.0195C168.29 36.3654 168.101 35.8097 167.721 35.3525C167.341 34.8954 166.785 34.6668 166.054 34.6668C165.21 34.6668 164.573 34.9833 164.144 35.6163C163.715 36.2423 163.501 37.0582 163.501 38.0639V38.6337C163.501 39.6535 163.729 40.48 164.186 41.113C164.651 41.739 165.34 42.0519 166.254 42.0519C166.866 42.0519 167.394 41.9113 167.837 41.6299C168.28 41.3416 168.635 41.004 168.902 40.6171L170.865 41.8198C170.52 42.4599 169.954 43.005 169.166 43.4551C168.378 43.8982 167.422 44.1198 166.296 44.1198C164.545 44.1198 163.181 43.6099 162.203 42.59C161.232 41.5631 160.747 40.2127 160.747 38.5387ZM173.028 43.8138V27.7774H175.771V34.1498C176.115 33.7067 176.551 33.3585 177.079 33.1053C177.606 32.8521 178.225 32.7255 178.936 32.7255C180.328 32.7255 181.436 33.2354 182.259 34.2553C183.082 35.2681 183.493 36.5764 183.493 38.18V38.5176C183.493 40.1353 183.078 41.4576 182.248 42.4845C181.419 43.5114 180.311 44.0248 178.925 44.0248C178.208 44.0248 177.561 43.8842 176.984 43.6028C176.407 43.3215 175.992 42.9628 175.739 42.5267H175.686L175.623 43.8138H173.028ZM175.771 40.2901C175.954 40.7191 176.249 41.1024 176.657 41.44C177.065 41.7706 177.578 41.9359 178.197 41.9359C179.041 41.9359 179.664 41.6229 180.065 40.9969C180.473 40.3709 180.677 39.5726 180.677 38.602V38.1167C180.677 37.1531 180.476 36.3654 180.075 35.7534C179.674 35.1345 179.041 34.825 178.176 34.825C177.571 34.825 177.065 34.9938 176.657 35.3314C176.249 35.662 175.954 36.0418 175.771 36.4709V40.2901ZM184.97 40.4378L187.64 40.4483V40.596C187.64 41.1517 187.83 41.5596 188.209 41.8198C188.596 42.0801 189.113 42.2102 189.76 42.2102C190.407 42.2102 190.903 42.0871 191.248 41.8409C191.593 41.5948 191.765 41.2677 191.765 40.8598C191.765 40.4448 191.596 40.1353 191.258 39.9313C190.921 39.7203 190.172 39.4882 189.011 39.235C187.759 38.9678 186.82 38.5704 186.194 38.0428C185.575 37.5083 185.266 36.7979 185.266 35.9117C185.266 34.9129 185.667 34.1181 186.469 33.5273C187.277 32.9295 188.371 32.6306 189.75 32.6306C191.114 32.6306 192.204 32.9365 193.02 33.5484C193.843 34.1533 194.255 34.9868 194.255 36.0488V36.1754H191.596V36.0172C191.596 35.553 191.441 35.1943 191.132 34.9411C190.829 34.6879 190.362 34.5613 189.729 34.5613C189.11 34.5613 188.656 34.6703 188.368 34.8883C188.086 35.0993 187.946 35.3842 187.946 35.7429C187.946 36.0875 188.121 36.3654 188.473 36.5764C188.825 36.7803 189.584 37.0054 190.752 37.2516C192.011 37.5189 192.946 37.9162 193.558 38.4438C194.177 38.9642 194.487 39.6957 194.487 40.6382C194.487 41.7143 194.089 42.5654 193.295 43.1914C192.5 43.8103 191.325 44.1198 189.771 44.1198C188.23 44.1198 187.045 43.8068 186.215 43.1808C185.392 42.5548 184.977 41.6792 184.97 40.5538V40.4378ZM196.671 43.8138V32.9471H199.435V43.8138H196.671ZM196.418 29.7081C196.418 29.2861 196.558 28.9309 196.84 28.6426C197.128 28.3472 197.532 28.1994 198.053 28.1994C198.58 28.1994 198.985 28.3472 199.266 28.6426C199.547 28.9309 199.688 29.2861 199.688 29.7081C199.688 30.1372 199.544 30.4994 199.256 30.7948C198.974 31.0832 198.57 31.2274 198.042 31.2274C197.522 31.2274 197.121 31.0832 196.84 30.7948C196.558 30.4994 196.418 30.1372 196.418 29.7081ZM200.859 34.9727V32.9471H207.516V34.9727H200.859ZM202.6 40.7226V33.9282L202.621 33.6539V30.1512H205.332V40.5855C205.332 41.127 205.427 41.4963 205.617 41.6932C205.814 41.8902 206.099 41.9886 206.472 41.9886C206.641 41.9886 206.81 41.9711 206.978 41.9359C207.154 41.8937 207.323 41.8409 207.485 41.7776V43.8033C207.316 43.8807 207.077 43.951 206.767 44.0143C206.465 44.0776 206.127 44.1093 205.754 44.1093C204.791 44.1093 204.024 43.8385 203.455 43.2969C202.885 42.7553 202.6 41.8972 202.6 40.7226ZM208.709 38.5387V38.2011C208.709 36.5342 209.197 35.1908 210.175 34.1709C211.16 33.144 212.436 32.6306 214.005 32.6306C215.573 32.6306 216.794 33.1124 217.666 34.0759C218.538 35.0325 218.974 36.3513 218.974 38.0323V39.0029H210.481V37.241H216.252V37.0195C216.252 36.3654 216.062 35.8097 215.682 35.3525C215.302 34.8954 214.747 34.6668 214.015 34.6668C213.171 34.6668 212.535 34.9833 212.106 35.6163C211.677 36.2423 211.462 37.0582 211.462 38.0639V38.6337C211.462 39.6535 211.691 40.48 212.148 41.113C212.612 41.739 213.301 42.0519 214.216 42.0519C214.828 42.0519 215.355 41.9113 215.798 41.6299C216.241 41.3416 216.597 41.004 216.864 40.6171L218.826 41.8198C218.482 42.4599 217.915 43.005 217.128 43.4551C216.34 43.8982 215.383 44.1198 214.258 44.1198C212.507 44.1198 211.142 43.6099 210.165 42.59C209.194 41.5631 208.709 40.2127 208.709 38.5387ZM220.356 40.4378L223.025 40.4483V40.596C223.025 41.1517 223.215 41.5596 223.595 41.8198C223.982 42.0801 224.499 42.2102 225.146 42.2102C225.793 42.2102 226.289 42.0871 226.633 41.8409C226.978 41.5948 227.15 41.2677 227.15 40.8598C227.15 40.4448 226.982 40.1353 226.644 39.9313C226.306 39.7203 225.557 39.4882 224.397 39.235C223.145 38.9678 222.206 38.5704 221.58 38.0428C220.961 37.5083 220.651 36.7979 220.651 35.9117C220.651 34.9129 221.052 34.1181 221.854 33.5273C222.663 32.9295 223.757 32.6306 225.135 32.6306C226.5 32.6306 227.59 32.9365 228.406 33.5484C229.229 34.1533 229.64 34.9868 229.64 36.0488V36.1754H226.982V36.0172C226.982 35.553 226.827 35.1943 226.517 34.9411C226.215 34.6879 225.747 34.5613 225.114 34.5613C224.495 34.5613 224.042 34.6703 223.753 34.8883C223.472 35.0993 223.331 35.3842 223.331 35.7429C223.331 36.0875 223.507 36.3654 223.859 36.5764C224.21 36.7803 224.97 37.0054 226.138 37.2516C227.397 37.5189 228.332 37.9162 228.944 38.4438C229.563 38.9642 229.872 39.6957 229.872 40.6382C229.872 41.7143 229.475 42.5654 228.68 43.1914C227.885 43.8103 226.711 44.1198 225.156 44.1198C223.616 44.1198 222.431 43.8068 221.601 43.1808C220.778 42.5548 220.363 41.6792 220.356 40.5538V40.4378ZM235.823 34.9727V32.9471H242.48V34.9727H235.823ZM237.564 40.7226V33.9282L237.585 33.6539V30.1512H240.296V40.5855C240.296 41.127 240.391 41.4963 240.581 41.6932C240.778 41.8902 241.063 41.9886 241.435 41.9886C241.604 41.9886 241.773 41.9711 241.942 41.9359C242.118 41.8937 242.287 41.8409 242.448 41.7776V43.8033C242.28 43.8807 242.04 43.951 241.731 44.0143C241.428 44.0776 241.091 44.1093 240.718 44.1093C239.754 44.1093 238.988 43.8385 238.418 43.2969C237.848 42.7553 237.564 41.8972 237.564 40.7226ZM243.672 38.5387V38.2011C243.672 36.5342 244.161 35.1908 245.139 34.1709C246.123 33.144 247.4 32.6306 248.968 32.6306C250.537 32.6306 251.757 33.1124 252.629 34.0759C253.501 35.0325 253.938 36.3513 253.938 38.0323V39.0029H245.445V37.241H251.216V37.0195C251.216 36.3654 251.026 35.8097 250.646 35.3525C250.266 34.8954 249.71 34.6668 248.979 34.6668C248.135 34.6668 247.498 34.9833 247.069 35.6163C246.64 36.2423 246.426 37.0582 246.426 38.0639V38.6337C246.426 39.6535 246.654 40.48 247.112 41.113C247.576 41.739 248.265 42.0519 249.179 42.0519C249.791 42.0519 250.319 41.9113 250.762 41.6299C251.205 41.3416 251.56 41.004 251.828 40.6171L253.79 41.8198C253.445 42.4599 252.879 43.005 252.091 43.4551C251.304 43.8982 250.347 44.1198 249.222 44.1198C247.47 44.1198 246.106 43.6099 245.128 42.59C244.157 41.5631 243.672 40.2127 243.672 38.5387ZM255.953 43.8138V32.9471H258.559L258.611 34.2659H258.664C258.981 33.8016 259.42 33.4289 259.983 33.1475C260.553 32.8591 261.189 32.715 261.892 32.715C262.997 32.715 263.89 33.0315 264.572 33.6645C265.262 34.2905 265.606 35.3666 265.606 36.8929V43.8138H262.853V36.914C262.853 36.1754 262.691 35.6515 262.367 35.342C262.044 35.0325 261.587 34.8778 260.996 34.8778C260.496 34.8778 260.043 35.0184 259.635 35.2998C259.227 35.5741 258.917 35.9504 258.706 36.4287V43.8138H255.953ZM267.621 38.5493V38.2117C267.621 36.608 268.047 35.2963 268.898 34.2764C269.756 33.2495 270.881 32.7361 272.274 32.7361C272.998 32.7361 273.621 32.8627 274.141 33.1159C274.662 33.3691 275.066 33.7032 275.355 34.1181V27.7774H278.087V43.8138H275.502L275.439 42.4634H275.386C275.133 42.9065 274.732 43.2793 274.184 43.5817C273.635 43.8771 272.998 44.0248 272.274 44.0248C270.839 44.0248 269.703 43.5149 268.866 42.4951C268.036 41.4682 267.621 40.1529 267.621 38.5493ZM270.428 38.6231C270.428 39.5937 270.635 40.3885 271.05 41.0075C271.472 41.6264 272.112 41.9359 272.97 41.9359C273.547 41.9359 274.039 41.7776 274.447 41.4611C274.855 41.1376 275.154 40.7648 275.344 40.3428V36.397C275.161 35.968 274.869 35.5987 274.468 35.2892C274.067 34.9798 273.568 34.825 272.97 34.825C272.119 34.825 271.483 35.1345 271.061 35.7534C270.639 36.3724 270.428 37.1637 270.428 38.1272V38.6231ZM14.4148 64.9727V62.9471H21.0721V64.9727H14.4148ZM16.1556 70.7226V63.9282L16.1767 63.6539V60.1512H18.8882V70.5855C18.8882 71.127 18.9831 71.4963 19.173 71.6932C19.37 71.8902 19.6548 71.9886 20.0276 71.9886C20.1964 71.9886 20.3652 71.9711 20.534 71.9359C20.7098 71.8937 20.8786 71.8409 21.0404 71.7776V73.8033C20.8716 73.8807 20.6325 73.951 20.323 74.0143C20.0206 74.0776 19.6829 74.1093 19.3102 74.1093C18.3466 74.1093 17.5799 73.8385 17.0102 73.2969C16.4405 72.7553 16.1556 71.8972 16.1556 70.7226ZM22.0532 68.5387V68.2011C22.0532 66.5201 22.5561 65.1732 23.5619 64.1603C24.5748 63.1405 25.9041 62.6306 27.5499 62.6306C29.1887 62.6306 30.511 63.1405 31.5168 64.1603C32.5297 65.1732 33.0361 66.5201 33.0361 68.2011V68.5387C33.0361 70.2268 32.5297 71.5807 31.5168 72.6006C30.511 73.6134 29.1887 74.1198 27.5499 74.1198C25.9041 74.1198 24.5748 73.6134 23.5619 72.6006C22.5561 71.5807 22.0532 70.2268 22.0532 68.5387ZM24.8702 68.0956V68.6442C24.8702 69.6781 25.0988 70.4975 25.5559 71.1024C26.0131 71.7073 26.6778 72.0097 27.5499 72.0097C28.4151 72.0097 29.0762 71.7073 29.5334 71.1024C29.9906 70.4975 30.2191 69.6781 30.2191 68.6442V68.0956C30.2191 67.0687 29.987 66.2528 29.5228 65.6479C29.0657 65.0431 28.408 64.7406 27.5499 64.7406C26.6848 64.7406 26.0201 65.0431 25.5559 65.6479C25.0988 66.2528 24.8702 67.0687 24.8702 68.0956ZM40.3263 73.8138V57.7774H43.0694V64.3608C43.407 63.8755 43.8571 63.4816 44.4198 63.1792C44.9825 62.8767 45.6542 62.7255 46.4349 62.7255C47.4618 62.7255 48.3023 63.0455 48.9564 63.6856C49.6176 64.3186 49.9481 65.3596 49.9481 66.8085V73.8138H47.1945V66.9773C47.1945 66.2177 47.0257 65.6796 46.6881 65.3631C46.3505 65.0395 45.8863 64.8778 45.2955 64.8778C44.782 64.8778 44.3354 65.022 43.9556 65.3103C43.5758 65.5917 43.2839 65.982 43.0799 66.4814V73.8138H40.3263ZM52.0371 70.6277C52.0371 69.4671 52.4908 68.5809 53.3981 67.969C54.3054 67.35 55.4589 67.0406 56.8586 67.0406H59.1585V66.3548C59.1585 65.8062 59.0179 65.3666 58.7365 65.036C58.4552 64.7054 57.9699 64.5402 57.2806 64.5402C56.5913 64.5402 56.0954 64.6808 55.793 64.9622C55.4906 65.2365 55.3393 65.5741 55.3393 65.975V66.1227H52.649V65.9644C52.649 65.022 53.0816 64.2342 53.9467 63.6012C54.8189 62.9611 55.9688 62.6411 57.3966 62.6411C58.8244 62.6411 59.9322 62.9471 60.72 63.559C61.5148 64.1639 61.9122 65.1064 61.9122 66.3865V71.3345C61.9122 71.7847 61.9473 72.2102 62.0177 72.6111C62.095 73.012 62.204 73.3567 62.3447 73.645V73.8138H59.6438C59.5524 73.645 59.4715 73.427 59.4012 73.1597C59.3309 72.8925 59.2851 72.6287 59.264 72.3685C59.0319 72.7975 58.617 73.1808 58.0191 73.5184C57.4283 73.849 56.6827 74.0143 55.7824 74.0143C54.7134 74.0143 53.8201 73.7294 53.1027 73.1597C52.3923 72.59 52.0371 71.746 52.0371 70.6277ZM54.7907 70.4167C54.7907 70.9442 54.9419 71.3627 55.2444 71.6721C55.5539 71.9746 56.0286 72.1258 56.6687 72.1258C57.3439 72.1258 57.9277 71.9042 58.42 71.4611C58.9124 71.011 59.1585 70.4975 59.1585 69.9208V68.7286H57.3017C56.4577 68.7286 55.8282 68.8763 55.4132 69.1717C54.9982 69.4601 54.7907 69.8751 54.7907 70.4167ZM63.0305 62.9471H65.7841L68.1368 69.5937C68.2282 69.854 68.2986 70.0966 68.3478 70.3217C68.4041 70.5397 68.4498 70.7332 68.485 70.902H68.5483C68.5764 70.7332 68.6186 70.5397 68.6749 70.3217C68.7311 70.1037 68.8015 69.861 68.8859 69.5937L71.2491 62.9471H73.7601L69.6244 73.8138H67.1767L63.0305 62.9471ZM74.256 68.5387V68.2011C74.256 66.5342 74.7448 65.1908 75.7224 64.1709C76.7071 63.144 77.9837 62.6306 79.5522 62.6306C81.1207 62.6306 82.341 63.1124 83.2131 64.0759C84.0853 65.0325 84.5214 66.3513 84.5214 68.0323V69.0029H76.0284V67.241H81.7994V67.0195C81.7994 66.3654 81.6095 65.8097 81.2297 65.3525C80.8499 64.8954 80.2942 64.6668 79.5627 64.6668C78.7187 64.6668 78.0822 64.9833 77.6531 65.6163C77.2241 66.2423 77.0096 67.0582 77.0096 68.0639V68.6337C77.0096 69.6535 77.2382 70.48 77.6953 71.113C78.1596 71.739 78.8488 72.0519 79.7632 72.0519C80.3751 72.0519 80.9026 71.9113 81.3457 71.6299C81.7889 71.3416 82.144 71.004 82.4113 70.6171L84.3737 71.8198C84.029 72.4599 83.4628 73.005 82.6751 73.4551C81.8873 73.8982 80.9308 74.1198 79.8054 74.1198C78.0541 74.1198 76.6896 73.6099 75.7119 72.59C74.7413 71.5631 74.256 70.2127 74.256 68.5387ZM15.3151 91.8138V82.3608H16.4783V86.1026C16.7122 85.8154 17.0076 85.5877 17.3645 85.4195C17.7215 85.2472 18.1113 85.161 18.5338 85.161C19.1616 85.161 19.6724 85.3498 20.0663 85.7272C20.4643 86.1047 20.6632 86.7365 20.6632 87.6227V91.8138H19.5001V87.6104C19.5001 87.0853 19.3811 86.7099 19.1431 86.4842C18.9052 86.2585 18.5687 86.1457 18.1338 86.1457C17.7605 86.1457 17.4302 86.2462 17.143 86.4473C16.8599 86.6442 16.6383 86.9006 16.4783 87.2166V91.8138H15.3151ZM22.0418 88.6505V88.4536C22.0418 87.4689 22.3147 86.6647 22.8603 86.0411C23.406 85.4133 24.1281 85.0995 25.0267 85.0995C25.9252 85.0995 26.6165 85.3928 27.1007 85.9795C27.5889 86.5622 27.833 87.3499 27.833 88.3428V88.8167H22.7557V87.8935H26.6637V87.7828C26.6637 87.2986 26.5304 86.8904 26.2637 86.5581C25.997 86.2216 25.597 86.0534 25.0636 86.0534C24.4523 86.0534 23.9927 86.2852 23.685 86.7488C23.3814 87.2125 23.2296 87.7807 23.2296 88.4536V88.6505C23.2296 89.3193 23.3896 89.8855 23.7096 90.3491C24.0338 90.8127 24.5364 91.0446 25.2174 91.0446C25.6359 91.0446 25.9949 90.9543 26.2944 90.7738C26.5981 90.5932 26.8422 90.3799 27.0268 90.1337L27.7776 90.7368C27.5725 91.0446 27.2504 91.3318 26.8114 91.5984C26.3724 91.8651 25.8411 91.9985 25.2174 91.9985C24.1917 91.9985 23.406 91.6867 22.8603 91.063C22.3147 90.4394 22.0418 89.6352 22.0418 88.6505ZM28.8793 89.8937C28.8793 89.229 29.1439 88.7141 29.6732 88.349C30.2065 87.9797 30.8835 87.7951 31.7041 87.7951H33.2058V87.3273C33.2058 86.9458 33.1011 86.634 32.8919 86.3919C32.6867 86.1498 32.3318 86.0288 31.8272 86.0288C31.3225 86.0288 30.9615 86.1314 30.744 86.3365C30.5307 86.5375 30.424 86.7735 30.424 87.0442V87.075H29.267V87.0442C29.267 86.5232 29.4988 86.0698 29.9624 85.6841C30.4302 85.2944 31.062 85.0995 31.858 85.0995C32.6539 85.0995 33.2693 85.2862 33.7043 85.6595C34.1433 86.0329 34.3628 86.5888 34.3628 87.3273V90.3368C34.3628 90.6035 34.3833 90.8558 34.4243 91.0938C34.4694 91.3277 34.5289 91.5348 34.6028 91.7154V91.8138H33.4765C33.4191 91.7113 33.3658 91.5779 33.3165 91.4138C33.2714 91.2456 33.2427 91.0794 33.2304 90.9153C33.0745 91.182 32.8221 91.42 32.4734 91.6292C32.1287 91.8344 31.6836 91.9369 31.1379 91.9369C30.5102 91.9369 29.9768 91.7626 29.5378 91.4138C29.0988 91.061 28.8793 90.5543 28.8793 89.8937ZM30.0424 89.8322C30.0424 90.2014 30.1512 90.4907 30.3686 90.6999C30.5861 90.9051 30.9266 91.0076 31.3902 91.0076C31.8497 91.0076 32.2662 90.8517 32.6396 90.5399C33.017 90.2281 33.2058 89.8978 33.2058 89.5491V88.6197H31.8272C31.2405 88.6197 30.7953 88.7285 30.4917 88.9459C30.1922 89.1634 30.0424 89.4588 30.0424 89.8322ZM36.2152 91.8138V82.3608H37.3784V91.8138H36.2152ZM38.3446 86.1826V85.2841H42.1049V86.1826H38.3446ZM39.5201 90.1953V85.8257V85.6411V83.7394H40.6833V90.1953C40.6833 90.4825 40.7407 90.6876 40.8556 90.8107C40.9746 90.9338 41.1592 90.9953 41.4095 90.9953C41.5284 90.9953 41.6433 90.983 41.7541 90.9584C41.8649 90.9338 41.9798 90.901 42.0987 90.8599V91.8138C41.988 91.8631 41.8444 91.9062 41.6679 91.9431C41.4956 91.98 41.3069 91.9985 41.1017 91.9985C40.6217 91.9985 40.2381 91.8549 39.9509 91.5677C39.6637 91.2764 39.5201 90.8189 39.5201 90.1953ZM43.3296 91.8138V82.3608H44.4928V86.1026C44.7266 85.8154 45.0221 85.5877 45.379 85.4195C45.736 85.2472 46.1257 85.161 46.5483 85.161C47.1761 85.161 47.6869 85.3498 48.0808 85.7272C48.4787 86.1047 48.6777 86.7365 48.6777 87.6227V91.8138H47.5146V87.6104C47.5146 87.0853 47.3956 86.7099 47.1576 86.4842C46.9196 86.2585 46.5832 86.1457 46.1483 86.1457C45.7749 86.1457 45.4446 86.2462 45.1574 86.4473C44.8743 86.6442 44.6528 86.9006 44.4928 87.2166V91.8138H43.3296ZM50.4994 91.8138V85.2841H51.6626V91.8138H50.4994ZM50.364 83.3393C50.364 83.1465 50.4255 82.9844 50.5486 82.8531C50.6717 82.7219 50.8481 82.6562 51.0779 82.6562C51.3118 82.6562 51.4902 82.7219 51.6133 82.8531C51.7364 82.9844 51.798 83.1465 51.798 83.3393C51.798 83.5363 51.7364 83.7004 51.6133 83.8317C51.4902 83.963 51.3118 84.0286 51.0779 84.0286C50.8481 84.0286 50.6717 83.963 50.5486 83.8317C50.4255 83.7004 50.364 83.5363 50.364 83.3393ZM53.1581 88.6505V88.4536C53.1581 87.4689 53.4309 86.6647 53.9766 86.0411C54.5223 85.4133 55.2444 85.0995 56.1429 85.0995C57.0414 85.0995 57.7328 85.3928 58.2169 85.9795C58.7052 86.5622 58.9493 87.3499 58.9493 88.3428V88.8167H53.872V87.8935H57.78V87.7828C57.78 87.2986 57.6466 86.8904 57.3799 86.5581C57.1132 86.2216 56.7132 86.0534 56.1798 86.0534C55.5685 86.0534 55.109 86.2852 54.8013 86.7488C54.4977 87.2125 54.3459 87.7807 54.3459 88.4536V88.6505C54.3459 89.3193 54.5059 89.8855 54.8259 90.3491C55.15 90.8127 55.6526 91.0446 56.3337 91.0446C56.7522 91.0446 57.1112 90.9543 57.4107 90.7738C57.7143 90.5932 57.9584 90.3799 58.1431 90.1337L58.8939 90.7368C58.6888 91.0446 58.3667 91.3318 57.9277 91.5984C57.4887 91.8651 56.9573 91.9985 56.3337 91.9985C55.308 91.9985 54.5223 91.6867 53.9766 91.063C53.4309 90.4394 53.1581 89.6352 53.1581 88.6505ZM60.3525 91.8138V85.2841H61.4049L61.4541 86.1272H61.491C61.6592 85.8524 61.8787 85.6123 62.1495 85.4072C62.4244 85.202 62.7506 85.0995 63.1281 85.0995C63.2183 85.0995 63.3127 85.1097 63.4112 85.1302C63.5137 85.1508 63.5855 85.1692 63.6266 85.1856V86.2688C63.5445 86.2524 63.4563 86.2401 63.3619 86.2319C63.2717 86.2237 63.1732 86.2196 63.0665 86.2196C62.6891 86.2196 62.367 86.318 62.1003 86.515C61.8377 86.7078 61.6428 86.9499 61.5156 87.2412V91.8138H60.3525ZM67.4115 88.6505V88.4536C67.4115 87.4689 67.6823 86.6647 68.2238 86.0411C68.7654 85.4133 69.5122 85.0995 70.464 85.0995C71.342 85.0995 72.0088 85.3354 72.4642 85.8072C72.9196 86.275 73.1473 86.7981 73.1473 87.3766V87.4073H72.0211V87.3766C72.0211 87.0278 71.898 86.7201 71.6518 86.4534C71.4056 86.1867 71.0097 86.0534 70.464 86.0534C69.824 86.0534 69.3521 86.2852 69.0485 86.7488C68.749 87.2125 68.5993 87.7807 68.5993 88.4536V88.6505C68.5993 89.3193 68.749 89.8855 69.0485 90.3491C69.3521 90.8127 69.824 91.0446 70.464 91.0446C71.0097 91.0446 71.4056 90.9112 71.6518 90.6445C71.898 90.3778 72.0211 90.0701 72.0211 89.7214V89.6906H73.1473V89.7214C73.1473 90.2999 72.9196 90.825 72.4642 91.2969C72.0088 91.7646 71.342 91.9985 70.464 91.9985C69.5122 91.9985 68.7654 91.6867 68.2238 91.063C67.6823 90.4394 67.4115 89.6352 67.4115 88.6505ZM74.1074 88.6505V88.4536C74.1074 87.4689 74.3884 86.6647 74.9505 86.0411C75.5167 85.4133 76.2737 85.0995 77.2215 85.0995C78.1651 85.0995 78.918 85.4133 79.4801 86.0411C80.0463 86.6647 80.3294 87.4689 80.3294 88.4536V88.6505C80.3294 89.6352 80.0463 90.4394 79.4801 91.063C78.918 91.6867 78.1651 91.9985 77.2215 91.9985C76.2737 91.9985 75.5167 91.6867 74.9505 91.063C74.3884 90.4394 74.1074 89.6352 74.1074 88.6505ZM75.2952 88.4536V88.6505C75.2952 89.3193 75.4552 89.8855 75.7752 90.3491C76.0993 90.8127 76.5814 91.0446 77.2215 91.0446C77.8574 91.0446 78.3354 90.8127 78.6554 90.3491C78.9796 89.8855 79.1416 89.3193 79.1416 88.6505V88.4536C79.1416 87.7807 78.9796 87.2145 78.6554 86.755C78.3354 86.2914 77.8574 86.0596 77.2215 86.0596C76.5814 86.0596 76.0993 86.2914 75.7752 86.755C75.4552 87.2145 75.2952 87.7807 75.2952 88.4536ZM81.7695 91.8138V85.2841H82.8219L82.8711 86.1272H82.9081C83.146 85.8277 83.4373 85.5918 83.782 85.4195C84.1307 85.2472 84.5143 85.161 84.9328 85.161C85.5975 85.161 86.1268 85.3498 86.5206 85.7272C86.9186 86.1047 87.1176 86.7365 87.1176 87.6227V91.8138H85.9545V87.6104C85.9545 87.0853 85.8355 86.7099 85.5975 86.4842C85.3595 86.2585 85.0231 86.1457 84.5882 86.1457C84.2148 86.1457 83.8845 86.2462 83.5973 86.4473C83.3142 86.6442 83.0927 86.9006 82.9327 87.2166V91.8138H81.7695ZM87.9731 85.2841H89.1055L90.6871 89.6291C90.7446 89.7932 90.7938 89.947 90.8348 90.0906C90.8759 90.2342 90.9066 90.3573 90.9271 90.4599H90.9641C90.9846 90.3573 91.0133 90.2342 91.0502 90.0906C91.0913 89.947 91.1425 89.7932 91.2041 89.6291L92.7734 85.2841H93.8751L91.3764 91.8138H90.4717L87.9731 85.2841ZM94.3182 88.6505V88.4536C94.3182 87.4689 94.591 86.6647 95.1367 86.0411C95.6824 85.4133 96.4045 85.0995 97.303 85.0995C98.2016 85.0995 98.8929 85.3928 99.377 85.9795C99.8653 86.5622 100.109 87.3499 100.109 88.3428V88.8167H95.0321V87.8935H98.9401V87.7828C98.9401 87.2986 98.8067 86.8904 98.54 86.5581C98.2734 86.2216 97.8733 86.0534 97.3399 86.0534C96.7286 86.0534 96.2691 86.2852 95.9614 86.7488C95.6578 87.2125 95.506 87.7807 95.506 88.4536V88.6505C95.506 89.3193 95.666 89.8855 95.986 90.3491C96.3101 90.8127 96.8127 91.0446 97.4938 91.0446C97.9123 91.0446 98.2713 90.9543 98.5708 90.7738C98.8744 90.5932 99.1185 90.3799 99.3032 90.1337L100.054 90.7368C99.8489 91.0446 99.5268 91.3318 99.0878 91.5984C98.6488 91.8651 98.1174 91.9985 97.4938 91.9985C96.4681 91.9985 95.6824 91.6867 95.1367 91.063C94.591 90.4394 94.3182 89.6352 94.3182 88.6505ZM101.513 91.8138V85.2841H102.565L102.614 86.1272H102.651C102.819 85.8524 103.039 85.6123 103.31 85.4072C103.585 85.202 103.911 85.0995 104.288 85.0995C104.378 85.0995 104.473 85.1097 104.571 85.1302C104.674 85.1508 104.746 85.1692 104.787 85.1856V86.2688C104.705 86.2524 104.616 86.2401 104.522 86.2319C104.432 86.2237 104.333 86.2196 104.227 86.2196C103.849 86.2196 103.527 86.318 103.26 86.515C102.998 86.7078 102.803 86.9499 102.676 87.2412V91.8138H101.513ZM105.464 89.8937H106.627V89.9245C106.627 90.2978 106.766 90.5789 107.045 90.7676C107.328 90.9563 107.702 91.0507 108.165 91.0507C108.625 91.0507 108.986 90.9604 109.249 90.7799C109.515 90.5994 109.649 90.3655 109.649 90.0783C109.649 89.787 109.542 89.5655 109.329 89.4137C109.119 89.2577 108.656 89.0977 107.938 88.9336C107.224 88.7736 106.662 88.5418 106.251 88.2382C105.841 87.9346 105.636 87.514 105.636 86.9765C105.636 86.4391 105.86 85.9919 106.307 85.6349C106.758 85.278 107.361 85.0995 108.116 85.0995C108.875 85.0995 109.482 85.278 109.938 85.6349C110.397 85.9919 110.627 86.4719 110.627 87.075V87.1058H109.47V87.0566C109.47 86.7447 109.359 86.4986 109.138 86.318C108.92 86.1375 108.58 86.0472 108.116 86.0472C107.653 86.0472 107.316 86.1314 107.107 86.2996C106.898 86.4637 106.793 86.6688 106.793 86.915C106.793 87.1612 106.91 87.3581 107.144 87.5058C107.378 87.6494 107.854 87.8012 108.572 87.9612C109.285 88.1254 109.835 88.3633 110.221 88.6751C110.607 88.987 110.799 89.4321 110.799 90.0106C110.799 90.5932 110.58 91.0712 110.141 91.4446C109.702 91.8138 109.043 91.9985 108.165 91.9985C107.283 91.9985 106.612 91.8097 106.153 91.4323C105.693 91.0548 105.464 90.5522 105.464 89.9245V89.8937ZM112.264 91.8138V85.2841H113.427V91.8138H112.264ZM112.129 83.3393C112.129 83.1465 112.19 82.9844 112.313 82.8531C112.437 82.7219 112.613 82.6562 112.843 82.6562C113.077 82.6562 113.255 82.7219 113.378 82.8531C113.501 82.9844 113.563 83.1465 113.563 83.3393C113.563 83.5363 113.501 83.7004 113.378 83.8317C113.255 83.963 113.077 84.0286 112.843 84.0286C112.613 84.0286 112.437 83.963 112.313 83.8317C112.19 83.7004 112.129 83.5363 112.129 83.3393ZM114.923 88.6505V88.4536C114.923 87.4689 115.204 86.6647 115.766 86.0411C116.332 85.4133 117.089 85.0995 118.037 85.0995C118.981 85.0995 119.733 85.4133 120.296 86.0411C120.862 86.6647 121.145 87.4689 121.145 88.4536V88.6505C121.145 89.6352 120.862 90.4394 120.296 91.063C119.733 91.6867 118.981 91.9985 118.037 91.9985C117.089 91.9985 116.332 91.6867 115.766 91.063C115.204 90.4394 114.923 89.6352 114.923 88.6505ZM116.111 88.4536V88.6505C116.111 89.3193 116.271 89.8855 116.591 90.3491C116.915 90.8127 117.397 91.0446 118.037 91.0446C118.673 91.0446 119.151 90.8127 119.471 90.3491C119.795 89.8855 119.957 89.3193 119.957 88.6505V88.4536C119.957 87.7807 119.795 87.2145 119.471 86.755C119.151 86.2914 118.673 86.0596 118.037 86.0596C117.397 86.0596 116.915 86.2914 116.591 86.755C116.271 87.2145 116.111 87.7807 116.111 88.4536ZM122.585 91.8138V85.2841H123.637L123.687 86.1272H123.724C123.961 85.8277 124.253 85.5918 124.597 85.4195C124.946 85.2472 125.33 85.161 125.748 85.161C126.413 85.161 126.942 85.3498 127.336 85.7272C127.734 86.1047 127.933 86.7365 127.933 87.6227V91.8138H126.77V87.6104C126.77 87.0853 126.651 86.7099 126.413 86.4842C126.175 86.2585 125.839 86.1457 125.404 86.1457C125.03 86.1457 124.7 86.2462 124.413 86.4473C124.13 86.6442 123.908 86.9006 123.748 87.2166V91.8138H122.585ZM132.777 91.8138V82.3608H133.94V86.0596C134.133 85.7888 134.391 85.5713 134.715 85.4072C135.043 85.2431 135.437 85.161 135.897 85.161C136.734 85.161 137.403 85.4728 137.903 86.0965C138.404 86.716 138.654 87.5017 138.654 88.4536V88.6505C138.654 89.5983 138.404 90.384 137.903 91.0076C137.403 91.6272 136.734 91.9369 135.897 91.9369C135.437 91.9369 135.033 91.8426 134.684 91.6538C134.34 91.461 134.083 91.2312 133.915 90.9645H133.878L133.829 91.8138H132.777ZM133.94 89.8691C134.067 90.1563 134.278 90.4148 134.574 90.6445C134.869 90.8702 135.226 90.983 135.644 90.983C136.272 90.983 136.732 90.7594 137.023 90.3122C137.318 89.8609 137.466 89.307 137.466 88.6505V88.4536C137.466 87.793 137.318 87.2391 137.023 86.7919C136.732 86.3447 136.272 86.1211 135.644 86.1211C135.226 86.1211 134.869 86.2339 134.574 86.4596C134.278 86.6852 134.067 86.9437 133.94 87.235V89.8691ZM139.423 94.374V93.3832C139.53 93.416 139.649 93.4427 139.78 93.4632C139.916 93.4837 140.045 93.494 140.168 93.494C140.463 93.494 140.716 93.3935 140.925 93.1924C141.138 92.9914 141.37 92.5216 141.62 91.7831V91.7769L139.165 85.2841H140.297L141.854 89.5675C141.912 89.7316 141.963 89.8875 142.008 90.0352C142.057 90.1829 142.098 90.3245 142.131 90.4599H142.168C142.205 90.3245 142.248 90.1829 142.297 90.0352C142.347 89.8875 142.398 89.7316 142.451 89.5675L143.904 85.2841H145.005L142.334 92.6754C142.125 93.2499 141.848 93.6971 141.503 94.0171C141.159 94.3371 140.736 94.4971 140.236 94.4971C140.067 94.4971 139.918 94.4869 139.786 94.4664C139.659 94.4458 139.538 94.4151 139.423 94.374ZM148.981 88.8905V82.8531H150.181V88.8905C150.181 89.5921 150.374 90.1152 150.759 90.4599C151.145 90.8004 151.65 90.9707 152.273 90.9707C152.897 90.9707 153.402 90.8004 153.787 90.4599C154.173 90.1152 154.366 89.5921 154.366 88.8905V82.8531H155.566V88.8905C155.566 89.9245 155.246 90.702 154.606 91.223C153.966 91.74 153.188 91.9985 152.273 91.9985C151.358 91.9985 150.581 91.74 149.941 91.223C149.301 90.702 148.981 89.9245 148.981 88.8905ZM157.012 89.8937H158.175V89.9245C158.175 90.2978 158.315 90.5789 158.594 90.7676C158.877 90.9563 159.25 91.0507 159.714 91.0507C160.174 91.0507 160.535 90.9604 160.797 90.7799C161.064 90.5994 161.197 90.3655 161.197 90.0783C161.197 89.787 161.091 89.5655 160.877 89.4137C160.668 89.2577 160.204 89.0977 159.486 88.9336C158.772 88.7736 158.21 88.5418 157.8 88.2382C157.39 87.9346 157.185 87.514 157.185 86.9765C157.185 86.4391 157.408 85.9919 157.855 85.6349C158.307 85.278 158.91 85.0995 159.665 85.0995C160.424 85.0995 161.031 85.278 161.486 85.6349C161.946 85.9919 162.176 86.4719 162.176 87.075V87.1058H161.019V87.0566C161.019 86.7447 160.908 86.4986 160.686 86.318C160.469 86.1375 160.128 86.0472 159.665 86.0472C159.201 86.0472 158.865 86.1314 158.655 86.2996C158.446 86.4637 158.342 86.6688 158.342 86.915C158.342 87.1612 158.459 87.3581 158.692 87.5058C158.926 87.6494 159.402 87.8012 160.12 87.9612C160.834 88.1254 161.384 88.3633 161.77 88.6751C162.155 88.987 162.348 89.4321 162.348 90.0106C162.348 90.5932 162.129 91.0712 161.69 91.4446C161.251 91.8138 160.592 91.9985 159.714 91.9985C158.832 91.9985 158.161 91.8097 157.702 91.4323C157.242 91.0548 157.012 90.5522 157.012 89.9245V89.8937ZM163.813 91.8138V85.2841H164.976V91.8138H163.813ZM163.677 83.3393C163.677 83.1465 163.739 82.9844 163.862 82.8531C163.985 82.7219 164.162 82.6562 164.391 82.6562C164.625 82.6562 164.804 82.7219 164.927 82.8531C165.05 82.9844 165.111 83.1465 165.111 83.3393C165.111 83.5363 165.05 83.7004 164.927 83.8317C164.804 83.963 164.625 84.0286 164.391 84.0286C164.162 84.0286 163.985 83.963 163.862 83.8317C163.739 83.7004 163.677 83.5363 163.677 83.3393ZM166.859 91.8138V85.2841H167.912L167.961 86.1272H167.998C168.236 85.8277 168.527 85.5918 168.872 85.4195C169.22 85.2472 169.604 85.161 170.022 85.161C170.687 85.161 171.216 85.3498 171.61 85.7272C172.008 86.1047 172.207 86.7365 172.207 87.6227V91.8138H171.044V87.6104C171.044 87.0853 170.925 86.7099 170.687 86.4842C170.449 86.2585 170.113 86.1457 169.678 86.1457C169.304 86.1457 168.974 86.2462 168.687 86.4473C168.404 86.6442 168.182 86.9006 168.022 87.2166V91.8138H166.859ZM173.832 93.5617L174.552 92.6816C174.737 92.8908 174.997 93.0755 175.334 93.2355C175.674 93.3996 176.054 93.4817 176.472 93.4817C177.038 93.4817 177.486 93.3237 177.814 93.0078C178.142 92.6919 178.306 92.2487 178.306 91.6784V91.0446C178.109 91.3153 177.849 91.5328 177.525 91.6969C177.2 91.8569 176.807 91.9369 176.343 91.9369C175.506 91.9369 174.837 91.6272 174.337 91.0076C173.836 90.384 173.586 89.5983 173.586 88.6505V88.4536C173.586 87.5017 173.836 86.716 174.337 86.0965C174.837 85.4728 175.506 85.161 176.343 85.161C176.807 85.161 177.211 85.2574 177.555 85.4503C177.904 85.639 178.163 85.8688 178.331 86.1396H178.362L178.417 85.2841H179.463V91.6784C179.463 92.5852 179.188 93.2806 178.639 93.7648C178.093 94.253 177.381 94.4971 176.503 94.4971C175.961 94.4971 175.461 94.4089 175.001 94.2325C174.542 94.0561 174.152 93.8325 173.832 93.5617ZM174.774 88.6505C174.774 89.307 174.919 89.8609 175.211 90.3122C175.506 90.7594 175.968 90.983 176.595 90.983C177.018 90.983 177.375 90.8702 177.666 90.6445C177.962 90.4148 178.175 90.1563 178.306 89.8691V87.235C178.175 86.9437 177.962 86.6852 177.666 86.4596C177.375 86.2339 177.018 86.1211 176.595 86.1211C175.968 86.1211 175.506 86.3447 175.211 86.7919C174.919 87.2391 174.774 87.793 174.774 88.4536V88.6505ZM143.888 126.234V110.947H146.462L146.525 112.255H146.578C146.824 111.819 147.232 111.457 147.802 111.169C148.372 110.873 149.015 110.726 149.733 110.726C151.125 110.726 152.24 111.225 153.077 112.224C153.921 113.222 154.343 114.548 154.343 116.201V116.539C154.343 118.178 153.925 119.503 153.088 120.516C152.258 121.522 151.157 122.025 149.785 122.025C149.068 122.025 148.435 121.902 147.886 121.656C147.345 121.409 146.926 121.075 146.631 120.653V126.234H143.888ZM146.631 118.322C146.814 118.744 147.116 119.12 147.538 119.451C147.96 119.774 148.463 119.936 149.047 119.936C149.898 119.936 150.524 119.637 150.925 119.039C151.333 118.434 151.537 117.636 151.537 116.644V116.096C151.537 115.104 151.333 114.313 150.925 113.722C150.517 113.124 149.887 112.825 149.036 112.825C148.438 112.825 147.936 112.987 147.528 113.31C147.12 113.627 146.821 113.993 146.631 114.408V118.322ZM155.852 116.539V116.201C155.852 114.52 156.355 113.173 157.36 112.16C158.373 111.14 159.703 110.631 161.348 110.631C162.987 110.631 164.31 111.14 165.315 112.16C166.328 113.173 166.835 114.52 166.835 116.201V116.539C166.835 118.227 166.328 119.581 165.315 120.601C164.31 121.613 162.987 122.12 161.348 122.12C159.703 122.12 158.373 121.613 157.36 120.601C156.355 119.581 155.852 118.227 155.852 116.539ZM158.669 116.096V116.644C158.669 117.678 158.897 118.498 159.354 119.102C159.812 119.707 160.476 120.01 161.348 120.01C162.214 120.01 162.875 119.707 163.332 119.102C163.789 118.498 164.018 117.678 164.018 116.644V116.096C164.018 115.069 163.786 114.253 163.321 113.648C162.864 113.043 162.207 112.741 161.348 112.741C160.483 112.741 159.819 113.043 159.354 113.648C158.897 114.253 158.669 115.069 158.669 116.096ZM167.605 112.973V110.947H174.262V112.973H167.605ZM169.346 118.723V111.928L169.367 111.654V108.151H172.078V118.585C172.078 119.127 172.173 119.496 172.363 119.693C172.56 119.89 172.845 119.989 173.217 119.989C173.386 119.989 173.555 119.971 173.724 119.936C173.9 119.894 174.069 119.841 174.23 119.778V121.803C174.061 121.881 173.822 121.951 173.513 122.014C173.21 122.078 172.873 122.109 172.5 122.109C171.536 122.109 170.77 121.838 170.2 121.297C169.63 120.755 169.346 119.897 169.346 118.723ZM175.454 116.539V116.201C175.454 114.534 175.943 113.191 176.921 112.171C177.905 111.144 179.182 110.631 180.75 110.631C182.319 110.631 183.539 111.112 184.411 112.076C185.283 113.033 185.72 114.351 185.72 116.032V117.003H177.227V115.241H182.998V115.019C182.998 114.365 182.808 113.81 182.428 113.353C182.048 112.895 181.492 112.667 180.761 112.667C179.917 112.667 179.28 112.983 178.851 113.616C178.422 114.242 178.208 115.058 178.208 116.064V116.634C178.208 117.654 178.436 118.48 178.894 119.113C179.358 119.739 180.047 120.052 180.961 120.052C181.573 120.052 182.101 119.911 182.544 119.63C182.987 119.342 183.342 119.004 183.609 118.617L185.572 119.82C185.227 120.46 184.661 121.005 183.873 121.455C183.085 121.898 182.129 122.12 181.004 122.12C179.252 122.12 177.888 121.61 176.91 120.59C175.939 119.563 175.454 118.213 175.454 116.539ZM187.735 121.814V110.947H190.341L190.393 112.266H190.446C190.763 111.802 191.202 111.429 191.765 111.148C192.335 110.859 192.971 110.715 193.674 110.715C194.779 110.715 195.672 111.031 196.354 111.664C197.043 112.29 197.388 113.367 197.388 114.893V121.814H194.635V114.914C194.635 114.175 194.473 113.651 194.149 113.342C193.826 113.033 193.368 112.878 192.778 112.878C192.278 112.878 191.825 113.018 191.417 113.3C191.009 113.574 190.699 113.95 190.488 114.429V121.814H187.735ZM198.665 112.973V110.947H205.322V112.973H198.665ZM200.406 118.723V111.928L200.427 111.654V108.151H203.138V118.585C203.138 119.127 203.233 119.496 203.423 119.693C203.62 119.89 203.905 119.989 204.277 119.989C204.446 119.989 204.615 119.971 204.784 119.936C204.96 119.894 205.129 119.841 205.29 119.778V121.803C205.121 121.881 204.882 121.951 204.573 122.014C204.27 122.078 203.933 122.109 203.56 122.109C202.596 122.109 201.83 121.838 201.26 121.297C200.69 120.755 200.406 119.897 200.406 118.723ZM207.179 121.814V110.947H209.943V121.814H207.179ZM206.926 107.708C206.926 107.286 207.066 106.931 207.348 106.643C207.636 106.347 208.04 106.199 208.561 106.199C209.088 106.199 209.493 106.347 209.774 106.643C210.055 106.931 210.196 107.286 210.196 107.708C210.196 108.137 210.052 108.499 209.764 108.795C209.482 109.083 209.078 109.227 208.55 109.227C208.03 109.227 207.629 109.083 207.348 108.795C207.066 108.499 206.926 108.137 206.926 107.708ZM212.148 118.628C212.148 117.467 212.602 116.581 213.509 115.969C214.416 115.35 215.57 115.041 216.969 115.041H219.269V114.355C219.269 113.806 219.129 113.367 218.847 113.036C218.566 112.705 218.081 112.54 217.391 112.54C216.702 112.54 216.206 112.681 215.904 112.962C215.601 113.236 215.45 113.574 215.45 113.975V114.123H212.76V113.964C212.76 113.022 213.192 112.234 214.058 111.601C214.93 110.961 216.08 110.641 217.507 110.641C218.935 110.641 220.043 110.947 220.831 111.559C221.626 112.164 222.023 113.106 222.023 114.386V119.335C222.023 119.785 222.058 120.21 222.129 120.611C222.206 121.012 222.315 121.357 222.456 121.645V121.814H219.755C219.663 121.645 219.582 121.427 219.512 121.16C219.442 120.892 219.396 120.629 219.375 120.368C219.143 120.798 218.728 121.181 218.13 121.518C217.539 121.849 216.794 122.014 215.893 122.014C214.824 122.014 213.931 121.729 213.214 121.16C212.503 120.59 212.148 119.746 212.148 118.628ZM214.902 118.417C214.902 118.944 215.053 119.363 215.355 119.672C215.665 119.975 216.139 120.126 216.78 120.126C217.455 120.126 218.039 119.904 218.531 119.461C219.023 119.011 219.269 118.498 219.269 117.921V116.729H217.413C216.569 116.729 215.939 116.876 215.524 117.172C215.109 117.46 214.902 117.875 214.902 118.417ZM224.798 121.814V105.777H227.562V121.814H224.798ZM234.873 116.539V116.201C234.873 114.52 235.376 113.173 236.382 112.16C237.395 111.14 238.724 110.631 240.37 110.631C242.009 110.631 243.331 111.14 244.337 112.16C245.35 113.173 245.856 114.52 245.856 116.201V116.539C245.856 118.227 245.35 119.581 244.337 120.601C243.331 121.613 242.009 122.12 240.37 122.12C238.724 122.12 237.395 121.613 236.382 120.601C235.376 119.581 234.873 118.227 234.873 116.539ZM237.69 116.096V116.644C237.69 117.678 237.919 118.498 238.376 119.102C238.833 119.707 239.498 120.01 240.37 120.01C241.235 120.01 241.896 119.707 242.353 119.102C242.811 118.498 243.039 117.678 243.039 116.644V116.096C243.039 115.069 242.807 114.253 242.343 113.648C241.886 113.043 241.228 112.741 240.37 112.741C239.505 112.741 238.84 113.043 238.376 113.648C237.919 114.253 237.69 115.069 237.69 116.096ZM248.42 121.814V109.692C248.42 108.327 248.796 107.3 249.549 106.611C250.308 105.915 251.296 105.566 252.513 105.566C252.774 105.566 253.023 105.58 253.262 105.609C253.509 105.637 253.734 105.679 253.938 105.735L253.832 107.803C253.698 107.775 253.551 107.75 253.389 107.729C253.227 107.708 253.058 107.698 252.883 107.698C252.334 107.698 251.908 107.87 251.606 108.215C251.304 108.559 251.152 109.087 251.152 109.797V111.728L251.163 111.939V121.814H248.42ZM246.827 112.973V110.947H249.38H249.77H253.262V112.973H246.827ZM15.9868 151.814V136.453H19.6794L23.5514 146.866C23.6358 147.098 23.7096 147.323 23.7729 147.541C23.8433 147.759 23.9031 147.991 23.9523 148.237H24.0156C24.0648 147.991 24.1211 147.759 24.1844 147.541C24.2547 147.316 24.3321 147.091 24.4165 146.866L28.2884 136.453H32.0232V151.814H29.2274V141.612C29.2274 141.387 29.2309 141.133 29.238 140.852C29.245 140.571 29.2626 140.314 29.2907 140.082H29.2063C29.1712 140.314 29.1149 140.571 29.0375 140.852C28.9672 141.126 28.8898 141.38 28.8054 141.612L25.039 151.814H22.6335L18.8776 141.612C18.7932 141.387 18.7123 141.13 18.635 140.842C18.5576 140.546 18.5013 140.293 18.4661 140.082H18.3923C18.4134 140.293 18.4275 140.546 18.4345 140.842C18.4415 141.13 18.445 141.387 18.445 141.612V151.814H15.9868ZM34.3971 148.628C34.3971 147.467 34.8507 146.581 35.758 145.969C36.6654 145.35 37.8189 145.041 39.2185 145.041H41.5185V144.355C41.5185 143.806 41.3778 143.367 41.0965 143.036C40.8151 142.705 40.3298 142.54 39.6405 142.54C38.9513 142.54 38.4554 142.681 38.1529 142.962C37.8505 143.236 37.6993 143.574 37.6993 143.975V144.123H35.009V143.964C35.009 143.022 35.4415 142.234 36.3067 141.601C37.1788 140.961 38.3288 140.641 39.7566 140.641C41.1844 140.641 42.2922 140.947 43.0799 141.559C43.8747 142.164 44.2721 143.106 44.2721 144.386V149.335C44.2721 149.785 44.3073 150.21 44.3776 150.611C44.455 151.012 44.564 151.357 44.7047 151.645V151.814H42.0038C41.9124 151.645 41.8315 151.427 41.7611 151.16C41.6908 150.892 41.6451 150.629 41.624 150.368C41.3919 150.798 40.9769 151.181 40.3791 151.518C39.7882 151.849 39.0427 152.014 38.1424 152.014C37.0733 152.014 36.18 151.729 35.4626 151.16C34.7522 150.59 34.3971 149.746 34.3971 148.628ZM37.1507 148.417C37.1507 148.944 37.3019 149.363 37.6043 149.672C37.9138 149.975 38.3886 150.126 39.0286 150.126C39.7038 150.126 40.2876 149.904 40.78 149.461C41.2723 149.011 41.5185 148.498 41.5185 147.921V146.729H39.6616C38.8176 146.729 38.1881 146.876 37.7731 147.172C37.3582 147.46 37.1507 147.875 37.1507 148.417ZM47.0152 151.814V140.947H49.6316L49.6949 142.245H49.7477C49.9939 141.809 50.3244 141.436 50.7394 141.126C51.1614 140.817 51.6467 140.662 52.1954 140.662C52.3501 140.662 52.5048 140.68 52.6596 140.715C52.8213 140.743 52.9374 140.771 53.0077 140.799V143.163C52.8811 143.127 52.7405 143.103 52.5857 143.089C52.438 143.068 52.2727 143.057 52.0899 143.057C51.5694 143.057 51.1052 143.208 50.6972 143.511C50.2893 143.813 49.9833 144.197 49.7793 144.661V151.814H47.0152ZM54.6536 151.814V135.777H57.4072V145.178L61.3108 140.947H64.3915L57.4072 148.364V151.814H54.6536ZM61.6273 151.814L57.7448 146.528L59.4856 144.597L64.8662 151.814H61.6273ZM65.1194 146.539V146.201C65.1194 144.534 65.6083 143.191 66.5859 142.171C67.5706 141.144 68.8472 140.631 70.4157 140.631C71.9841 140.631 73.2045 141.112 74.0766 142.076C74.9488 143.033 75.3848 144.351 75.3848 146.032V147.003H66.8919V145.241H72.6629V145.019C72.6629 144.365 72.473 143.81 72.0932 143.353C71.7133 142.895 71.1577 142.667 70.4262 142.667C69.5822 142.667 68.9457 142.983 68.5166 143.616C68.0876 144.242 67.873 145.058 67.873 146.064V146.634C67.873 147.654 68.1016 148.48 68.5588 149.113C69.023 149.739 69.7123 150.052 70.6267 150.052C71.2386 150.052 71.7661 149.911 72.2092 149.63C72.6523 149.342 73.0075 149.004 73.2748 148.617L75.2371 149.82C74.8925 150.46 74.3263 151.005 73.5385 151.455C72.7508 151.898 71.7942 152.12 70.6689 152.12C68.9175 152.12 67.553 151.61 66.5754 150.59C65.6047 149.563 65.1194 148.213 65.1194 146.539ZM76.0495 142.973V140.947H82.7067V142.973H76.0495ZM77.7903 148.723V141.928L77.8114 141.654V138.151H80.5228V148.585C80.5228 149.127 80.6178 149.496 80.8077 149.693C81.0046 149.89 81.2895 149.989 81.6622 149.989C81.8311 149.989 81.9999 149.971 82.1687 149.936C82.3445 149.894 82.5133 149.841 82.6751 149.778V151.803C82.5063 151.881 82.2671 151.951 81.9577 152.014C81.6552 152.078 81.3176 152.109 80.9448 152.109C79.9812 152.109 79.2146 151.838 78.6449 151.297C78.0752 150.755 77.7903 149.897 77.7903 148.723ZM84.5636 151.814V140.947H87.3277V151.814H84.5636ZM84.3104 137.708C84.3104 137.286 84.451 136.931 84.7324 136.643C85.0208 136.347 85.4252 136.199 85.9457 136.199C86.4732 136.199 86.8776 136.347 87.1589 136.643C87.4403 136.931 87.581 137.286 87.581 137.708C87.581 138.137 87.4368 138.499 87.1484 138.795C86.8671 139.083 86.4626 139.227 85.9351 139.227C85.4146 139.227 85.0137 139.083 84.7324 138.795C84.451 138.499 84.3104 138.137 84.3104 137.708ZM90.1025 151.814V140.947H92.7084L92.7611 142.266H92.8139C93.1304 141.802 93.57 141.429 94.1327 141.148C94.7024 140.859 95.3389 140.715 96.0423 140.715C97.1465 140.715 98.0398 141.031 98.722 141.664C99.4113 142.29 99.756 143.367 99.756 144.893V151.814H97.0023V144.914C97.0023 144.175 96.8406 143.651 96.517 143.342C96.1935 143.033 95.7363 142.878 95.1455 142.878C94.6461 142.878 94.1924 143.018 93.7845 143.3C93.3766 143.574 93.0671 143.95 92.8561 144.429V151.814H90.1025ZM102.341 154.937L103.522 153.143C103.804 153.425 104.236 153.688 104.82 153.934C105.404 154.188 106.044 154.314 106.74 154.314C107.549 154.314 108.21 154.068 108.724 153.576C109.237 153.09 109.494 152.348 109.494 151.35V150.59C109.198 151.026 108.787 151.371 108.259 151.624C107.739 151.877 107.109 152.004 106.371 152.004C104.985 152.004 103.871 151.501 103.027 150.495C102.19 149.482 101.771 148.167 101.771 146.549V146.212C101.771 144.587 102.186 143.268 103.016 142.255C103.853 141.242 104.971 140.736 106.371 140.736C107.081 140.736 107.718 140.884 108.281 141.179C108.843 141.468 109.255 141.83 109.515 142.266H109.568L109.62 140.947H112.226V151.223C112.226 152.904 111.731 154.191 110.739 155.084C109.754 155.978 108.485 156.424 106.93 156.424C105.981 156.424 105.108 156.28 104.314 155.992C103.526 155.71 102.868 155.359 102.341 154.937ZM104.577 146.623C104.577 147.594 104.785 148.389 105.2 149.007C105.615 149.619 106.262 149.925 107.141 149.925C107.711 149.925 108.2 149.764 108.608 149.44C109.016 149.109 109.307 148.733 109.483 148.311V144.471C109.3 144.014 109.005 143.627 108.597 143.31C108.189 142.987 107.693 142.825 107.109 142.825C106.251 142.825 105.615 143.134 105.2 143.753C104.785 144.372 104.577 145.164 104.577 146.127V146.623ZM15.112 165.61V165.057C15.112 163.678 15.471 162.603 16.1891 161.832C16.9071 161.056 17.8076 160.669 18.8908 160.669C19.974 160.669 20.8171 160.962 21.4202 161.549C22.0233 162.135 22.3352 162.841 22.3557 163.666V163.727H21.1556V163.666C21.1433 163.12 20.9504 162.656 20.5771 162.275C20.2078 161.889 19.6457 161.696 18.8908 161.696C18.1441 161.696 17.5286 161.977 17.0445 162.539C16.5645 163.102 16.3244 163.941 16.3244 165.057V165.61C16.3244 166.657 16.5645 167.479 17.0445 168.078C17.5245 168.673 18.14 168.971 18.8908 168.971C19.6129 168.971 20.1545 168.778 20.5155 168.392C20.8807 168.002 21.092 167.539 21.1494 167.001L21.1556 166.94H22.3557L22.3495 167.001C22.2675 167.822 21.9413 168.528 21.371 169.118C20.8007 169.705 19.974 169.998 18.8908 169.998C17.8076 169.998 16.9071 169.613 16.1891 168.841C15.471 168.066 15.112 166.989 15.112 165.61ZM23.4081 166.651V166.454C23.4081 165.469 23.6891 164.665 24.2512 164.041C24.8174 163.413 25.5744 163.099 26.5222 163.099C27.4658 163.099 28.2187 163.413 28.7808 164.041C29.347 164.665 29.6301 165.469 29.6301 166.454V166.651C29.6301 167.635 29.347 168.439 28.7808 169.063C28.2187 169.687 27.4658 169.998 26.5222 169.998C25.5744 169.998 24.8174 169.687 24.2512 169.063C23.6891 168.439 23.4081 167.635 23.4081 166.651ZM24.5959 166.454V166.651C24.5959 167.319 24.7559 167.885 25.0759 168.349C25.4 168.813 25.8821 169.045 26.5222 169.045C27.1581 169.045 27.6361 168.813 27.9561 168.349C28.2802 167.885 28.4423 167.319 28.4423 166.651V166.454C28.4423 165.781 28.2802 165.215 27.9561 164.755C27.6361 164.291 27.1581 164.06 26.5222 164.06C25.8821 164.06 25.4 164.291 25.0759 164.755C24.7559 165.215 24.5959 165.781 24.5959 166.454ZM31.0702 169.814V163.284H32.1226L32.1718 164.127H32.2088C32.4426 163.832 32.7257 163.598 33.058 163.426C33.3945 163.249 33.7658 163.161 34.172 163.161C34.6151 163.161 34.9967 163.249 35.3167 163.426C35.6408 163.602 35.887 163.883 36.0552 164.269H36.0921C36.367 163.879 36.6727 163.598 37.0091 163.426C37.3497 163.249 37.7374 163.161 38.1723 163.161C38.8575 163.161 39.3929 163.352 39.7786 163.733C40.1642 164.111 40.3571 164.741 40.3571 165.623V169.814H39.2001V165.61C39.196 165.085 39.0811 164.71 38.8554 164.484C38.6298 164.259 38.3077 164.146 37.8892 164.146C37.5281 164.146 37.2122 164.246 36.9414 164.447C36.6706 164.644 36.4552 164.901 36.2952 165.217V169.814H35.1321V165.61C35.1321 165.085 35.0172 164.71 34.7874 164.484C34.5618 164.259 34.2417 164.146 33.8273 164.146C33.4663 164.146 33.1504 164.246 32.8796 164.447C32.6088 164.644 32.3934 164.901 32.2334 165.217V169.814H31.0702ZM42.1234 172.374V163.284H43.1758L43.225 164.14H43.2619C43.4301 163.869 43.6866 163.639 44.0312 163.45C44.38 163.257 44.7841 163.161 45.2436 163.161C46.0806 163.161 46.7494 163.473 47.2499 164.096C47.7505 164.716 48.0007 165.502 48.0007 166.454V166.651C48.0007 167.598 47.7505 168.384 47.2499 169.008C46.7494 169.627 46.0806 169.937 45.2436 169.937C44.7841 169.937 44.3902 169.857 44.062 169.697C43.7378 169.533 43.4794 169.315 43.2865 169.045V172.374H42.1234ZM43.2865 167.869C43.4137 168.156 43.625 168.415 43.9204 168.645C44.2158 168.87 44.5728 168.983 44.9913 168.983C45.619 168.983 46.0785 168.759 46.3698 168.312C46.6653 167.861 46.813 167.307 46.813 166.651V166.454C46.813 165.793 46.6653 165.239 46.3698 164.792C46.0785 164.345 45.619 164.121 44.9913 164.121C44.5728 164.121 44.2158 164.234 43.9204 164.46C43.625 164.685 43.4137 164.944 43.2865 165.235V167.869ZM49.0777 167.894C49.0777 167.229 49.3424 166.714 49.8717 166.349C50.405 165.98 51.082 165.795 51.9026 165.795H53.4042V165.327C53.4042 164.946 53.2996 164.634 53.0904 164.392C52.8852 164.15 52.5303 164.029 52.0257 164.029C51.521 164.029 51.16 164.131 50.9425 164.336C50.7292 164.538 50.6225 164.773 50.6225 165.044V165.075H49.4655V165.044C49.4655 164.523 49.6973 164.07 50.1609 163.684C50.6286 163.294 51.2605 163.099 52.0564 163.099C52.8524 163.099 53.4678 163.286 53.9027 163.66C54.3417 164.033 54.5613 164.589 54.5613 165.327V168.337C54.5613 168.603 54.5818 168.856 54.6228 169.094C54.6679 169.328 54.7274 169.535 54.8013 169.715V169.814H53.675C53.6176 169.711 53.5643 169.578 53.515 169.414C53.4699 169.246 53.4412 169.079 53.4289 168.915C53.2729 169.182 53.0206 169.42 52.6719 169.629C52.3272 169.834 51.8821 169.937 51.3364 169.937C50.7086 169.937 50.1753 169.763 49.7363 169.414C49.2973 169.061 49.0777 168.554 49.0777 167.894ZM50.2409 167.832C50.2409 168.201 50.3496 168.491 50.5671 168.7C50.7845 168.905 51.1251 169.008 51.5887 169.008C52.0482 169.008 52.4647 168.852 52.838 168.54C53.2155 168.228 53.4042 167.898 53.4042 167.549V166.62H52.0257C51.439 166.62 50.9938 166.728 50.6902 166.946C50.3907 167.163 50.2409 167.459 50.2409 167.832ZM56.3645 169.814V163.284H57.4169L57.4661 164.127H57.503C57.6712 163.852 57.8907 163.612 58.1615 163.407C58.4364 163.202 58.7626 163.099 59.1401 163.099C59.2303 163.099 59.3247 163.11 59.4232 163.13C59.5257 163.151 59.5975 163.169 59.6386 163.186V164.269C59.5565 164.252 59.4683 164.24 59.3739 164.232C59.2837 164.224 59.1852 164.22 59.0785 164.22C58.7011 164.22 58.379 164.318 58.1123 164.515C57.8497 164.708 57.6548 164.95 57.5276 165.241V169.814H56.3645ZM60.2232 166.651V166.454C60.2232 165.469 60.4961 164.665 61.0418 164.041C61.5874 163.413 62.3095 163.099 63.2081 163.099C64.1066 163.099 64.7979 163.393 65.2821 163.98C65.7703 164.562 66.0144 165.35 66.0144 166.343V166.817H60.9371V165.894H64.8451V165.783C64.8451 165.299 64.7118 164.89 64.4451 164.558C64.1784 164.222 63.7784 164.053 63.245 164.053C62.6337 164.053 62.1741 164.285 61.8664 164.749C61.5628 165.212 61.411 165.781 61.411 166.454V166.651C61.411 167.319 61.571 167.885 61.8911 168.349C62.2152 168.813 62.7178 169.045 63.3989 169.045C63.8174 169.045 64.1764 168.954 64.4759 168.774C64.7795 168.593 65.0236 168.38 65.2082 168.134L65.9591 168.737C65.7539 169.045 65.4318 169.332 64.9928 169.598C64.5538 169.865 64.0225 169.998 63.3989 169.998C62.3731 169.998 61.5874 169.687 61.0418 169.063C60.4961 168.439 60.2232 167.635 60.2232 166.651ZM67.0299 166.651V166.454C67.0299 165.502 67.2802 164.716 67.7807 164.096C68.2813 163.473 68.9501 163.161 69.787 163.161C70.2507 163.161 70.6445 163.243 70.9687 163.407C71.2928 163.571 71.5533 163.789 71.7503 164.06V160.361H72.9073V169.814H71.8611L71.8057 168.965H71.7749C71.6067 169.231 71.3482 169.461 70.9994 169.654C70.6548 169.843 70.2507 169.937 69.787 169.937C68.9501 169.937 68.2813 169.627 67.7807 169.008C67.2802 168.384 67.0299 167.598 67.0299 166.651ZM68.2177 166.651C68.2177 167.307 68.3633 167.861 68.6546 168.312C68.9501 168.759 69.4116 168.983 70.0394 168.983C70.462 168.983 70.8189 168.87 71.1102 168.645C71.4056 168.415 71.619 168.156 71.7503 167.869V165.235C71.619 164.944 71.4056 164.685 71.1102 164.46C70.8189 164.234 70.462 164.121 70.0394 164.121C69.4116 164.121 68.9501 164.345 68.6546 164.792C68.3633 165.239 68.2177 165.793 68.2177 166.454V166.651ZM76.8337 164.183V163.284H80.594V164.183H76.8337ZM78.0092 168.195V163.826V163.641V161.739H79.1724V168.195C79.1724 168.482 79.2298 168.688 79.3447 168.811C79.4637 168.934 79.6483 168.995 79.8986 168.995C80.0176 168.995 80.1325 168.983 80.2432 168.958C80.354 168.934 80.4689 168.901 80.5879 168.86V169.814C80.4771 169.863 80.3335 169.906 80.1571 169.943C79.9848 169.98 79.796 169.998 79.5909 169.998C79.1108 169.998 78.7272 169.855 78.44 169.568C78.1528 169.276 78.0092 168.819 78.0092 168.195ZM81.3079 166.651V166.454C81.3079 165.469 81.589 164.665 82.1511 164.041C82.7173 163.413 83.4743 163.099 84.422 163.099C85.3657 163.099 86.1186 163.413 86.6807 164.041C87.2469 164.665 87.53 165.469 87.53 166.454V166.651C87.53 167.635 87.2469 168.439 86.6807 169.063C86.1186 169.687 85.3657 169.998 84.422 169.998C83.4743 169.998 82.7173 169.687 82.1511 169.063C81.589 168.439 81.3079 167.635 81.3079 166.651ZM82.4957 166.454V166.651C82.4957 167.319 82.6557 167.885 82.9758 168.349C83.2999 168.813 83.782 169.045 84.422 169.045C85.058 169.045 85.536 168.813 85.856 168.349C86.1801 167.885 86.3422 167.319 86.3422 166.651V166.454C86.3422 165.781 86.1801 165.215 85.856 164.755C85.536 164.291 85.058 164.06 84.422 164.06C83.782 164.06 83.2999 164.291 82.9758 164.755C82.6557 165.215 82.4957 165.781 82.4957 166.454ZM91.0748 164.183V163.284H94.8351V164.183H91.0748ZM92.2503 168.195V163.826V163.641V161.739H93.4135V168.195C93.4135 168.482 93.4709 168.688 93.5858 168.811C93.7048 168.934 93.8894 168.995 94.1397 168.995C94.2587 168.995 94.3736 168.983 94.4843 168.958C94.5951 168.934 94.71 168.901 94.829 168.86V169.814C94.7182 169.863 94.5746 169.906 94.3982 169.943C94.2259 169.98 94.0371 169.998 93.832 169.998C93.3519 169.998 92.9683 169.855 92.6811 169.568C92.3939 169.276 92.2503 168.819 92.2503 168.195ZM96.0598 169.814V163.284H97.1122L97.1615 164.127H97.1984C97.3666 163.852 97.5861 163.612 97.8569 163.407C98.1318 163.202 98.458 163.099 98.8354 163.099C98.9257 163.099 99.0201 163.11 99.1185 163.13C99.2211 163.151 99.2929 163.169 99.3339 163.186V164.269C99.2519 164.252 99.1637 164.24 99.0693 164.232C98.979 164.224 98.8806 164.22 98.7739 164.22C98.3964 164.22 98.0744 164.318 97.8077 164.515C97.5451 164.708 97.3502 164.95 97.223 165.241V169.814H96.0598ZM99.8263 167.894C99.8263 167.229 100.091 166.714 100.62 166.349C101.154 165.98 101.831 165.795 102.651 165.795H104.153V165.327C104.153 164.946 104.048 164.634 103.839 164.392C103.634 164.15 103.279 164.029 102.774 164.029C102.27 164.029 101.909 164.131 101.691 164.336C101.478 164.538 101.371 164.773 101.371 165.044V165.075H100.214V165.044C100.214 164.523 100.446 164.07 100.909 163.684C101.377 163.294 102.009 163.099 102.805 163.099C103.601 163.099 104.216 163.286 104.651 163.66C105.09 164.033 105.31 164.589 105.31 165.327V168.337C105.31 168.603 105.33 168.856 105.371 169.094C105.416 169.328 105.476 169.535 105.55 169.715V169.814H104.424C104.366 169.711 104.313 169.578 104.264 169.414C104.218 169.246 104.19 169.079 104.177 168.915C104.021 169.182 103.769 169.42 103.42 169.629C103.076 169.834 102.631 169.937 102.085 169.937C101.457 169.937 100.924 169.763 100.485 169.414C100.046 169.061 99.8263 168.554 99.8263 167.894ZM100.989 167.832C100.989 168.201 101.098 168.491 101.316 168.7C101.533 168.905 101.874 169.008 102.337 169.008C102.797 169.008 103.213 168.852 103.587 168.54C103.964 168.228 104.153 167.898 104.153 167.549V166.62H102.774C102.188 166.62 101.742 166.728 101.439 166.946C101.139 167.163 100.989 167.459 100.989 167.832ZM106.725 166.651V166.454C106.725 165.502 106.976 164.716 107.476 164.096C107.977 163.473 108.645 163.161 109.482 163.161C109.946 163.161 110.34 163.243 110.664 163.407C110.988 163.571 111.249 163.789 111.446 164.06V160.361H112.603V169.814H111.556L111.501 168.965H111.47C111.302 169.231 111.044 169.461 110.695 169.654C110.35 169.843 109.946 169.937 109.482 169.937C108.645 169.937 107.977 169.627 107.476 169.008C106.976 168.384 106.725 167.598 106.725 166.651ZM107.913 166.651C107.913 167.307 108.059 167.861 108.35 168.312C108.645 168.759 109.107 168.983 109.735 168.983C110.157 168.983 110.514 168.87 110.806 168.645C111.101 168.415 111.314 168.156 111.446 167.869V165.235C111.314 164.944 111.101 164.685 110.806 164.46C110.514 164.234 110.157 164.121 109.735 164.121C109.107 164.121 108.645 164.345 108.35 164.792C108.059 165.239 107.913 165.793 107.913 166.454V166.651ZM114.48 169.814V163.284H115.643V169.814H114.48ZM114.344 161.339C114.344 161.147 114.406 160.984 114.529 160.853C114.652 160.722 114.828 160.656 115.058 160.656C115.292 160.656 115.471 160.722 115.594 160.853C115.717 160.984 115.778 161.147 115.778 161.339C115.778 161.536 115.717 161.7 115.594 161.832C115.471 161.963 115.292 162.029 115.058 162.029C114.828 162.029 114.652 161.963 114.529 161.832C114.406 161.7 114.344 161.536 114.344 161.339ZM116.615 164.183V163.284H120.376V164.183H116.615ZM117.791 168.195V163.826V163.641V161.739H118.954V168.195C118.954 168.482 119.011 168.688 119.126 168.811C119.245 168.934 119.43 168.995 119.68 168.995C119.799 168.995 119.914 168.983 120.025 168.958C120.136 168.934 120.25 168.901 120.369 168.86V169.814C120.259 169.863 120.115 169.906 119.939 169.943C119.766 169.98 119.578 169.998 119.372 169.998C118.892 169.998 118.509 169.855 118.222 169.568C117.934 169.276 117.791 168.819 117.791 168.195ZM121.656 169.814V163.284H122.819V169.814H121.656ZM121.52 161.339C121.52 161.147 121.582 160.984 121.705 160.853C121.828 160.722 122.004 160.656 122.234 160.656C122.468 160.656 122.647 160.722 122.77 160.853C122.893 160.984 122.954 161.147 122.954 161.339C122.954 161.536 122.893 161.7 122.77 161.832C122.647 161.963 122.468 162.029 122.234 162.029C122.004 162.029 121.828 161.963 121.705 161.832C121.582 161.7 121.52 161.536 121.52 161.339ZM124.314 166.651V166.454C124.314 165.469 124.595 164.665 125.157 164.041C125.724 163.413 126.481 163.099 127.428 163.099C128.372 163.099 129.125 163.413 129.687 164.041C130.253 164.665 130.536 165.469 130.536 166.454V166.651C130.536 167.635 130.253 168.439 129.687 169.063C129.125 169.687 128.372 169.998 127.428 169.998C126.481 169.998 125.724 169.687 125.157 169.063C124.595 168.439 124.314 167.635 124.314 166.651ZM125.502 166.454V166.651C125.502 167.319 125.662 167.885 125.982 168.349C126.306 168.813 126.788 169.045 127.428 169.045C128.064 169.045 128.542 168.813 128.862 168.349C129.187 167.885 129.349 167.319 129.349 166.651V166.454C129.349 165.781 129.187 165.215 128.862 164.755C128.542 164.291 128.064 164.06 127.428 164.06C126.788 164.06 126.306 164.291 125.982 164.755C125.662 165.215 125.502 165.781 125.502 166.454ZM131.976 169.814V163.284H133.029L133.078 164.127H133.115C133.353 163.828 133.644 163.592 133.989 163.42C134.338 163.247 134.721 163.161 135.14 163.161C135.804 163.161 136.334 163.35 136.728 163.727C137.126 164.105 137.325 164.737 137.325 165.623V169.814H136.161V165.61C136.161 165.085 136.042 164.71 135.804 164.484C135.566 164.259 135.23 164.146 134.795 164.146C134.422 164.146 134.092 164.246 133.804 164.447C133.521 164.644 133.3 164.901 133.14 165.217V169.814H131.976ZM138.734 167.894C138.734 167.229 138.999 166.714 139.528 166.349C140.061 165.98 140.738 165.795 141.559 165.795H143.06V165.327C143.06 164.946 142.956 164.634 142.747 164.392C142.541 164.15 142.186 164.029 141.682 164.029C141.177 164.029 140.816 164.131 140.599 164.336C140.385 164.538 140.279 164.773 140.279 165.044V165.075H139.122V165.044C139.122 164.523 139.353 164.07 139.817 163.684C140.285 163.294 140.917 163.099 141.713 163.099C142.509 163.099 143.124 163.286 143.559 163.66C143.998 164.033 144.217 164.589 144.217 165.327V168.337C144.217 168.603 144.238 168.856 144.279 169.094C144.324 169.328 144.384 169.535 144.457 169.715V169.814H143.331C143.274 169.711 143.22 169.578 143.171 169.414C143.126 169.246 143.097 169.079 143.085 168.915C142.929 169.182 142.677 169.42 142.328 169.629C141.983 169.834 141.538 169.937 140.993 169.937C140.365 169.937 139.831 169.763 139.392 169.414C138.953 169.061 138.734 168.554 138.734 167.894ZM139.897 167.832C139.897 168.201 140.006 168.491 140.223 168.7C140.441 168.905 140.781 169.008 141.245 169.008C141.704 169.008 142.121 168.852 142.494 168.54C142.872 168.228 143.06 167.898 143.06 167.549V166.62H141.682C141.095 166.62 140.65 166.728 140.346 166.946C140.047 167.163 139.897 167.459 139.897 167.832ZM146.07 169.814V160.361H147.233V169.814H146.07ZM152.187 169.814V163.284H153.24L153.289 164.127H153.326C153.494 163.852 153.714 163.612 153.984 163.407C154.259 163.202 154.585 163.099 154.963 163.099C155.053 163.099 155.147 163.11 155.246 163.13C155.349 163.151 155.42 163.169 155.461 163.186V164.269C155.379 164.252 155.291 164.24 155.197 164.232C155.106 164.224 155.008 164.22 154.901 164.22C154.524 164.22 154.202 164.318 153.935 164.515C153.673 164.708 153.478 164.95 153.35 165.241V169.814H152.187ZM156.046 166.651V166.454C156.046 165.469 156.319 164.665 156.865 164.041C157.41 163.413 158.132 163.099 159.031 163.099C159.929 163.099 160.621 163.393 161.105 163.98C161.593 164.562 161.837 165.35 161.837 166.343V166.817H156.76V165.894H160.668V165.783C160.668 165.299 160.535 164.89 160.268 164.558C160.001 164.222 159.601 164.053 159.068 164.053C158.456 164.053 157.997 164.285 157.689 164.749C157.386 165.212 157.234 165.781 157.234 166.454V166.651C157.234 167.319 157.394 167.885 157.714 168.349C158.038 168.813 158.541 169.045 159.222 169.045C159.64 169.045 159.999 168.954 160.299 168.774C160.602 168.593 160.846 168.38 161.031 168.134L161.782 168.737C161.577 169.045 161.255 169.332 160.816 169.598C160.377 169.865 159.845 169.998 159.222 169.998C158.196 169.998 157.41 169.687 156.865 169.063C156.319 168.439 156.046 167.635 156.046 166.651ZM162.853 166.651V166.454C162.853 165.469 163.123 164.665 163.665 164.041C164.207 163.413 164.953 163.099 165.905 163.099C166.783 163.099 167.45 163.335 167.905 163.807C168.361 164.275 168.589 164.798 168.589 165.377V165.407H167.462V165.377C167.462 165.028 167.339 164.72 167.093 164.453C166.847 164.187 166.451 164.053 165.905 164.053C165.265 164.053 164.793 164.285 164.49 164.749C164.19 165.212 164.04 165.781 164.04 166.454V166.651C164.04 167.319 164.19 167.885 164.49 168.349C164.793 168.813 165.265 169.045 165.905 169.045C166.451 169.045 166.847 168.911 167.093 168.645C167.339 168.378 167.462 168.07 167.462 167.721V167.691H168.589V167.721C168.589 168.3 168.361 168.825 167.905 169.297C167.45 169.765 166.783 169.998 165.905 169.998C164.953 169.998 164.207 169.687 163.665 169.063C163.123 168.439 162.853 167.635 162.853 166.651ZM169.549 166.651V166.454C169.549 165.469 169.83 164.665 170.392 164.041C170.958 163.413 171.715 163.099 172.663 163.099C173.606 163.099 174.359 163.413 174.921 164.041C175.488 164.665 175.771 165.469 175.771 166.454V166.651C175.771 167.635 175.488 168.439 174.921 169.063C174.359 169.687 173.606 169.998 172.663 169.998C171.715 169.998 170.958 169.687 170.392 169.063C169.83 168.439 169.549 167.635 169.549 166.651ZM170.736 166.454V166.651C170.736 167.319 170.896 167.885 171.216 168.349C171.541 168.813 172.023 169.045 172.663 169.045C173.299 169.045 173.777 168.813 174.097 168.349C174.421 167.885 174.583 167.319 174.583 166.651V166.454C174.583 165.781 174.421 165.215 174.097 164.755C173.777 164.291 173.299 164.06 172.663 164.06C172.023 164.06 171.541 164.291 171.216 164.755C170.896 165.215 170.736 165.781 170.736 166.454ZM177.211 169.814V163.284H178.263L178.312 164.127H178.349C178.583 163.832 178.866 163.598 179.199 163.426C179.535 163.249 179.906 163.161 180.313 163.161C180.756 163.161 181.137 163.249 181.457 163.426C181.781 163.602 182.028 163.883 182.196 164.269H182.233C182.508 163.879 182.813 163.598 183.15 163.426C183.49 163.249 183.878 163.161 184.313 163.161C184.998 163.161 185.533 163.352 185.919 163.733C186.305 164.111 186.498 164.741 186.498 165.623V169.814H185.341V165.61C185.337 165.085 185.222 164.71 184.996 164.484C184.77 164.259 184.448 164.146 184.03 164.146C183.669 164.146 183.353 164.246 183.082 164.447C182.811 164.644 182.596 164.901 182.436 165.217V169.814H181.273V165.61C181.273 165.085 181.158 164.71 180.928 164.484C180.702 164.259 180.382 164.146 179.968 164.146C179.607 164.146 179.291 164.246 179.02 164.447C178.749 164.644 178.534 164.901 178.374 165.217V169.814H177.211ZM188.264 169.814V163.284H189.316L189.366 164.127H189.402C189.636 163.832 189.919 163.598 190.252 163.426C190.588 163.249 190.96 163.161 191.366 163.161C191.809 163.161 192.19 163.249 192.51 163.426C192.835 163.602 193.081 163.883 193.249 164.269H193.286C193.561 163.879 193.866 163.598 194.203 163.426C194.543 163.249 194.931 163.161 195.366 163.161C196.051 163.161 196.587 163.352 196.972 163.733C197.358 164.111 197.551 164.741 197.551 165.623V169.814H196.394V165.61C196.39 165.085 196.275 164.71 196.049 164.484C195.823 164.259 195.501 164.146 195.083 164.146C194.722 164.146 194.406 164.246 194.135 164.447C193.864 164.644 193.649 164.901 193.489 165.217V169.814H192.326V165.61C192.326 165.085 192.211 164.71 191.981 164.484C191.755 164.259 191.435 164.146 191.021 164.146C190.66 164.146 190.344 164.246 190.073 164.447C189.802 164.644 189.587 164.901 189.427 165.217V169.814H188.264ZM198.929 166.651V166.454C198.929 165.469 199.202 164.665 199.748 164.041C200.294 163.413 201.016 163.099 201.914 163.099C202.813 163.099 203.504 163.393 203.988 163.98C204.476 164.562 204.721 165.35 204.721 166.343V166.817H199.643V165.894H203.551V165.783C203.551 165.299 203.418 164.89 203.151 164.558C202.885 164.222 202.484 164.053 201.951 164.053C201.34 164.053 200.88 164.285 200.573 164.749C200.269 165.212 200.117 165.781 200.117 166.454V166.651C200.117 167.319 200.277 167.885 200.597 168.349C200.921 168.813 201.424 169.045 202.105 169.045C202.523 169.045 202.882 168.954 203.182 168.774C203.486 168.593 203.73 168.38 203.914 168.134L204.665 168.737C204.46 169.045 204.138 169.332 203.699 169.598C203.26 169.865 202.729 169.998 202.105 169.998C201.079 169.998 200.294 169.687 199.748 169.063C199.202 168.439 198.929 167.635 198.929 166.651ZM206.124 169.814V163.284H207.176L207.225 164.127H207.262C207.5 163.828 207.792 163.592 208.136 163.42C208.485 163.247 208.869 163.161 209.287 163.161C209.952 163.161 210.481 163.35 210.875 163.727C211.273 164.105 211.472 164.737 211.472 165.623V169.814H210.309V165.61C210.309 165.085 210.19 164.71 209.952 164.484C209.714 164.259 209.377 164.146 208.942 164.146C208.569 164.146 208.239 164.246 207.952 164.447C207.668 164.644 207.447 164.901 207.287 165.217V169.814H206.124ZM212.85 166.651V166.454C212.85 165.502 213.101 164.716 213.601 164.096C214.102 163.473 214.771 163.161 215.608 163.161C216.071 163.161 216.465 163.243 216.789 163.407C217.113 163.571 217.374 163.789 217.571 164.06V160.361H218.728V169.814H217.682L217.626 168.965H217.595C217.427 169.231 217.169 169.461 216.82 169.654C216.475 169.843 216.071 169.937 215.608 169.937C214.771 169.937 214.102 169.627 213.601 169.008C213.101 168.384 212.85 167.598 212.85 166.651ZM214.038 166.651C214.038 167.307 214.184 167.861 214.475 168.312C214.771 168.759 215.232 168.983 215.86 168.983C216.282 168.983 216.639 168.87 216.931 168.645C217.226 168.415 217.44 168.156 217.571 167.869V165.235C217.44 164.944 217.226 164.685 216.931 164.46C216.639 164.234 216.282 164.121 215.86 164.121C215.232 164.121 214.771 164.345 214.475 164.792C214.184 165.239 214.038 165.793 214.038 166.454V166.651ZM220.193 167.894C220.193 167.229 220.457 166.714 220.986 166.349C221.52 165.98 222.197 165.795 223.017 165.795H224.519V165.327C224.519 164.946 224.414 164.634 224.205 164.392C224 164.15 223.645 164.029 223.14 164.029C222.636 164.029 222.275 164.131 222.057 164.336C221.844 164.538 221.737 164.773 221.737 165.044V165.075H220.58V165.044C220.58 164.523 220.812 164.07 221.276 163.684C221.743 163.294 222.375 163.099 223.171 163.099C223.967 163.099 224.583 163.286 225.018 163.66C225.457 164.033 225.676 164.589 225.676 165.327V168.337C225.676 168.603 225.697 168.856 225.738 169.094C225.783 169.328 225.842 169.535 225.916 169.715V169.814H224.79C224.732 169.711 224.679 169.578 224.63 169.414C224.585 169.246 224.556 169.079 224.544 168.915C224.388 169.182 224.135 169.42 223.787 169.629C223.442 169.834 222.997 169.937 222.451 169.937C221.823 169.937 221.29 169.763 220.851 169.414C220.412 169.061 220.193 168.554 220.193 167.894ZM221.356 167.832C221.356 168.201 221.464 168.491 221.682 168.7C221.899 168.905 222.24 169.008 222.703 169.008C223.163 169.008 223.579 168.852 223.953 168.54C224.33 168.228 224.519 167.898 224.519 167.549V166.62H223.14C222.554 166.62 222.109 166.728 221.805 166.946C221.505 167.163 221.356 167.459 221.356 167.832ZM226.568 164.183V163.284H230.329V164.183H226.568ZM227.744 168.195V163.826V163.641V161.739H228.907V168.195C228.907 168.482 228.964 168.688 229.079 168.811C229.198 168.934 229.383 168.995 229.633 168.995C229.752 168.995 229.867 168.983 229.978 168.958C230.089 168.934 230.204 168.901 230.323 168.86V169.814C230.212 169.863 230.068 169.906 229.892 169.943C229.719 169.98 229.531 169.998 229.326 169.998C228.846 169.998 228.462 169.855 228.175 169.568C227.887 169.276 227.744 168.819 227.744 168.195ZM231.609 169.814V163.284H232.772V169.814H231.609ZM231.473 161.339C231.473 161.147 231.535 160.984 231.658 160.853C231.781 160.722 231.958 160.656 232.187 160.656C232.421 160.656 232.6 160.722 232.723 160.853C232.846 160.984 232.907 161.147 232.907 161.339C232.907 161.536 232.846 161.7 232.723 161.832C232.6 161.963 232.421 162.029 232.187 162.029C231.958 162.029 231.781 161.963 231.658 161.832C231.535 161.7 231.473 161.536 231.473 161.339ZM234.267 166.651V166.454C234.267 165.469 234.549 164.665 235.111 164.041C235.677 163.413 236.434 163.099 237.382 163.099C238.325 163.099 239.078 163.413 239.64 164.041C240.206 164.665 240.489 165.469 240.489 166.454V166.651C240.489 167.635 240.206 168.439 239.64 169.063C239.078 169.687 238.325 169.998 237.382 169.998C236.434 169.998 235.677 169.687 235.111 169.063C234.549 168.439 234.267 167.635 234.267 166.651ZM235.455 166.454V166.651C235.455 167.319 235.615 167.885 235.935 168.349C236.259 168.813 236.742 169.045 237.382 169.045C238.018 169.045 238.495 168.813 238.816 168.349C239.14 167.885 239.302 167.319 239.302 166.651V166.454C239.302 165.781 239.14 165.215 238.816 164.755C238.495 164.291 238.018 164.06 237.382 164.06C236.742 164.06 236.259 164.291 235.935 164.755C235.615 165.215 235.455 165.781 235.455 166.454ZM241.93 169.814V163.284H242.982L243.031 164.127H243.068C243.306 163.828 243.597 163.592 243.942 163.42C244.291 163.247 244.674 163.161 245.093 163.161C245.758 163.161 246.287 163.35 246.681 163.727C247.079 164.105 247.278 164.737 247.278 165.623V169.814H246.115V165.61C246.115 165.085 245.996 164.71 245.758 164.484C245.52 164.259 245.183 164.146 244.748 164.146C244.375 164.146 244.045 164.246 243.757 164.447C243.474 164.644 243.253 164.901 243.093 165.217V169.814H241.93Z" fill="#4E4B66"/>
<path d="M15.8602 125.084V106.453H21.1776V108.584H18.5506V122.953H21.1776V125.084H15.8602ZM28.6894 121.814V106.453H32.382L36.2539 116.866C36.3383 117.098 36.4122 117.323 36.4755 117.541C36.5458 117.759 36.6056 117.991 36.6548 118.237H36.7181C36.7673 117.991 36.8236 117.759 36.8869 117.541C36.9573 117.316 37.0346 117.091 37.119 116.866L40.991 106.453H44.7258V121.814H41.9299V111.612C41.9299 111.387 41.9335 111.133 41.9405 110.852C41.9475 110.571 41.9651 110.314 41.9932 110.082H41.9088C41.8737 110.314 41.8174 110.571 41.74 110.852C41.6697 111.126 41.5923 111.38 41.5079 111.612L37.7415 121.814H35.336L31.5801 111.612C31.4957 111.387 31.4148 111.13 31.3375 110.842C31.2601 110.546 31.2038 110.293 31.1687 110.082H31.0948C31.1159 110.293 31.13 110.546 31.137 110.842C31.1441 111.13 31.1476 111.387 31.1476 111.612V121.814H28.6894ZM47.0996 118.628C47.0996 117.467 47.5532 116.581 48.4606 115.969C49.3679 115.35 50.5214 115.041 51.921 115.041H54.221V114.355C54.221 113.806 54.0803 113.367 53.799 113.036C53.5177 112.705 53.0323 112.54 52.3431 112.54C51.6538 112.54 51.1579 112.681 50.8555 112.962C50.553 113.236 50.4018 113.574 50.4018 113.975V114.123H47.7115V113.964C47.7115 113.022 48.1441 112.234 49.0092 111.601C49.8813 110.961 51.0313 110.641 52.4591 110.641C53.8869 110.641 54.9947 110.947 55.7824 111.559C56.5772 112.164 56.9746 113.106 56.9746 114.386V119.335C56.9746 119.785 57.0098 120.21 57.0801 120.611C57.1575 121.012 57.2665 121.357 57.4072 121.645V121.814H54.7063C54.6149 121.645 54.534 121.427 54.4637 121.16C54.3933 120.892 54.3476 120.629 54.3265 120.368C54.0944 120.798 53.6794 121.181 53.0816 121.518C52.4908 121.849 51.7452 122.014 50.8449 122.014C49.7758 122.014 48.8826 121.729 48.1652 121.16C47.4548 120.59 47.0996 119.746 47.0996 118.628ZM49.8532 118.417C49.8532 118.944 50.0044 119.363 50.3069 119.672C50.6163 119.975 51.0911 120.126 51.7311 120.126C52.4064 120.126 52.9901 119.904 53.4825 119.461C53.9748 119.011 54.221 118.498 54.221 117.921V116.729H52.3642C51.5201 116.729 50.8906 116.876 50.4757 117.172C50.0607 117.46 49.8532 117.875 49.8532 118.417ZM58.4306 121.814L62.5979 115.642L63.0094 115.621L65.9529 110.947H68.6327L64.708 116.94L64.286 116.961L61.1209 121.814H58.4306ZM58.6943 110.947H61.7855L64.7502 115.621L64.8557 115.642L69.0019 121.814H65.9107L62.7773 116.929L62.6718 116.908L58.6943 110.947ZM70.5106 121.814V110.947H73.2748V121.814H70.5106ZM70.2574 107.708C70.2574 107.286 70.3981 106.931 70.6794 106.643C70.9678 106.347 71.3722 106.199 71.8927 106.199C72.4202 106.199 72.8246 106.347 73.106 106.643C73.3873 106.931 73.528 107.286 73.528 107.708C73.528 108.137 73.3838 108.499 73.0954 108.795C72.8141 109.083 72.4097 109.227 71.8822 109.227C71.3617 109.227 70.9608 109.083 70.6794 108.795C70.3981 108.499 70.2574 108.137 70.2574 107.708ZM76.0495 121.814V110.947H78.6449L78.7082 112.287H78.7609C79.1126 111.795 79.5627 111.411 80.1114 111.137C80.66 110.863 81.2613 110.726 81.9155 110.726C82.668 110.726 83.3186 110.884 83.8673 111.2C84.4229 111.51 84.8273 111.977 85.0805 112.603H85.1227C85.5236 111.977 86.0336 111.51 86.6525 111.2C87.2715 110.884 87.9432 110.726 88.6676 110.726C89.7649 110.726 90.6405 111.053 91.2946 111.707C91.9488 112.361 92.2758 113.455 92.2758 114.988V121.814H89.5222V114.946C89.5222 114.221 89.371 113.697 89.0685 113.374C88.7661 113.043 88.3265 112.878 87.7498 112.878C87.2433 112.871 86.8037 113.011 86.431 113.3C86.0582 113.581 85.7593 113.961 85.5342 114.439V121.814H82.7806V114.967C82.7806 114.228 82.6258 113.697 82.3164 113.374C82.0139 113.043 81.5708 112.878 80.987 112.878C80.4877 112.878 80.0516 113.018 79.6788 113.3C79.3131 113.574 79.0212 113.954 78.8031 114.439V121.814H76.0495ZM94.7868 117.773V110.947H97.5404V117.773C97.5404 118.561 97.7057 119.113 98.0363 119.429C98.3668 119.739 98.824 119.894 99.4078 119.894C99.9212 119.894 100.375 119.746 100.769 119.451C101.17 119.155 101.476 118.786 101.687 118.343V110.947H104.44V121.814H101.845L101.771 120.495H101.729C101.384 120.966 100.927 121.343 100.357 121.624C99.7946 121.898 99.1616 122.035 98.4583 122.035C97.3681 122.035 96.4819 121.708 95.7996 121.054C95.1244 120.4 94.7868 119.306 94.7868 117.773ZM107.173 121.814V110.947H109.768L109.831 112.287H109.884C110.236 111.795 110.686 111.411 111.235 111.137C111.783 110.863 112.385 110.726 113.039 110.726C113.791 110.726 114.442 110.884 114.991 111.2C115.546 111.51 115.951 111.977 116.204 112.603H116.246C116.647 111.977 117.157 111.51 117.776 111.2C118.395 110.884 119.066 110.726 119.791 110.726C120.888 110.726 121.764 111.053 122.418 111.707C123.072 112.361 123.399 113.455 123.399 114.988V121.814H120.645V114.946C120.645 114.221 120.494 113.697 120.192 113.374C119.889 113.043 119.45 112.878 118.873 112.878C118.367 112.871 117.927 113.011 117.554 113.3C117.181 113.581 116.883 113.961 116.657 114.439V121.814H113.904V114.967C113.904 114.228 113.749 113.697 113.44 113.374C113.137 113.043 112.694 112.878 112.11 112.878C111.611 112.878 111.175 113.018 110.802 113.3C110.436 113.574 110.144 113.954 109.926 114.439V121.814H107.173ZM135.901 125.084H130.584V122.953H133.211V108.584H130.584V106.453H135.901V125.084Z" fill="#BC66EE"/>
</g>
<path id="Label" d="M15.0296 22.0105V14.34H18.4219C18.7748 14.34 19.0989 14.4121 19.3942 14.5561C19.6967 14.7001 19.956 14.8946 20.172 15.1395C20.3953 15.3844 20.5646 15.6581 20.6798 15.9606C20.8022 16.2631 20.8634 16.5727 20.8634 16.8897C20.8634 17.2138 20.8058 17.5271 20.6906 17.8296C20.5826 18.1248 20.4241 18.3841 20.2152 18.6074C20.0064 18.8307 19.7615 19.0035 19.4806 19.126L21.2308 22.0105H19.5886L18.0113 19.4393H16.5205V22.0105H15.0296ZM16.5205 18.1321H18.3895C18.5767 18.1321 18.7424 18.078 18.8864 17.97C19.0305 17.8548 19.1457 17.7035 19.2321 17.5163C19.3186 17.329 19.3618 17.1201 19.3618 16.8897C19.3618 16.6448 19.3113 16.4323 19.2105 16.2522C19.1097 16.065 18.98 15.9173 18.8216 15.8093C18.6703 15.7013 18.5047 15.6473 18.3246 15.6473H16.5205V18.1321ZM28.6658 20.7033V22.0105H23.3397V14.34H28.5685V15.6473H24.8305V17.4946H28.0608V18.7046H24.8305V20.7033H28.6658ZM33.0385 14.34H34.551L37.3707 22.0105H35.8366L35.1236 20.0983H32.4443L31.7421 22.0105H30.208L33.0385 14.34ZM34.8535 19.0503L33.7948 15.8849L32.6928 19.0503H34.8535ZM39.3374 22.0105V14.34H42.1247C42.9602 14.34 43.6588 14.5129 44.2206 14.8586C44.7823 15.1971 45.2037 15.6581 45.4846 16.2414C45.7655 16.8176 45.9059 17.4586 45.9059 18.1645C45.9059 18.9423 45.751 19.6193 45.4413 20.1955C45.1316 20.7717 44.6923 21.2182 44.1233 21.5351C43.5615 21.852 42.8953 22.0105 42.1247 22.0105H39.3374ZM44.4042 18.1645C44.4042 17.6675 44.3142 17.2318 44.1341 16.8572C43.9541 16.4755 43.6948 16.1802 43.3563 15.9714C43.0178 15.7553 42.6072 15.6473 42.1247 15.6473H40.8283V20.7033H42.1247C42.6144 20.7033 43.0286 20.5952 43.3671 20.3792C43.7056 20.1559 43.9613 19.8534 44.1341 19.4717C44.3142 19.0828 44.4042 18.647 44.4042 18.1645ZM58.172 22.0105V16.9761L56.2058 20.7249H55.3739L53.4077 16.9761V22.0105H51.9168V14.34H53.5157L55.7845 18.7046L58.0748 14.34H59.6629V22.0105H58.172ZM65.6632 22.0645C65.1014 22.0645 64.59 21.9565 64.1291 21.7404C63.6753 21.5243 63.2828 21.2326 62.9515 20.8653C62.6274 20.4908 62.3753 20.0731 62.1953 19.6121C62.0152 19.144 61.9252 18.665 61.9252 18.1753C61.9252 17.6639 62.0188 17.1777 62.2061 16.7168C62.4005 16.2486 62.6634 15.8345 62.9947 15.4744C63.3332 15.1071 63.7294 14.819 64.1831 14.6101C64.644 14.394 65.1482 14.286 65.6956 14.286C66.2502 14.286 66.7543 14.3977 67.2081 14.6209C67.669 14.8442 68.0615 15.1431 68.3856 15.5176C68.7098 15.8921 68.9618 16.3099 69.1419 16.7708C69.3219 17.2318 69.412 17.7071 69.412 18.1969C69.412 18.701 69.3183 19.1872 69.1311 19.6553C68.9438 20.1163 68.6809 20.5304 68.3424 20.8977C68.0111 21.2579 67.615 21.5423 67.1541 21.7512C66.7003 21.9601 66.2033 22.0645 65.6632 22.0645ZM63.4377 18.1753C63.4377 18.5066 63.4881 18.8271 63.5889 19.1368C63.6897 19.4465 63.8338 19.7238 64.021 19.9686C64.2155 20.2063 64.4496 20.3972 64.7233 20.5412C65.0042 20.6781 65.3211 20.7465 65.674 20.7465C66.0341 20.7465 66.3546 20.6745 66.6355 20.5304C66.9164 20.3792 67.1505 20.1811 67.3377 19.9362C67.525 19.6841 67.6654 19.4069 67.759 19.1044C67.8599 18.7947 67.9103 18.485 67.9103 18.1753C67.9103 17.844 67.8563 17.5271 67.7482 17.2246C67.6474 16.9149 67.4998 16.6412 67.3053 16.4035C67.118 16.1586 66.884 15.9678 66.6031 15.8309C66.3294 15.6869 66.0197 15.6148 65.674 15.6148C65.3067 15.6148 64.9826 15.6905 64.7017 15.8417C64.428 15.9858 64.1975 16.1802 64.0102 16.4251C63.823 16.67 63.6789 16.9437 63.5781 17.2462C63.4845 17.5487 63.4377 17.8584 63.4377 18.1753ZM71.681 22.0105V14.34H75.0733C75.4262 14.34 75.7503 14.4121 76.0456 14.5561C76.3481 14.7001 76.6074 14.8946 76.8234 15.1395C77.0467 15.3844 77.216 15.6581 77.3312 15.9606C77.4536 16.2631 77.5149 16.5727 77.5149 16.8897C77.5149 17.2138 77.4572 17.5271 77.342 17.8296C77.234 18.1248 77.0755 18.3841 76.8667 18.6074C76.6578 18.8307 76.4129 19.0035 76.132 19.126L77.8822 22.0105H76.2401L74.6628 19.4393H73.1719V22.0105H71.681ZM73.1719 18.1321H75.0409C75.2281 18.1321 75.3938 18.078 75.5378 17.97C75.6819 17.8548 75.7971 17.7035 75.8835 17.5163C75.97 17.329 76.0132 17.1201 76.0132 16.8897C76.0132 16.6448 75.9628 16.4323 75.8619 16.2522C75.7611 16.065 75.6315 15.9173 75.473 15.8093C75.3218 15.7013 75.1561 15.6473 74.9761 15.6473H73.1719V18.1321ZM85.3172 20.7033V22.0105H79.9911V14.34H85.22V15.6473H81.482V17.4946H84.7122V18.7046H81.482V20.7033H85.3172Z" fill="white"/>
</g>
<rect x="1.35043" y="1.55747" width="297.096" height="196.263" rx="20.2565" stroke="url(#paint0_linear_965_3969)" stroke-width="2.70087"/>
</g>
<defs>
<linearGradient id="paint0_linear_965_3969" x1="149.898" y1="0.207031" x2="149.898" y2="199.171" gradientUnits="userSpaceOnUse">
<stop stop-color="white"/>
<stop offset="0.049011" stop-color="#D9DBE9"/>
<stop offset="0.95" stop-color="#D3D3D3"/>
<stop offset="1" stop-color="#7A7B83"/>
<stop offset="1" stop-color="#EDEDED"/>
</linearGradient>
<clipPath id="clip0_965_3969">
<rect y="0.207031" width="299.796" height="198.964" rx="21.6069" fill="white"/>
</clipPath>
</defs>
</svg>
