<svg width="227" height="58" viewBox="0 0 227 58" fill="none" xmlns="http://www.w3.org/2000/svg">
<path d="M56.0635 29C56.0635 34.5442 54.4194 39.9638 51.3393 44.5736C48.2591 49.1834 43.8811 52.7763 38.759 54.8979C33.6369 57.0196 28.0006 57.5747 22.563 56.4931C17.1254 55.4115 12.1306 52.7417 8.21031 48.8214C4.29 44.9011 1.62023 39.9063 0.538622 34.4687C-0.542989 29.0311 0.0121331 23.3948 2.13379 18.2727C4.25545 13.1506 7.84834 8.77263 12.4581 5.69246C17.0679 2.61229 22.4876 0.968262 28.0317 0.968262V6.57434C23.5964 6.57434 19.2606 7.88958 15.5727 10.3537C11.8848 12.8179 9.01048 16.3203 7.31313 20.4181C5.61579 24.5158 5.17168 29.0249 6.03698 33.375C6.90228 37.7252 9.03812 41.7211 12.1744 44.8573C15.3107 47.9936 19.3066 50.1295 23.6567 50.9948C28.0069 51.8601 32.5159 51.416 36.6137 49.7186C40.7114 48.0213 44.2138 45.1469 46.678 41.459C49.1422 37.7711 50.4574 33.4354 50.4574 29H56.0635Z" fill="white"/>
<rect width="16.819" height="5.60635" transform="translate(44.5703 29)" fill="white"/>
<rect width="26.3498" height="5.60635" transform="translate(50.4575 27.3179) rotate(-90)" fill="#BB65EA"/>
<rect width="26.3498" height="5.60635" transform="translate(29.7139 0.968262)" fill="#BB65EA"/>
<path d="M226.234 33.8999V36.4338H215.91V21.5659H226.045V24.0997H218.8V27.6806H225.061V30.0259H218.8V33.8999H226.234Z" fill="#AA81FB"/>
<path d="M206.739 36.5387C205.775 36.5387 204.861 36.3432 203.995 35.9523C203.144 35.5614 202.39 35.024 201.734 34.3399C201.092 33.6419 200.589 32.8322 200.226 31.9108C199.863 30.9894 199.682 29.9912 199.682 28.9163C199.682 27.8972 199.863 26.9409 200.226 26.0474C200.589 25.14 201.099 24.3442 201.755 23.6602C202.411 22.9761 203.179 22.4387 204.058 22.0478C204.938 21.6569 205.894 21.4614 206.927 21.4614C208.323 21.4614 209.517 21.7616 210.508 22.3619C211.513 22.9482 212.267 23.73 212.77 24.7072L210.613 26.2987C210.236 25.5588 209.705 24.9934 209.021 24.6025C208.351 24.2116 207.618 24.0162 206.822 24.0162C206.194 24.0162 205.622 24.1488 205.105 24.4141C204.589 24.6793 204.142 25.0423 203.765 25.503C203.388 25.9637 203.095 26.4942 202.886 27.0944C202.69 27.6947 202.592 28.3299 202.592 29C202.592 29.712 202.697 30.3682 202.906 30.9685C203.13 31.5688 203.437 32.0923 203.828 32.539C204.233 32.9857 204.7 33.3417 205.231 33.607C205.761 33.8583 206.348 33.9839 206.99 33.9839C207.744 33.9839 208.463 33.7885 209.147 33.3976C209.845 33.0067 210.494 32.4343 211.094 31.6804V34.5284C209.852 35.8686 208.4 36.5387 206.739 36.5387ZM210.885 30.9056H207.89V28.7906H213.272V36.434H210.885V30.9056Z" fill="#AA81FB"/>
<path d="M185.396 36.4338V21.5659H190.799C192.418 21.5659 193.772 21.901 194.861 22.5711C195.95 23.2272 196.767 24.1207 197.311 25.2515C197.856 26.3683 198.128 27.6108 198.128 28.9789C198.128 30.4866 197.828 31.7989 197.227 32.9157C196.627 34.0326 195.776 34.8981 194.673 35.5124C193.584 36.1266 192.292 36.4338 190.799 36.4338H185.396ZM195.217 28.9789C195.217 28.0156 195.043 27.171 194.694 26.4451C194.345 25.7052 193.842 25.1328 193.186 24.7279C192.53 24.3091 191.734 24.0997 190.799 24.0997H188.286V33.8999H190.799C191.748 33.8999 192.551 33.6905 193.207 33.2717C193.863 32.8389 194.359 32.2526 194.694 31.5127C195.043 30.7588 195.217 29.9142 195.217 28.9789Z" fill="#AA81FB"/>
<path d="M182.968 33.8999V36.4338H172.644V21.5659H182.779V24.0997H175.534V27.6806H181.795V30.0259H175.534V33.8999H182.968Z" fill="#AA81FB"/>
<path d="M164.161 21.5659V36.4338H161.292V30.0887H154.549V36.4338H151.66V21.5659H154.549V27.5759H161.292V21.5659H164.161Z" fill="white"/>
<path d="M149.639 24.0997H144.885V36.4338H142.016V24.0997H137.263V21.5659H149.639V24.0997Z" fill="white"/>
<path d="M121.388 21.6078H124.068L125.764 26.5288L127.481 21.6078H130.141L127.586 28.3716L129.471 33.1042L133.68 21.5659H136.821L130.874 36.4338H128.382L125.764 30.1934L123.168 36.4338H120.676L114.75 21.5659H117.849L122.079 33.1042L123.921 28.3716L121.388 21.6078Z" fill="white"/>
<path d="M107.234 36.5387C106.145 36.5387 105.154 36.3293 104.26 35.9104C103.381 35.4916 102.62 34.9262 101.978 34.2143C101.349 33.4883 100.861 32.6786 100.512 31.7851C100.163 30.8777 99.9883 29.9494 99.9883 29C99.9883 28.0089 100.17 27.0665 100.533 26.1731C100.91 25.2656 101.419 24.4629 102.061 23.7649C102.718 23.0529 103.485 22.4945 104.365 22.0896C105.258 21.6708 106.236 21.4614 107.297 21.4614C108.372 21.4614 109.349 21.6778 110.228 22.1106C111.122 22.5434 111.883 23.1227 112.511 23.8487C113.139 24.5746 113.628 25.3843 113.977 26.2778C114.326 27.1712 114.5 28.0926 114.5 29.0419C114.5 30.0192 114.319 30.9615 113.956 31.8689C113.593 32.7624 113.083 33.5651 112.427 34.2771C111.785 34.9751 111.017 35.5265 110.124 35.9314C109.244 36.3362 108.281 36.5387 107.234 36.5387ZM102.92 29C102.92 29.6422 103.018 30.2635 103.213 30.8638C103.409 31.4641 103.688 32.0015 104.051 32.4762C104.428 32.9369 104.881 33.3068 105.412 33.586C105.956 33.8513 106.571 33.9839 107.255 33.9839C107.953 33.9839 108.574 33.8443 109.118 33.5651C109.663 33.2719 110.117 32.888 110.48 32.4134C110.842 31.9248 111.115 31.3873 111.296 30.8009C111.492 30.2006 111.589 29.6003 111.589 29C111.589 28.3579 111.485 27.7436 111.275 27.1573C111.08 26.557 110.794 26.0265 110.417 25.5658C110.054 25.0911 109.6 24.7212 109.056 24.4559C108.525 24.1767 107.925 24.0371 107.255 24.0371C106.543 24.0371 105.914 24.1837 105.37 24.4769C104.84 24.7561 104.393 25.133 104.03 25.6077C103.667 26.0823 103.388 26.6128 103.192 27.1992C103.011 27.7855 102.92 28.3858 102.92 29Z" fill="white"/>
<path d="M86.8687 36.4338V21.5659H93.444C94.1281 21.5659 94.7563 21.7055 95.3287 21.9847C95.915 22.2639 96.4176 22.6409 96.8364 23.1155C97.2692 23.5902 97.5972 24.1207 97.8206 24.707C98.0579 25.2933 98.1766 25.8936 98.1766 26.5079C98.1766 27.1361 98.0649 27.7434 97.8415 28.3297C97.6321 28.9021 97.325 29.4047 96.9201 29.8375C96.5153 30.2702 96.0406 30.6053 95.4962 30.8426L98.8886 36.4338H95.7056L92.6483 31.4499H89.7585V36.4338H86.8687ZM89.7585 28.9161H93.3812C93.7442 28.9161 94.0652 28.8114 94.3444 28.602C94.6237 28.3786 94.847 28.0854 95.0145 27.7225C95.1821 27.3595 95.2658 26.9546 95.2658 26.5079C95.2658 26.0332 95.1681 25.6214 94.9727 25.2724C94.7772 24.9094 94.5259 24.6232 94.2188 24.4138C93.9256 24.2044 93.6045 24.0997 93.2555 24.0997H89.7585V28.9161Z" fill="white"/>
<path d="M77.6971 36.5387C76.7339 36.5387 75.8194 36.3432 74.9539 35.9523C74.1023 35.5614 73.3485 35.024 72.6923 34.3399C72.0501 33.6419 71.5476 32.8322 71.1846 31.9108C70.8216 30.9894 70.6401 29.9912 70.6401 28.9163C70.6401 27.8972 70.8216 26.9409 71.1846 26.0474C71.5476 25.14 72.0571 24.3442 72.7133 23.6602C73.3694 22.9761 74.1372 22.4387 75.0167 22.0478C75.8962 21.6569 76.8525 21.4614 77.8856 21.4614C79.2816 21.4614 80.4752 21.7616 81.4664 22.3619C82.4716 22.9482 83.2254 23.73 83.728 24.7072L81.5711 26.2987C81.1942 25.5588 80.6637 24.9934 79.9796 24.6025C79.3095 24.2116 78.5766 24.0162 77.7809 24.0162C77.1527 24.0162 76.5803 24.1488 76.0638 24.4141C75.5472 24.6793 75.1005 25.0423 74.7236 25.503C74.3466 25.9637 74.0535 26.4942 73.844 27.0944C73.6486 27.6947 73.5509 28.3299 73.5509 29C73.5509 29.712 73.6556 30.3682 73.865 30.9685C74.0884 31.5688 74.3955 32.0923 74.7864 32.539C75.1912 32.9857 75.6589 33.3417 76.1894 33.607C76.7199 33.8583 77.3062 33.9839 77.9484 33.9839C78.7023 33.9839 79.4212 33.7885 80.1053 33.3976C80.8033 33.0067 81.4525 32.4343 82.0528 31.6804V34.5284C80.8103 35.8686 79.3584 36.5387 77.6971 36.5387ZM81.8434 30.9056H78.8489V28.7906H84.2306V36.434H81.8434V30.9056Z" fill="white"/>
</svg>
