<svg width="32" height="32" viewBox="0 0 32 32" fill="none" xmlns="http://www.w3.org/2000/svg">
<g clip-path="url(#clip0_434_1953)">
<path d="M22.0001 14H20.7401C20.366 12.551 19.5929 11.236 18.5088 10.2044C17.4246 9.1728 16.0728 8.46599 14.607 8.16428C13.1412 7.86256 11.6202 7.97804 10.2168 8.49759C8.81332 9.01714 7.58375 9.91993 6.66776 11.1034C5.75177 12.2868 5.1861 13.7035 5.03502 15.1924C4.88393 16.6812 5.1535 18.1826 5.81309 19.526C6.47267 20.8693 7.49583 22.0007 8.76629 22.7916C10.0368 23.5824 11.5036 24.0011 13.0001 24H22.0001C23.3262 24 24.598 23.4732 25.5356 22.5355C26.4733 21.5979 27.0001 20.3261 27.0001 19C27.0001 17.6739 26.4733 16.4021 25.5356 15.4645C24.598 14.5268 23.3262 14 22.0001 14Z" stroke="#BB65EA" stroke-width="3" stroke-linecap="round" stroke-linejoin="round"/>
</g>
<defs>
<clipPath id="clip0_434_1953">
<rect width="24" height="24" fill="white" transform="translate(4 4)"/>
</clipPath>
</defs>
</svg>
