<svg width="33" height="33" viewBox="0 0 33 33" fill="none" xmlns="http://www.w3.org/2000/svg">
<path d="M10.8998 2.81592H22.0998C26.3665 2.81592 29.8332 6.28258 29.8332 10.5493V21.7493C29.8332 23.8003 29.0184 25.7673 27.5681 27.2175C26.1178 28.6678 24.1508 29.4826 22.0998 29.4826H10.8998C6.63317 29.4826 3.1665 26.0159 3.1665 21.7493V10.5493C3.1665 8.49824 3.98126 6.53124 5.43154 5.08096C6.88183 3.63068 8.84883 2.81592 10.8998 2.81592ZM10.6332 5.48258C9.36013 5.48258 8.13923 5.9883 7.23906 6.88847C6.33888 7.78865 5.83317 9.00954 5.83317 10.2826V22.0159C5.83317 24.6692 7.97984 26.8159 10.6332 26.8159H22.3665C23.6395 26.8159 24.8604 26.3102 25.7606 25.41C26.6608 24.5099 27.1665 23.289 27.1665 22.0159V10.2826C27.1665 7.62925 25.0198 5.48258 22.3665 5.48258H10.6332ZM23.4998 7.48258C23.9419 7.48258 24.3658 7.65818 24.6783 7.97074C24.9909 8.2833 25.1665 8.70722 25.1665 9.14925C25.1665 9.59128 24.9909 10.0152 24.6783 10.3278C24.3658 10.6403 23.9419 10.8159 23.4998 10.8159C23.0578 10.8159 22.6339 10.6403 22.3213 10.3278C22.0088 10.0152 21.8332 9.59128 21.8332 9.14925C21.8332 8.70722 22.0088 8.2833 22.3213 7.97074C22.6339 7.65818 23.0578 7.48258 23.4998 7.48258ZM16.4998 9.48258C18.2679 9.48258 19.9636 10.185 21.2139 11.4352C22.4641 12.6854 23.1665 14.3811 23.1665 16.1493C23.1665 17.9174 22.4641 19.6131 21.2139 20.8633C19.9636 22.1135 18.2679 22.8159 16.4998 22.8159C14.7317 22.8159 13.036 22.1135 11.7858 20.8633C10.5355 19.6131 9.83317 17.9174 9.83317 16.1493C9.83317 14.3811 10.5355 12.6854 11.7858 11.4352C13.036 10.185 14.7317 9.48258 16.4998 9.48258ZM16.4998 12.1493C15.439 12.1493 14.4216 12.5707 13.6714 13.3208C12.9213 14.071 12.4998 15.0884 12.4998 16.1493C12.4998 17.2101 12.9213 18.2275 13.6714 18.9777C14.4216 19.7278 15.439 20.1493 16.4998 20.1493C17.5607 20.1493 18.5781 19.7278 19.3283 18.9777C20.0784 18.2275 20.4998 17.2101 20.4998 16.1493C20.4998 15.0884 20.0784 14.071 19.3283 13.3208C18.5781 12.5707 17.5607 12.1493 16.4998 12.1493Z" fill="white"/>
</svg>
